<svg width="312" height="176" viewBox="0 0 312 176" fill="none" xmlns="http://www.w3.org/2000/svg">
<g clip-path="url(#clip0_756_4339)">
<rect width="312" height="176" rx="40" fill="#1F1F1F"/>
<rect width="312" height="176" rx="40" fill="#8437CA"/>
<path d="M30.58 57.5C31.54 57.5 32.338 57.668 32.974 58.004C33.622 58.34 34.132 58.802 34.504 59.39C34.888 59.966 35.158 60.632 35.314 61.388C35.482 62.144 35.566 62.936 35.566 63.764V64.628C35.566 66.704 35.05 68.306 34.018 69.434C32.986 70.55 31.492 71.108 29.536 71.108C29.068 71.108 28.672 71.096 28.348 71.072C28.024 71.048 27.67 71.012 27.286 70.964V69.488C27.682 69.536 28.048 69.572 28.384 69.596C28.72 69.62 29.128 69.632 29.608 69.632C30.7 69.632 31.564 69.428 32.2 69.02C32.836 68.612 33.292 68.03 33.568 67.274C33.844 66.506 33.982 65.582 33.982 64.502V63.692L34.414 62.09C34.402 63.038 34.216 63.824 33.856 64.448C33.508 65.072 33.022 65.54 32.398 65.852C31.786 66.164 31.078 66.32 30.274 66.32C29.338 66.32 28.546 66.134 27.898 65.762C27.25 65.378 26.758 64.856 26.422 64.196C26.098 63.536 25.936 62.786 25.936 61.946C25.936 61.094 26.11 60.332 26.458 59.66C26.806 58.988 27.322 58.46 28.006 58.076C28.702 57.692 29.56 57.5 30.58 57.5ZM30.58 59.012C29.92 59.012 29.368 59.138 28.924 59.39C28.48 59.642 28.144 59.99 27.916 60.434C27.7 60.866 27.592 61.37 27.592 61.946C27.592 62.522 27.7 63.032 27.916 63.476C28.132 63.92 28.45 64.268 28.87 64.52C29.302 64.76 29.83 64.88 30.454 64.88C31.066 64.88 31.612 64.766 32.092 64.538C32.584 64.31 32.968 63.98 33.244 63.548C33.52 63.104 33.658 62.564 33.658 61.928C33.658 61.4 33.55 60.914 33.334 60.47C33.118 60.026 32.782 59.672 32.326 59.408C31.87 59.144 31.288 59.012 30.58 59.012ZM37.7292 67.886V65.762L43.1832 57.536L44.3892 58.49L39.2952 66.194L39.4572 66.518H47.9532V67.886H37.7292ZM44.5872 71V61.694H46.2072V71H44.5872ZM52.0861 71V58.724L52.8781 59.336H49.1701V57.86H53.8141V71H52.0861ZM57.2867 71V68.804H59.3747V71H57.2867ZM67.3796 71.324C66.3956 71.324 65.5556 71.156 64.8596 70.82C64.1756 70.472 63.6176 70.004 63.1856 69.416C62.7656 68.828 62.4596 68.15 62.2676 67.382C62.0756 66.602 61.9796 65.78 61.9796 64.916V63.944C61.9796 62.732 62.1656 61.64 62.5376 60.668C62.9216 59.696 63.5096 58.928 64.3016 58.364C65.1056 57.788 66.1316 57.5 67.3796 57.5C68.6276 57.5 69.6476 57.788 70.4396 58.364C71.2316 58.928 71.8136 59.696 72.1856 60.668C72.5696 61.64 72.7616 62.732 72.7616 63.944V64.916C72.7616 65.78 72.6656 66.602 72.4736 67.382C72.2816 68.15 71.9696 68.828 71.5376 69.416C71.1176 70.004 70.5656 70.472 69.8816 70.82C69.1976 71.156 68.3636 71.324 67.3796 71.324ZM67.3796 69.74C68.6276 69.74 69.5396 69.32 70.1156 68.48C70.7036 67.628 70.9976 66.284 70.9976 64.448C70.9976 62.528 70.6976 61.154 70.0976 60.326C69.5096 59.498 68.6036 59.084 67.3796 59.084C66.1436 59.084 65.2256 59.498 64.6256 60.326C64.0376 61.154 63.7436 62.516 63.7436 64.412C63.7436 66.26 64.0376 67.61 64.6256 68.462C65.2136 69.314 66.1316 69.74 67.3796 69.74ZM80.7565 71.324C79.7725 71.324 78.9325 71.156 78.2365 70.82C77.5525 70.472 76.9945 70.004 76.5625 69.416C76.1425 68.828 75.8365 68.15 75.6445 67.382C75.4525 66.602 75.3565 65.78 75.3565 64.916V63.944C75.3565 62.732 75.5425 61.64 75.9145 60.668C76.2985 59.696 76.8865 58.928 77.6785 58.364C78.4825 57.788 79.5085 57.5 80.7565 57.5C82.0045 57.5 83.0245 57.788 83.8165 58.364C84.6085 58.928 85.1905 59.696 85.5625 60.668C85.9465 61.64 86.1385 62.732 86.1385 63.944V64.916C86.1385 65.78 86.0425 66.602 85.8505 67.382C85.6585 68.15 85.3465 68.828 84.9145 69.416C84.4945 70.004 83.9425 70.472 83.2585 70.82C82.5745 71.156 81.7405 71.324 80.7565 71.324ZM80.7565 69.74C82.0045 69.74 82.9165 69.32 83.4925 68.48C84.0805 67.628 84.3745 66.284 84.3745 64.448C84.3745 62.528 84.0745 61.154 83.4745 60.326C82.8865 59.498 81.9805 59.084 80.7565 59.084C79.5205 59.084 78.6025 59.498 78.0025 60.326C77.4145 61.154 77.1205 62.516 77.1205 64.412C77.1205 66.26 77.4145 67.61 78.0025 68.462C78.5905 69.314 79.5085 69.74 80.7565 69.74Z" fill="#EAEAEA"/>
<path d="M27.48 45V38.38H28.46V45H27.48ZM25.26 38.58V37.7H30.68V38.58H25.26ZM33.673 45.18C33.2063 45.18 32.7963 45.1 32.443 44.94C32.0896 44.78 31.7896 44.57 31.543 44.31C31.303 44.0433 31.1196 43.7467 30.993 43.42C30.873 43.0933 30.813 42.76 30.813 42.42V42.24C30.813 41.9 30.8763 41.5667 31.003 41.24C31.1296 40.9067 31.3163 40.61 31.563 40.35C31.8096 40.0833 32.1096 39.8733 32.463 39.72C32.8163 39.56 33.2196 39.48 33.673 39.48C34.1263 39.48 34.5296 39.56 34.883 39.72C35.2363 39.8733 35.5363 40.0833 35.783 40.35C36.0296 40.61 36.2163 40.9067 36.343 41.24C36.4696 41.5667 36.533 41.9 36.533 42.24V42.42C36.533 42.76 36.4696 43.0933 36.343 43.42C36.223 43.7467 36.0396 44.0433 35.793 44.31C35.553 44.57 35.2563 44.78 34.903 44.94C34.5496 45.1 34.1396 45.18 33.673 45.18ZM33.673 44.32C34.073 44.32 34.413 44.2333 34.693 44.06C34.9796 43.88 35.1963 43.64 35.343 43.34C35.4963 43.04 35.573 42.7033 35.573 42.33C35.573 41.95 35.4963 41.61 35.343 41.31C35.1896 41.01 34.9696 40.7733 34.683 40.6C34.403 40.4267 34.0663 40.34 33.673 40.34C33.2863 40.34 32.9496 40.4267 32.663 40.6C32.3763 40.7733 32.1563 41.01 32.003 41.31C31.8496 41.61 31.773 41.95 31.773 42.33C31.773 42.7033 31.8463 43.04 31.993 43.34C32.1463 43.64 32.363 43.88 32.643 44.06C32.9296 44.2333 33.273 44.32 33.673 44.32ZM40.0508 45.06C39.6508 45.06 39.3041 45.0033 39.0108 44.89C38.7241 44.7767 38.5008 44.5833 38.3408 44.31C38.1874 44.03 38.1108 43.6533 38.1108 43.18V38.04H39.0308V43.3C39.0308 43.5867 39.1074 43.81 39.2608 43.97C39.4208 44.1233 39.6441 44.2 39.9308 44.2H40.8708V45.06H40.0508ZM37.1908 40.38V39.66H40.8708V40.38H37.1908ZM45.4391 45V43.4H45.2791V41.55C45.2791 41.1833 45.1824 40.9067 44.9891 40.72C44.8024 40.5333 44.5257 40.44 44.1591 40.44C43.9524 40.44 43.7391 40.4433 43.5191 40.45C43.2991 40.4567 43.0891 40.4633 42.8891 40.47C42.6891 40.4767 42.5157 40.4867 42.3691 40.5V39.66C42.5157 39.6467 42.6691 39.6367 42.8291 39.63C42.9957 39.6167 43.1657 39.61 43.3391 39.61C43.5124 39.6033 43.6791 39.6 43.8391 39.6C44.3857 39.6 44.8324 39.6667 45.1791 39.8C45.5257 39.9267 45.7824 40.1367 45.9491 40.43C46.1157 40.7233 46.1991 41.12 46.1991 41.62V45H45.4391ZM43.6891 45.14C43.2891 45.14 42.9424 45.0733 42.6491 44.94C42.3624 44.8 42.1391 44.6 41.9791 44.34C41.8257 44.08 41.7491 43.7667 41.7491 43.4C41.7491 43.02 41.8324 42.7033 41.9991 42.45C42.1724 42.1967 42.4224 42.0067 42.7491 41.88C43.0757 41.7467 43.4691 41.68 43.9291 41.68H45.3791V42.4H43.8891C43.5024 42.4 43.2057 42.4933 42.9991 42.68C42.7924 42.8667 42.6891 43.1067 42.6891 43.4C42.6891 43.6933 42.7924 43.93 42.9991 44.11C43.2057 44.29 43.5024 44.38 43.8891 44.38C44.1157 44.38 44.3324 44.34 44.5391 44.26C44.7457 44.1733 44.9157 44.0333 45.0491 43.84C45.1891 43.64 45.2657 43.3667 45.2791 43.02L45.5391 43.4C45.5057 43.78 45.4124 44.1 45.2591 44.36C45.1124 44.6133 44.9057 44.8067 44.6391 44.94C44.3791 45.0733 44.0624 45.14 43.6891 45.14ZM48.021 45V37.7H48.981V45H48.021ZM47.281 38.46V37.7H48.981V38.46H47.281ZM54.0177 45.04V44.18H56.0577C56.4511 44.18 56.7544 44.07 56.9677 43.85C57.1877 43.6233 57.2977 43.3233 57.2977 42.95C57.2977 42.57 57.1911 42.2733 56.9777 42.06C56.7644 41.84 56.4577 41.73 56.0577 41.73H54.0177V41.09H55.9177C56.3844 41.09 56.7944 41.1467 57.1477 41.26C57.5077 41.3733 57.7877 41.5633 57.9877 41.83C58.1944 42.09 58.2977 42.4467 58.2977 42.9V43.04C58.2977 43.4667 58.2111 43.83 58.0377 44.13C57.8644 44.4233 57.6011 44.65 57.2477 44.81C56.8944 44.9633 56.4511 45.04 55.9177 45.04H54.0177ZM53.2377 45.04V37.66H54.2177V45.04H53.2377ZM54.0177 41.55V40.91H55.7877C56.2011 40.91 56.5044 40.8 56.6977 40.58C56.8977 40.3533 56.9977 40.0667 56.9977 39.72C56.9977 39.3667 56.8977 39.08 56.6977 38.86C56.5044 38.6333 56.2011 38.52 55.7877 38.52H54.0177V37.66H55.6177C56.4177 37.66 57.0144 37.83 57.4077 38.17C57.8011 38.5033 57.9977 38.9867 57.9977 39.62V39.76C57.9977 40.2067 57.8977 40.5633 57.6977 40.83C57.4977 41.09 57.2177 41.2767 56.8577 41.39C56.5044 41.4967 56.0911 41.55 55.6177 41.55H54.0177ZM63.1246 45V43.4H62.9646V41.55C62.9646 41.1833 62.8679 40.9067 62.6746 40.72C62.4879 40.5333 62.2113 40.44 61.8446 40.44C61.6379 40.44 61.4246 40.4433 61.2046 40.45C60.9846 40.4567 60.7746 40.4633 60.5746 40.47C60.3746 40.4767 60.2013 40.4867 60.0546 40.5V39.66C60.2013 39.6467 60.3546 39.6367 60.5146 39.63C60.6813 39.6167 60.8513 39.61 61.0246 39.61C61.1979 39.6033 61.3646 39.6 61.5246 39.6C62.0713 39.6 62.5179 39.6667 62.8646 39.8C63.2113 39.9267 63.4679 40.1367 63.6346 40.43C63.8013 40.7233 63.8846 41.12 63.8846 41.62V45H63.1246ZM61.3746 45.14C60.9746 45.14 60.6279 45.0733 60.3346 44.94C60.0479 44.8 59.8246 44.6 59.6646 44.34C59.5113 44.08 59.4346 43.7667 59.4346 43.4C59.4346 43.02 59.5179 42.7033 59.6846 42.45C59.8579 42.1967 60.1079 42.0067 60.4346 41.88C60.7613 41.7467 61.1546 41.68 61.6146 41.68H63.0646V42.4H61.5746C61.1879 42.4 60.8913 42.4933 60.6846 42.68C60.4779 42.8667 60.3746 43.1067 60.3746 43.4C60.3746 43.6933 60.4779 43.93 60.6846 44.11C60.8913 44.29 61.1879 44.38 61.5746 44.38C61.8013 44.38 62.0179 44.34 62.2246 44.26C62.4313 44.1733 62.6013 44.0333 62.7346 43.84C62.8746 43.64 62.9513 43.3667 62.9646 43.02L63.2246 43.4C63.1913 43.78 63.0979 44.1 62.9446 44.36C62.7979 44.6133 62.5913 44.8067 62.3246 44.94C62.0646 45.0733 61.7479 45.14 61.3746 45.14ZM65.7066 45V37.7H66.6666V45H65.7066ZM64.9666 38.46V37.7H66.6666V38.46H64.9666ZM71.7379 45V43.4H71.5779V41.55C71.5779 41.1833 71.4812 40.9067 71.2879 40.72C71.1012 40.5333 70.8246 40.44 70.4579 40.44C70.2512 40.44 70.0379 40.4433 69.8179 40.45C69.5979 40.4567 69.3879 40.4633 69.1879 40.47C68.9879 40.4767 68.8146 40.4867 68.6679 40.5V39.66C68.8146 39.6467 68.9679 39.6367 69.1279 39.63C69.2946 39.6167 69.4646 39.61 69.6379 39.61C69.8112 39.6033 69.9779 39.6 70.1379 39.6C70.6846 39.6 71.1312 39.6667 71.4779 39.8C71.8246 39.9267 72.0812 40.1367 72.2479 40.43C72.4146 40.7233 72.4979 41.12 72.4979 41.62V45H71.7379ZM69.9879 45.14C69.5879 45.14 69.2412 45.0733 68.9479 44.94C68.6612 44.8 68.4379 44.6 68.2779 44.34C68.1246 44.08 68.0479 43.7667 68.0479 43.4C68.0479 43.02 68.1312 42.7033 68.2979 42.45C68.4712 42.1967 68.7212 42.0067 69.0479 41.88C69.3746 41.7467 69.7679 41.68 70.2279 41.68H71.6779V42.4H70.1879C69.8012 42.4 69.5046 42.4933 69.2979 42.68C69.0912 42.8667 68.9879 43.1067 68.9879 43.4C68.9879 43.6933 69.0912 43.93 69.2979 44.11C69.5046 44.29 69.8012 44.38 70.1879 44.38C70.4146 44.38 70.6312 44.34 70.8379 44.26C71.0446 44.1733 71.2146 44.0333 71.3479 43.84C71.4879 43.64 71.5646 43.3667 71.5779 43.02L71.8379 43.4C71.8046 43.78 71.7112 44.1 71.5579 44.36C71.4112 44.6133 71.2046 44.8067 70.9379 44.94C70.6779 45.0733 70.3612 45.14 69.9879 45.14ZM74.2598 45V39.66H75.0198V41.95H74.8998C74.8998 41.4233 74.9698 40.98 75.1098 40.62C75.2565 40.2533 75.4765 39.9767 75.7698 39.79C76.0632 39.5967 76.4332 39.5 76.8798 39.5H76.9198C77.5932 39.5 78.0898 39.71 78.4098 40.13C78.7365 40.55 78.8998 41.1567 78.8998 41.95V45H77.9398V41.75C77.9398 41.3367 77.8232 41.0067 77.5898 40.76C77.3565 40.5067 77.0365 40.38 76.6298 40.38C76.2098 40.38 75.8698 40.51 75.6098 40.77C75.3498 41.03 75.2198 41.3767 75.2198 41.81V45H74.2598ZM82.9463 45.18C82.4863 45.18 82.0863 45.1 81.7463 44.94C81.413 44.78 81.1363 44.5667 80.9163 44.3C80.6963 44.0267 80.5297 43.7267 80.4163 43.4C80.3097 43.0733 80.2563 42.7467 80.2563 42.42V42.24C80.2563 41.9 80.3097 41.5667 80.4163 41.24C80.5297 40.9133 80.6963 40.62 80.9163 40.36C81.143 40.0933 81.423 39.88 81.7563 39.72C82.0897 39.56 82.4797 39.48 82.9263 39.48C83.373 39.48 83.773 39.5633 84.1263 39.73C84.4863 39.8967 84.773 40.1333 84.9863 40.44C85.2063 40.74 85.3297 41.0967 85.3563 41.51H84.4363C84.3897 41.1767 84.2363 40.9 83.9763 40.68C83.7163 40.4533 83.3663 40.34 82.9263 40.34C82.5463 40.34 82.2297 40.4267 81.9763 40.6C81.723 40.7733 81.533 41.01 81.4063 41.31C81.2797 41.61 81.2163 41.95 81.2163 42.33C81.2163 42.6967 81.2797 43.0333 81.4063 43.34C81.533 43.64 81.723 43.88 81.9763 44.06C82.2363 44.2333 82.5597 44.32 82.9463 44.32C83.2463 44.32 83.5063 44.2667 83.7263 44.16C83.9463 44.0533 84.123 43.91 84.2563 43.73C84.3897 43.55 84.4697 43.3467 84.4963 43.12H85.4163C85.3963 43.54 85.273 43.9033 85.0463 44.21C84.8263 44.5167 84.533 44.7567 84.1663 44.93C83.8063 45.0967 83.3997 45.18 82.9463 45.18ZM88.9908 45.18C88.5241 45.18 88.1208 45.1 87.7808 44.94C87.4408 44.78 87.1641 44.57 86.9508 44.31C86.7374 44.0433 86.5774 43.7467 86.4708 43.42C86.3708 43.0933 86.3208 42.76 86.3208 42.42V42.24C86.3208 41.8933 86.3708 41.5567 86.4708 41.23C86.5774 40.9033 86.7374 40.61 86.9508 40.35C87.1641 40.0833 87.4341 39.8733 87.7608 39.72C88.0941 39.56 88.4841 39.48 88.9308 39.48C89.5108 39.48 89.9874 39.6067 90.3608 39.86C90.7408 40.1067 91.0208 40.4267 91.2008 40.82C91.3874 41.2133 91.4808 41.6333 91.4808 42.08V42.51H86.7408V41.79H90.7808L90.5608 42.18C90.5608 41.8 90.5008 41.4733 90.3808 41.2C90.2608 40.92 90.0808 40.7033 89.8408 40.55C89.6008 40.3967 89.2974 40.32 88.9308 40.32C88.5508 40.32 88.2341 40.4067 87.9808 40.58C87.7341 40.7533 87.5474 40.99 87.4208 41.29C87.3008 41.59 87.2408 41.9367 87.2408 42.33C87.2408 42.71 87.3008 43.0533 87.4208 43.36C87.5474 43.66 87.7408 43.9 88.0008 44.08C88.2608 44.2533 88.5908 44.34 88.9908 44.34C89.4108 44.34 89.7508 44.2467 90.0108 44.06C90.2774 43.8733 90.4374 43.6567 90.4908 43.41H91.3908C91.3174 43.7767 91.1708 44.0933 90.9508 44.36C90.7308 44.6267 90.4541 44.83 90.1208 44.97C89.7874 45.11 89.4108 45.18 88.9908 45.18ZM95.6392 47V37.7H96.4992V47H95.6392ZM104.535 45.18C103.968 45.18 103.455 45.0867 102.995 44.9C102.535 44.7133 102.138 44.45 101.805 44.11C101.478 43.77 101.225 43.37 101.045 42.91C100.865 42.4433 100.775 41.9367 100.775 41.39V41.17C100.775 40.7033 100.855 40.2533 101.015 39.82C101.182 39.38 101.418 38.9867 101.725 38.64C102.038 38.2867 102.418 38.01 102.865 37.81C103.312 37.6033 103.815 37.5 104.375 37.5C104.982 37.5 105.522 37.6167 105.995 37.85C106.468 38.0767 106.848 38.3967 107.135 38.81C107.422 39.2167 107.588 39.69 107.635 40.23H106.635C106.588 39.8233 106.455 39.4867 106.235 39.22C106.015 38.9467 105.742 38.7433 105.415 38.61C105.095 38.47 104.748 38.4 104.375 38.4C103.995 38.4 103.645 38.47 103.325 38.61C103.005 38.7433 102.728 38.9367 102.495 39.19C102.268 39.4433 102.092 39.7467 101.965 40.1C101.838 40.4533 101.775 40.85 101.775 41.29C101.775 41.79 101.842 42.23 101.975 42.61C102.115 42.9833 102.308 43.2967 102.555 43.55C102.802 43.7967 103.092 43.9833 103.425 44.11C103.765 44.2367 104.135 44.3 104.535 44.3C105.102 44.3 105.598 44.1867 106.025 43.96C106.458 43.7267 106.785 43.4267 107.005 43.06L106.645 44.25V42.08H107.565V43.82C107.238 44.2467 106.818 44.58 106.305 44.82C105.792 45.06 105.202 45.18 104.535 45.18ZM104.275 42.28V41.46H108.185V42.28H104.275ZM114.525 45V37.7H115.505V45H114.525ZM109.585 45V37.7H110.565V45H109.585ZM110.365 41.81V40.93H114.725V41.81H110.365ZM119.993 45.18C119.386 45.18 118.869 45.08 118.443 44.88C118.016 44.68 117.689 44.4033 117.463 44.05C117.236 43.6967 117.123 43.2967 117.123 42.85H118.103C118.103 43.07 118.159 43.29 118.273 43.51C118.393 43.73 118.589 43.9133 118.863 44.06C119.143 44.2067 119.519 44.28 119.993 44.28C120.433 44.28 120.793 44.2167 121.073 44.09C121.353 43.9567 121.559 43.7867 121.693 43.58C121.826 43.3667 121.893 43.1367 121.893 42.89C121.893 42.59 121.763 42.3433 121.503 42.15C121.243 41.95 120.863 41.8267 120.363 41.78L119.553 41.71C118.906 41.6567 118.389 41.4567 118.003 41.11C117.616 40.7633 117.423 40.3067 117.423 39.74C117.423 39.2933 117.529 38.9033 117.743 38.57C117.963 38.2367 118.266 37.9767 118.653 37.79C119.039 37.5967 119.489 37.5 120.003 37.5C120.509 37.5 120.956 37.5933 121.343 37.78C121.729 37.9667 122.029 38.23 122.243 38.57C122.463 38.9033 122.573 39.3033 122.573 39.77H121.593C121.593 39.5367 121.536 39.3167 121.423 39.11C121.316 38.9033 121.146 38.7333 120.913 38.6C120.679 38.4667 120.376 38.4 120.003 38.4C119.643 38.4 119.343 38.4633 119.103 38.59C118.869 38.7167 118.693 38.8833 118.573 39.09C118.459 39.29 118.403 39.5067 118.403 39.74C118.403 40.0067 118.506 40.2433 118.713 40.45C118.919 40.6567 119.226 40.7767 119.633 40.81L120.443 40.88C120.943 40.92 121.373 41.0267 121.733 41.2C122.099 41.3667 122.379 41.5933 122.573 41.88C122.773 42.16 122.873 42.4967 122.873 42.89C122.873 43.3367 122.753 43.7333 122.513 44.08C122.273 44.4267 121.936 44.6967 121.503 44.89C121.069 45.0833 120.566 45.18 119.993 45.18Z" fill="#EAEAEA"/>
<path d="M238.49 43.2C237.957 43.2 237.51 43.1067 237.15 42.92C236.797 42.7333 236.513 42.48 236.3 42.16C236.093 41.8333 235.943 41.46 235.85 41.04C235.763 40.62 235.72 40.18 235.72 39.72V39.24C235.72 38.0867 236.007 37.2 236.58 36.58C237.153 35.9533 237.983 35.64 239.07 35.64C239.33 35.64 239.55 35.6467 239.73 35.66C239.91 35.6733 240.107 35.6933 240.32 35.72V36.54C240.1 36.5133 239.897 36.4933 239.71 36.48C239.523 36.4667 239.297 36.46 239.03 36.46C238.423 36.46 237.943 36.5733 237.59 36.8C237.237 37.0267 236.983 37.3533 236.83 37.78C236.677 38.2 236.6 38.71 236.6 39.31V39.76L236.36 40.65C236.367 40.1233 236.467 39.6867 236.66 39.34C236.86 38.9933 237.13 38.7333 237.47 38.56C237.817 38.3867 238.213 38.3 238.66 38.3C239.18 38.3 239.62 38.4067 239.98 38.62C240.34 38.8267 240.61 39.1133 240.79 39.48C240.977 39.8467 241.07 40.2633 241.07 40.73C241.07 41.2033 240.973 41.6267 240.78 42C240.587 42.3733 240.297 42.6667 239.91 42.88C239.53 43.0933 239.057 43.2 238.49 43.2ZM238.49 42.36C238.857 42.36 239.163 42.29 239.41 42.15C239.657 42.01 239.84 41.82 239.96 41.58C240.087 41.3333 240.15 41.05 240.15 40.73C240.15 40.41 240.09 40.1267 239.97 39.88C239.85 39.6333 239.67 39.4433 239.43 39.31C239.197 39.17 238.907 39.1 238.56 39.1C238.22 39.1 237.913 39.1633 237.64 39.29C237.373 39.4167 237.163 39.6033 237.01 39.85C236.857 40.09 236.78 40.3867 236.78 40.74C236.78 41.0333 236.84 41.3033 236.96 41.55C237.08 41.7967 237.267 41.9933 237.52 42.14C237.773 42.2867 238.097 42.36 238.49 42.36ZM247.017 43.18C246.637 43.18 246.287 43.11 245.967 42.97C245.647 42.83 245.367 42.6333 245.127 42.38C244.894 42.1267 244.711 41.8333 244.577 41.5C244.451 41.1667 244.387 40.8067 244.387 40.42V40.24C244.387 39.86 244.451 39.5033 244.577 39.17C244.704 38.8367 244.881 38.5433 245.107 38.29C245.341 38.0367 245.614 37.84 245.927 37.7C246.247 37.5533 246.601 37.48 246.987 37.48C247.394 37.48 247.764 37.5667 248.097 37.74C248.431 37.9067 248.704 38.17 248.917 38.53C249.131 38.89 249.251 39.3567 249.277 39.93L248.877 39.29V35.7H249.837V43H249.077V40.63H249.357C249.331 41.2367 249.204 41.73 248.977 42.11C248.751 42.4833 248.464 42.7567 248.117 42.93C247.777 43.0967 247.411 43.18 247.017 43.18ZM247.147 42.34C247.474 42.34 247.771 42.2667 248.037 42.12C248.304 41.9733 248.517 41.7633 248.677 41.49C248.837 41.21 248.917 40.8833 248.917 40.51V40.05C248.917 39.6833 248.834 39.3733 248.667 39.12C248.507 38.86 248.291 38.6633 248.017 38.53C247.751 38.39 247.457 38.32 247.137 38.32C246.784 38.32 246.471 38.4033 246.197 38.57C245.931 38.7367 245.721 38.97 245.567 39.27C245.421 39.57 245.347 39.9233 245.347 40.33C245.347 40.7367 245.424 41.0933 245.577 41.4C245.731 41.7 245.944 41.9333 246.217 42.1C246.491 42.26 246.801 42.34 247.147 42.34ZM254.912 43V41.4H254.752V39.55C254.752 39.1833 254.655 38.9067 254.462 38.72C254.275 38.5333 253.998 38.44 253.632 38.44C253.425 38.44 253.212 38.4433 252.992 38.45C252.772 38.4567 252.562 38.4633 252.362 38.47C252.162 38.4767 251.988 38.4867 251.842 38.5V37.66C251.988 37.6467 252.142 37.6367 252.302 37.63C252.468 37.6167 252.638 37.61 252.812 37.61C252.985 37.6033 253.152 37.6 253.312 37.6C253.858 37.6 254.305 37.6667 254.652 37.8C254.998 37.9267 255.255 38.1367 255.422 38.43C255.588 38.7233 255.672 39.12 255.672 39.62V43H254.912ZM253.162 43.14C252.762 43.14 252.415 43.0733 252.122 42.94C251.835 42.8 251.612 42.6 251.452 42.34C251.298 42.08 251.222 41.7667 251.222 41.4C251.222 41.02 251.305 40.7033 251.472 40.45C251.645 40.1967 251.895 40.0067 252.222 39.88C252.548 39.7467 252.942 39.68 253.402 39.68H254.852V40.4H253.362C252.975 40.4 252.678 40.4933 252.472 40.68C252.265 40.8667 252.162 41.1067 252.162 41.4C252.162 41.6933 252.265 41.93 252.472 42.11C252.678 42.29 252.975 42.38 253.362 42.38C253.588 42.38 253.805 42.34 254.012 42.26C254.218 42.1733 254.388 42.0333 254.522 41.84C254.662 41.64 254.738 41.3667 254.752 41.02L255.012 41.4C254.978 41.78 254.885 42.1 254.732 42.36C254.585 42.6133 254.378 42.8067 254.112 42.94C253.852 43.0733 253.535 43.14 253.162 43.14ZM257.054 45.08V44.22H257.824C258.051 44.22 258.241 44.19 258.394 44.13C258.554 44.0767 258.684 43.9833 258.784 43.85C258.891 43.7167 258.977 43.54 259.044 43.32L260.724 37.66H261.664L259.884 43.57C259.777 43.9233 259.627 44.21 259.434 44.43C259.241 44.6567 259.004 44.82 258.724 44.92C258.451 45.0267 258.131 45.08 257.764 45.08H257.054ZM258.684 42.88V42.08H259.844V42.88H258.684ZM258.584 42.88L256.674 37.66H257.654L259.484 42.88H258.584ZM264.594 43.16C263.894 43.16 263.35 43.01 262.964 42.71C262.584 42.41 262.387 42 262.374 41.48H263.274C263.287 41.6867 263.39 41.8833 263.584 42.07C263.784 42.25 264.12 42.34 264.594 42.34C265.02 42.34 265.347 42.2567 265.574 42.09C265.8 41.9167 265.914 41.7067 265.914 41.46C265.914 41.24 265.83 41.07 265.664 40.95C265.497 40.8233 265.227 40.74 264.854 40.7L264.274 40.64C263.767 40.5867 263.354 40.4367 263.034 40.19C262.714 39.9367 262.554 39.5833 262.554 39.13C262.554 38.79 262.64 38.5 262.814 38.26C262.987 38.0133 263.227 37.8267 263.534 37.7C263.84 37.5667 264.194 37.5 264.594 37.5C265.194 37.5 265.68 37.6333 266.054 37.9C266.427 38.1667 266.62 38.5633 266.634 39.09H265.734C265.727 38.8767 265.627 38.6967 265.434 38.55C265.247 38.3967 264.967 38.32 264.594 38.32C264.22 38.32 263.937 38.3967 263.744 38.55C263.55 38.7033 263.454 38.8967 263.454 39.13C263.454 39.33 263.52 39.49 263.654 39.61C263.794 39.73 264.02 39.8067 264.334 39.84L264.914 39.9C265.487 39.96 265.947 40.12 266.294 40.38C266.64 40.6333 266.814 40.9933 266.814 41.46C266.814 41.7933 266.717 42.09 266.524 42.35C266.337 42.6033 266.077 42.8033 265.744 42.95C265.41 43.09 265.027 43.16 264.594 43.16ZM270.541 43V35.7H271.501V43H270.541ZM269.801 36.46V35.7H271.501V36.46H269.801ZM275.612 43.18C275.145 43.18 274.742 43.1 274.402 42.94C274.062 42.78 273.785 42.57 273.572 42.31C273.359 42.0433 273.199 41.7467 273.092 41.42C272.992 41.0933 272.942 40.76 272.942 40.42V40.24C272.942 39.8933 272.992 39.5567 273.092 39.23C273.199 38.9033 273.359 38.61 273.572 38.35C273.785 38.0833 274.055 37.8733 274.382 37.72C274.715 37.56 275.105 37.48 275.552 37.48C276.132 37.48 276.609 37.6067 276.982 37.86C277.362 38.1067 277.642 38.4267 277.822 38.82C278.009 39.2133 278.102 39.6333 278.102 40.08V40.51H273.362V39.79H277.402L277.182 40.18C277.182 39.8 277.122 39.4733 277.002 39.2C276.882 38.92 276.702 38.7033 276.462 38.55C276.222 38.3967 275.919 38.32 275.552 38.32C275.172 38.32 274.855 38.4067 274.602 38.58C274.355 38.7533 274.169 38.99 274.042 39.29C273.922 39.59 273.862 39.9367 273.862 40.33C273.862 40.71 273.922 41.0533 274.042 41.36C274.169 41.66 274.362 41.9 274.622 42.08C274.882 42.2533 275.212 42.34 275.612 42.34C276.032 42.34 276.372 42.2467 276.632 42.06C276.899 41.8733 277.059 41.6567 277.112 41.41H278.012C277.939 41.7767 277.792 42.0933 277.572 42.36C277.352 42.6267 277.075 42.83 276.742 42.97C276.409 43.11 276.032 43.18 275.612 43.18ZM279.605 43V37.39C279.605 36.7967 279.762 36.36 280.075 36.08C280.388 35.8 280.848 35.66 281.455 35.66H282.115V36.46H281.295C281.048 36.46 280.858 36.53 280.725 36.67C280.592 36.8033 280.525 36.99 280.525 37.23V43H279.605ZM278.865 38.44V37.72H282.215V38.44H278.865ZM285.412 43.06C285.012 43.06 284.665 43.0033 284.372 42.89C284.085 42.7767 283.862 42.5833 283.702 42.31C283.549 42.03 283.472 41.6533 283.472 41.18V36.04H284.392V41.3C284.392 41.5867 284.469 41.81 284.622 41.97C284.782 42.1233 285.005 42.2 285.292 42.2H286.232V43.06H285.412ZM282.552 38.38V37.66H286.232V38.38H282.552Z" fill="#EAEAEA"/>
<path d="M68.06 144V136.7H69.36L71.52 141.57H71.68L73.83 136.7H75.14V144H74.16V137.77L74.23 137.79L72.16 142.49H70.96L68.88 137.79L68.96 137.77V144H68.06ZM76.7592 146.08V145.22H77.5292C77.7559 145.22 77.9459 145.19 78.0992 145.13C78.2592 145.077 78.3892 144.983 78.4892 144.85C78.5959 144.717 78.6826 144.54 78.7492 144.32L80.4292 138.66H81.3692L79.5892 144.57C79.4826 144.923 79.3326 145.21 79.1392 145.43C78.9459 145.657 78.7092 145.82 78.4292 145.92C78.1559 146.027 77.8359 146.08 77.4692 146.08H76.7592ZM78.3892 143.88V143.08H79.5492V143.88H78.3892ZM78.2892 143.88L76.3792 138.66H77.3592L79.1892 143.88H78.2892ZM87.6834 144.18C87.2434 144.18 86.85 144.083 86.5034 143.89C86.1634 143.697 85.8934 143.417 85.6934 143.05C85.4934 142.677 85.3834 142.23 85.3634 141.71H85.6234V144H84.8634V136.7H85.8234V140.25L85.4834 140.98C85.51 140.4 85.6267 139.927 85.8334 139.56C86.04 139.193 86.31 138.923 86.6434 138.75C86.9834 138.57 87.3567 138.48 87.7634 138.48C88.1434 138.48 88.49 138.553 88.8034 138.7C89.1167 138.84 89.3867 139.037 89.6134 139.29C89.84 139.537 90.0134 139.827 90.1334 140.16C90.2534 140.487 90.3134 140.84 90.3134 141.22V141.4C90.3134 141.78 90.25 142.137 90.1234 142.47C90.0034 142.803 89.8267 143.1 89.5934 143.36C89.36 143.613 89.08 143.813 88.7534 143.96C88.4334 144.107 88.0767 144.18 87.6834 144.18ZM87.5734 143.34C87.9334 143.34 88.2467 143.253 88.5134 143.08C88.78 142.907 88.9867 142.67 89.1334 142.37C89.28 142.063 89.3534 141.71 89.3534 141.31C89.3534 140.91 89.2767 140.56 89.1234 140.26C88.9767 139.96 88.77 139.73 88.5034 139.57C88.2367 139.403 87.9267 139.32 87.5734 139.32C87.2534 139.32 86.9567 139.393 86.6834 139.54C86.41 139.68 86.19 139.887 86.0234 140.16C85.8634 140.427 85.7834 140.75 85.7834 141.13V141.59C85.7834 141.957 85.8667 142.27 86.0334 142.53C86.2 142.79 86.42 142.99 86.6934 143.13C86.9667 143.27 87.26 143.34 87.5734 143.34ZM93.6079 144.16C92.9746 144.16 92.4879 143.953 92.1479 143.54C91.8079 143.127 91.6379 142.53 91.6379 141.75V138.65H92.5979V141.94C92.5979 142.36 92.7112 142.69 92.9379 142.93C93.1646 143.163 93.4712 143.28 93.8579 143.28C94.2579 143.28 94.5846 143.153 94.8379 142.9C95.0912 142.64 95.2179 142.287 95.2179 141.84V138.65H96.1779V144H95.4179V141.71H95.5379C95.5379 142.237 95.4679 142.683 95.3279 143.05C95.1879 143.41 94.9779 143.687 94.6979 143.88C94.4246 144.067 94.0746 144.16 93.6479 144.16H93.6079ZM100.267 144.18C99.8872 144.18 99.5372 144.11 99.2172 143.97C98.8972 143.83 98.6172 143.633 98.3772 143.38C98.1439 143.127 97.9605 142.833 97.8272 142.5C97.7005 142.167 97.6372 141.807 97.6372 141.42V141.24C97.6372 140.86 97.7005 140.503 97.8272 140.17C97.9539 139.837 98.1305 139.543 98.3572 139.29C98.5905 139.037 98.8639 138.84 99.1772 138.7C99.4972 138.553 99.8505 138.48 100.237 138.48C100.644 138.48 101.014 138.567 101.347 138.74C101.681 138.907 101.954 139.17 102.167 139.53C102.381 139.89 102.501 140.357 102.527 140.93L102.127 140.29V136.7H103.087V144H102.327V141.63H102.607C102.581 142.237 102.454 142.73 102.227 143.11C102.001 143.483 101.714 143.757 101.367 143.93C101.027 144.097 100.661 144.18 100.267 144.18ZM100.397 143.34C100.724 143.34 101.021 143.267 101.287 143.12C101.554 142.973 101.767 142.763 101.927 142.49C102.087 142.21 102.167 141.883 102.167 141.51V141.05C102.167 140.683 102.084 140.373 101.917 140.12C101.757 139.86 101.541 139.663 101.267 139.53C101.001 139.39 100.707 139.32 100.387 139.32C100.034 139.32 99.7205 139.403 99.4472 139.57C99.1805 139.737 98.9705 139.97 98.8172 140.27C98.6705 140.57 98.5972 140.923 98.5972 141.33C98.5972 141.737 98.6739 142.093 98.8272 142.4C98.9805 142.7 99.1939 142.933 99.4672 143.1C99.7405 143.26 100.051 143.34 100.397 143.34ZM106.952 146.08C106.705 146.08 106.455 146.07 106.202 146.05C105.955 146.03 105.718 146.003 105.492 145.97V145.16C105.732 145.193 105.982 145.22 106.242 145.24C106.508 145.267 106.758 145.28 106.992 145.28C107.478 145.28 107.865 145.213 108.152 145.08C108.445 144.953 108.655 144.75 108.782 144.47C108.915 144.197 108.982 143.843 108.982 143.41V142.39L109.302 141.63C109.282 142.17 109.168 142.62 108.962 142.98C108.755 143.333 108.485 143.6 108.152 143.78C107.825 143.953 107.462 144.04 107.062 144.04C106.688 144.04 106.345 143.97 106.032 143.83C105.725 143.683 105.458 143.483 105.232 143.23C105.012 142.977 104.838 142.687 104.712 142.36C104.592 142.027 104.532 141.677 104.532 141.31V141.13C104.532 140.757 104.595 140.41 104.722 140.09C104.848 139.763 105.025 139.48 105.252 139.24C105.478 139 105.748 138.813 106.062 138.68C106.382 138.547 106.732 138.48 107.112 138.48C107.558 138.48 107.952 138.577 108.292 138.77C108.632 138.957 108.898 139.233 109.092 139.6C109.292 139.96 109.402 140.403 109.422 140.93L109.142 140.94V138.66H109.902V143.37C109.902 144.01 109.802 144.527 109.602 144.92C109.408 145.32 109.095 145.613 108.662 145.8C108.235 145.987 107.665 146.08 106.952 146.08ZM107.242 143.16C107.562 143.16 107.852 143.09 108.112 142.95C108.378 142.81 108.588 142.61 108.742 142.35C108.902 142.083 108.982 141.767 108.982 141.4V140.94C108.982 140.58 108.898 140.277 108.732 140.03C108.572 139.783 108.362 139.597 108.102 139.47C107.842 139.343 107.558 139.28 107.252 139.28C106.905 139.28 106.598 139.36 106.332 139.52C106.065 139.68 105.858 139.907 105.712 140.2C105.565 140.487 105.492 140.827 105.492 141.22C105.492 141.613 105.565 141.957 105.712 142.25C105.865 142.543 106.072 142.77 106.332 142.93C106.598 143.083 106.902 143.16 107.242 143.16ZM113.95 144.18C113.483 144.18 113.08 144.1 112.74 143.94C112.4 143.78 112.123 143.57 111.91 143.31C111.696 143.043 111.536 142.747 111.43 142.42C111.33 142.093 111.28 141.76 111.28 141.42V141.24C111.28 140.893 111.33 140.557 111.43 140.23C111.536 139.903 111.696 139.61 111.91 139.35C112.123 139.083 112.393 138.873 112.72 138.72C113.053 138.56 113.443 138.48 113.89 138.48C114.47 138.48 114.946 138.607 115.32 138.86C115.7 139.107 115.98 139.427 116.16 139.82C116.346 140.213 116.44 140.633 116.44 141.08V141.51H111.7V140.79H115.74L115.52 141.18C115.52 140.8 115.46 140.473 115.34 140.2C115.22 139.92 115.04 139.703 114.8 139.55C114.56 139.397 114.256 139.32 113.89 139.32C113.51 139.32 113.193 139.407 112.94 139.58C112.693 139.753 112.506 139.99 112.38 140.29C112.26 140.59 112.2 140.937 112.2 141.33C112.2 141.71 112.26 142.053 112.38 142.36C112.506 142.66 112.7 142.9 112.96 143.08C113.22 143.253 113.55 143.34 113.95 143.34C114.37 143.34 114.71 143.247 114.97 143.06C115.236 142.873 115.396 142.657 115.45 142.41H116.35C116.276 142.777 116.13 143.093 115.91 143.36C115.69 143.627 115.413 143.83 115.08 143.97C114.746 144.11 114.37 144.18 113.95 144.18ZM119.883 144.06C119.483 144.06 119.136 144.003 118.843 143.89C118.556 143.777 118.333 143.583 118.173 143.31C118.019 143.03 117.943 142.653 117.943 142.18V137.04H118.863V142.3C118.863 142.587 118.939 142.81 119.093 142.97C119.253 143.123 119.476 143.2 119.763 143.2H120.703V144.06H119.883ZM117.023 139.38V138.66H120.703V139.38H117.023Z" fill="#EAEAEA"/>
<g filter="url(#filter0_d_756_4339)">
<path d="M172.092 55.8898L164.978 52.9202L165.603 45.2354C165.673 44.373 165.2 43.5941 164.4 43.2603C163.601 42.9265 162.717 43.1351 162.154 43.7958L157.126 49.6446L150.011 46.675C149.219 46.3481 148.321 46.5568 147.765 47.2105C147.202 47.8712 147.125 48.7753 147.577 49.5125L151.59 56.0984L146.562 61.9472C146.006 62.5939 145.929 63.5189 146.374 64.2491C146.819 64.9794 147.675 65.334 148.509 65.1393L156.013 63.3589L160.026 69.9449C160.394 70.5499 161.013 70.8907 161.688 70.8907C161.841 70.8907 162.001 70.8699 162.161 70.8351C163.002 70.6334 163.594 69.9449 163.67 69.0825L164.296 61.3978L171.8 59.6174C172.634 59.4227 173.24 58.7203 173.309 57.8649C173.379 57.0164 172.899 56.2166 172.106 55.8898H172.092Z" fill="white"/>
<path d="M161.681 72.9701C160.269 72.9701 158.982 72.2399 158.238 71.0228L155.018 65.7304L148.989 67.1561C147.271 67.5595 145.512 66.8223 144.594 65.3201C143.676 63.8179 143.835 61.9054 144.983 60.5701L149.024 55.8689L145.804 50.5765C144.886 49.0743 145.046 47.1618 146.193 45.8265C147.341 44.4912 149.204 44.0531 150.825 44.7277L156.541 47.1131L160.582 42.4118C161.729 41.0766 163.586 40.6384 165.214 41.313C166.841 41.9946 167.836 43.6289 167.696 45.3814L167.189 51.557L172.905 53.9425C174.533 54.624 175.527 56.2583 175.381 58.0109C175.235 59.7704 173.99 61.2169 172.273 61.6272L166.243 63.0529L165.735 69.2285C165.589 70.9811 164.344 72.4346 162.627 72.8449C162.314 72.9214 161.994 72.9562 161.674 72.9562L161.681 72.9701ZM157 60.9735L161.604 68.54L162.328 59.7147L170.944 57.6701L162.773 54.2554L163.496 45.4301L157.724 52.1482L149.552 48.7335L154.156 56.3001L148.384 63.0181L157 60.9735Z" fill="white"/>
<path d="M164.546 45.1379L163.906 52.9339C163.872 53.3234 164.101 53.692 164.463 53.845L171.682 56.8632C172.488 57.204 172.398 58.3793 171.543 58.581L163.927 60.3822C163.545 60.4726 163.267 60.7995 163.232 61.189L162.592 68.985C162.523 69.8613 161.375 70.1325 160.916 69.3814L156.848 62.6981C156.646 62.3643 156.25 62.1974 155.867 62.2878L148.252 64.089C147.396 64.2907 146.784 63.2823 147.355 62.6146L152.452 56.6824C152.71 56.3834 152.744 55.9591 152.536 55.6184L148.467 48.9351C148.008 48.184 148.78 47.2868 149.587 47.6276L156.806 50.6459C157.168 50.7989 157.585 50.7015 157.842 50.4025L162.94 44.4702C163.51 43.8026 164.602 44.2616 164.532 45.1379H164.546Z" fill="url(#paint0_linear_756_4339)" stroke="#1D074F" stroke-width="3.05" stroke-miterlimit="10"/>
</g>
<g filter="url(#filter1_d_756_4339)">
<path d="M298.358 133.423L298.278 133.403C291.008 131.403 283.248 130.403 275.648 130.443C280.378 128.743 285.048 126.603 289.588 124.043C307.118 114.383 311.038 101.613 307.258 93.8329C304.088 87.3229 294.578 82.1929 278.138 89.1929C271.288 92.3329 264.738 96.5229 258.898 101.473C261.428 97.1329 263.628 92.4829 265.458 87.6129C272.678 68.9429 267.468 56.6429 259.568 53.1129C252.958 50.1729 242.378 52.3529 234.278 68.2729C231.038 75.1029 228.718 82.5129 227.438 90.0629C226.588 85.1029 225.288 80.1329 223.548 75.2129C217.078 56.2829 205.188 50.2029 196.868 52.5729C189.908 54.5629 183.208 63.0329 187.238 80.4429C189.158 87.7929 192.128 94.9429 195.968 101.503C192.128 98.2629 187.908 95.2629 183.478 92.6529C166.348 82.3029 153.328 85.2929 148.488 92.4629C144.438 98.4629 144.748 109.253 159.028 120.003C165.158 124.353 172.118 127.953 179.308 130.533C174.258 130.533 169.098 130.933 163.998 131.783C144.218 134.863 136.168 145.523 137.068 154.123C137.758 160.763 144.178 168.523 159.978 168.523C160.878 168.523 161.808 168.493 162.848 168.443C170.348 167.843 177.988 166.123 185.148 163.463C181.278 166.683 177.588 170.323 174.218 174.263C161.048 189.343 161.738 202.683 167.948 208.693C170.448 211.113 173.928 212.443 177.738 212.443C181.908 212.443 188.618 210.833 196.898 203.093C202.248 197.813 207.008 191.573 210.788 184.923C209.888 189.893 209.398 195.063 209.348 200.243C208.948 220.263 218.048 230.033 226.668 230.643C226.968 230.663 227.258 230.673 227.568 230.673C234.768 230.673 243.188 224.673 245.258 207.753C245.958 200.293 245.598 192.443 244.238 184.923C246.738 189.303 249.698 193.573 252.978 197.563C263.328 210.403 272.638 212.323 277.268 212.323C280.498 212.323 283.448 211.423 285.798 209.713C291.658 205.463 295.058 195.213 285.318 180.233C281.028 174.013 275.768 168.293 269.878 163.413C274.588 165.153 279.548 166.513 284.678 167.473C288.308 168.193 291.798 168.553 295.038 168.553C309.338 168.553 316.138 161.623 317.628 155.693C319.388 148.673 315.398 138.633 298.388 133.443L298.358 133.423Z" fill="white"/>
<path d="M228.257 158.343C237.267 169.523 242.517 188.853 240.777 207.313C237.347 235.373 213.237 231.333 213.847 200.313C213.967 187.533 216.867 174.943 222.137 165.333C223.527 162.783 224.957 160.493 226.727 158.333C227.187 157.763 227.807 157.793 228.247 158.333L228.257 158.343Z" fill="url(#paint1_linear_756_4339)" stroke="#1D074F" stroke-width="3" stroke-miterlimit="10"/>
<path d="M215.618 154.313C215.338 168.673 206.928 186.853 193.728 199.883C173.068 219.173 157.188 200.583 177.598 177.213C185.908 167.503 196.218 159.723 206.428 155.743C209.128 154.683 211.708 153.843 214.438 153.333C215.158 153.193 215.618 153.613 215.608 154.313H215.618Z" fill="url(#paint2_linear_756_4339)" stroke="#1D074F" stroke-width="3" stroke-miterlimit="10"/>
<path d="M208.527 143.103C199.077 153.913 180.957 162.443 162.477 163.943C134.247 165.433 134.037 140.993 164.687 136.213C177.297 134.113 190.197 134.783 200.577 138.303C203.327 139.223 205.837 140.243 208.267 141.613C208.907 141.973 208.987 142.583 208.527 143.113V143.103Z" fill="url(#paint3_linear_756_4339)" stroke="#1D074F" stroke-width="3" stroke-miterlimit="10"/>
<path d="M210.308 129.963C196.118 132.173 176.758 127.063 161.638 116.323C139.048 99.323 154.608 80.463 181.158 96.503C192.158 103.003 201.618 111.803 207.308 121.173C208.818 123.653 210.088 126.043 211.068 128.643C211.328 129.333 210.998 129.853 210.308 129.963Z" fill="url(#paint4_linear_756_4339)" stroke="#1D074F" stroke-width="3" stroke-miterlimit="10"/>
<path d="M220.108 121.033C207.818 113.613 196.268 97.2429 191.588 79.2929C185.218 51.7529 209.258 47.3029 219.288 76.6529C223.538 88.7029 225.128 101.523 223.468 112.363C223.038 115.233 222.468 117.883 221.548 120.503C221.308 121.193 220.718 121.383 220.118 121.023L220.108 121.033Z" fill="url(#paint5_linear_756_4339)" stroke="#1D074F" stroke-width="3" stroke-miterlimit="10"/>
<path d="M233.367 120.503C228.727 106.913 230.397 86.9529 238.347 70.2029C251.167 45.0129 272.447 57.0529 261.257 85.9829C256.767 97.9529 249.747 108.793 241.507 116.023C239.337 117.943 237.197 119.613 234.797 121.023C234.167 121.403 233.597 121.163 233.367 120.503Z" fill="url(#paint6_linear_756_4339)" stroke="#1D074F" stroke-width="3" stroke-miterlimit="10"/>
<path d="M243.858 128.603C249.038 115.213 263.148 100.993 280.008 93.273C306.028 82.213 314.578 105.113 287.418 120.093C276.288 126.373 263.938 130.163 252.978 130.403C250.078 130.473 247.367 130.383 244.627 129.923C243.907 129.803 243.618 129.253 243.868 128.603H243.858Z" fill="url(#paint7_linear_756_4339)" stroke="#1D074F" stroke-width="3" stroke-miterlimit="10"/>
<path d="M246.688 141.563C259.258 134.633 279.208 132.813 297.088 137.733C324.128 145.983 315.958 169.033 285.518 163.033C272.958 160.693 261.058 155.653 252.508 148.793C250.238 146.983 248.228 145.173 246.418 143.053C245.938 142.493 246.078 141.893 246.678 141.553L246.688 141.563Z" fill="url(#paint8_linear_756_4339)" stroke="#1D074F" stroke-width="3" stroke-miterlimit="10"/>
<path d="M240.518 153.303C254.608 156.073 271.058 167.503 281.588 182.773C296.998 206.473 275.928 218.883 256.458 194.723C248.338 184.853 242.468 173.353 240.318 162.603C239.738 159.763 239.368 157.083 239.338 154.293C239.338 153.563 239.818 153.183 240.508 153.313L240.518 153.303Z" fill="url(#paint9_linear_756_4339)" stroke="#1D074F" stroke-width="3" stroke-miterlimit="10"/>
<path d="M229.597 175.953C250.749 175.953 267.897 158.806 267.897 137.653C267.897 116.501 250.749 99.353 229.597 99.353C208.444 99.353 191.297 116.501 191.297 137.653C191.297 158.806 208.444 175.953 229.597 175.953Z" fill="url(#paint10_linear_756_4339)" stroke="#1D074F" stroke-width="3.01" stroke-linecap="round" stroke-linejoin="round"/>
<path d="M219.987 136.203C222.571 136.203 224.667 132.276 224.667 127.433C224.667 122.589 222.571 118.663 219.987 118.663C217.402 118.663 215.307 122.589 215.307 127.433C215.307 132.276 217.402 136.203 219.987 136.203Z" fill="#1D074F"/>
<path d="M239.387 136.203C241.972 136.203 244.067 132.276 244.067 127.433C244.067 122.589 241.972 118.663 239.387 118.663C236.802 118.663 234.707 122.589 234.707 127.433C234.707 132.276 236.802 136.203 239.387 136.203Z" fill="#1D074F"/>
<path d="M251.778 146.353C248.078 155.093 239.428 161.223 229.348 161.223C219.268 161.223 210.728 155.173 206.998 146.533" stroke="#1D074F" stroke-width="3.19" stroke-linecap="round" stroke-linejoin="round"/>
<path d="M211.528 141.443C210.658 144.413 207.918 146.583 204.668 146.583C202.448 146.583 200.458 145.573 199.148 143.983" stroke="#1D074F" stroke-width="3.19" stroke-linecap="round" stroke-linejoin="round"/>
<path d="M258.749 143.923C257.439 145.543 255.429 146.583 253.179 146.583C250.579 146.583 248.299 145.193 247.049 143.113" stroke="#1D074F" stroke-width="3.19" stroke-linecap="round" stroke-linejoin="round"/>
</g>
<g filter="url(#filter2_d_756_4339)">
<path d="M60.0081 135.212C56.1435 129.443 49.5868 126 42.4679 126C35.349 126 28.7923 129.443 24.9278 135.212C23.6907 137.057 23.6907 139.443 24.9278 141.288C28.7923 147.057 35.349 150.5 42.4679 150.5C49.5868 150.5 56.1435 147.055 60.0081 141.288C61.2451 139.443 61.2451 137.057 60.0081 135.212Z" fill="white"/>
</g>
<path d="M42.4669 149.67C35.6254 149.67 29.3276 146.364 25.6183 140.826C24.5699 139.261 24.5699 137.24 25.6183 135.676C29.3276 130.138 35.6273 126.832 42.4669 126.832C49.3066 126.832 55.6063 130.138 59.3155 135.676C60.364 137.24 60.364 139.261 59.3155 140.826C55.6063 146.364 49.3066 149.67 42.4669 149.67Z" fill="url(#paint11_linear_756_4339)"/>
<path d="M42.4679 127.109C49.2151 127.109 55.4279 130.369 59.0872 135.83C60.0728 137.3 60.0728 139.2 59.0872 140.67C55.4298 146.131 49.2169 149.391 42.4679 149.391C35.7188 149.391 29.5078 146.131 25.8486 140.67C24.863 139.2 24.863 137.3 25.8486 135.83C29.506 130.369 35.7188 127.109 42.4679 127.109ZM42.4679 126.555C35.5339 126.555 29.1491 129.907 25.3881 135.521C24.2769 137.179 24.2769 139.322 25.3881 140.979C29.1491 146.595 35.5339 149.945 42.4679 149.945C49.4018 149.945 55.7866 146.593 59.5476 140.979C60.6589 139.321 60.6589 137.178 59.5476 135.521C55.7866 129.905 49.4018 126.555 42.4679 126.555Z" fill="#1D074F"/>
<path d="M42.4695 148.22C36.1124 148.22 30.2639 145.154 26.8246 140.02C26.1053 138.945 26.1053 137.557 26.8246 136.484C30.2639 131.349 36.1124 128.284 42.4695 128.284C48.8265 128.284 54.6733 131.349 58.1144 136.484C58.8336 137.559 58.8336 138.947 58.1144 140.02C54.6751 145.154 48.8265 148.22 42.4695 148.22Z" fill="#A94EFF"/>
<path d="M42.4686 128.559C48.7313 128.559 54.4948 131.579 57.8823 136.638C58.5387 137.618 58.5387 138.884 57.8823 139.866C54.493 144.923 48.7313 147.945 42.4686 147.945C36.2058 147.945 30.4423 144.925 27.0548 139.866C26.3984 138.886 26.3984 137.619 27.0548 136.638C30.4423 131.58 36.2058 128.559 42.4686 128.559ZM42.4686 128.004C36.0191 128.004 30.0854 131.116 26.5944 136.329C25.8123 137.497 25.8123 139.006 26.5944 140.175C30.0854 145.387 36.0209 148.499 42.4686 148.499C48.9162 148.499 54.8517 145.387 58.3427 140.175C59.1249 139.006 59.1249 137.497 58.3427 136.329C54.8517 131.116 48.9162 128.004 42.4686 128.004Z" fill="#1D074F"/>
<path d="M42.4677 146.771C36.5969 146.771 31.1977 143.945 28.0284 139.212C27.6364 138.627 27.6364 137.873 28.0284 137.289C31.1995 132.557 36.5969 129.731 42.4677 129.731C48.3384 129.731 53.7377 132.557 56.9069 137.289C57.2989 137.873 57.2989 138.627 56.9069 139.212C53.7358 143.943 48.3384 146.771 42.4677 146.771Z" fill="url(#paint12_linear_756_4339)"/>
<path d="M42.4686 130.009C48.2469 130.009 53.5592 132.788 56.6786 137.444C57.0059 137.932 57.0059 138.57 56.6786 139.058C53.5592 143.714 48.2487 146.493 42.4686 146.493C36.6884 146.493 31.378 143.714 28.2586 139.058C27.9313 138.57 27.9313 137.932 28.2586 137.444C31.378 132.788 36.6884 130.009 42.4686 130.009ZM42.4686 129.454C36.5035 129.454 31.0192 132.326 27.7982 137.135C27.3433 137.814 27.3433 138.688 27.7982 139.367C31.0192 144.176 36.5035 147.048 42.4686 147.048C48.4337 147.048 53.918 144.176 57.139 139.367C57.5939 138.69 57.5939 137.814 57.139 137.135C53.9161 132.326 48.4318 129.454 42.4686 129.454Z" fill="#1D074F"/>
<path d="M42.468 145.321C37.0817 145.321 32.1336 142.736 29.2325 138.406L29.1289 138.252L29.2325 138.099C32.1336 133.768 37.0817 131.183 42.468 131.183C47.8543 131.183 52.8024 133.768 55.7035 138.099L55.8071 138.252L55.7035 138.406C52.8024 142.736 47.8543 145.321 42.468 145.321Z" fill="white"/>
<path d="M42.4687 131.459C47.9382 131.459 52.7402 134.169 55.4731 138.25C52.7384 142.331 47.9382 145.042 42.4687 145.042C36.9992 145.042 32.1972 142.331 29.4643 138.25C32.199 134.169 36.9992 131.459 42.4687 131.459ZM42.4687 130.904C36.9899 130.904 31.955 133.535 29.002 137.941L28.7949 138.25L29.002 138.559C31.955 142.965 36.9881 145.596 42.4687 145.596C47.9493 145.596 52.9824 142.965 55.9354 138.559L56.1425 138.25L55.9354 137.941C52.9824 133.535 47.9493 130.904 42.4687 130.904Z" fill="#1D074F"/>
<path d="M49.0513 138.099C49.0198 137.438 48.8923 136.804 48.6778 136.213C48.6056 136.005 48.5224 135.804 48.43 135.61C48.1526 135.024 47.7921 134.484 47.3631 134.01C47.217 133.849 47.0635 133.694 46.9027 133.546C46.4275 133.117 45.8912 132.755 45.3069 132.476C45.1109 132.381 44.9094 132.296 44.7041 132.224C44.007 131.973 43.2545 131.834 42.4686 131.834C38.826 131.834 35.873 134.787 35.873 138.43C35.873 142.072 38.826 145.023 42.4686 145.023C44.1716 145.023 45.723 144.374 46.8934 143.313L46.899 143.307C47.0561 143.165 47.2096 143.012 47.3538 142.853V142.849C47.7865 142.374 48.1508 141.837 48.4281 141.251C48.4337 141.24 48.4392 141.231 48.4429 141.22C48.5224 141.05 48.5946 140.876 48.6611 140.698L48.6667 140.68C48.6722 140.669 48.6759 140.658 48.6796 140.647C48.8941 140.051 49.0217 139.415 49.0531 138.757C49.0605 138.648 49.0624 138.539 49.0624 138.431C49.0624 138.324 49.0624 138.211 49.0531 138.104L49.0513 138.099ZM48.3727 140.515L44.8428 139.053C44.7873 139.267 44.7023 139.469 44.595 139.657L48.123 141.118C47.8623 141.664 47.524 142.168 47.1246 142.614L44.4286 139.918C44.2973 140.094 44.1457 140.253 43.9756 140.39L46.6641 143.08C46.2185 143.481 45.7156 143.82 45.1683 144.08L43.7167 140.576C43.5318 140.691 43.3303 140.783 43.1195 140.846L44.5636 144.334C44.0052 144.533 43.4116 144.653 42.7941 144.685V140.924C42.6554 140.948 42.5093 140.961 42.3632 140.961C42.2874 140.961 42.2135 140.957 42.1395 140.952V144.685C41.5293 144.653 40.9413 144.535 40.3884 144.339L41.8122 140.902C41.594 140.856 41.3888 140.78 41.1965 140.682L39.7838 144.091C39.2346 143.831 38.7298 143.492 38.2805 143.091L40.8803 140.491C40.7009 140.364 40.5382 140.216 40.3977 140.047L37.8164 142.629C37.4133 142.181 37.0731 141.677 36.8105 141.127L40.1721 139.735C40.0575 139.55 39.9669 139.35 39.904 139.14L36.559 140.526C36.3612 139.966 36.2392 139.373 36.2077 138.753H39.8171C39.8004 138.635 39.7912 138.515 39.7912 138.393C39.7912 138.293 39.7967 138.195 39.8078 138.099H36.2059C36.2373 137.481 36.3575 136.887 36.5572 136.329L39.8855 137.708C39.941 137.494 40.0279 137.292 40.137 137.106L36.8087 135.728C37.0694 135.179 37.4096 134.676 37.8109 134.229L40.3607 136.778C40.4975 136.608 40.6566 136.457 40.8322 136.325L38.275 133.768C38.7206 133.367 39.2235 133.028 39.769 132.77L41.1577 136.12C41.35 136.018 41.557 135.941 41.7715 135.891L40.3737 132.518C40.9284 132.32 41.5201 132.198 42.1358 132.169V135.833C42.2079 135.828 42.2819 135.824 42.3595 135.824C42.5056 135.824 42.6517 135.837 42.7904 135.861V132.169C43.4117 132.2 44.0107 132.322 44.571 132.526L43.1546 135.95C43.3654 136.017 43.5633 136.111 43.7463 136.229L45.1757 132.777C45.7193 133.04 46.2204 133.378 46.6641 133.779L44.0163 136.427C44.1827 136.568 44.3325 136.732 44.4564 136.911L47.1264 134.241C47.5258 134.687 47.8623 135.19 48.1212 135.735L44.6246 137.183C44.7282 137.374 44.8058 137.579 44.8558 137.793L48.3708 136.338C48.5668 136.893 48.6889 137.483 48.7184 138.099H44.9094C44.9205 138.195 44.926 138.293 44.926 138.393C44.926 138.515 44.9168 138.635 44.9001 138.753H48.7184C48.687 139.367 48.5668 139.961 48.369 140.517L48.3727 140.515Z" fill="url(#paint13_linear_756_4339)"/>
<path d="M42.1372 132.169V135.834C42.0114 135.845 41.8912 135.865 41.7729 135.891L40.375 132.518C40.9297 132.32 41.5214 132.198 42.1372 132.169Z" fill="url(#paint14_linear_756_4339)"/>
<path d="M44.5756 132.525L43.1592 135.95C43.0408 135.909 42.9207 135.88 42.7949 135.859V132.167C43.4162 132.198 44.0153 132.32 44.5756 132.524V132.525Z" fill="url(#paint15_linear_756_4339)"/>
<path d="M46.6659 133.781L44.018 136.429C43.933 136.359 43.8423 136.292 43.748 136.231L45.1774 132.779C45.721 133.041 46.2221 133.38 46.6659 133.781Z" fill="url(#paint16_linear_756_4339)"/>
<path d="M48.1238 135.735L44.6272 137.183C44.5792 137.089 44.5219 136.998 44.459 136.911L47.129 134.241C47.5284 134.687 47.8649 135.19 48.1238 135.735Z" fill="url(#paint17_linear_756_4339)"/>
<path d="M48.7221 138.099H44.913C44.9001 137.995 44.8816 137.893 44.8594 137.794L48.3744 136.338C48.5704 136.893 48.6925 137.483 48.7221 138.099Z" fill="url(#paint18_linear_756_4339)"/>
<path d="M48.7231 138.753C48.6916 139.367 48.5714 139.961 48.3736 140.517L44.8438 139.055C44.8715 138.957 44.89 138.855 44.9048 138.753H48.7231Z" fill="url(#paint19_linear_756_4339)"/>
<path d="M48.1221 141.12C47.8614 141.666 47.5231 142.17 47.1237 142.616L44.4277 139.92C44.4869 139.837 44.5442 139.752 44.5941 139.661L48.1221 141.122V141.12Z" fill="url(#paint20_linear_756_4339)"/>
<path d="M46.6622 143.08C46.2166 143.481 45.7137 143.82 45.1664 144.08L43.7148 140.576C43.8054 140.519 43.8924 140.456 43.9737 140.39L46.6622 143.08Z" fill="url(#paint21_linear_756_4339)"/>
<path d="M44.5625 144.334C44.0041 144.533 43.4106 144.654 42.793 144.685V140.924C42.9039 140.906 43.013 140.88 43.1166 140.846L44.5607 144.334H44.5625Z" fill="url(#paint22_linear_756_4339)"/>
<path d="M42.1378 140.952V144.685C41.5276 144.654 40.9396 144.535 40.3867 144.339L41.8105 140.902C41.9177 140.926 42.0268 140.943 42.1359 140.952H42.1378Z" fill="url(#paint23_linear_756_4339)"/>
<path d="M41.1972 140.682L39.7845 144.091C39.2354 143.831 38.7306 143.492 38.2812 143.091L40.881 140.491C40.9809 140.561 41.0863 140.626 41.1972 140.682Z" fill="url(#paint24_linear_756_4339)"/>
<path d="M40.3977 140.048L37.8164 142.629C37.4133 142.181 37.0731 141.677 36.8105 141.127L40.1721 139.735C40.2387 139.846 40.3127 139.95 40.3977 140.048Z" fill="url(#paint25_linear_756_4339)"/>
<path d="M39.9052 139.14L36.5603 140.526C36.3625 139.966 36.2404 139.373 36.209 138.753H39.8183C39.8368 138.886 39.8646 139.014 39.9052 139.14Z" fill="url(#paint26_linear_756_4339)"/>
<path d="M39.8867 137.71C39.8497 137.836 39.8256 137.966 39.809 138.101H36.207C36.2385 137.483 36.3587 136.889 36.5584 136.331L39.8867 137.71Z" fill="url(#paint27_linear_756_4339)"/>
<path d="M40.3644 136.78C40.2812 136.884 40.2054 136.993 40.1388 137.106L36.8105 135.728C37.0713 135.179 37.4115 134.676 37.8127 134.229L40.3626 136.778L40.3644 136.78Z" fill="url(#paint28_linear_756_4339)"/>
<path d="M41.1601 136.122C41.0455 136.181 40.9382 136.251 40.8365 136.327L38.2793 133.77C38.7249 133.369 39.2279 133.03 39.7733 132.771L41.162 136.122H41.1601Z" fill="url(#paint29_linear_756_4339)"/>
<path d="M42.4659 131.507C38.6495 131.507 35.5449 134.611 35.5449 138.428C35.5449 142.244 38.6495 145.347 42.4659 145.347C46.2824 145.347 49.3851 142.242 49.3851 138.428C49.3851 134.613 46.2805 131.507 42.4659 131.507ZM44.9122 138.1C44.8993 137.997 44.8808 137.895 44.8586 137.795L48.3737 136.34C48.5697 136.895 48.6917 137.485 48.7213 138.1H44.9122ZM44.6256 137.185C44.5776 137.091 44.5202 137 44.4574 136.913L47.1274 134.243C47.5268 134.689 47.8633 135.192 48.1222 135.737L44.6256 137.185ZM44.0173 136.429C43.9322 136.359 43.8416 136.292 43.7473 136.231L45.1767 132.779C45.7203 133.041 46.2214 133.38 46.6652 133.781L44.0173 136.429ZM43.1556 135.952C43.0373 135.911 42.9171 135.881 42.7914 135.861V132.169C43.4127 132.2 44.0118 132.322 44.572 132.525L43.1556 135.95V135.952ZM42.1368 132.169V135.833C42.0111 135.844 41.8909 135.865 41.7725 135.891L40.3747 132.518C40.9294 132.32 41.5211 132.198 42.1368 132.169ZM39.77 132.769L41.1587 136.12C41.044 136.179 40.9368 136.249 40.8351 136.325L38.2778 133.768C38.7235 133.367 39.2264 133.028 39.7719 132.769H39.77ZM37.8119 134.228L40.3617 136.778C40.2785 136.882 40.2027 136.991 40.1361 137.104L36.8078 135.726C37.0685 135.177 37.4088 134.674 37.81 134.227L37.8119 134.228ZM36.5582 136.329L39.8865 137.708C39.8495 137.834 39.8255 137.963 39.8088 138.098H36.2069C36.2383 137.481 36.3585 136.887 36.5582 136.329ZM39.8162 138.751C39.8347 138.884 39.8625 139.012 39.9031 139.138L36.5582 140.524C36.3604 139.964 36.2383 139.371 36.2069 138.751H39.8162ZM36.8097 141.125L40.1713 139.733C40.2378 139.844 40.3118 139.948 40.3968 140.046L37.8156 142.627C37.4125 142.179 37.0722 141.675 36.8097 141.125ZM40.8776 140.489C40.9774 140.56 41.0828 140.624 41.1938 140.68L39.7811 144.089C39.2319 143.829 38.7271 143.49 38.2778 143.089L40.8776 140.489ZM41.8095 140.9C41.9168 140.924 42.0259 140.94 42.135 140.95V144.683C41.5248 144.652 40.9368 144.533 40.3839 144.337L41.8077 140.9H41.8095ZM42.7895 144.685V140.924C42.9005 140.905 43.0096 140.879 43.1131 140.846L44.5572 144.333C43.9988 144.533 43.4053 144.653 42.7877 144.685H42.7895ZM45.1637 144.08L43.7122 140.576C43.8028 140.519 43.8897 140.456 43.9711 140.389L46.6596 143.08C46.214 143.481 45.711 143.819 45.1637 144.08ZM47.1219 142.616L44.4259 139.92C44.4851 139.837 44.5424 139.752 44.5924 139.661L48.1204 141.122C47.8596 141.667 47.5213 142.172 47.1219 142.618V142.616ZM48.37 140.517L44.8401 139.054C44.8679 138.956 44.8864 138.855 44.9011 138.753H48.7195C48.688 139.367 48.5678 139.96 48.37 140.517Z" fill="#1D074F"/>
<path d="M55.3464 139.001C55.9336 139.001 56.4096 138.525 56.4096 137.938C56.4096 137.351 55.9336 136.875 55.3464 136.875C54.7592 136.875 54.2832 137.351 54.2832 137.938C54.2832 138.525 54.7592 139.001 55.3464 139.001Z" fill="url(#paint30_linear_756_4339)"/>
<path d="M55.3464 137.15C55.781 137.15 56.1323 137.501 56.1323 137.936C56.1323 138.37 55.781 138.722 55.3464 138.722C54.9119 138.722 54.5606 138.37 54.5606 137.936C54.5606 137.501 54.9119 137.15 55.3464 137.15ZM55.3464 136.595C54.6068 136.595 54.0059 137.196 54.0059 137.936C54.0059 138.675 54.6068 139.276 55.3464 139.276C56.086 139.276 56.687 138.675 56.687 137.936C56.687 137.196 56.086 136.595 55.3464 136.595Z" fill="#1D074F"/>
<path d="M44.9206 138.426C44.0275 138.426 43.3008 137.699 43.3008 136.806C43.3008 135.913 44.0275 135.186 44.9206 135.186C45.8136 135.186 46.5403 135.913 46.5403 136.806C46.5403 137.699 45.8136 138.426 44.9206 138.426Z" fill="white"/>
<path d="M44.9206 135.463C45.662 135.463 46.263 136.064 46.263 136.806C46.263 137.547 45.662 138.148 44.9206 138.148C44.1791 138.148 43.5782 137.547 43.5782 136.806C43.5782 136.064 44.1791 135.463 44.9206 135.463ZM44.9206 134.909C43.874 134.909 43.0234 135.759 43.0234 136.806C43.0234 137.852 43.874 138.703 44.9206 138.703C45.9671 138.703 46.8177 137.852 46.8177 136.806C46.8177 135.759 45.9671 134.909 44.9206 134.909Z" fill="#1D074F"/>
</g>
<defs>
<filter id="filter0_d_756_4339" x="143" y="38" width="39.3945" height="39.97" filterUnits="userSpaceOnUse" color-interpolation-filters="sRGB">
<feFlood flood-opacity="0" result="BackgroundImageFix"/>
<feColorMatrix in="SourceAlpha" type="matrix" values="0 0 0 0 0 0 0 0 0 0 0 0 0 0 0 0 0 0 127 0" result="hardAlpha"/>
<feOffset dx="3" dy="1"/>
<feGaussianBlur stdDeviation="2"/>
<feColorMatrix type="matrix" values="0 0 0 0 0.6 0 0 0 0 0.6 0 0 0 0 0.6 0 0 0 0.3 0"/>
<feBlend mode="normal" in2="BackgroundImageFix" result="effect1_dropShadow_756_4339"/>
<feBlend mode="normal" in="SourceGraphic" in2="effect1_dropShadow_756_4339" result="shape"/>
</filter>
<filter id="filter1_d_756_4339" x="136" y="49" width="189.008" height="186.673" filterUnits="userSpaceOnUse" color-interpolation-filters="sRGB">
<feFlood flood-opacity="0" result="BackgroundImageFix"/>
<feColorMatrix in="SourceAlpha" type="matrix" values="0 0 0 0 0 0 0 0 0 0 0 0 0 0 0 0 0 0 127 0" result="hardAlpha"/>
<feOffset dx="3" dy="1"/>
<feGaussianBlur stdDeviation="2"/>
<feColorMatrix type="matrix" values="0 0 0 0 0.6 0 0 0 0 0.6 0 0 0 0 0.6 0 0 0 0.3 0"/>
<feBlend mode="normal" in2="BackgroundImageFix" result="effect1_dropShadow_756_4339"/>
<feBlend mode="normal" in="SourceGraphic" in2="effect1_dropShadow_756_4339" result="shape"/>
</filter>
<filter id="filter2_d_756_4339" x="21" y="123" width="44.9355" height="32.5" filterUnits="userSpaceOnUse" color-interpolation-filters="sRGB">
<feFlood flood-opacity="0" result="BackgroundImageFix"/>
<feColorMatrix in="SourceAlpha" type="matrix" values="0 0 0 0 0 0 0 0 0 0 0 0 0 0 0 0 0 0 127 0" result="hardAlpha"/>
<feOffset dx="1" dy="1"/>
<feGaussianBlur stdDeviation="2"/>
<feColorMatrix type="matrix" values="0 0 0 0 0.6 0 0 0 0 0.6 0 0 0 0 0.6 0 0 0 0.3 0"/>
<feBlend mode="normal" in2="BackgroundImageFix" result="effect1_dropShadow_756_4339"/>
<feBlend mode="normal" in="SourceGraphic" in2="effect1_dropShadow_756_4339" result="shape"/>
</filter>
<linearGradient id="paint0_linear_756_4339" x1="159.692" y1="44.1573" x2="159.692" y2="69.8265" gradientUnits="userSpaceOnUse">
<stop offset="0.03" stop-color="#FDFE0C"/>
<stop offset="0.37" stop-color="#FDE40C"/>
<stop offset="0.71" stop-color="#FDD20C"/>
<stop offset="0.95" stop-color="#FDCC0C"/>
</linearGradient>
<linearGradient id="paint1_linear_756_4339" x1="227.467" y1="157.923" x2="227.467" y2="226.163" gradientUnits="userSpaceOnUse">
<stop offset="0.01" stop-color="#4AD800"/>
<stop offset="0.27" stop-color="#46D500"/>
<stop offset="0.49" stop-color="#3BCE00"/>
<stop offset="0.71" stop-color="#2AC200"/>
<stop offset="0.91" stop-color="#11B100"/>
<stop offset="1" stop-color="#03A800"/>
</linearGradient>
<linearGradient id="paint2_linear_756_4339" x1="191.868" y1="153.303" x2="191.868" y2="207.913" gradientUnits="userSpaceOnUse">
<stop offset="0.03" stop-color="#0FD2E2"/>
<stop offset="1" stop-color="#0F8EE2"/>
</linearGradient>
<linearGradient id="paint3_linear_756_4339" x1="175.157" y1="135.013" x2="175.157" y2="164.003" gradientUnits="userSpaceOnUse">
<stop offset="0.04" stop-color="#FF63BE"/>
<stop offset="0.98" stop-color="#FF0FE0"/>
</linearGradient>
<linearGradient id="paint4_linear_756_4339" x1="180.958" y1="90.413" x2="180.958" y2="130.473" gradientUnits="userSpaceOnUse">
<stop stop-color="#A94EFF"/>
<stop offset="0.23" stop-color="#9643E5"/>
<stop offset="0.53" stop-color="#8337C9"/>
<stop offset="0.8" stop-color="#7730B8"/>
<stop offset="1" stop-color="#732EB3"/>
</linearGradient>
<linearGradient id="paint5_linear_756_4339" x1="207.328" y1="56.5629" x2="207.328" y2="121.213" gradientUnits="userSpaceOnUse">
<stop offset="0.04" stop-color="#FF63BE"/>
<stop offset="0.98" stop-color="#FF0FE0"/>
</linearGradient>
<linearGradient id="paint6_linear_756_4339" x1="247.597" y1="56.4929" x2="247.597" y2="121.203" gradientUnits="userSpaceOnUse">
<stop offset="0.01" stop-color="#4AD800"/>
<stop offset="0.27" stop-color="#46D500"/>
<stop offset="0.49" stop-color="#3BCE00"/>
<stop offset="0.71" stop-color="#2AC200"/>
<stop offset="0.91" stop-color="#11B100"/>
<stop offset="1" stop-color="#03A800"/>
</linearGradient>
<linearGradient id="paint7_linear_756_4339" x1="273.938" y1="90.363" x2="273.938" y2="130.433" gradientUnits="userSpaceOnUse">
<stop offset="0.03" stop-color="#0FD2E2"/>
<stop offset="1" stop-color="#0F8EE2"/>
</linearGradient>
<linearGradient id="paint8_linear_756_4339" x1="279.808" y1="134.953" x2="279.808" y2="164.023" gradientUnits="userSpaceOnUse">
<stop offset="0.04" stop-color="#FF63BE"/>
<stop offset="0.98" stop-color="#FF0FE0"/>
</linearGradient>
<linearGradient id="paint9_linear_756_4339" x1="263.138" y1="153.283" x2="263.138" y2="207.813" gradientUnits="userSpaceOnUse">
<stop stop-color="#A94EFF"/>
<stop offset="0.23" stop-color="#9643E5"/>
<stop offset="0.53" stop-color="#8337C9"/>
<stop offset="0.8" stop-color="#7730B8"/>
<stop offset="1" stop-color="#732EB3"/>
</linearGradient>
<linearGradient id="paint10_linear_756_4339" x1="229.597" y1="99.353" x2="229.597" y2="175.943" gradientUnits="userSpaceOnUse">
<stop offset="0.03" stop-color="#FDFE0C"/>
<stop offset="0.37" stop-color="#FDE40C"/>
<stop offset="0.71" stop-color="#FDD20C"/>
<stop offset="0.95" stop-color="#FDCC0C"/>
</linearGradient>
<linearGradient id="paint11_linear_756_4339" x1="42.4669" y1="126.832" x2="42.4669" y2="149.67" gradientUnits="userSpaceOnUse">
<stop offset="0.01" stop-color="#4AD800"/>
<stop offset="0.4" stop-color="#27C000"/>
<stop offset="0.78" stop-color="#0CAE00"/>
<stop offset="1" stop-color="#03A800"/>
</linearGradient>
<linearGradient id="paint12_linear_756_4339" x1="42.4677" y1="129.731" x2="42.4677" y2="146.771" gradientUnits="userSpaceOnUse">
<stop offset="0.03" stop-color="#FDFE0C"/>
<stop offset="0.95" stop-color="#FDCC0C"/>
</linearGradient>
<linearGradient id="paint13_linear_756_4339" x1="42.4649" y1="131.832" x2="42.4649" y2="145.02" gradientUnits="userSpaceOnUse">
<stop offset="0.03" stop-color="#FDFE0C"/>
<stop offset="0.95" stop-color="#FDCC0C"/>
</linearGradient>
<linearGradient id="paint14_linear_756_4339" x1="41.257" y1="132.169" x2="41.257" y2="135.891" gradientUnits="userSpaceOnUse">
<stop offset="0.02" stop-color="#FF0FE0"/>
<stop offset="0.96" stop-color="#FF63BE"/>
</linearGradient>
<linearGradient id="paint15_linear_756_4339" x1="43.6843" y1="132.169" x2="43.6843" y2="135.952" gradientUnits="userSpaceOnUse">
<stop stop-color="#A94EFF"/>
<stop offset="0.23" stop-color="#9643E5"/>
<stop offset="0.53" stop-color="#8337C9"/>
<stop offset="0.8" stop-color="#7730B8"/>
<stop offset="1" stop-color="#732EB3"/>
</linearGradient>
<linearGradient id="paint16_linear_756_4339" x1="45.207" y1="132.779" x2="45.207" y2="136.429" gradientUnits="userSpaceOnUse">
<stop offset="0.03" stop-color="#FDFE0C"/>
<stop offset="0.95" stop-color="#FDCC0C"/>
</linearGradient>
<linearGradient id="paint17_linear_756_4339" x1="46.2914" y1="134.243" x2="46.2914" y2="137.183" gradientUnits="userSpaceOnUse">
<stop offset="0.03" stop-color="#0FD2E2"/>
<stop offset="1" stop-color="#0F8EE2"/>
</linearGradient>
<linearGradient id="paint18_linear_756_4339" x1="46.7898" y1="136.34" x2="46.7898" y2="138.099" gradientUnits="userSpaceOnUse">
<stop offset="0.01" stop-color="#4AD800"/>
<stop offset="0.4" stop-color="#27C000"/>
<stop offset="0.78" stop-color="#0CAE00"/>
<stop offset="1" stop-color="#03A800"/>
</linearGradient>
<linearGradient id="paint19_linear_756_4339" x1="46.7834" y1="138.753" x2="46.7834" y2="140.517" gradientUnits="userSpaceOnUse">
<stop stop-color="#A94EFF"/>
<stop offset="0.23" stop-color="#9643E5"/>
<stop offset="0.53" stop-color="#8337C9"/>
<stop offset="0.8" stop-color="#7730B8"/>
<stop offset="1" stop-color="#732EB3"/>
</linearGradient>
<linearGradient id="paint20_linear_756_4339" x1="46.2749" y1="139.659" x2="46.2749" y2="142.616" gradientUnits="userSpaceOnUse">
<stop offset="0.02" stop-color="#FF0FE0"/>
<stop offset="0.96" stop-color="#FF63BE"/>
</linearGradient>
<linearGradient id="paint21_linear_756_4339" x1="45.1885" y1="140.39" x2="45.1885" y2="144.08" gradientUnits="userSpaceOnUse">
<stop offset="0.03" stop-color="#FDFE0C"/>
<stop offset="0.95" stop-color="#FDCC0C"/>
</linearGradient>
<linearGradient id="paint22_linear_756_4339" x1="43.6787" y1="140.846" x2="43.6787" y2="144.685" gradientUnits="userSpaceOnUse">
<stop offset="0.03" stop-color="#0FD2E2"/>
<stop offset="1" stop-color="#0F8EE2"/>
</linearGradient>
<linearGradient id="paint23_linear_756_4339" x1="41.2632" y1="140.902" x2="41.2632" y2="144.685" gradientUnits="userSpaceOnUse">
<stop offset="0.01" stop-color="#4AD800"/>
<stop offset="0.4" stop-color="#27C000"/>
<stop offset="0.78" stop-color="#0CAE00"/>
<stop offset="1" stop-color="#03A800"/>
</linearGradient>
<linearGradient id="paint24_linear_756_4339" x1="39.7402" y1="140.491" x2="39.7402" y2="144.091" gradientUnits="userSpaceOnUse">
<stop stop-color="#A94EFF"/>
<stop offset="0.23" stop-color="#9643E5"/>
<stop offset="0.53" stop-color="#8337C9"/>
<stop offset="0.8" stop-color="#7730B8"/>
<stop offset="1" stop-color="#732EB3"/>
</linearGradient>
<linearGradient id="paint25_linear_756_4339" x1="38.606" y1="139.735" x2="38.606" y2="142.629" gradientUnits="userSpaceOnUse">
<stop offset="0.02" stop-color="#FF0FE0"/>
<stop offset="0.96" stop-color="#FF63BE"/>
</linearGradient>
<linearGradient id="paint26_linear_756_4339" x1="38.0562" y1="138.753" x2="38.0562" y2="140.526" gradientUnits="userSpaceOnUse">
<stop offset="0.03" stop-color="#FDFE0C"/>
<stop offset="0.95" stop-color="#FDCC0C"/>
</linearGradient>
<linearGradient id="paint27_linear_756_4339" x1="38.0468" y1="136.331" x2="38.0468" y2="138.099" gradientUnits="userSpaceOnUse">
<stop offset="0.03" stop-color="#0FD2E2"/>
<stop offset="1" stop-color="#0F8EE2"/>
</linearGradient>
<linearGradient id="paint28_linear_756_4339" x1="38.5875" y1="134.23" x2="38.5875" y2="137.106" gradientUnits="userSpaceOnUse">
<stop offset="0.01" stop-color="#4AD800"/>
<stop offset="0.4" stop-color="#27C000"/>
<stop offset="0.78" stop-color="#0CAE00"/>
<stop offset="1" stop-color="#03A800"/>
</linearGradient>
<linearGradient id="paint29_linear_756_4339" x1="39.7197" y1="132.771" x2="39.7197" y2="136.327" gradientUnits="userSpaceOnUse">
<stop stop-color="#A94EFF"/>
<stop offset="0.23" stop-color="#9643E5"/>
<stop offset="0.53" stop-color="#8337C9"/>
<stop offset="0.8" stop-color="#7730B8"/>
<stop offset="1" stop-color="#732EB3"/>
</linearGradient>
<linearGradient id="paint30_linear_756_4339" x1="55.3464" y1="136.873" x2="55.3464" y2="139.001" gradientUnits="userSpaceOnUse">
<stop offset="0.02" stop-color="#FF0FE0"/>
<stop offset="0.96" stop-color="#FF63BE"/>
</linearGradient>
<clipPath id="clip0_756_4339">
<rect width="312" height="176" rx="40" fill="white"/>
</clipPath>
</defs>
</svg>
