<svg width="312" height="176" viewBox="0 0 312 176" fill="none" xmlns="http://www.w3.org/2000/svg">
<g clip-path="url(#clip0_756_4336)">
<rect width="312" height="176" rx="40" fill="#FF53C5"/>
<path d="M30.58 57.5C31.54 57.5 32.338 57.668 32.974 58.004C33.622 58.34 34.132 58.802 34.504 59.39C34.888 59.966 35.158 60.632 35.314 61.388C35.482 62.144 35.566 62.936 35.566 63.764V64.628C35.566 66.704 35.05 68.306 34.018 69.434C32.986 70.55 31.492 71.108 29.536 71.108C29.068 71.108 28.672 71.096 28.348 71.072C28.024 71.048 27.67 71.012 27.286 70.964V69.488C27.682 69.536 28.048 69.572 28.384 69.596C28.72 69.62 29.128 69.632 29.608 69.632C30.7 69.632 31.564 69.428 32.2 69.02C32.836 68.612 33.292 68.03 33.568 67.274C33.844 66.506 33.982 65.582 33.982 64.502V63.692L34.414 62.09C34.402 63.038 34.216 63.824 33.856 64.448C33.508 65.072 33.022 65.54 32.398 65.852C31.786 66.164 31.078 66.32 30.274 66.32C29.338 66.32 28.546 66.134 27.898 65.762C27.25 65.378 26.758 64.856 26.422 64.196C26.098 63.536 25.936 62.786 25.936 61.946C25.936 61.094 26.11 60.332 26.458 59.66C26.806 58.988 27.322 58.46 28.006 58.076C28.702 57.692 29.56 57.5 30.58 57.5ZM30.58 59.012C29.92 59.012 29.368 59.138 28.924 59.39C28.48 59.642 28.144 59.99 27.916 60.434C27.7 60.866 27.592 61.37 27.592 61.946C27.592 62.522 27.7 63.032 27.916 63.476C28.132 63.92 28.45 64.268 28.87 64.52C29.302 64.76 29.83 64.88 30.454 64.88C31.066 64.88 31.612 64.766 32.092 64.538C32.584 64.31 32.968 63.98 33.244 63.548C33.52 63.104 33.658 62.564 33.658 61.928C33.658 61.4 33.55 60.914 33.334 60.47C33.118 60.026 32.782 59.672 32.326 59.408C31.87 59.144 31.288 59.012 30.58 59.012ZM37.7292 67.886V65.762L43.1832 57.536L44.3892 58.49L39.2952 66.194L39.4572 66.518H47.9532V67.886H37.7292ZM44.5872 71V61.694H46.2072V71H44.5872ZM52.0861 71V58.724L52.8781 59.336H49.1701V57.86H53.8141V71H52.0861ZM57.2867 71V68.804H59.3747V71H57.2867ZM67.3796 71.324C66.3956 71.324 65.5556 71.156 64.8596 70.82C64.1756 70.472 63.6176 70.004 63.1856 69.416C62.7656 68.828 62.4596 68.15 62.2676 67.382C62.0756 66.602 61.9796 65.78 61.9796 64.916V63.944C61.9796 62.732 62.1656 61.64 62.5376 60.668C62.9216 59.696 63.5096 58.928 64.3016 58.364C65.1056 57.788 66.1316 57.5 67.3796 57.5C68.6276 57.5 69.6476 57.788 70.4396 58.364C71.2316 58.928 71.8136 59.696 72.1856 60.668C72.5696 61.64 72.7616 62.732 72.7616 63.944V64.916C72.7616 65.78 72.6656 66.602 72.4736 67.382C72.2816 68.15 71.9696 68.828 71.5376 69.416C71.1176 70.004 70.5656 70.472 69.8816 70.82C69.1976 71.156 68.3636 71.324 67.3796 71.324ZM67.3796 69.74C68.6276 69.74 69.5396 69.32 70.1156 68.48C70.7036 67.628 70.9976 66.284 70.9976 64.448C70.9976 62.528 70.6976 61.154 70.0976 60.326C69.5096 59.498 68.6036 59.084 67.3796 59.084C66.1436 59.084 65.2256 59.498 64.6256 60.326C64.0376 61.154 63.7436 62.516 63.7436 64.412C63.7436 66.26 64.0376 67.61 64.6256 68.462C65.2136 69.314 66.1316 69.74 67.3796 69.74ZM80.7565 71.324C79.7725 71.324 78.9325 71.156 78.2365 70.82C77.5525 70.472 76.9945 70.004 76.5625 69.416C76.1425 68.828 75.8365 68.15 75.6445 67.382C75.4525 66.602 75.3565 65.78 75.3565 64.916V63.944C75.3565 62.732 75.5425 61.64 75.9145 60.668C76.2985 59.696 76.8865 58.928 77.6785 58.364C78.4825 57.788 79.5085 57.5 80.7565 57.5C82.0045 57.5 83.0245 57.788 83.8165 58.364C84.6085 58.928 85.1905 59.696 85.5625 60.668C85.9465 61.64 86.1385 62.732 86.1385 63.944V64.916C86.1385 65.78 86.0425 66.602 85.8505 67.382C85.6585 68.15 85.3465 68.828 84.9145 69.416C84.4945 70.004 83.9425 70.472 83.2585 70.82C82.5745 71.156 81.7405 71.324 80.7565 71.324ZM80.7565 69.74C82.0045 69.74 82.9165 69.32 83.4925 68.48C84.0805 67.628 84.3745 66.284 84.3745 64.448C84.3745 62.528 84.0745 61.154 83.4745 60.326C82.8865 59.498 81.9805 59.084 80.7565 59.084C79.5205 59.084 78.6025 59.498 78.0025 60.326C77.4145 61.154 77.1205 62.516 77.1205 64.412C77.1205 66.26 77.4145 67.61 78.0025 68.462C78.5905 69.314 79.5085 69.74 80.7565 69.74Z" fill="black"/>
<path d="M27.48 45V38.38H28.46V45H27.48ZM25.26 38.58V37.7H30.68V38.58H25.26ZM33.673 45.18C33.2063 45.18 32.7963 45.1 32.443 44.94C32.0896 44.78 31.7896 44.57 31.543 44.31C31.303 44.0433 31.1196 43.7467 30.993 43.42C30.873 43.0933 30.813 42.76 30.813 42.42V42.24C30.813 41.9 30.8763 41.5667 31.003 41.24C31.1296 40.9067 31.3163 40.61 31.563 40.35C31.8096 40.0833 32.1096 39.8733 32.463 39.72C32.8163 39.56 33.2196 39.48 33.673 39.48C34.1263 39.48 34.5296 39.56 34.883 39.72C35.2363 39.8733 35.5363 40.0833 35.783 40.35C36.0296 40.61 36.2163 40.9067 36.343 41.24C36.4696 41.5667 36.533 41.9 36.533 42.24V42.42C36.533 42.76 36.4696 43.0933 36.343 43.42C36.223 43.7467 36.0396 44.0433 35.793 44.31C35.553 44.57 35.2563 44.78 34.903 44.94C34.5496 45.1 34.1396 45.18 33.673 45.18ZM33.673 44.32C34.073 44.32 34.413 44.2333 34.693 44.06C34.9796 43.88 35.1963 43.64 35.343 43.34C35.4963 43.04 35.573 42.7033 35.573 42.33C35.573 41.95 35.4963 41.61 35.343 41.31C35.1896 41.01 34.9696 40.7733 34.683 40.6C34.403 40.4267 34.0663 40.34 33.673 40.34C33.2863 40.34 32.9496 40.4267 32.663 40.6C32.3763 40.7733 32.1563 41.01 32.003 41.31C31.8496 41.61 31.773 41.95 31.773 42.33C31.773 42.7033 31.8463 43.04 31.993 43.34C32.1463 43.64 32.363 43.88 32.643 44.06C32.9296 44.2333 33.273 44.32 33.673 44.32ZM40.0508 45.06C39.6508 45.06 39.3041 45.0033 39.0108 44.89C38.7241 44.7767 38.5008 44.5833 38.3408 44.31C38.1874 44.03 38.1108 43.6533 38.1108 43.18V38.04H39.0308V43.3C39.0308 43.5867 39.1074 43.81 39.2608 43.97C39.4208 44.1233 39.6441 44.2 39.9308 44.2H40.8708V45.06H40.0508ZM37.1908 40.38V39.66H40.8708V40.38H37.1908ZM45.4391 45V43.4H45.2791V41.55C45.2791 41.1833 45.1824 40.9067 44.9891 40.72C44.8024 40.5333 44.5257 40.44 44.1591 40.44C43.9524 40.44 43.7391 40.4433 43.5191 40.45C43.2991 40.4567 43.0891 40.4633 42.8891 40.47C42.6891 40.4767 42.5157 40.4867 42.3691 40.5V39.66C42.5157 39.6467 42.6691 39.6367 42.8291 39.63C42.9957 39.6167 43.1657 39.61 43.3391 39.61C43.5124 39.6033 43.6791 39.6 43.8391 39.6C44.3857 39.6 44.8324 39.6667 45.1791 39.8C45.5257 39.9267 45.7824 40.1367 45.9491 40.43C46.1157 40.7233 46.1991 41.12 46.1991 41.62V45H45.4391ZM43.6891 45.14C43.2891 45.14 42.9424 45.0733 42.6491 44.94C42.3624 44.8 42.1391 44.6 41.9791 44.34C41.8257 44.08 41.7491 43.7667 41.7491 43.4C41.7491 43.02 41.8324 42.7033 41.9991 42.45C42.1724 42.1967 42.4224 42.0067 42.7491 41.88C43.0757 41.7467 43.4691 41.68 43.9291 41.68H45.3791V42.4H43.8891C43.5024 42.4 43.2057 42.4933 42.9991 42.68C42.7924 42.8667 42.6891 43.1067 42.6891 43.4C42.6891 43.6933 42.7924 43.93 42.9991 44.11C43.2057 44.29 43.5024 44.38 43.8891 44.38C44.1157 44.38 44.3324 44.34 44.5391 44.26C44.7457 44.1733 44.9157 44.0333 45.0491 43.84C45.1891 43.64 45.2657 43.3667 45.2791 43.02L45.5391 43.4C45.5057 43.78 45.4124 44.1 45.2591 44.36C45.1124 44.6133 44.9057 44.8067 44.6391 44.94C44.3791 45.0733 44.0624 45.14 43.6891 45.14ZM48.021 45V37.7H48.981V45H48.021ZM47.281 38.46V37.7H48.981V38.46H47.281ZM54.0177 45.04V44.18H56.0577C56.4511 44.18 56.7544 44.07 56.9677 43.85C57.1877 43.6233 57.2977 43.3233 57.2977 42.95C57.2977 42.57 57.1911 42.2733 56.9777 42.06C56.7644 41.84 56.4577 41.73 56.0577 41.73H54.0177V41.09H55.9177C56.3844 41.09 56.7944 41.1467 57.1477 41.26C57.5077 41.3733 57.7877 41.5633 57.9877 41.83C58.1944 42.09 58.2977 42.4467 58.2977 42.9V43.04C58.2977 43.4667 58.2111 43.83 58.0377 44.13C57.8644 44.4233 57.6011 44.65 57.2477 44.81C56.8944 44.9633 56.4511 45.04 55.9177 45.04H54.0177ZM53.2377 45.04V37.66H54.2177V45.04H53.2377ZM54.0177 41.55V40.91H55.7877C56.2011 40.91 56.5044 40.8 56.6977 40.58C56.8977 40.3533 56.9977 40.0667 56.9977 39.72C56.9977 39.3667 56.8977 39.08 56.6977 38.86C56.5044 38.6333 56.2011 38.52 55.7877 38.52H54.0177V37.66H55.6177C56.4177 37.66 57.0144 37.83 57.4077 38.17C57.8011 38.5033 57.9977 38.9867 57.9977 39.62V39.76C57.9977 40.2067 57.8977 40.5633 57.6977 40.83C57.4977 41.09 57.2177 41.2767 56.8577 41.39C56.5044 41.4967 56.0911 41.55 55.6177 41.55H54.0177ZM63.1246 45V43.4H62.9646V41.55C62.9646 41.1833 62.8679 40.9067 62.6746 40.72C62.4879 40.5333 62.2113 40.44 61.8446 40.44C61.6379 40.44 61.4246 40.4433 61.2046 40.45C60.9846 40.4567 60.7746 40.4633 60.5746 40.47C60.3746 40.4767 60.2013 40.4867 60.0546 40.5V39.66C60.2013 39.6467 60.3546 39.6367 60.5146 39.63C60.6813 39.6167 60.8513 39.61 61.0246 39.61C61.1979 39.6033 61.3646 39.6 61.5246 39.6C62.0713 39.6 62.5179 39.6667 62.8646 39.8C63.2113 39.9267 63.4679 40.1367 63.6346 40.43C63.8013 40.7233 63.8846 41.12 63.8846 41.62V45H63.1246ZM61.3746 45.14C60.9746 45.14 60.6279 45.0733 60.3346 44.94C60.0479 44.8 59.8246 44.6 59.6646 44.34C59.5113 44.08 59.4346 43.7667 59.4346 43.4C59.4346 43.02 59.5179 42.7033 59.6846 42.45C59.8579 42.1967 60.1079 42.0067 60.4346 41.88C60.7613 41.7467 61.1546 41.68 61.6146 41.68H63.0646V42.4H61.5746C61.1879 42.4 60.8913 42.4933 60.6846 42.68C60.4779 42.8667 60.3746 43.1067 60.3746 43.4C60.3746 43.6933 60.4779 43.93 60.6846 44.11C60.8913 44.29 61.1879 44.38 61.5746 44.38C61.8013 44.38 62.0179 44.34 62.2246 44.26C62.4313 44.1733 62.6013 44.0333 62.7346 43.84C62.8746 43.64 62.9513 43.3667 62.9646 43.02L63.2246 43.4C63.1913 43.78 63.0979 44.1 62.9446 44.36C62.7979 44.6133 62.5913 44.8067 62.3246 44.94C62.0646 45.0733 61.7479 45.14 61.3746 45.14ZM65.7066 45V37.7H66.6666V45H65.7066ZM64.9666 38.46V37.7H66.6666V38.46H64.9666ZM71.7379 45V43.4H71.5779V41.55C71.5779 41.1833 71.4812 40.9067 71.2879 40.72C71.1012 40.5333 70.8246 40.44 70.4579 40.44C70.2512 40.44 70.0379 40.4433 69.8179 40.45C69.5979 40.4567 69.3879 40.4633 69.1879 40.47C68.9879 40.4767 68.8146 40.4867 68.6679 40.5V39.66C68.8146 39.6467 68.9679 39.6367 69.1279 39.63C69.2946 39.6167 69.4646 39.61 69.6379 39.61C69.8112 39.6033 69.9779 39.6 70.1379 39.6C70.6846 39.6 71.1312 39.6667 71.4779 39.8C71.8246 39.9267 72.0812 40.1367 72.2479 40.43C72.4146 40.7233 72.4979 41.12 72.4979 41.62V45H71.7379ZM69.9879 45.14C69.5879 45.14 69.2412 45.0733 68.9479 44.94C68.6612 44.8 68.4379 44.6 68.2779 44.34C68.1246 44.08 68.0479 43.7667 68.0479 43.4C68.0479 43.02 68.1312 42.7033 68.2979 42.45C68.4712 42.1967 68.7212 42.0067 69.0479 41.88C69.3746 41.7467 69.7679 41.68 70.2279 41.68H71.6779V42.4H70.1879C69.8012 42.4 69.5046 42.4933 69.2979 42.68C69.0912 42.8667 68.9879 43.1067 68.9879 43.4C68.9879 43.6933 69.0912 43.93 69.2979 44.11C69.5046 44.29 69.8012 44.38 70.1879 44.38C70.4146 44.38 70.6312 44.34 70.8379 44.26C71.0446 44.1733 71.2146 44.0333 71.3479 43.84C71.4879 43.64 71.5646 43.3667 71.5779 43.02L71.8379 43.4C71.8046 43.78 71.7112 44.1 71.5579 44.36C71.4112 44.6133 71.2046 44.8067 70.9379 44.94C70.6779 45.0733 70.3612 45.14 69.9879 45.14ZM74.2598 45V39.66H75.0198V41.95H74.8998C74.8998 41.4233 74.9698 40.98 75.1098 40.62C75.2565 40.2533 75.4765 39.9767 75.7698 39.79C76.0632 39.5967 76.4332 39.5 76.8798 39.5H76.9198C77.5932 39.5 78.0898 39.71 78.4098 40.13C78.7365 40.55 78.8998 41.1567 78.8998 41.95V45H77.9398V41.75C77.9398 41.3367 77.8232 41.0067 77.5898 40.76C77.3565 40.5067 77.0365 40.38 76.6298 40.38C76.2098 40.38 75.8698 40.51 75.6098 40.77C75.3498 41.03 75.2198 41.3767 75.2198 41.81V45H74.2598ZM82.9463 45.18C82.4863 45.18 82.0863 45.1 81.7463 44.94C81.413 44.78 81.1363 44.5667 80.9163 44.3C80.6963 44.0267 80.5297 43.7267 80.4163 43.4C80.3097 43.0733 80.2563 42.7467 80.2563 42.42V42.24C80.2563 41.9 80.3097 41.5667 80.4163 41.24C80.5297 40.9133 80.6963 40.62 80.9163 40.36C81.143 40.0933 81.423 39.88 81.7563 39.72C82.0897 39.56 82.4797 39.48 82.9263 39.48C83.373 39.48 83.773 39.5633 84.1263 39.73C84.4863 39.8967 84.773 40.1333 84.9863 40.44C85.2063 40.74 85.3297 41.0967 85.3563 41.51H84.4363C84.3897 41.1767 84.2363 40.9 83.9763 40.68C83.7163 40.4533 83.3663 40.34 82.9263 40.34C82.5463 40.34 82.2297 40.4267 81.9763 40.6C81.723 40.7733 81.533 41.01 81.4063 41.31C81.2797 41.61 81.2163 41.95 81.2163 42.33C81.2163 42.6967 81.2797 43.0333 81.4063 43.34C81.533 43.64 81.723 43.88 81.9763 44.06C82.2363 44.2333 82.5597 44.32 82.9463 44.32C83.2463 44.32 83.5063 44.2667 83.7263 44.16C83.9463 44.0533 84.123 43.91 84.2563 43.73C84.3897 43.55 84.4697 43.3467 84.4963 43.12H85.4163C85.3963 43.54 85.273 43.9033 85.0463 44.21C84.8263 44.5167 84.533 44.7567 84.1663 44.93C83.8063 45.0967 83.3997 45.18 82.9463 45.18ZM88.9908 45.18C88.5241 45.18 88.1208 45.1 87.7808 44.94C87.4408 44.78 87.1641 44.57 86.9508 44.31C86.7374 44.0433 86.5774 43.7467 86.4708 43.42C86.3708 43.0933 86.3208 42.76 86.3208 42.42V42.24C86.3208 41.8933 86.3708 41.5567 86.4708 41.23C86.5774 40.9033 86.7374 40.61 86.9508 40.35C87.1641 40.0833 87.4341 39.8733 87.7608 39.72C88.0941 39.56 88.4841 39.48 88.9308 39.48C89.5108 39.48 89.9874 39.6067 90.3608 39.86C90.7408 40.1067 91.0208 40.4267 91.2008 40.82C91.3874 41.2133 91.4808 41.6333 91.4808 42.08V42.51H86.7408V41.79H90.7808L90.5608 42.18C90.5608 41.8 90.5008 41.4733 90.3808 41.2C90.2608 40.92 90.0808 40.7033 89.8408 40.55C89.6008 40.3967 89.2974 40.32 88.9308 40.32C88.5508 40.32 88.2341 40.4067 87.9808 40.58C87.7341 40.7533 87.5474 40.99 87.4208 41.29C87.3008 41.59 87.2408 41.9367 87.2408 42.33C87.2408 42.71 87.3008 43.0533 87.4208 43.36C87.5474 43.66 87.7408 43.9 88.0008 44.08C88.2608 44.2533 88.5908 44.34 88.9908 44.34C89.4108 44.34 89.7508 44.2467 90.0108 44.06C90.2774 43.8733 90.4374 43.6567 90.4908 43.41H91.3908C91.3174 43.7767 91.1708 44.0933 90.9508 44.36C90.7308 44.6267 90.4541 44.83 90.1208 44.97C89.7874 45.11 89.4108 45.18 88.9908 45.18ZM95.6392 47V37.7H96.4992V47H95.6392ZM104.535 45.18C103.968 45.18 103.455 45.0867 102.995 44.9C102.535 44.7133 102.138 44.45 101.805 44.11C101.478 43.77 101.225 43.37 101.045 42.91C100.865 42.4433 100.775 41.9367 100.775 41.39V41.17C100.775 40.7033 100.855 40.2533 101.015 39.82C101.182 39.38 101.418 38.9867 101.725 38.64C102.038 38.2867 102.418 38.01 102.865 37.81C103.312 37.6033 103.815 37.5 104.375 37.5C104.982 37.5 105.522 37.6167 105.995 37.85C106.468 38.0767 106.848 38.3967 107.135 38.81C107.422 39.2167 107.588 39.69 107.635 40.23H106.635C106.588 39.8233 106.455 39.4867 106.235 39.22C106.015 38.9467 105.742 38.7433 105.415 38.61C105.095 38.47 104.748 38.4 104.375 38.4C103.995 38.4 103.645 38.47 103.325 38.61C103.005 38.7433 102.728 38.9367 102.495 39.19C102.268 39.4433 102.092 39.7467 101.965 40.1C101.838 40.4533 101.775 40.85 101.775 41.29C101.775 41.79 101.842 42.23 101.975 42.61C102.115 42.9833 102.308 43.2967 102.555 43.55C102.802 43.7967 103.092 43.9833 103.425 44.11C103.765 44.2367 104.135 44.3 104.535 44.3C105.102 44.3 105.598 44.1867 106.025 43.96C106.458 43.7267 106.785 43.4267 107.005 43.06L106.645 44.25V42.08H107.565V43.82C107.238 44.2467 106.818 44.58 106.305 44.82C105.792 45.06 105.202 45.18 104.535 45.18ZM104.275 42.28V41.46H108.185V42.28H104.275ZM114.525 45V37.7H115.505V45H114.525ZM109.585 45V37.7H110.565V45H109.585ZM110.365 41.81V40.93H114.725V41.81H110.365ZM119.993 45.18C119.386 45.18 118.869 45.08 118.443 44.88C118.016 44.68 117.689 44.4033 117.463 44.05C117.236 43.6967 117.123 43.2967 117.123 42.85H118.103C118.103 43.07 118.159 43.29 118.273 43.51C118.393 43.73 118.589 43.9133 118.863 44.06C119.143 44.2067 119.519 44.28 119.993 44.28C120.433 44.28 120.793 44.2167 121.073 44.09C121.353 43.9567 121.559 43.7867 121.693 43.58C121.826 43.3667 121.893 43.1367 121.893 42.89C121.893 42.59 121.763 42.3433 121.503 42.15C121.243 41.95 120.863 41.8267 120.363 41.78L119.553 41.71C118.906 41.6567 118.389 41.4567 118.003 41.11C117.616 40.7633 117.423 40.3067 117.423 39.74C117.423 39.2933 117.529 38.9033 117.743 38.57C117.963 38.2367 118.266 37.9767 118.653 37.79C119.039 37.5967 119.489 37.5 120.003 37.5C120.509 37.5 120.956 37.5933 121.343 37.78C121.729 37.9667 122.029 38.23 122.243 38.57C122.463 38.9033 122.573 39.3033 122.573 39.77H121.593C121.593 39.5367 121.536 39.3167 121.423 39.11C121.316 38.9033 121.146 38.7333 120.913 38.6C120.679 38.4667 120.376 38.4 120.003 38.4C119.643 38.4 119.343 38.4633 119.103 38.59C118.869 38.7167 118.693 38.8833 118.573 39.09C118.459 39.29 118.403 39.5067 118.403 39.74C118.403 40.0067 118.506 40.2433 118.713 40.45C118.919 40.6567 119.226 40.7767 119.633 40.81L120.443 40.88C120.943 40.92 121.373 41.0267 121.733 41.2C122.099 41.3667 122.379 41.5933 122.573 41.88C122.773 42.16 122.873 42.4967 122.873 42.89C122.873 43.3367 122.753 43.7333 122.513 44.08C122.273 44.4267 121.936 44.6967 121.503 44.89C121.069 45.0833 120.566 45.18 119.993 45.18Z" fill="black"/>
<path d="M238.49 43.2C237.957 43.2 237.51 43.1067 237.15 42.92C236.797 42.7333 236.513 42.48 236.3 42.16C236.093 41.8333 235.943 41.46 235.85 41.04C235.763 40.62 235.72 40.18 235.72 39.72V39.24C235.72 38.0867 236.007 37.2 236.58 36.58C237.153 35.9533 237.983 35.64 239.07 35.64C239.33 35.64 239.55 35.6467 239.73 35.66C239.91 35.6733 240.107 35.6933 240.32 35.72V36.54C240.1 36.5133 239.897 36.4933 239.71 36.48C239.523 36.4667 239.297 36.46 239.03 36.46C238.423 36.46 237.943 36.5733 237.59 36.8C237.237 37.0267 236.983 37.3533 236.83 37.78C236.677 38.2 236.6 38.71 236.6 39.31V39.76L236.36 40.65C236.367 40.1233 236.467 39.6867 236.66 39.34C236.86 38.9933 237.13 38.7333 237.47 38.56C237.817 38.3867 238.213 38.3 238.66 38.3C239.18 38.3 239.62 38.4067 239.98 38.62C240.34 38.8267 240.61 39.1133 240.79 39.48C240.977 39.8467 241.07 40.2633 241.07 40.73C241.07 41.2033 240.973 41.6267 240.78 42C240.587 42.3733 240.297 42.6667 239.91 42.88C239.53 43.0933 239.057 43.2 238.49 43.2ZM238.49 42.36C238.857 42.36 239.163 42.29 239.41 42.15C239.657 42.01 239.84 41.82 239.96 41.58C240.087 41.3333 240.15 41.05 240.15 40.73C240.15 40.41 240.09 40.1267 239.97 39.88C239.85 39.6333 239.67 39.4433 239.43 39.31C239.197 39.17 238.907 39.1 238.56 39.1C238.22 39.1 237.913 39.1633 237.64 39.29C237.373 39.4167 237.163 39.6033 237.01 39.85C236.857 40.09 236.78 40.3867 236.78 40.74C236.78 41.0333 236.84 41.3033 236.96 41.55C237.08 41.7967 237.267 41.9933 237.52 42.14C237.773 42.2867 238.097 42.36 238.49 42.36ZM247.017 43.18C246.637 43.18 246.287 43.11 245.967 42.97C245.647 42.83 245.367 42.6333 245.127 42.38C244.894 42.1267 244.711 41.8333 244.577 41.5C244.451 41.1667 244.387 40.8067 244.387 40.42V40.24C244.387 39.86 244.451 39.5033 244.577 39.17C244.704 38.8367 244.881 38.5433 245.107 38.29C245.341 38.0367 245.614 37.84 245.927 37.7C246.247 37.5533 246.601 37.48 246.987 37.48C247.394 37.48 247.764 37.5667 248.097 37.74C248.431 37.9067 248.704 38.17 248.917 38.53C249.131 38.89 249.251 39.3567 249.277 39.93L248.877 39.29V35.7H249.837V43H249.077V40.63H249.357C249.331 41.2367 249.204 41.73 248.977 42.11C248.751 42.4833 248.464 42.7567 248.117 42.93C247.777 43.0967 247.411 43.18 247.017 43.18ZM247.147 42.34C247.474 42.34 247.771 42.2667 248.037 42.12C248.304 41.9733 248.517 41.7633 248.677 41.49C248.837 41.21 248.917 40.8833 248.917 40.51V40.05C248.917 39.6833 248.834 39.3733 248.667 39.12C248.507 38.86 248.291 38.6633 248.017 38.53C247.751 38.39 247.457 38.32 247.137 38.32C246.784 38.32 246.471 38.4033 246.197 38.57C245.931 38.7367 245.721 38.97 245.567 39.27C245.421 39.57 245.347 39.9233 245.347 40.33C245.347 40.7367 245.424 41.0933 245.577 41.4C245.731 41.7 245.944 41.9333 246.217 42.1C246.491 42.26 246.801 42.34 247.147 42.34ZM254.912 43V41.4H254.752V39.55C254.752 39.1833 254.655 38.9067 254.462 38.72C254.275 38.5333 253.998 38.44 253.632 38.44C253.425 38.44 253.212 38.4433 252.992 38.45C252.772 38.4567 252.562 38.4633 252.362 38.47C252.162 38.4767 251.988 38.4867 251.842 38.5V37.66C251.988 37.6467 252.142 37.6367 252.302 37.63C252.468 37.6167 252.638 37.61 252.812 37.61C252.985 37.6033 253.152 37.6 253.312 37.6C253.858 37.6 254.305 37.6667 254.652 37.8C254.998 37.9267 255.255 38.1367 255.422 38.43C255.588 38.7233 255.672 39.12 255.672 39.62V43H254.912ZM253.162 43.14C252.762 43.14 252.415 43.0733 252.122 42.94C251.835 42.8 251.612 42.6 251.452 42.34C251.298 42.08 251.222 41.7667 251.222 41.4C251.222 41.02 251.305 40.7033 251.472 40.45C251.645 40.1967 251.895 40.0067 252.222 39.88C252.548 39.7467 252.942 39.68 253.402 39.68H254.852V40.4H253.362C252.975 40.4 252.678 40.4933 252.472 40.68C252.265 40.8667 252.162 41.1067 252.162 41.4C252.162 41.6933 252.265 41.93 252.472 42.11C252.678 42.29 252.975 42.38 253.362 42.38C253.588 42.38 253.805 42.34 254.012 42.26C254.218 42.1733 254.388 42.0333 254.522 41.84C254.662 41.64 254.738 41.3667 254.752 41.02L255.012 41.4C254.978 41.78 254.885 42.1 254.732 42.36C254.585 42.6133 254.378 42.8067 254.112 42.94C253.852 43.0733 253.535 43.14 253.162 43.14ZM257.054 45.08V44.22H257.824C258.051 44.22 258.241 44.19 258.394 44.13C258.554 44.0767 258.684 43.9833 258.784 43.85C258.891 43.7167 258.977 43.54 259.044 43.32L260.724 37.66H261.664L259.884 43.57C259.777 43.9233 259.627 44.21 259.434 44.43C259.241 44.6567 259.004 44.82 258.724 44.92C258.451 45.0267 258.131 45.08 257.764 45.08H257.054ZM258.684 42.88V42.08H259.844V42.88H258.684ZM258.584 42.88L256.674 37.66H257.654L259.484 42.88H258.584ZM264.594 43.16C263.894 43.16 263.35 43.01 262.964 42.71C262.584 42.41 262.387 42 262.374 41.48H263.274C263.287 41.6867 263.39 41.8833 263.584 42.07C263.784 42.25 264.12 42.34 264.594 42.34C265.02 42.34 265.347 42.2567 265.574 42.09C265.8 41.9167 265.914 41.7067 265.914 41.46C265.914 41.24 265.83 41.07 265.664 40.95C265.497 40.8233 265.227 40.74 264.854 40.7L264.274 40.64C263.767 40.5867 263.354 40.4367 263.034 40.19C262.714 39.9367 262.554 39.5833 262.554 39.13C262.554 38.79 262.64 38.5 262.814 38.26C262.987 38.0133 263.227 37.8267 263.534 37.7C263.84 37.5667 264.194 37.5 264.594 37.5C265.194 37.5 265.68 37.6333 266.054 37.9C266.427 38.1667 266.62 38.5633 266.634 39.09H265.734C265.727 38.8767 265.627 38.6967 265.434 38.55C265.247 38.3967 264.967 38.32 264.594 38.32C264.22 38.32 263.937 38.3967 263.744 38.55C263.55 38.7033 263.454 38.8967 263.454 39.13C263.454 39.33 263.52 39.49 263.654 39.61C263.794 39.73 264.02 39.8067 264.334 39.84L264.914 39.9C265.487 39.96 265.947 40.12 266.294 40.38C266.64 40.6333 266.814 40.9933 266.814 41.46C266.814 41.7933 266.717 42.09 266.524 42.35C266.337 42.6033 266.077 42.8033 265.744 42.95C265.41 43.09 265.027 43.16 264.594 43.16ZM270.541 43V35.7H271.501V43H270.541ZM269.801 36.46V35.7H271.501V36.46H269.801ZM275.612 43.18C275.145 43.18 274.742 43.1 274.402 42.94C274.062 42.78 273.785 42.57 273.572 42.31C273.359 42.0433 273.199 41.7467 273.092 41.42C272.992 41.0933 272.942 40.76 272.942 40.42V40.24C272.942 39.8933 272.992 39.5567 273.092 39.23C273.199 38.9033 273.359 38.61 273.572 38.35C273.785 38.0833 274.055 37.8733 274.382 37.72C274.715 37.56 275.105 37.48 275.552 37.48C276.132 37.48 276.609 37.6067 276.982 37.86C277.362 38.1067 277.642 38.4267 277.822 38.82C278.009 39.2133 278.102 39.6333 278.102 40.08V40.51H273.362V39.79H277.402L277.182 40.18C277.182 39.8 277.122 39.4733 277.002 39.2C276.882 38.92 276.702 38.7033 276.462 38.55C276.222 38.3967 275.919 38.32 275.552 38.32C275.172 38.32 274.855 38.4067 274.602 38.58C274.355 38.7533 274.169 38.99 274.042 39.29C273.922 39.59 273.862 39.9367 273.862 40.33C273.862 40.71 273.922 41.0533 274.042 41.36C274.169 41.66 274.362 41.9 274.622 42.08C274.882 42.2533 275.212 42.34 275.612 42.34C276.032 42.34 276.372 42.2467 276.632 42.06C276.899 41.8733 277.059 41.6567 277.112 41.41H278.012C277.939 41.7767 277.792 42.0933 277.572 42.36C277.352 42.6267 277.075 42.83 276.742 42.97C276.409 43.11 276.032 43.18 275.612 43.18ZM279.605 43V37.39C279.605 36.7967 279.762 36.36 280.075 36.08C280.388 35.8 280.848 35.66 281.455 35.66H282.115V36.46H281.295C281.048 36.46 280.858 36.53 280.725 36.67C280.592 36.8033 280.525 36.99 280.525 37.23V43H279.605ZM278.865 38.44V37.72H282.215V38.44H278.865ZM285.412 43.06C285.012 43.06 284.665 43.0033 284.372 42.89C284.085 42.7767 283.862 42.5833 283.702 42.31C283.549 42.03 283.472 41.6533 283.472 41.18V36.04H284.392V41.3C284.392 41.5867 284.469 41.81 284.622 41.97C284.782 42.1233 285.005 42.2 285.292 42.2H286.232V43.06H285.412ZM282.552 38.38V37.66H286.232V38.38H282.552Z" fill="black"/>
<path d="M68.06 144V136.7H69.36L71.52 141.57H71.68L73.83 136.7H75.14V144H74.16V137.77L74.23 137.79L72.16 142.49H70.96L68.88 137.79L68.96 137.77V144H68.06ZM76.7592 146.08V145.22H77.5292C77.7559 145.22 77.9459 145.19 78.0992 145.13C78.2592 145.077 78.3892 144.983 78.4892 144.85C78.5959 144.717 78.6826 144.54 78.7492 144.32L80.4292 138.66H81.3692L79.5892 144.57C79.4826 144.923 79.3326 145.21 79.1392 145.43C78.9459 145.657 78.7092 145.82 78.4292 145.92C78.1559 146.027 77.8359 146.08 77.4692 146.08H76.7592ZM78.3892 143.88V143.08H79.5492V143.88H78.3892ZM78.2892 143.88L76.3792 138.66H77.3592L79.1892 143.88H78.2892ZM87.6834 144.18C87.2434 144.18 86.85 144.083 86.5034 143.89C86.1634 143.697 85.8934 143.417 85.6934 143.05C85.4934 142.677 85.3834 142.23 85.3634 141.71H85.6234V144H84.8634V136.7H85.8234V140.25L85.4834 140.98C85.51 140.4 85.6267 139.927 85.8334 139.56C86.04 139.193 86.31 138.923 86.6434 138.75C86.9834 138.57 87.3567 138.48 87.7634 138.48C88.1434 138.48 88.49 138.553 88.8034 138.7C89.1167 138.84 89.3867 139.037 89.6134 139.29C89.84 139.537 90.0134 139.827 90.1334 140.16C90.2534 140.487 90.3134 140.84 90.3134 141.22V141.4C90.3134 141.78 90.25 142.137 90.1234 142.47C90.0034 142.803 89.8267 143.1 89.5934 143.36C89.36 143.613 89.08 143.813 88.7534 143.96C88.4334 144.107 88.0767 144.18 87.6834 144.18ZM87.5734 143.34C87.9334 143.34 88.2467 143.253 88.5134 143.08C88.78 142.907 88.9867 142.67 89.1334 142.37C89.28 142.063 89.3534 141.71 89.3534 141.31C89.3534 140.91 89.2767 140.56 89.1234 140.26C88.9767 139.96 88.77 139.73 88.5034 139.57C88.2367 139.403 87.9267 139.32 87.5734 139.32C87.2534 139.32 86.9567 139.393 86.6834 139.54C86.41 139.68 86.19 139.887 86.0234 140.16C85.8634 140.427 85.7834 140.75 85.7834 141.13V141.59C85.7834 141.957 85.8667 142.27 86.0334 142.53C86.2 142.79 86.42 142.99 86.6934 143.13C86.9667 143.27 87.26 143.34 87.5734 143.34ZM93.6079 144.16C92.9746 144.16 92.4879 143.953 92.1479 143.54C91.8079 143.127 91.6379 142.53 91.6379 141.75V138.65H92.5979V141.94C92.5979 142.36 92.7112 142.69 92.9379 142.93C93.1646 143.163 93.4712 143.28 93.8579 143.28C94.2579 143.28 94.5846 143.153 94.8379 142.9C95.0912 142.64 95.2179 142.287 95.2179 141.84V138.65H96.1779V144H95.4179V141.71H95.5379C95.5379 142.237 95.4679 142.683 95.3279 143.05C95.1879 143.41 94.9779 143.687 94.6979 143.88C94.4246 144.067 94.0746 144.16 93.6479 144.16H93.6079ZM100.267 144.18C99.8872 144.18 99.5372 144.11 99.2172 143.97C98.8972 143.83 98.6172 143.633 98.3772 143.38C98.1439 143.127 97.9605 142.833 97.8272 142.5C97.7005 142.167 97.6372 141.807 97.6372 141.42V141.24C97.6372 140.86 97.7005 140.503 97.8272 140.17C97.9539 139.837 98.1305 139.543 98.3572 139.29C98.5905 139.037 98.8639 138.84 99.1772 138.7C99.4972 138.553 99.8505 138.48 100.237 138.48C100.644 138.48 101.014 138.567 101.347 138.74C101.681 138.907 101.954 139.17 102.167 139.53C102.381 139.89 102.501 140.357 102.527 140.93L102.127 140.29V136.7H103.087V144H102.327V141.63H102.607C102.581 142.237 102.454 142.73 102.227 143.11C102.001 143.483 101.714 143.757 101.367 143.93C101.027 144.097 100.661 144.18 100.267 144.18ZM100.397 143.34C100.724 143.34 101.021 143.267 101.287 143.12C101.554 142.973 101.767 142.763 101.927 142.49C102.087 142.21 102.167 141.883 102.167 141.51V141.05C102.167 140.683 102.084 140.373 101.917 140.12C101.757 139.86 101.541 139.663 101.267 139.53C101.001 139.39 100.707 139.32 100.387 139.32C100.034 139.32 99.7205 139.403 99.4472 139.57C99.1805 139.737 98.9705 139.97 98.8172 140.27C98.6705 140.57 98.5972 140.923 98.5972 141.33C98.5972 141.737 98.6739 142.093 98.8272 142.4C98.9805 142.7 99.1939 142.933 99.4672 143.1C99.7405 143.26 100.051 143.34 100.397 143.34ZM106.952 146.08C106.705 146.08 106.455 146.07 106.202 146.05C105.955 146.03 105.718 146.003 105.492 145.97V145.16C105.732 145.193 105.982 145.22 106.242 145.24C106.508 145.267 106.758 145.28 106.992 145.28C107.478 145.28 107.865 145.213 108.152 145.08C108.445 144.953 108.655 144.75 108.782 144.47C108.915 144.197 108.982 143.843 108.982 143.41V142.39L109.302 141.63C109.282 142.17 109.168 142.62 108.962 142.98C108.755 143.333 108.485 143.6 108.152 143.78C107.825 143.953 107.462 144.04 107.062 144.04C106.688 144.04 106.345 143.97 106.032 143.83C105.725 143.683 105.458 143.483 105.232 143.23C105.012 142.977 104.838 142.687 104.712 142.36C104.592 142.027 104.532 141.677 104.532 141.31V141.13C104.532 140.757 104.595 140.41 104.722 140.09C104.848 139.763 105.025 139.48 105.252 139.24C105.478 139 105.748 138.813 106.062 138.68C106.382 138.547 106.732 138.48 107.112 138.48C107.558 138.48 107.952 138.577 108.292 138.77C108.632 138.957 108.898 139.233 109.092 139.6C109.292 139.96 109.402 140.403 109.422 140.93L109.142 140.94V138.66H109.902V143.37C109.902 144.01 109.802 144.527 109.602 144.92C109.408 145.32 109.095 145.613 108.662 145.8C108.235 145.987 107.665 146.08 106.952 146.08ZM107.242 143.16C107.562 143.16 107.852 143.09 108.112 142.95C108.378 142.81 108.588 142.61 108.742 142.35C108.902 142.083 108.982 141.767 108.982 141.4V140.94C108.982 140.58 108.898 140.277 108.732 140.03C108.572 139.783 108.362 139.597 108.102 139.47C107.842 139.343 107.558 139.28 107.252 139.28C106.905 139.28 106.598 139.36 106.332 139.52C106.065 139.68 105.858 139.907 105.712 140.2C105.565 140.487 105.492 140.827 105.492 141.22C105.492 141.613 105.565 141.957 105.712 142.25C105.865 142.543 106.072 142.77 106.332 142.93C106.598 143.083 106.902 143.16 107.242 143.16ZM113.95 144.18C113.483 144.18 113.08 144.1 112.74 143.94C112.4 143.78 112.123 143.57 111.91 143.31C111.696 143.043 111.536 142.747 111.43 142.42C111.33 142.093 111.28 141.76 111.28 141.42V141.24C111.28 140.893 111.33 140.557 111.43 140.23C111.536 139.903 111.696 139.61 111.91 139.35C112.123 139.083 112.393 138.873 112.72 138.72C113.053 138.56 113.443 138.48 113.89 138.48C114.47 138.48 114.946 138.607 115.32 138.86C115.7 139.107 115.98 139.427 116.16 139.82C116.346 140.213 116.44 140.633 116.44 141.08V141.51H111.7V140.79H115.74L115.52 141.18C115.52 140.8 115.46 140.473 115.34 140.2C115.22 139.92 115.04 139.703 114.8 139.55C114.56 139.397 114.256 139.32 113.89 139.32C113.51 139.32 113.193 139.407 112.94 139.58C112.693 139.753 112.506 139.99 112.38 140.29C112.26 140.59 112.2 140.937 112.2 141.33C112.2 141.71 112.26 142.053 112.38 142.36C112.506 142.66 112.7 142.9 112.96 143.08C113.22 143.253 113.55 143.34 113.95 143.34C114.37 143.34 114.71 143.247 114.97 143.06C115.236 142.873 115.396 142.657 115.45 142.41H116.35C116.276 142.777 116.13 143.093 115.91 143.36C115.69 143.627 115.413 143.83 115.08 143.97C114.746 144.11 114.37 144.18 113.95 144.18ZM119.883 144.06C119.483 144.06 119.136 144.003 118.843 143.89C118.556 143.777 118.333 143.583 118.173 143.31C118.019 143.03 117.943 142.653 117.943 142.18V137.04H118.863V142.3C118.863 142.587 118.939 142.81 119.093 142.97C119.253 143.123 119.476 143.2 119.763 143.2H120.703V144.06H119.883ZM117.023 139.38V138.66H120.703V139.38H117.023Z" fill="black"/>
<g filter="url(#filter0_d_756_4336)">
<path d="M183.273 18.1302L183.252 18.0819C182.78 16.9818 182.071 15.3397 181.143 14.0518C181.084 13.8801 181.019 13.7191 180.944 13.5635C180.053 11.7818 177.923 10.8857 174.961 11.0306C172.455 11.154 169.503 12.0072 166.659 13.4347C163.815 14.8621 161.362 16.7135 159.763 18.6508C157.874 20.9422 157.322 23.18 158.212 24.9562C158.255 25.0475 158.309 25.1333 158.368 25.2246C158.781 26.7808 159.736 28.3585 160.38 29.4157C160.584 29.7538 160.777 30.0704 160.869 30.2475C161.69 31.8896 163.6 32.7965 166.24 32.7965C166.439 32.7965 166.643 32.7965 166.852 32.7804C169.358 32.657 172.31 31.8037 175.154 30.3763C181.631 27.1296 185.264 22.1711 183.595 18.8493C183.509 18.683 183.402 18.4308 183.273 18.1249V18.1302Z" fill="white"/>
<path d="M182.153 19.5791C183.366 21.9993 179.91 26.1904 174.431 28.938C168.952 31.6856 163.527 31.9485 162.314 29.5283C161.675 28.2511 158.649 24.2425 160.221 22.4555C161.627 20.8509 166.451 19.4825 169.038 18.1892C171.78 16.8154 175.451 13.601 177.64 13.4936C179.835 13.3863 181.541 18.377 182.148 19.5845L182.153 19.5791Z" fill="url(#paint0_linear_756_4336)" stroke="#1D074F" stroke-width="2.02" stroke-linecap="round" stroke-linejoin="round"/>
<path d="M171.776 23.633C177.255 20.8858 180.712 16.6957 179.498 14.2742C178.284 11.8526 172.858 12.1167 167.379 14.8639C161.9 17.6111 158.443 21.8012 159.657 24.2227C160.872 26.6442 166.297 26.3802 171.776 23.633Z" fill="url(#paint1_linear_756_4336)" stroke="#1D074F" stroke-width="2.02" stroke-linecap="round" stroke-linejoin="round"/>
<path d="M174.521 16.2788C175.031 17.2931 173.083 19.3001 170.175 20.7544C167.266 22.214 164.497 22.5736 163.987 21.5593C163.478 20.5451 165.426 18.5381 168.334 17.0838C171.243 15.6241 174.012 15.2646 174.521 16.2788Z" fill="url(#paint2_linear_756_4336)" stroke="#1D074F" stroke-width="1.99" stroke-linecap="round" stroke-linejoin="round"/>
</g>
<g filter="url(#filter1_d_756_4336)">
<path d="M49.7416 125.994C45.0875 121.242 38.0713 116.965 29.993 113.96C22.2222 111.067 14.3535 109.684 7.81255 110.061C0.0836226 110.522 -5.15748 113.443 -6.96043 118.293C-7.05826 118.545 -7.12815 118.796 -7.18405 119.048C-9.42027 122.598 -10.7341 127.224 -11.6286 130.341C-11.8941 131.277 -12.1736 132.241 -12.3553 132.745C-14.1722 137.594 -12.1177 143.241 -6.58308 148.65C-1.901 153.22 4.9614 157.329 12.7322 160.236C19.6645 162.822 26.5548 164.191 32.6346 164.191C41.5095 164.191 47.729 161.172 49.6997 155.903C49.8674 155.442 50.1609 154.799 50.4963 154.031L50.5662 153.877C51.9079 150.816 53.7389 146.679 54.5355 142.668C54.7591 142.262 54.9408 141.857 55.0946 141.452C56.8416 136.77 54.9408 131.291 49.7556 126.008L49.7416 125.994Z" fill="white"/>
<path d="M45.745 154.422C43.2852 161.033 29.1551 161.871 14.2004 156.281C-0.754337 150.704 -10.8872 140.823 -8.41337 134.212C-7.11357 130.718 -4.83542 117.86 1.37008 117.678C6.91869 117.524 18.0858 124.303 25.1439 126.93C32.6212 129.726 45.2698 131.026 49.3649 135.009C53.4599 139.006 46.9749 151.11 45.745 154.422Z" fill="url(#paint3_linear_756_4336)" stroke="#1D074F" stroke-width="2.02" stroke-linecap="round" stroke-linejoin="round"/>
<path d="M51.1259 139.97C48.666 146.581 34.5359 147.42 19.5812 141.829C4.62652 136.253 -5.50632 126.371 -3.03251 119.76C-0.558695 113.15 13.5574 112.311 28.5121 117.902C43.4668 123.478 53.5997 133.359 51.1259 139.97Z" fill="url(#paint4_linear_756_4336)" stroke="#1D074F" stroke-width="2.02" stroke-linecap="round" stroke-linejoin="round"/>
<path d="M38.5051 134.002C37.4709 136.77 30.2032 136.616 22.2646 133.653C14.326 130.69 8.72152 126.05 9.75577 123.269C10.79 120.501 18.0577 120.655 25.9963 123.618C33.9349 126.581 39.5394 131.221 38.5051 134.002Z" fill="url(#paint5_linear_756_4336)" stroke="#1D074F" stroke-width="1.99" stroke-linecap="round" stroke-linejoin="round"/>
</g>
<g filter="url(#filter2_d_756_4336)">
<path d="M294.929 89.0815H291.368C289.821 85.9193 287.711 83.08 285.089 80.6239C279.839 75.7116 273.131 73.0075 266.206 73.0075C265.372 73.0075 264.538 73.0451 263.727 73.1202C258.086 73.646 253.775 76.1772 251.371 77.8898C248.96 76.1772 244.656 73.646 239.015 73.1202C238.174 73.0451 237.31 73 236.462 73C230.175 73 224.083 75.0956 219.314 78.9038C215.746 81.7505 212.937 85.4836 211.104 89.78H205.951C204.381 86.3624 202.12 83.2227 199.341 80.6239C194.091 75.7116 187.383 73.0075 180.458 73.0075C179.624 73.0075 178.791 73.0451 177.979 73.1202C172.338 73.646 168.035 76.1772 165.623 77.8898C163.212 76.1772 158.908 73.646 153.268 73.1202C152.426 73.0451 151.562 73 150.714 73C144.427 73 138.335 75.0956 133.566 78.9038C130.208 81.5778 127.504 85.0705 125.671 89.0815H122.577C117.296 89.0815 113 93.3779 113 98.6583C113 103.939 117.296 108.235 122.577 108.235H123.749C126.1 118.458 133.866 126.202 141.25 132.466C145.306 135.906 149.948 139.271 155.438 142.734L155.889 143.019C156.648 143.508 158.435 144.657 160.23 145.753C160.185 145.964 160.14 146.182 160.103 146.392C159.69 148.412 159.261 150.501 159.104 152.716C158.991 154.286 158.969 156.63 160.013 158.876C161.297 161.647 163.941 163.48 166.795 163.54H166.885C170.498 163.54 172.939 160.881 173.938 158.605C174.855 156.517 174.93 154.331 174.87 152.288C174.795 149.457 174.547 146.61 174.134 143.801C174.629 143.485 175.05 143.215 175.35 143.019L175.794 142.734C189.967 133.781 204.772 122.559 207.942 106.981H209.241C211.224 117.827 219.314 125.939 226.997 132.451C231.046 135.891 235.695 139.249 241.186 142.719L241.637 143.004C242.471 143.538 244.206 144.657 245.978 145.738C245.933 145.956 245.888 146.174 245.843 146.392C245.43 148.405 245.002 150.493 244.852 152.709C244.739 154.279 244.716 156.622 245.76 158.868C247.045 161.64 249.689 163.472 252.543 163.532H252.633C256.246 163.532 258.687 160.874 259.686 158.598C260.603 156.51 260.678 154.324 260.618 152.281C260.542 149.449 260.295 146.595 259.889 143.793C260.325 143.515 260.693 143.275 260.986 143.087L261.549 142.726C275.317 134.029 289.716 123.175 293.412 108.22H294.936C300.217 108.22 304.513 103.924 304.513 98.6432C304.513 93.3629 300.217 89.0665 294.936 89.0665L294.929 89.0815Z" fill="white"/>
<path d="M214.296 94.0088H201.812V102.759H214.296V94.0088Z" fill="url(#paint6_linear_756_4336)"/>
<path d="M213.027 95.278V101.49H203.082V95.278H213.027ZM215.565 92.7393H200.543V104.029H215.565V92.7393Z" fill="#1D074F"/>
<path d="M122.576 104.006C119.625 104.006 117.229 101.61 117.229 98.6583C117.229 95.7064 119.625 93.3103 122.576 93.3103H130.02V104.006H122.576Z" fill="url(#paint7_linear_756_4336)"/>
<path d="M128.751 94.5796V102.737H122.576C120.323 102.737 118.498 100.911 118.498 98.6581C118.498 96.4048 120.323 94.5796 122.576 94.5796H128.751ZM131.289 92.0408H122.576C118.926 92.0408 115.959 95.0077 115.959 98.6581C115.959 102.309 118.926 105.276 122.576 105.276H131.289V92.0408Z" fill="#1D074F"/>
<path d="M165.015 143.65C164.58 143.41 164.099 143.139 163.603 142.846C161.568 141.645 159.292 140.18 158.195 139.474L157.707 139.166C152.374 135.801 147.89 132.556 143.976 129.236C136.766 123.114 129.172 115.551 127.572 105.816C126.07 96.6975 129.375 87.6466 136.195 82.2084C140.221 79.0012 145.374 77.2285 150.707 77.2285C151.428 77.2285 152.156 77.2586 152.87 77.3262C158.308 77.8294 162.356 80.5109 165.616 83.2525C168.876 80.5109 172.932 77.8369 178.363 77.3262C179.054 77.2586 179.76 77.2285 180.451 77.2285C192.304 77.2285 202.939 87.0231 204.164 99.0711C204.359 101.016 204.306 102.977 204.014 104.907C201.745 119.562 187.331 130.445 173.526 139.158L173.052 139.466C172.038 140.12 169.68 141.637 167.637 142.839C167.141 143.132 166.668 143.402 166.225 143.643L165.616 143.981L165.008 143.643L165.015 143.65Z" fill="url(#paint8_linear_756_4336)"/>
<path d="M150.714 78.5056C151.397 78.5056 152.081 78.5356 152.757 78.6032C157.955 79.0839 161.868 81.6528 165.624 84.9352C169.379 81.6528 173.293 79.0839 178.49 78.6032C179.151 78.5431 179.812 78.5131 180.458 78.5131C192.003 78.5131 201.768 87.9697 202.909 99.214C203.09 101.017 203.052 102.864 202.767 104.727C200.468 119.584 184.582 130.701 172.857 138.099C172.354 138.415 169.454 140.308 166.998 141.757C166.518 142.043 166.052 142.306 165.624 142.546C165.196 142.313 164.73 142.043 164.249 141.757C161.793 140.308 158.894 138.415 158.39 138.099C153.666 135.117 149.069 131.895 144.81 128.275C137.825 122.348 130.389 115.033 128.834 105.613C127.467 97.3211 130.344 88.5105 136.999 83.2076C140.852 80.1355 145.794 78.5056 150.714 78.5056ZM150.714 75.9668C145.096 75.9668 139.665 77.8296 135.414 81.2246C128.233 86.9482 124.748 96.4573 126.325 106.027C127.993 116.167 135.774 123.941 143.165 130.213C147.116 133.563 151.653 136.845 157.038 140.248C157.121 140.3 157.279 140.405 157.497 140.541C158.511 141.194 160.899 142.726 162.957 143.951C163.475 144.259 163.956 144.529 164.399 144.777L165.624 145.445L166.848 144.777C167.291 144.537 167.772 144.259 168.29 143.951C170.356 142.734 172.737 141.202 173.751 140.548C173.969 140.413 174.126 140.308 174.209 140.255C188.255 131.384 202.924 120.275 205.268 105.118C205.583 103.082 205.636 101.009 205.433 98.9586C204.817 92.852 201.933 87.1134 197.321 82.7945C192.626 78.4004 186.633 75.9743 180.458 75.9743C179.73 75.9743 178.986 76.0119 178.25 76.0795C172.925 76.5752 168.891 79.0013 165.616 81.6227C162.341 79.0013 158.315 76.5752 152.982 76.0795C152.231 76.0119 151.465 75.9743 150.706 75.9743L150.714 75.9668Z" fill="#1D074F"/>
<path d="M165.624 134.043C164.468 133.322 163.423 132.646 162.838 132.271L162.289 131.918C157.302 128.77 153.133 125.751 149.535 122.701C143.511 117.586 137.194 111.42 136.045 104.419C135.061 98.4477 137.224 92.3636 141.558 88.9085C144.037 86.933 147.38 85.7988 150.722 85.7988C151.18 85.7988 151.638 85.8214 152.089 85.8589C154.928 86.1218 157.377 87.3987 160.825 90.4182C162.199 91.62 163.919 92.2284 165.632 92.2284C167.344 92.2284 169.064 91.6275 170.439 90.4182C173.887 87.3987 176.335 86.1218 179.174 85.8589C179.603 85.8214 180.038 85.7988 180.466 85.7988C188.053 85.7988 194.858 92.1383 195.654 99.9349C195.774 101.152 195.744 102.384 195.556 103.593C193.806 114.912 180.421 124.677 168.967 131.918L168.411 132.278C167.787 132.684 166.758 133.337 165.639 134.043H165.624Z" fill="#1D074F"/>
<mask id="mask0_756_4336" style="mask-type:luminance" maskUnits="userSpaceOnUse" x="135" y="85" width="61" height="50">
<path d="M165.624 134.043C164.468 133.322 163.423 132.646 162.838 132.271L162.289 131.918C157.302 128.77 153.133 125.751 149.535 122.701C143.511 117.586 137.194 111.42 136.045 104.419C135.061 98.4477 137.224 92.3636 141.558 88.9085C144.037 86.933 147.38 85.7988 150.722 85.7988C151.18 85.7988 151.638 85.8214 152.089 85.8589C154.928 86.1218 157.377 87.3987 160.825 90.4182C162.199 91.62 163.919 92.2284 165.632 92.2284C167.344 92.2284 169.064 91.6275 170.439 90.4182C173.887 87.3987 176.335 86.1218 179.174 85.8589C179.603 85.8214 180.038 85.7988 180.466 85.7988C188.053 85.7988 194.858 92.1383 195.654 99.9349C195.774 101.152 195.744 102.384 195.556 103.593C193.806 114.912 180.421 124.677 168.967 131.918L168.411 132.278C167.787 132.684 166.758 133.337 165.639 134.043H165.624Z" fill="white"/>
</mask>
<g mask="url(#mask0_756_4336)">
<path d="M133.627 101.152C136.534 102.909 140.59 102.203 143.804 100.896C147.019 99.5895 150.159 94.0762 153.682 93.6481C160.63 92.7993 165.024 103.172 171.859 101.805C174.615 101.249 178.972 96.0892 181.646 95.278C187.595 93.4829 195.159 97.6516 198.193 102.361V122.777H133.184L133.627 101.152Z" fill="url(#paint9_linear_756_4336)"/>
<path d="M193.206 110.473C190.735 112.231 187.287 111.525 184.553 110.218C181.819 108.911 179.25 107.063 176.245 106.627C170.334 105.779 166.796 114.664 160.983 113.297C158.639 112.742 154.395 107.213 152.127 106.41C147.072 104.614 140.875 106.973 138.299 111.682V132.098H193.581L193.206 110.473Z" fill="url(#paint10_linear_756_4336)"/>
<path d="M138.682 121.657C141.153 123.415 144.601 122.709 147.335 121.402C150.069 120.095 152.638 118.247 155.642 117.812C161.554 116.963 165.422 125.848 171.236 124.481C173.579 123.926 177.485 118.397 179.761 117.594C184.816 115.799 191.013 118.157 193.589 122.867V143.282H138.307L138.682 121.657Z" fill="url(#paint11_linear_756_4336)"/>
</g>
<path d="M150.713 85.8064C151.171 85.8064 151.629 85.8289 152.08 85.8665C154.919 86.1294 157.368 87.4063 160.816 90.4258C162.19 91.6276 163.91 92.236 165.623 92.236C167.335 92.236 169.055 91.6351 170.43 90.4258C173.878 87.4063 176.326 86.1294 179.166 85.8665C179.594 85.8289 180.029 85.8064 180.457 85.8064C188.044 85.8064 194.849 92.1458 195.645 99.9425C195.765 101.159 195.735 102.391 195.547 103.6C193.797 114.92 180.412 124.684 168.958 131.925L168.402 132.286C167.779 132.691 166.749 133.345 165.63 134.051C164.474 133.33 163.422 132.654 162.844 132.278L162.295 131.925C157.308 128.778 153.139 125.758 149.541 122.709C143.517 117.594 137.2 111.427 136.051 104.427C135.067 98.4552 137.23 92.3712 141.564 88.916C144.043 86.9406 147.386 85.8064 150.728 85.8064M150.728 83.2676C146.815 83.2676 142.901 84.6046 139.98 86.9255C134.94 90.944 132.416 97.9745 133.542 104.84C134.827 112.651 141.519 119.231 147.896 124.647C151.584 127.779 155.851 130.859 160.936 134.073L161.469 134.419L161.544 134.464C162.145 134.847 163.167 135.508 164.286 136.207L165.63 137.048L166.975 136.207C168.109 135.493 169.146 134.832 169.777 134.426L170.332 134.073C182.23 126.555 196.156 116.339 198.064 104.006C198.282 102.586 198.319 101.137 198.176 99.7021C197.26 90.6511 189.313 83.2826 180.465 83.2826C179.962 83.2826 179.443 83.3051 178.933 83.3577C175.553 83.6732 172.601 85.1679 168.762 88.5329C167.891 89.2916 166.78 89.7122 165.623 89.7122C164.466 89.7122 163.354 89.2916 162.483 88.5329C158.645 85.1679 155.693 83.6732 152.313 83.3577C151.787 83.3051 151.246 83.2826 150.713 83.2826L150.728 83.2676Z" fill="#1D074F"/>
<path d="M154.033 128.019C157.646 130.813 163.633 133.495 164.361 136.222C165.09 138.956 164.827 141.855 164.331 144.634C163.835 147.413 163.107 150.17 162.904 152.987C162.799 154.444 162.851 155.961 163.467 157.283C164.083 158.605 165.36 159.709 166.825 159.739C168.41 159.769 169.814 158.537 170.453 157.08C171.091 155.623 171.114 153.986 171.069 152.393C170.986 149.299 170.693 146.211 170.19 143.162C169.927 141.562 169.934 139.962 170.227 138.37C171.279 132.669 177.453 127.546 184.213 122.536" fill="url(#paint12_linear_756_4336)"/>
<path d="M154.033 128.019C157.646 130.813 163.633 133.495 164.361 136.222C165.09 138.956 164.827 141.855 164.331 144.634C163.835 147.413 163.107 150.17 162.904 152.987C162.799 154.444 162.851 155.961 163.467 157.283C164.083 158.605 165.36 159.709 166.825 159.739C168.41 159.769 169.814 158.537 170.453 157.08C171.091 155.623 171.114 153.986 171.069 152.393C170.986 149.299 170.693 146.211 170.19 143.162C169.927 141.562 169.934 139.962 170.227 138.37C171.279 132.669 177.453 127.546 184.213 122.536" stroke="#1D074F" stroke-width="3.38" stroke-miterlimit="10"/>
<path d="M287.486 104.006V93.3103H294.93C297.882 93.3103 300.278 95.7064 300.278 98.6583C300.278 101.61 297.882 104.006 294.93 104.006H287.486Z" fill="url(#paint13_linear_756_4336)"/>
<path d="M294.93 94.5796C297.183 94.5796 299.008 96.4048 299.008 98.6581C299.008 100.911 297.183 102.737 294.93 102.737H288.756V94.5796H294.93ZM294.93 92.0408H286.217V105.276H294.93C298.58 105.276 301.547 102.309 301.547 98.6581C301.547 95.0077 298.58 92.0408 294.93 92.0408Z" fill="#1D074F"/>
<path d="M250.764 143.65C250.328 143.41 249.855 143.139 249.352 142.846C247.316 141.645 244.95 140.12 243.936 139.474L243.463 139.166C238.138 135.801 233.646 132.556 229.74 129.236C222.529 123.114 214.936 115.551 213.336 105.816C211.833 96.6975 215.138 87.6466 221.959 82.2084C225.985 79.0012 231.137 77.2285 236.47 77.2285C237.191 77.2285 237.92 77.2586 238.633 77.3262C244.072 77.8294 248.12 80.5109 251.38 83.2525C254.64 80.5109 258.696 77.8369 264.126 77.3262C264.817 77.2586 265.524 77.2285 266.215 77.2285C278.067 77.2285 288.703 87.0231 289.927 99.0711C290.123 101.016 290.07 102.977 289.777 104.907C287.509 119.562 273.095 130.445 259.289 139.158L258.816 139.466C257.809 140.12 255.443 141.637 253.4 142.839C252.905 143.132 252.431 143.402 251.988 143.643L251.38 143.981L250.772 143.643L250.764 143.65Z" fill="url(#paint14_linear_756_4336)"/>
<path d="M236.462 78.5056C237.146 78.5056 237.829 78.5356 238.505 78.6032C243.703 79.0839 247.616 81.6528 251.372 84.9352C255.127 81.6528 259.041 79.0839 264.238 78.6032C264.899 78.5431 265.56 78.5131 266.206 78.5131C277.751 78.5131 287.516 87.9697 288.657 99.214C288.838 101.017 288.8 102.864 288.515 104.727C286.216 119.584 270.33 130.701 258.605 138.099C258.102 138.415 255.202 140.308 252.746 141.757C252.266 142.043 251.8 142.306 251.372 142.546C250.944 142.313 250.478 142.043 249.997 141.757C247.541 140.308 244.642 138.415 244.138 138.099C239.414 135.117 234.817 131.895 230.558 128.275C223.573 122.348 216.137 115.033 214.582 105.613C213.215 97.3211 216.092 88.5105 222.747 83.2076C226.6 80.1355 231.542 78.5056 236.462 78.5056ZM236.462 75.9668C230.844 75.9668 225.413 77.8296 221.162 81.2246C213.981 86.9482 210.496 96.4573 212.073 106.027C213.741 116.167 221.522 123.941 228.913 130.213C232.864 133.563 237.401 136.845 242.786 140.248C242.869 140.3 243.027 140.405 243.245 140.541C244.259 141.194 246.647 142.726 248.705 143.951C249.216 144.251 249.697 144.529 250.147 144.777L251.372 145.453L252.596 144.784C253.039 144.544 253.52 144.266 254.038 143.958C256.104 142.741 258.485 141.209 259.499 140.548C259.717 140.413 259.874 140.308 259.957 140.255C274.003 131.384 288.672 120.275 291.016 105.118C291.331 103.082 291.384 101.009 291.181 98.9586C290.565 92.852 287.681 87.1134 283.069 82.7945C278.375 78.4004 272.381 75.9743 266.206 75.9743C265.478 75.9743 264.734 76.0119 263.998 76.0795C258.673 76.5752 254.639 79.0013 251.364 81.6227C248.089 79.0013 244.063 76.5752 238.73 76.0795C237.979 76.0119 237.213 75.9743 236.455 75.9743L236.462 75.9668Z" fill="#1D074F"/>
<path d="M251.372 134.043C250.216 133.322 249.172 132.646 248.586 132.271L248.037 131.918C243.05 128.77 238.881 125.751 235.283 122.701C229.259 117.586 222.942 111.42 221.793 104.419C220.809 98.4477 222.972 92.3636 227.306 88.9085C229.785 86.933 233.128 85.7988 236.47 85.7988C236.928 85.7988 237.386 85.8214 237.837 85.8589C240.676 86.1218 243.125 87.3987 246.573 90.4182C247.947 91.62 249.667 92.2284 251.38 92.2284C253.092 92.2284 254.812 91.6275 256.187 90.4182C259.635 87.3987 262.083 86.1218 264.923 85.8589C265.351 85.8214 265.786 85.7988 266.214 85.7988C273.801 85.7988 280.606 92.1383 281.402 99.9349C281.522 101.152 281.492 102.384 281.304 103.593C279.554 114.912 266.169 124.677 254.715 131.918L254.159 132.278C253.536 132.684 252.506 133.337 251.387 134.043H251.372Z" fill="#1D074F"/>
<mask id="mask1_756_4336" style="mask-type:luminance" maskUnits="userSpaceOnUse" x="221" y="85" width="61" height="50">
<path d="M251.372 134.043C250.216 133.322 249.172 132.646 248.586 132.271L248.037 131.918C243.05 128.77 238.881 125.751 235.283 122.701C229.259 117.586 222.942 111.42 221.793 104.419C220.809 98.4477 222.972 92.3636 227.306 88.9085C229.785 86.933 233.128 85.7988 236.47 85.7988C236.928 85.7988 237.386 85.8214 237.837 85.8589C240.676 86.1218 243.125 87.3987 246.573 90.4182C247.947 91.62 249.667 92.2284 251.38 92.2284C253.092 92.2284 254.812 91.6275 256.187 90.4182C259.635 87.3987 262.083 86.1218 264.923 85.8589C265.351 85.8214 265.786 85.7988 266.214 85.7988C273.801 85.7988 280.606 92.1383 281.402 99.9349C281.522 101.152 281.492 102.384 281.304 103.593C279.554 114.912 266.169 124.677 254.715 131.918L254.159 132.278C253.536 132.684 252.506 133.337 251.387 134.043H251.372Z" fill="white"/>
</mask>
<g mask="url(#mask1_756_4336)">
<path d="M219.375 101.152C222.282 102.909 226.338 102.203 229.552 100.896C232.767 99.5895 235.907 94.0762 239.43 93.6481C246.378 92.7993 250.772 103.172 257.607 101.805C260.363 101.249 264.72 96.0892 267.394 95.278C273.343 93.4829 280.907 97.6516 283.941 102.361V122.777H218.932L219.375 101.152Z" fill="url(#paint15_linear_756_4336)"/>
<path d="M278.954 110.473C276.483 112.231 273.035 111.525 270.301 110.218C267.567 108.911 264.998 107.063 261.993 106.627C256.082 105.779 252.544 114.664 246.731 113.297C244.387 112.742 240.143 107.213 237.875 106.41C232.82 104.614 226.623 106.973 224.047 111.682V132.098H279.329L278.954 110.473Z" fill="url(#paint16_linear_756_4336)"/>
<path d="M224.438 121.657C226.909 123.415 230.357 122.709 233.091 121.402C235.825 120.095 238.394 118.247 241.398 117.812C247.31 116.963 251.178 125.848 256.992 124.481C259.335 123.926 263.241 118.397 265.517 117.594C270.572 115.799 276.769 118.157 279.345 122.867V143.282H224.062L224.438 121.657Z" fill="url(#paint17_linear_756_4336)"/>
</g>
<path d="M236.461 85.8064C236.919 85.8064 237.377 85.8289 237.828 85.8665C240.667 86.1294 243.116 87.4063 246.564 90.4258C247.938 91.6276 249.658 92.236 251.371 92.236C253.083 92.236 254.803 91.6351 256.178 90.4258C259.626 87.4063 262.074 86.1294 264.914 85.8665C265.342 85.8289 265.777 85.8064 266.205 85.8064C273.792 85.8064 280.597 92.1458 281.393 99.9425C281.513 101.159 281.483 102.391 281.295 103.6C279.545 114.92 266.16 124.684 254.706 131.925L254.15 132.286C253.527 132.691 252.498 133.345 251.378 134.051C250.222 133.33 249.178 132.654 248.592 132.278L248.043 131.925C243.056 128.778 238.887 125.758 235.289 122.709C229.265 117.594 222.948 111.427 221.799 104.427C220.815 98.4552 222.979 92.3712 227.312 88.916C229.791 86.9406 233.134 85.8064 236.476 85.8064M236.476 83.2676C232.563 83.2676 228.649 84.6046 225.728 86.9255C220.688 90.944 218.164 97.9745 219.291 104.84C220.575 112.651 227.267 119.231 233.644 124.647C237.332 127.779 241.599 130.859 246.684 134.073L247.217 134.419L247.292 134.464C247.893 134.847 248.915 135.508 250.026 136.207L251.371 137.048L252.715 136.207C253.85 135.493 254.886 134.832 255.517 134.426L256.073 134.073C267.971 126.555 281.896 116.339 283.804 104.006C284.022 102.586 284.06 101.137 283.917 99.7021C283.001 90.6511 275.054 83.2826 266.205 83.2826C265.702 83.2826 265.184 83.3051 264.673 83.3577C261.293 83.6732 258.341 85.1679 254.503 88.5329C253.632 89.2916 252.52 89.7122 251.363 89.7122C250.207 89.7122 249.095 89.2916 248.224 88.5329C244.385 85.1679 241.434 83.6732 238.053 83.3577C237.528 83.3051 236.987 83.2826 236.454 83.2826L236.476 83.2676Z" fill="#1D074F"/>
<path d="M239.781 128.019C243.394 130.813 249.381 133.495 250.109 136.222C250.838 138.956 250.575 141.855 250.079 144.634C249.583 147.421 248.855 150.17 248.652 152.987C248.547 154.444 248.599 155.961 249.215 157.283C249.831 158.605 251.108 159.709 252.573 159.739C254.158 159.769 255.562 158.537 256.201 157.08C256.839 155.623 256.862 153.986 256.817 152.393C256.734 149.299 256.441 146.211 255.938 143.162C255.675 141.562 255.682 139.962 255.975 138.37C257.027 132.669 263.201 127.546 269.961 122.536" fill="url(#paint18_linear_756_4336)"/>
<path d="M239.781 128.019C243.394 130.813 249.381 133.495 250.109 136.222C250.838 138.956 250.575 141.855 250.079 144.634C249.583 147.421 248.855 150.17 248.652 152.987C248.547 154.444 248.599 155.961 249.215 157.283C249.831 158.605 251.108 159.709 252.573 159.739C254.158 159.769 255.562 158.537 256.201 157.08C256.839 155.623 256.862 153.986 256.817 152.393C256.734 149.299 256.441 146.211 255.938 143.162C255.675 141.562 255.682 139.962 255.975 138.37C257.027 132.669 263.201 127.546 269.961 122.536" stroke="#1D074F" stroke-width="3.38" stroke-miterlimit="10"/>
</g>
</g>
<defs>
<filter id="filter0_d_756_4336" x="154.797" y="8.01538" width="34.2031" height="29.781" filterUnits="userSpaceOnUse" color-interpolation-filters="sRGB">
<feFlood flood-opacity="0" result="BackgroundImageFix"/>
<feColorMatrix in="SourceAlpha" type="matrix" values="0 0 0 0 0 0 0 0 0 0 0 0 0 0 0 0 0 0 127 0" result="hardAlpha"/>
<feOffset dx="1" dy="1"/>
<feGaussianBlur stdDeviation="2"/>
<feColorMatrix type="matrix" values="0 0 0 0 0.6 0 0 0 0 0.6 0 0 0 0 0.6 0 0 0 0.3 0"/>
<feBlend mode="normal" in2="BackgroundImageFix" result="effect1_dropShadow_756_4336"/>
<feBlend mode="normal" in="SourceGraphic" in2="effect1_dropShadow_756_4336" result="shape"/>
</filter>
<filter id="filter1_d_756_4336" x="-16" y="107" width="76.7266" height="62.1914" filterUnits="userSpaceOnUse" color-interpolation-filters="sRGB">
<feFlood flood-opacity="0" result="BackgroundImageFix"/>
<feColorMatrix in="SourceAlpha" type="matrix" values="0 0 0 0 0 0 0 0 0 0 0 0 0 0 0 0 0 0 127 0" result="hardAlpha"/>
<feOffset dx="1" dy="1"/>
<feGaussianBlur stdDeviation="2"/>
<feColorMatrix type="matrix" values="0 0 0 0 0.6 0 0 0 0 0.6 0 0 0 0 0.6 0 0 0 0.3 0"/>
<feBlend mode="normal" in2="BackgroundImageFix" result="effect1_dropShadow_756_4336"/>
<feBlend mode="normal" in="SourceGraphic" in2="effect1_dropShadow_756_4336" result="shape"/>
</filter>
<filter id="filter2_d_756_4336" x="111.96" y="69.88" width="199.834" height="98.86" filterUnits="userSpaceOnUse" color-interpolation-filters="sRGB">
<feFlood flood-opacity="0" result="BackgroundImageFix"/>
<feColorMatrix in="SourceAlpha" type="matrix" values="0 0 0 0 0 0 0 0 0 0 0 0 0 0 0 0 0 0 127 0" result="hardAlpha"/>
<feOffset dx="3.12" dy="1.04"/>
<feGaussianBlur stdDeviation="2.08"/>
<feColorMatrix type="matrix" values="0 0 0 0 0.6 0 0 0 0 0.6 0 0 0 0 0.6 0 0 0 0.3 0"/>
<feBlend mode="normal" in2="BackgroundImageFix" result="effect1_dropShadow_756_4336"/>
<feBlend mode="normal" in="SourceGraphic" in2="effect1_dropShadow_756_4336" result="shape"/>
</filter>
<linearGradient id="paint0_linear_756_4336" x1="171.082" y1="13.4883" x2="171.082" y2="31.1865" gradientUnits="userSpaceOnUse">
<stop offset="0.01" stop-color="#4AD800"/>
<stop offset="0.4" stop-color="#27C000"/>
<stop offset="0.78" stop-color="#0CAE00"/>
<stop offset="1" stop-color="#03A800"/>
</linearGradient>
<linearGradient id="paint1_linear_756_4336" x1="169.576" y1="18.3821" x2="169.576" y2="31.6424" gradientUnits="userSpaceOnUse">
<stop offset="0.01" stop-color="#4AD800"/>
<stop offset="0.4" stop-color="#27C000"/>
<stop offset="0.78" stop-color="#0CAE00"/>
<stop offset="1" stop-color="#03A800"/>
</linearGradient>
<linearGradient id="paint2_linear_756_4336" x1="169.252" y1="15.7046" x2="169.252" y2="22.1389" gradientUnits="userSpaceOnUse">
<stop offset="0.01" stop-color="#4AD800"/>
<stop offset="0.4" stop-color="#27C000"/>
<stop offset="0.78" stop-color="#0CAE00"/>
<stop offset="1" stop-color="#03A800"/>
</linearGradient>
<linearGradient id="paint3_linear_756_4336" x1="20.9509" y1="108.398" x2="20.9509" y2="150.704" gradientUnits="userSpaceOnUse">
<stop offset="0.03" stop-color="#FDFE0C"/>
<stop offset="0.95" stop-color="#FDCC0C"/>
</linearGradient>
<linearGradient id="paint4_linear_756_4336" x1="24.0397" y1="114.212" x2="24.0397" y2="145.533" gradientUnits="userSpaceOnUse">
<stop offset="0.03" stop-color="#FDFE0C"/>
<stop offset="0.95" stop-color="#FDCC0C"/>
</linearGradient>
<linearGradient id="paint5_linear_756_4336" x1="24.1235" y1="121.298" x2="24.1235" y2="135.987" gradientUnits="userSpaceOnUse">
<stop offset="0.03" stop-color="#FDFE0C"/>
<stop offset="0.95" stop-color="#FDCC0C"/>
</linearGradient>
<linearGradient id="paint6_linear_756_4336" x1="208.054" y1="94.0088" x2="208.054" y2="102.759" gradientUnits="userSpaceOnUse">
<stop offset="0.03" stop-color="#0FD2E2"/>
<stop offset="1" stop-color="#0F8EE2"/>
</linearGradient>
<linearGradient id="paint7_linear_756_4336" x1="123.621" y1="93.3103" x2="123.621" y2="104.006" gradientUnits="userSpaceOnUse">
<stop offset="0.03" stop-color="#0FD2E2"/>
<stop offset="1" stop-color="#0F8EE2"/>
</linearGradient>
<linearGradient id="paint8_linear_756_4336" x1="165.759" y1="77.236" x2="165.759" y2="143.988" gradientUnits="userSpaceOnUse">
<stop offset="0.03" stop-color="#0FD2E2"/>
<stop offset="1" stop-color="#0F8EE2"/>
</linearGradient>
<linearGradient id="paint9_linear_756_4336" x1="165.685" y1="93.5955" x2="165.685" y2="122.777" gradientUnits="userSpaceOnUse">
<stop offset="0.04" stop-color="#FF63BE"/>
<stop offset="0.98" stop-color="#FF0FE0"/>
</linearGradient>
<linearGradient id="paint10_linear_756_4336" x1="165.948" y1="105.809" x2="165.948" y2="132.098" gradientUnits="userSpaceOnUse">
<stop offset="0.01" stop-color="#4AD800"/>
<stop offset="0.27" stop-color="#46D500"/>
<stop offset="0.49" stop-color="#3BCE00"/>
<stop offset="0.71" stop-color="#2AC200"/>
<stop offset="0.91" stop-color="#11B100"/>
<stop offset="1" stop-color="#03A800"/>
</linearGradient>
<linearGradient id="paint11_linear_756_4336" x1="165.948" y1="116.993" x2="165.948" y2="143.282" gradientUnits="userSpaceOnUse">
<stop offset="0.03" stop-color="#FDFE0C"/>
<stop offset="0.37" stop-color="#FDE40C"/>
<stop offset="0.71" stop-color="#FDD20C"/>
<stop offset="0.95" stop-color="#FDCC0C"/>
</linearGradient>
<linearGradient id="paint12_linear_756_4336" x1="169.123" y1="122.544" x2="169.123" y2="159.747" gradientUnits="userSpaceOnUse">
<stop offset="0.03" stop-color="#FDFE0C"/>
<stop offset="0.37" stop-color="#FDE40C"/>
<stop offset="0.71" stop-color="#FDD20C"/>
<stop offset="0.95" stop-color="#FDCC0C"/>
</linearGradient>
<linearGradient id="paint13_linear_756_4336" x1="293.886" y1="93.3103" x2="293.886" y2="104.006" gradientUnits="userSpaceOnUse">
<stop offset="0.03" stop-color="#0FD2E2"/>
<stop offset="1" stop-color="#0F8EE2"/>
</linearGradient>
<linearGradient id="paint14_linear_756_4336" x1="251.508" y1="77.236" x2="251.508" y2="143.988" gradientUnits="userSpaceOnUse">
<stop offset="0.03" stop-color="#0FD2E2"/>
<stop offset="1" stop-color="#0F8EE2"/>
</linearGradient>
<linearGradient id="paint15_linear_756_4336" x1="251.433" y1="93.5955" x2="251.433" y2="122.777" gradientUnits="userSpaceOnUse">
<stop offset="0.04" stop-color="#FF63BE"/>
<stop offset="0.98" stop-color="#FF0FE0"/>
</linearGradient>
<linearGradient id="paint16_linear_756_4336" x1="251.696" y1="105.809" x2="251.696" y2="132.098" gradientUnits="userSpaceOnUse">
<stop offset="0.01" stop-color="#4AD800"/>
<stop offset="0.27" stop-color="#46D500"/>
<stop offset="0.49" stop-color="#3BCE00"/>
<stop offset="0.71" stop-color="#2AC200"/>
<stop offset="0.91" stop-color="#11B100"/>
<stop offset="1" stop-color="#03A800"/>
</linearGradient>
<linearGradient id="paint17_linear_756_4336" x1="251.696" y1="116.993" x2="251.696" y2="143.282" gradientUnits="userSpaceOnUse">
<stop offset="0.03" stop-color="#FDFE0C"/>
<stop offset="0.37" stop-color="#FDE40C"/>
<stop offset="0.71" stop-color="#FDD20C"/>
<stop offset="0.95" stop-color="#FDCC0C"/>
</linearGradient>
<linearGradient id="paint18_linear_756_4336" x1="254.871" y1="122.544" x2="254.871" y2="159.747" gradientUnits="userSpaceOnUse">
<stop offset="0.03" stop-color="#FDFE0C"/>
<stop offset="0.37" stop-color="#FDE40C"/>
<stop offset="0.71" stop-color="#FDD20C"/>
<stop offset="0.95" stop-color="#FDCC0C"/>
</linearGradient>
<clipPath id="clip0_756_4336">
<rect width="312" height="176" rx="40" fill="white"/>
</clipPath>
</defs>
</svg>
