<svg width="312" height="176" viewBox="0 0 312 176" fill="none" xmlns="http://www.w3.org/2000/svg">
<g clip-path="url(#clip0_756_4338)">
<rect width="312" height="176" rx="40" fill="#4AD800"/>
<rect width="312" height="176" rx="40" fill="#FDD90C"/>
<path d="M30.58 57.5C31.54 57.5 32.338 57.668 32.974 58.004C33.622 58.34 34.132 58.802 34.504 59.39C34.888 59.966 35.158 60.632 35.314 61.388C35.482 62.144 35.566 62.936 35.566 63.764V64.628C35.566 66.704 35.05 68.306 34.018 69.434C32.986 70.55 31.492 71.108 29.536 71.108C29.068 71.108 28.672 71.096 28.348 71.072C28.024 71.048 27.67 71.012 27.286 70.964V69.488C27.682 69.536 28.048 69.572 28.384 69.596C28.72 69.62 29.128 69.632 29.608 69.632C30.7 69.632 31.564 69.428 32.2 69.02C32.836 68.612 33.292 68.03 33.568 67.274C33.844 66.506 33.982 65.582 33.982 64.502V63.692L34.414 62.09C34.402 63.038 34.216 63.824 33.856 64.448C33.508 65.072 33.022 65.54 32.398 65.852C31.786 66.164 31.078 66.32 30.274 66.32C29.338 66.32 28.546 66.134 27.898 65.762C27.25 65.378 26.758 64.856 26.422 64.196C26.098 63.536 25.936 62.786 25.936 61.946C25.936 61.094 26.11 60.332 26.458 59.66C26.806 58.988 27.322 58.46 28.006 58.076C28.702 57.692 29.56 57.5 30.58 57.5ZM30.58 59.012C29.92 59.012 29.368 59.138 28.924 59.39C28.48 59.642 28.144 59.99 27.916 60.434C27.7 60.866 27.592 61.37 27.592 61.946C27.592 62.522 27.7 63.032 27.916 63.476C28.132 63.92 28.45 64.268 28.87 64.52C29.302 64.76 29.83 64.88 30.454 64.88C31.066 64.88 31.612 64.766 32.092 64.538C32.584 64.31 32.968 63.98 33.244 63.548C33.52 63.104 33.658 62.564 33.658 61.928C33.658 61.4 33.55 60.914 33.334 60.47C33.118 60.026 32.782 59.672 32.326 59.408C31.87 59.144 31.288 59.012 30.58 59.012ZM37.7292 67.886V65.762L43.1832 57.536L44.3892 58.49L39.2952 66.194L39.4572 66.518H47.9532V67.886H37.7292ZM44.5872 71V61.694H46.2072V71H44.5872ZM52.0861 71V58.724L52.8781 59.336H49.1701V57.86H53.8141V71H52.0861ZM57.2867 71V68.804H59.3747V71H57.2867ZM67.3796 71.324C66.3956 71.324 65.5556 71.156 64.8596 70.82C64.1756 70.472 63.6176 70.004 63.1856 69.416C62.7656 68.828 62.4596 68.15 62.2676 67.382C62.0756 66.602 61.9796 65.78 61.9796 64.916V63.944C61.9796 62.732 62.1656 61.64 62.5376 60.668C62.9216 59.696 63.5096 58.928 64.3016 58.364C65.1056 57.788 66.1316 57.5 67.3796 57.5C68.6276 57.5 69.6476 57.788 70.4396 58.364C71.2316 58.928 71.8136 59.696 72.1856 60.668C72.5696 61.64 72.7616 62.732 72.7616 63.944V64.916C72.7616 65.78 72.6656 66.602 72.4736 67.382C72.2816 68.15 71.9696 68.828 71.5376 69.416C71.1176 70.004 70.5656 70.472 69.8816 70.82C69.1976 71.156 68.3636 71.324 67.3796 71.324ZM67.3796 69.74C68.6276 69.74 69.5396 69.32 70.1156 68.48C70.7036 67.628 70.9976 66.284 70.9976 64.448C70.9976 62.528 70.6976 61.154 70.0976 60.326C69.5096 59.498 68.6036 59.084 67.3796 59.084C66.1436 59.084 65.2256 59.498 64.6256 60.326C64.0376 61.154 63.7436 62.516 63.7436 64.412C63.7436 66.26 64.0376 67.61 64.6256 68.462C65.2136 69.314 66.1316 69.74 67.3796 69.74ZM80.7565 71.324C79.7725 71.324 78.9325 71.156 78.2365 70.82C77.5525 70.472 76.9945 70.004 76.5625 69.416C76.1425 68.828 75.8365 68.15 75.6445 67.382C75.4525 66.602 75.3565 65.78 75.3565 64.916V63.944C75.3565 62.732 75.5425 61.64 75.9145 60.668C76.2985 59.696 76.8865 58.928 77.6785 58.364C78.4825 57.788 79.5085 57.5 80.7565 57.5C82.0045 57.5 83.0245 57.788 83.8165 58.364C84.6085 58.928 85.1905 59.696 85.5625 60.668C85.9465 61.64 86.1385 62.732 86.1385 63.944V64.916C86.1385 65.78 86.0425 66.602 85.8505 67.382C85.6585 68.15 85.3465 68.828 84.9145 69.416C84.4945 70.004 83.9425 70.472 83.2585 70.82C82.5745 71.156 81.7405 71.324 80.7565 71.324ZM80.7565 69.74C82.0045 69.74 82.9165 69.32 83.4925 68.48C84.0805 67.628 84.3745 66.284 84.3745 64.448C84.3745 62.528 84.0745 61.154 83.4745 60.326C82.8865 59.498 81.9805 59.084 80.7565 59.084C79.5205 59.084 78.6025 59.498 78.0025 60.326C77.4145 61.154 77.1205 62.516 77.1205 64.412C77.1205 66.26 77.4145 67.61 78.0025 68.462C78.5905 69.314 79.5085 69.74 80.7565 69.74Z" fill="black"/>
<path d="M27.48 45V38.38H28.46V45H27.48ZM25.26 38.58V37.7H30.68V38.58H25.26ZM33.673 45.18C33.2063 45.18 32.7963 45.1 32.443 44.94C32.0896 44.78 31.7896 44.57 31.543 44.31C31.303 44.0433 31.1196 43.7467 30.993 43.42C30.873 43.0933 30.813 42.76 30.813 42.42V42.24C30.813 41.9 30.8763 41.5667 31.003 41.24C31.1296 40.9067 31.3163 40.61 31.563 40.35C31.8096 40.0833 32.1096 39.8733 32.463 39.72C32.8163 39.56 33.2196 39.48 33.673 39.48C34.1263 39.48 34.5296 39.56 34.883 39.72C35.2363 39.8733 35.5363 40.0833 35.783 40.35C36.0296 40.61 36.2163 40.9067 36.343 41.24C36.4696 41.5667 36.533 41.9 36.533 42.24V42.42C36.533 42.76 36.4696 43.0933 36.343 43.42C36.223 43.7467 36.0396 44.0433 35.793 44.31C35.553 44.57 35.2563 44.78 34.903 44.94C34.5496 45.1 34.1396 45.18 33.673 45.18ZM33.673 44.32C34.073 44.32 34.413 44.2333 34.693 44.06C34.9796 43.88 35.1963 43.64 35.343 43.34C35.4963 43.04 35.573 42.7033 35.573 42.33C35.573 41.95 35.4963 41.61 35.343 41.31C35.1896 41.01 34.9696 40.7733 34.683 40.6C34.403 40.4267 34.0663 40.34 33.673 40.34C33.2863 40.34 32.9496 40.4267 32.663 40.6C32.3763 40.7733 32.1563 41.01 32.003 41.31C31.8496 41.61 31.773 41.95 31.773 42.33C31.773 42.7033 31.8463 43.04 31.993 43.34C32.1463 43.64 32.363 43.88 32.643 44.06C32.9296 44.2333 33.273 44.32 33.673 44.32ZM40.0508 45.06C39.6508 45.06 39.3041 45.0033 39.0108 44.89C38.7241 44.7767 38.5008 44.5833 38.3408 44.31C38.1874 44.03 38.1108 43.6533 38.1108 43.18V38.04H39.0308V43.3C39.0308 43.5867 39.1074 43.81 39.2608 43.97C39.4208 44.1233 39.6441 44.2 39.9308 44.2H40.8708V45.06H40.0508ZM37.1908 40.38V39.66H40.8708V40.38H37.1908ZM45.4391 45V43.4H45.2791V41.55C45.2791 41.1833 45.1824 40.9067 44.9891 40.72C44.8024 40.5333 44.5257 40.44 44.1591 40.44C43.9524 40.44 43.7391 40.4433 43.5191 40.45C43.2991 40.4567 43.0891 40.4633 42.8891 40.47C42.6891 40.4767 42.5157 40.4867 42.3691 40.5V39.66C42.5157 39.6467 42.6691 39.6367 42.8291 39.63C42.9957 39.6167 43.1657 39.61 43.3391 39.61C43.5124 39.6033 43.6791 39.6 43.8391 39.6C44.3857 39.6 44.8324 39.6667 45.1791 39.8C45.5257 39.9267 45.7824 40.1367 45.9491 40.43C46.1157 40.7233 46.1991 41.12 46.1991 41.62V45H45.4391ZM43.6891 45.14C43.2891 45.14 42.9424 45.0733 42.6491 44.94C42.3624 44.8 42.1391 44.6 41.9791 44.34C41.8257 44.08 41.7491 43.7667 41.7491 43.4C41.7491 43.02 41.8324 42.7033 41.9991 42.45C42.1724 42.1967 42.4224 42.0067 42.7491 41.88C43.0757 41.7467 43.4691 41.68 43.9291 41.68H45.3791V42.4H43.8891C43.5024 42.4 43.2057 42.4933 42.9991 42.68C42.7924 42.8667 42.6891 43.1067 42.6891 43.4C42.6891 43.6933 42.7924 43.93 42.9991 44.11C43.2057 44.29 43.5024 44.38 43.8891 44.38C44.1157 44.38 44.3324 44.34 44.5391 44.26C44.7457 44.1733 44.9157 44.0333 45.0491 43.84C45.1891 43.64 45.2657 43.3667 45.2791 43.02L45.5391 43.4C45.5057 43.78 45.4124 44.1 45.2591 44.36C45.1124 44.6133 44.9057 44.8067 44.6391 44.94C44.3791 45.0733 44.0624 45.14 43.6891 45.14ZM48.021 45V37.7H48.981V45H48.021ZM47.281 38.46V37.7H48.981V38.46H47.281ZM54.0177 45.04V44.18H56.0577C56.4511 44.18 56.7544 44.07 56.9677 43.85C57.1877 43.6233 57.2977 43.3233 57.2977 42.95C57.2977 42.57 57.1911 42.2733 56.9777 42.06C56.7644 41.84 56.4577 41.73 56.0577 41.73H54.0177V41.09H55.9177C56.3844 41.09 56.7944 41.1467 57.1477 41.26C57.5077 41.3733 57.7877 41.5633 57.9877 41.83C58.1944 42.09 58.2977 42.4467 58.2977 42.9V43.04C58.2977 43.4667 58.2111 43.83 58.0377 44.13C57.8644 44.4233 57.6011 44.65 57.2477 44.81C56.8944 44.9633 56.4511 45.04 55.9177 45.04H54.0177ZM53.2377 45.04V37.66H54.2177V45.04H53.2377ZM54.0177 41.55V40.91H55.7877C56.2011 40.91 56.5044 40.8 56.6977 40.58C56.8977 40.3533 56.9977 40.0667 56.9977 39.72C56.9977 39.3667 56.8977 39.08 56.6977 38.86C56.5044 38.6333 56.2011 38.52 55.7877 38.52H54.0177V37.66H55.6177C56.4177 37.66 57.0144 37.83 57.4077 38.17C57.8011 38.5033 57.9977 38.9867 57.9977 39.62V39.76C57.9977 40.2067 57.8977 40.5633 57.6977 40.83C57.4977 41.09 57.2177 41.2767 56.8577 41.39C56.5044 41.4967 56.0911 41.55 55.6177 41.55H54.0177ZM63.1246 45V43.4H62.9646V41.55C62.9646 41.1833 62.8679 40.9067 62.6746 40.72C62.4879 40.5333 62.2113 40.44 61.8446 40.44C61.6379 40.44 61.4246 40.4433 61.2046 40.45C60.9846 40.4567 60.7746 40.4633 60.5746 40.47C60.3746 40.4767 60.2013 40.4867 60.0546 40.5V39.66C60.2013 39.6467 60.3546 39.6367 60.5146 39.63C60.6813 39.6167 60.8513 39.61 61.0246 39.61C61.1979 39.6033 61.3646 39.6 61.5246 39.6C62.0713 39.6 62.5179 39.6667 62.8646 39.8C63.2113 39.9267 63.4679 40.1367 63.6346 40.43C63.8013 40.7233 63.8846 41.12 63.8846 41.62V45H63.1246ZM61.3746 45.14C60.9746 45.14 60.6279 45.0733 60.3346 44.94C60.0479 44.8 59.8246 44.6 59.6646 44.34C59.5113 44.08 59.4346 43.7667 59.4346 43.4C59.4346 43.02 59.5179 42.7033 59.6846 42.45C59.8579 42.1967 60.1079 42.0067 60.4346 41.88C60.7613 41.7467 61.1546 41.68 61.6146 41.68H63.0646V42.4H61.5746C61.1879 42.4 60.8913 42.4933 60.6846 42.68C60.4779 42.8667 60.3746 43.1067 60.3746 43.4C60.3746 43.6933 60.4779 43.93 60.6846 44.11C60.8913 44.29 61.1879 44.38 61.5746 44.38C61.8013 44.38 62.0179 44.34 62.2246 44.26C62.4313 44.1733 62.6013 44.0333 62.7346 43.84C62.8746 43.64 62.9513 43.3667 62.9646 43.02L63.2246 43.4C63.1913 43.78 63.0979 44.1 62.9446 44.36C62.7979 44.6133 62.5913 44.8067 62.3246 44.94C62.0646 45.0733 61.7479 45.14 61.3746 45.14ZM65.7066 45V37.7H66.6666V45H65.7066ZM64.9666 38.46V37.7H66.6666V38.46H64.9666ZM71.7379 45V43.4H71.5779V41.55C71.5779 41.1833 71.4812 40.9067 71.2879 40.72C71.1012 40.5333 70.8246 40.44 70.4579 40.44C70.2512 40.44 70.0379 40.4433 69.8179 40.45C69.5979 40.4567 69.3879 40.4633 69.1879 40.47C68.9879 40.4767 68.8146 40.4867 68.6679 40.5V39.66C68.8146 39.6467 68.9679 39.6367 69.1279 39.63C69.2946 39.6167 69.4646 39.61 69.6379 39.61C69.8112 39.6033 69.9779 39.6 70.1379 39.6C70.6846 39.6 71.1312 39.6667 71.4779 39.8C71.8246 39.9267 72.0812 40.1367 72.2479 40.43C72.4146 40.7233 72.4979 41.12 72.4979 41.62V45H71.7379ZM69.9879 45.14C69.5879 45.14 69.2412 45.0733 68.9479 44.94C68.6612 44.8 68.4379 44.6 68.2779 44.34C68.1246 44.08 68.0479 43.7667 68.0479 43.4C68.0479 43.02 68.1312 42.7033 68.2979 42.45C68.4712 42.1967 68.7212 42.0067 69.0479 41.88C69.3746 41.7467 69.7679 41.68 70.2279 41.68H71.6779V42.4H70.1879C69.8012 42.4 69.5046 42.4933 69.2979 42.68C69.0912 42.8667 68.9879 43.1067 68.9879 43.4C68.9879 43.6933 69.0912 43.93 69.2979 44.11C69.5046 44.29 69.8012 44.38 70.1879 44.38C70.4146 44.38 70.6312 44.34 70.8379 44.26C71.0446 44.1733 71.2146 44.0333 71.3479 43.84C71.4879 43.64 71.5646 43.3667 71.5779 43.02L71.8379 43.4C71.8046 43.78 71.7112 44.1 71.5579 44.36C71.4112 44.6133 71.2046 44.8067 70.9379 44.94C70.6779 45.0733 70.3612 45.14 69.9879 45.14ZM74.2598 45V39.66H75.0198V41.95H74.8998C74.8998 41.4233 74.9698 40.98 75.1098 40.62C75.2565 40.2533 75.4765 39.9767 75.7698 39.79C76.0632 39.5967 76.4332 39.5 76.8798 39.5H76.9198C77.5932 39.5 78.0898 39.71 78.4098 40.13C78.7365 40.55 78.8998 41.1567 78.8998 41.95V45H77.9398V41.75C77.9398 41.3367 77.8232 41.0067 77.5898 40.76C77.3565 40.5067 77.0365 40.38 76.6298 40.38C76.2098 40.38 75.8698 40.51 75.6098 40.77C75.3498 41.03 75.2198 41.3767 75.2198 41.81V45H74.2598ZM82.9463 45.18C82.4863 45.18 82.0863 45.1 81.7463 44.94C81.413 44.78 81.1363 44.5667 80.9163 44.3C80.6963 44.0267 80.5297 43.7267 80.4163 43.4C80.3097 43.0733 80.2563 42.7467 80.2563 42.42V42.24C80.2563 41.9 80.3097 41.5667 80.4163 41.24C80.5297 40.9133 80.6963 40.62 80.9163 40.36C81.143 40.0933 81.423 39.88 81.7563 39.72C82.0897 39.56 82.4797 39.48 82.9263 39.48C83.373 39.48 83.773 39.5633 84.1263 39.73C84.4863 39.8967 84.773 40.1333 84.9863 40.44C85.2063 40.74 85.3297 41.0967 85.3563 41.51H84.4363C84.3897 41.1767 84.2363 40.9 83.9763 40.68C83.7163 40.4533 83.3663 40.34 82.9263 40.34C82.5463 40.34 82.2297 40.4267 81.9763 40.6C81.723 40.7733 81.533 41.01 81.4063 41.31C81.2797 41.61 81.2163 41.95 81.2163 42.33C81.2163 42.6967 81.2797 43.0333 81.4063 43.34C81.533 43.64 81.723 43.88 81.9763 44.06C82.2363 44.2333 82.5597 44.32 82.9463 44.32C83.2463 44.32 83.5063 44.2667 83.7263 44.16C83.9463 44.0533 84.123 43.91 84.2563 43.73C84.3897 43.55 84.4697 43.3467 84.4963 43.12H85.4163C85.3963 43.54 85.273 43.9033 85.0463 44.21C84.8263 44.5167 84.533 44.7567 84.1663 44.93C83.8063 45.0967 83.3997 45.18 82.9463 45.18ZM88.9908 45.18C88.5241 45.18 88.1208 45.1 87.7808 44.94C87.4408 44.78 87.1641 44.57 86.9508 44.31C86.7374 44.0433 86.5774 43.7467 86.4708 43.42C86.3708 43.0933 86.3208 42.76 86.3208 42.42V42.24C86.3208 41.8933 86.3708 41.5567 86.4708 41.23C86.5774 40.9033 86.7374 40.61 86.9508 40.35C87.1641 40.0833 87.4341 39.8733 87.7608 39.72C88.0941 39.56 88.4841 39.48 88.9308 39.48C89.5108 39.48 89.9874 39.6067 90.3608 39.86C90.7408 40.1067 91.0208 40.4267 91.2008 40.82C91.3874 41.2133 91.4808 41.6333 91.4808 42.08V42.51H86.7408V41.79H90.7808L90.5608 42.18C90.5608 41.8 90.5008 41.4733 90.3808 41.2C90.2608 40.92 90.0808 40.7033 89.8408 40.55C89.6008 40.3967 89.2974 40.32 88.9308 40.32C88.5508 40.32 88.2341 40.4067 87.9808 40.58C87.7341 40.7533 87.5474 40.99 87.4208 41.29C87.3008 41.59 87.2408 41.9367 87.2408 42.33C87.2408 42.71 87.3008 43.0533 87.4208 43.36C87.5474 43.66 87.7408 43.9 88.0008 44.08C88.2608 44.2533 88.5908 44.34 88.9908 44.34C89.4108 44.34 89.7508 44.2467 90.0108 44.06C90.2774 43.8733 90.4374 43.6567 90.4908 43.41H91.3908C91.3174 43.7767 91.1708 44.0933 90.9508 44.36C90.7308 44.6267 90.4541 44.83 90.1208 44.97C89.7874 45.11 89.4108 45.18 88.9908 45.18ZM95.6392 47V37.7H96.4992V47H95.6392ZM104.535 45.18C103.968 45.18 103.455 45.0867 102.995 44.9C102.535 44.7133 102.138 44.45 101.805 44.11C101.478 43.77 101.225 43.37 101.045 42.91C100.865 42.4433 100.775 41.9367 100.775 41.39V41.17C100.775 40.7033 100.855 40.2533 101.015 39.82C101.182 39.38 101.418 38.9867 101.725 38.64C102.038 38.2867 102.418 38.01 102.865 37.81C103.312 37.6033 103.815 37.5 104.375 37.5C104.982 37.5 105.522 37.6167 105.995 37.85C106.468 38.0767 106.848 38.3967 107.135 38.81C107.422 39.2167 107.588 39.69 107.635 40.23H106.635C106.588 39.8233 106.455 39.4867 106.235 39.22C106.015 38.9467 105.742 38.7433 105.415 38.61C105.095 38.47 104.748 38.4 104.375 38.4C103.995 38.4 103.645 38.47 103.325 38.61C103.005 38.7433 102.728 38.9367 102.495 39.19C102.268 39.4433 102.092 39.7467 101.965 40.1C101.838 40.4533 101.775 40.85 101.775 41.29C101.775 41.79 101.842 42.23 101.975 42.61C102.115 42.9833 102.308 43.2967 102.555 43.55C102.802 43.7967 103.092 43.9833 103.425 44.11C103.765 44.2367 104.135 44.3 104.535 44.3C105.102 44.3 105.598 44.1867 106.025 43.96C106.458 43.7267 106.785 43.4267 107.005 43.06L106.645 44.25V42.08H107.565V43.82C107.238 44.2467 106.818 44.58 106.305 44.82C105.792 45.06 105.202 45.18 104.535 45.18ZM104.275 42.28V41.46H108.185V42.28H104.275ZM114.525 45V37.7H115.505V45H114.525ZM109.585 45V37.7H110.565V45H109.585ZM110.365 41.81V40.93H114.725V41.81H110.365ZM119.993 45.18C119.386 45.18 118.869 45.08 118.443 44.88C118.016 44.68 117.689 44.4033 117.463 44.05C117.236 43.6967 117.123 43.2967 117.123 42.85H118.103C118.103 43.07 118.159 43.29 118.273 43.51C118.393 43.73 118.589 43.9133 118.863 44.06C119.143 44.2067 119.519 44.28 119.993 44.28C120.433 44.28 120.793 44.2167 121.073 44.09C121.353 43.9567 121.559 43.7867 121.693 43.58C121.826 43.3667 121.893 43.1367 121.893 42.89C121.893 42.59 121.763 42.3433 121.503 42.15C121.243 41.95 120.863 41.8267 120.363 41.78L119.553 41.71C118.906 41.6567 118.389 41.4567 118.003 41.11C117.616 40.7633 117.423 40.3067 117.423 39.74C117.423 39.2933 117.529 38.9033 117.743 38.57C117.963 38.2367 118.266 37.9767 118.653 37.79C119.039 37.5967 119.489 37.5 120.003 37.5C120.509 37.5 120.956 37.5933 121.343 37.78C121.729 37.9667 122.029 38.23 122.243 38.57C122.463 38.9033 122.573 39.3033 122.573 39.77H121.593C121.593 39.5367 121.536 39.3167 121.423 39.11C121.316 38.9033 121.146 38.7333 120.913 38.6C120.679 38.4667 120.376 38.4 120.003 38.4C119.643 38.4 119.343 38.4633 119.103 38.59C118.869 38.7167 118.693 38.8833 118.573 39.09C118.459 39.29 118.403 39.5067 118.403 39.74C118.403 40.0067 118.506 40.2433 118.713 40.45C118.919 40.6567 119.226 40.7767 119.633 40.81L120.443 40.88C120.943 40.92 121.373 41.0267 121.733 41.2C122.099 41.3667 122.379 41.5933 122.573 41.88C122.773 42.16 122.873 42.4967 122.873 42.89C122.873 43.3367 122.753 43.7333 122.513 44.08C122.273 44.4267 121.936 44.6967 121.503 44.89C121.069 45.0833 120.566 45.18 119.993 45.18Z" fill="black"/>
<path d="M238.49 43.2C237.957 43.2 237.51 43.1067 237.15 42.92C236.797 42.7333 236.513 42.48 236.3 42.16C236.093 41.8333 235.943 41.46 235.85 41.04C235.763 40.62 235.72 40.18 235.72 39.72V39.24C235.72 38.0867 236.007 37.2 236.58 36.58C237.153 35.9533 237.983 35.64 239.07 35.64C239.33 35.64 239.55 35.6467 239.73 35.66C239.91 35.6733 240.107 35.6933 240.32 35.72V36.54C240.1 36.5133 239.897 36.4933 239.71 36.48C239.523 36.4667 239.297 36.46 239.03 36.46C238.423 36.46 237.943 36.5733 237.59 36.8C237.237 37.0267 236.983 37.3533 236.83 37.78C236.677 38.2 236.6 38.71 236.6 39.31V39.76L236.36 40.65C236.367 40.1233 236.467 39.6867 236.66 39.34C236.86 38.9933 237.13 38.7333 237.47 38.56C237.817 38.3867 238.213 38.3 238.66 38.3C239.18 38.3 239.62 38.4067 239.98 38.62C240.34 38.8267 240.61 39.1133 240.79 39.48C240.977 39.8467 241.07 40.2633 241.07 40.73C241.07 41.2033 240.973 41.6267 240.78 42C240.587 42.3733 240.297 42.6667 239.91 42.88C239.53 43.0933 239.057 43.2 238.49 43.2ZM238.49 42.36C238.857 42.36 239.163 42.29 239.41 42.15C239.657 42.01 239.84 41.82 239.96 41.58C240.087 41.3333 240.15 41.05 240.15 40.73C240.15 40.41 240.09 40.1267 239.97 39.88C239.85 39.6333 239.67 39.4433 239.43 39.31C239.197 39.17 238.907 39.1 238.56 39.1C238.22 39.1 237.913 39.1633 237.64 39.29C237.373 39.4167 237.163 39.6033 237.01 39.85C236.857 40.09 236.78 40.3867 236.78 40.74C236.78 41.0333 236.84 41.3033 236.96 41.55C237.08 41.7967 237.267 41.9933 237.52 42.14C237.773 42.2867 238.097 42.36 238.49 42.36ZM247.017 43.18C246.637 43.18 246.287 43.11 245.967 42.97C245.647 42.83 245.367 42.6333 245.127 42.38C244.894 42.1267 244.711 41.8333 244.577 41.5C244.451 41.1667 244.387 40.8067 244.387 40.42V40.24C244.387 39.86 244.451 39.5033 244.577 39.17C244.704 38.8367 244.881 38.5433 245.107 38.29C245.341 38.0367 245.614 37.84 245.927 37.7C246.247 37.5533 246.601 37.48 246.987 37.48C247.394 37.48 247.764 37.5667 248.097 37.74C248.431 37.9067 248.704 38.17 248.917 38.53C249.131 38.89 249.251 39.3567 249.277 39.93L248.877 39.29V35.7H249.837V43H249.077V40.63H249.357C249.331 41.2367 249.204 41.73 248.977 42.11C248.751 42.4833 248.464 42.7567 248.117 42.93C247.777 43.0967 247.411 43.18 247.017 43.18ZM247.147 42.34C247.474 42.34 247.771 42.2667 248.037 42.12C248.304 41.9733 248.517 41.7633 248.677 41.49C248.837 41.21 248.917 40.8833 248.917 40.51V40.05C248.917 39.6833 248.834 39.3733 248.667 39.12C248.507 38.86 248.291 38.6633 248.017 38.53C247.751 38.39 247.457 38.32 247.137 38.32C246.784 38.32 246.471 38.4033 246.197 38.57C245.931 38.7367 245.721 38.97 245.567 39.27C245.421 39.57 245.347 39.9233 245.347 40.33C245.347 40.7367 245.424 41.0933 245.577 41.4C245.731 41.7 245.944 41.9333 246.217 42.1C246.491 42.26 246.801 42.34 247.147 42.34ZM254.912 43V41.4H254.752V39.55C254.752 39.1833 254.655 38.9067 254.462 38.72C254.275 38.5333 253.998 38.44 253.632 38.44C253.425 38.44 253.212 38.4433 252.992 38.45C252.772 38.4567 252.562 38.4633 252.362 38.47C252.162 38.4767 251.988 38.4867 251.842 38.5V37.66C251.988 37.6467 252.142 37.6367 252.302 37.63C252.468 37.6167 252.638 37.61 252.812 37.61C252.985 37.6033 253.152 37.6 253.312 37.6C253.858 37.6 254.305 37.6667 254.652 37.8C254.998 37.9267 255.255 38.1367 255.422 38.43C255.588 38.7233 255.672 39.12 255.672 39.62V43H254.912ZM253.162 43.14C252.762 43.14 252.415 43.0733 252.122 42.94C251.835 42.8 251.612 42.6 251.452 42.34C251.298 42.08 251.222 41.7667 251.222 41.4C251.222 41.02 251.305 40.7033 251.472 40.45C251.645 40.1967 251.895 40.0067 252.222 39.88C252.548 39.7467 252.942 39.68 253.402 39.68H254.852V40.4H253.362C252.975 40.4 252.678 40.4933 252.472 40.68C252.265 40.8667 252.162 41.1067 252.162 41.4C252.162 41.6933 252.265 41.93 252.472 42.11C252.678 42.29 252.975 42.38 253.362 42.38C253.588 42.38 253.805 42.34 254.012 42.26C254.218 42.1733 254.388 42.0333 254.522 41.84C254.662 41.64 254.738 41.3667 254.752 41.02L255.012 41.4C254.978 41.78 254.885 42.1 254.732 42.36C254.585 42.6133 254.378 42.8067 254.112 42.94C253.852 43.0733 253.535 43.14 253.162 43.14ZM257.054 45.08V44.22H257.824C258.051 44.22 258.241 44.19 258.394 44.13C258.554 44.0767 258.684 43.9833 258.784 43.85C258.891 43.7167 258.977 43.54 259.044 43.32L260.724 37.66H261.664L259.884 43.57C259.777 43.9233 259.627 44.21 259.434 44.43C259.241 44.6567 259.004 44.82 258.724 44.92C258.451 45.0267 258.131 45.08 257.764 45.08H257.054ZM258.684 42.88V42.08H259.844V42.88H258.684ZM258.584 42.88L256.674 37.66H257.654L259.484 42.88H258.584ZM264.594 43.16C263.894 43.16 263.35 43.01 262.964 42.71C262.584 42.41 262.387 42 262.374 41.48H263.274C263.287 41.6867 263.39 41.8833 263.584 42.07C263.784 42.25 264.12 42.34 264.594 42.34C265.02 42.34 265.347 42.2567 265.574 42.09C265.8 41.9167 265.914 41.7067 265.914 41.46C265.914 41.24 265.83 41.07 265.664 40.95C265.497 40.8233 265.227 40.74 264.854 40.7L264.274 40.64C263.767 40.5867 263.354 40.4367 263.034 40.19C262.714 39.9367 262.554 39.5833 262.554 39.13C262.554 38.79 262.64 38.5 262.814 38.26C262.987 38.0133 263.227 37.8267 263.534 37.7C263.84 37.5667 264.194 37.5 264.594 37.5C265.194 37.5 265.68 37.6333 266.054 37.9C266.427 38.1667 266.62 38.5633 266.634 39.09H265.734C265.727 38.8767 265.627 38.6967 265.434 38.55C265.247 38.3967 264.967 38.32 264.594 38.32C264.22 38.32 263.937 38.3967 263.744 38.55C263.55 38.7033 263.454 38.8967 263.454 39.13C263.454 39.33 263.52 39.49 263.654 39.61C263.794 39.73 264.02 39.8067 264.334 39.84L264.914 39.9C265.487 39.96 265.947 40.12 266.294 40.38C266.64 40.6333 266.814 40.9933 266.814 41.46C266.814 41.7933 266.717 42.09 266.524 42.35C266.337 42.6033 266.077 42.8033 265.744 42.95C265.41 43.09 265.027 43.16 264.594 43.16ZM270.541 43V35.7H271.501V43H270.541ZM269.801 36.46V35.7H271.501V36.46H269.801ZM275.612 43.18C275.145 43.18 274.742 43.1 274.402 42.94C274.062 42.78 273.785 42.57 273.572 42.31C273.359 42.0433 273.199 41.7467 273.092 41.42C272.992 41.0933 272.942 40.76 272.942 40.42V40.24C272.942 39.8933 272.992 39.5567 273.092 39.23C273.199 38.9033 273.359 38.61 273.572 38.35C273.785 38.0833 274.055 37.8733 274.382 37.72C274.715 37.56 275.105 37.48 275.552 37.48C276.132 37.48 276.609 37.6067 276.982 37.86C277.362 38.1067 277.642 38.4267 277.822 38.82C278.009 39.2133 278.102 39.6333 278.102 40.08V40.51H273.362V39.79H277.402L277.182 40.18C277.182 39.8 277.122 39.4733 277.002 39.2C276.882 38.92 276.702 38.7033 276.462 38.55C276.222 38.3967 275.919 38.32 275.552 38.32C275.172 38.32 274.855 38.4067 274.602 38.58C274.355 38.7533 274.169 38.99 274.042 39.29C273.922 39.59 273.862 39.9367 273.862 40.33C273.862 40.71 273.922 41.0533 274.042 41.36C274.169 41.66 274.362 41.9 274.622 42.08C274.882 42.2533 275.212 42.34 275.612 42.34C276.032 42.34 276.372 42.2467 276.632 42.06C276.899 41.8733 277.059 41.6567 277.112 41.41H278.012C277.939 41.7767 277.792 42.0933 277.572 42.36C277.352 42.6267 277.075 42.83 276.742 42.97C276.409 43.11 276.032 43.18 275.612 43.18ZM279.605 43V37.39C279.605 36.7967 279.762 36.36 280.075 36.08C280.388 35.8 280.848 35.66 281.455 35.66H282.115V36.46H281.295C281.048 36.46 280.858 36.53 280.725 36.67C280.592 36.8033 280.525 36.99 280.525 37.23V43H279.605ZM278.865 38.44V37.72H282.215V38.44H278.865ZM285.412 43.06C285.012 43.06 284.665 43.0033 284.372 42.89C284.085 42.7767 283.862 42.5833 283.702 42.31C283.549 42.03 283.472 41.6533 283.472 41.18V36.04H284.392V41.3C284.392 41.5867 284.469 41.81 284.622 41.97C284.782 42.1233 285.005 42.2 285.292 42.2H286.232V43.06H285.412ZM282.552 38.38V37.66H286.232V38.38H282.552Z" fill="black"/>
<path d="M68.06 144V136.7H69.36L71.52 141.57H71.68L73.83 136.7H75.14V144H74.16V137.77L74.23 137.79L72.16 142.49H70.96L68.88 137.79L68.96 137.77V144H68.06ZM76.7592 146.08V145.22H77.5292C77.7559 145.22 77.9459 145.19 78.0992 145.13C78.2592 145.077 78.3892 144.983 78.4892 144.85C78.5959 144.717 78.6826 144.54 78.7492 144.32L80.4292 138.66H81.3692L79.5892 144.57C79.4826 144.923 79.3326 145.21 79.1392 145.43C78.9459 145.657 78.7092 145.82 78.4292 145.92C78.1559 146.027 77.8359 146.08 77.4692 146.08H76.7592ZM78.3892 143.88V143.08H79.5492V143.88H78.3892ZM78.2892 143.88L76.3792 138.66H77.3592L79.1892 143.88H78.2892ZM87.6834 144.18C87.2434 144.18 86.85 144.083 86.5034 143.89C86.1634 143.697 85.8934 143.417 85.6934 143.05C85.4934 142.677 85.3834 142.23 85.3634 141.71H85.6234V144H84.8634V136.7H85.8234V140.25L85.4834 140.98C85.51 140.4 85.6267 139.927 85.8334 139.56C86.04 139.193 86.31 138.923 86.6434 138.75C86.9834 138.57 87.3567 138.48 87.7634 138.48C88.1434 138.48 88.49 138.553 88.8034 138.7C89.1167 138.84 89.3867 139.037 89.6134 139.29C89.84 139.537 90.0134 139.827 90.1334 140.16C90.2534 140.487 90.3134 140.84 90.3134 141.22V141.4C90.3134 141.78 90.25 142.137 90.1234 142.47C90.0034 142.803 89.8267 143.1 89.5934 143.36C89.36 143.613 89.08 143.813 88.7534 143.96C88.4334 144.107 88.0767 144.18 87.6834 144.18ZM87.5734 143.34C87.9334 143.34 88.2467 143.253 88.5134 143.08C88.78 142.907 88.9867 142.67 89.1334 142.37C89.28 142.063 89.3534 141.71 89.3534 141.31C89.3534 140.91 89.2767 140.56 89.1234 140.26C88.9767 139.96 88.77 139.73 88.5034 139.57C88.2367 139.403 87.9267 139.32 87.5734 139.32C87.2534 139.32 86.9567 139.393 86.6834 139.54C86.41 139.68 86.19 139.887 86.0234 140.16C85.8634 140.427 85.7834 140.75 85.7834 141.13V141.59C85.7834 141.957 85.8667 142.27 86.0334 142.53C86.2 142.79 86.42 142.99 86.6934 143.13C86.9667 143.27 87.26 143.34 87.5734 143.34ZM93.6079 144.16C92.9746 144.16 92.4879 143.953 92.1479 143.54C91.8079 143.127 91.6379 142.53 91.6379 141.75V138.65H92.5979V141.94C92.5979 142.36 92.7112 142.69 92.9379 142.93C93.1646 143.163 93.4712 143.28 93.8579 143.28C94.2579 143.28 94.5846 143.153 94.8379 142.9C95.0912 142.64 95.2179 142.287 95.2179 141.84V138.65H96.1779V144H95.4179V141.71H95.5379C95.5379 142.237 95.4679 142.683 95.3279 143.05C95.1879 143.41 94.9779 143.687 94.6979 143.88C94.4246 144.067 94.0746 144.16 93.6479 144.16H93.6079ZM100.267 144.18C99.8872 144.18 99.5372 144.11 99.2172 143.97C98.8972 143.83 98.6172 143.633 98.3772 143.38C98.1439 143.127 97.9605 142.833 97.8272 142.5C97.7005 142.167 97.6372 141.807 97.6372 141.42V141.24C97.6372 140.86 97.7005 140.503 97.8272 140.17C97.9539 139.837 98.1305 139.543 98.3572 139.29C98.5905 139.037 98.8639 138.84 99.1772 138.7C99.4972 138.553 99.8505 138.48 100.237 138.48C100.644 138.48 101.014 138.567 101.347 138.74C101.681 138.907 101.954 139.17 102.167 139.53C102.381 139.89 102.501 140.357 102.527 140.93L102.127 140.29V136.7H103.087V144H102.327V141.63H102.607C102.581 142.237 102.454 142.73 102.227 143.11C102.001 143.483 101.714 143.757 101.367 143.93C101.027 144.097 100.661 144.18 100.267 144.18ZM100.397 143.34C100.724 143.34 101.021 143.267 101.287 143.12C101.554 142.973 101.767 142.763 101.927 142.49C102.087 142.21 102.167 141.883 102.167 141.51V141.05C102.167 140.683 102.084 140.373 101.917 140.12C101.757 139.86 101.541 139.663 101.267 139.53C101.001 139.39 100.707 139.32 100.387 139.32C100.034 139.32 99.7205 139.403 99.4472 139.57C99.1805 139.737 98.9705 139.97 98.8172 140.27C98.6705 140.57 98.5972 140.923 98.5972 141.33C98.5972 141.737 98.6739 142.093 98.8272 142.4C98.9805 142.7 99.1939 142.933 99.4672 143.1C99.7405 143.26 100.051 143.34 100.397 143.34ZM106.952 146.08C106.705 146.08 106.455 146.07 106.202 146.05C105.955 146.03 105.718 146.003 105.492 145.97V145.16C105.732 145.193 105.982 145.22 106.242 145.24C106.508 145.267 106.758 145.28 106.992 145.28C107.478 145.28 107.865 145.213 108.152 145.08C108.445 144.953 108.655 144.75 108.782 144.47C108.915 144.197 108.982 143.843 108.982 143.41V142.39L109.302 141.63C109.282 142.17 109.168 142.62 108.962 142.98C108.755 143.333 108.485 143.6 108.152 143.78C107.825 143.953 107.462 144.04 107.062 144.04C106.688 144.04 106.345 143.97 106.032 143.83C105.725 143.683 105.458 143.483 105.232 143.23C105.012 142.977 104.838 142.687 104.712 142.36C104.592 142.027 104.532 141.677 104.532 141.31V141.13C104.532 140.757 104.595 140.41 104.722 140.09C104.848 139.763 105.025 139.48 105.252 139.24C105.478 139 105.748 138.813 106.062 138.68C106.382 138.547 106.732 138.48 107.112 138.48C107.558 138.48 107.952 138.577 108.292 138.77C108.632 138.957 108.898 139.233 109.092 139.6C109.292 139.96 109.402 140.403 109.422 140.93L109.142 140.94V138.66H109.902V143.37C109.902 144.01 109.802 144.527 109.602 144.92C109.408 145.32 109.095 145.613 108.662 145.8C108.235 145.987 107.665 146.08 106.952 146.08ZM107.242 143.16C107.562 143.16 107.852 143.09 108.112 142.95C108.378 142.81 108.588 142.61 108.742 142.35C108.902 142.083 108.982 141.767 108.982 141.4V140.94C108.982 140.58 108.898 140.277 108.732 140.03C108.572 139.783 108.362 139.597 108.102 139.47C107.842 139.343 107.558 139.28 107.252 139.28C106.905 139.28 106.598 139.36 106.332 139.52C106.065 139.68 105.858 139.907 105.712 140.2C105.565 140.487 105.492 140.827 105.492 141.22C105.492 141.613 105.565 141.957 105.712 142.25C105.865 142.543 106.072 142.77 106.332 142.93C106.598 143.083 106.902 143.16 107.242 143.16ZM113.95 144.18C113.483 144.18 113.08 144.1 112.74 143.94C112.4 143.78 112.123 143.57 111.91 143.31C111.696 143.043 111.536 142.747 111.43 142.42C111.33 142.093 111.28 141.76 111.28 141.42V141.24C111.28 140.893 111.33 140.557 111.43 140.23C111.536 139.903 111.696 139.61 111.91 139.35C112.123 139.083 112.393 138.873 112.72 138.72C113.053 138.56 113.443 138.48 113.89 138.48C114.47 138.48 114.946 138.607 115.32 138.86C115.7 139.107 115.98 139.427 116.16 139.82C116.346 140.213 116.44 140.633 116.44 141.08V141.51H111.7V140.79H115.74L115.52 141.18C115.52 140.8 115.46 140.473 115.34 140.2C115.22 139.92 115.04 139.703 114.8 139.55C114.56 139.397 114.256 139.32 113.89 139.32C113.51 139.32 113.193 139.407 112.94 139.58C112.693 139.753 112.506 139.99 112.38 140.29C112.26 140.59 112.2 140.937 112.2 141.33C112.2 141.71 112.26 142.053 112.38 142.36C112.506 142.66 112.7 142.9 112.96 143.08C113.22 143.253 113.55 143.34 113.95 143.34C114.37 143.34 114.71 143.247 114.97 143.06C115.236 142.873 115.396 142.657 115.45 142.41H116.35C116.276 142.777 116.13 143.093 115.91 143.36C115.69 143.627 115.413 143.83 115.08 143.97C114.746 144.11 114.37 144.18 113.95 144.18ZM119.883 144.06C119.483 144.06 119.136 144.003 118.843 143.89C118.556 143.777 118.333 143.583 118.173 143.31C118.019 143.03 117.943 142.653 117.943 142.18V137.04H118.863V142.3C118.863 142.587 118.939 142.81 119.093 142.97C119.253 143.123 119.476 143.2 119.763 143.2H120.703V144.06H119.883ZM117.023 139.38V138.66H120.703V139.38H117.023Z" fill="black"/>
<g filter="url(#filter0_d_756_4338)">
<path d="M196.801 88.3163C198.059 88.2189 199.191 87.6293 199.984 86.6535C201.221 85.1312 201.342 82.9991 200.291 81.3483L199.102 79.4827L211.537 71.5476C211.954 71.2845 212.323 70.9563 212.63 70.5782C213.767 69.1785 213.959 67.2309 213.118 65.6147C212.267 63.9901 210.598 63.0584 208.764 63.1966L181.944 65.1937C180.686 65.291 179.554 65.8807 178.761 66.8564C177.524 68.3787 177.403 70.5109 178.453 72.1616L179.643 74.0272L167.208 81.9624C166.79 82.2255 166.422 82.5537 166.115 82.9317C164.977 84.3314 164.786 86.279 165.627 87.8953C166.474 89.5249 168.147 90.4515 169.98 90.3133L196.801 88.3163Z" fill="white"/>
<path d="M180.948 68.633C181.247 68.2652 181.673 68.0433 182.152 68.0079L208.972 66.0108C209.668 65.9575 210.299 66.3087 210.615 66.9218C210.931 67.5348 210.867 68.2714 210.439 68.7976C210.323 68.9406 210.181 69.0629 210.019 69.1686L195.195 78.6234L197.904 82.8681C198.305 83.491 198.253 84.2966 197.784 84.8738C197.485 85.2416 197.059 85.4635 196.58 85.4989L169.76 87.496C169.064 87.5493 168.433 87.1981 168.117 86.585C167.801 85.972 167.865 85.2354 168.293 84.7092C168.409 84.5662 168.555 84.4388 168.713 84.3382L183.537 74.8834L180.828 70.6387C180.431 70.0107 180.479 69.2102 180.948 68.633Z" fill="url(#paint0_linear_756_4338)"/>
<path d="M197.134 84.3374C196.993 84.5111 196.785 84.6308 196.53 84.6525L169.71 86.6496C168.916 86.7083 168.522 85.7945 168.962 85.253C169.02 85.1815 169.089 85.1183 169.176 85.0624L184.711 75.1503L181.544 70.1857C181.327 69.8479 181.383 69.4443 181.603 69.1736C181.744 68.9999 181.952 68.8801 182.207 68.8584L209.027 66.8614C209.821 66.8027 210.215 67.7165 209.775 68.258C209.717 68.3295 209.649 68.3927 209.561 68.4486L194.027 78.3606L197.193 83.3253C197.411 83.6631 197.354 84.0667 197.134 84.3374ZM198.452 85.4083C199.149 84.5501 199.221 83.3448 198.624 82.4099L196.369 78.8811L210.472 69.8844C210.714 69.7331 210.919 69.5434 211.093 69.3289C211.733 68.5422 211.839 67.441 211.36 66.5265C210.877 65.6079 209.938 65.0827 208.898 65.1622L182.078 67.1592C181.367 67.2093 180.728 67.5468 180.28 68.0985C179.583 68.9567 179.511 70.162 180.108 71.0969L182.36 74.6308L168.256 83.6275C168.014 83.7788 167.809 83.9685 167.635 84.183C166.996 84.9697 166.89 86.071 167.368 86.9854C167.851 87.904 168.79 88.4292 169.83 88.3498L196.65 86.3527C197.361 86.3026 198 85.9651 198.448 85.4134L198.452 85.4083Z" fill="#1D074F"/>
</g>
<g filter="url(#filter1_d_756_4338)">
<path d="M46.3996 129.268C37.0653 125.572 27.596 123.715 19.7134 124.036C10.3791 124.407 3.96495 127.8 1.66936 133.623C1.55121 133.927 1.46681 134.231 1.38241 134.535C-1.40268 138.754 -3.10749 144.325 -4.2384 148.055C-4.57599 149.186 -4.94733 150.35 -5.16676 150.941C-9.47099 161.812 3.2729 176.328 24.4565 184.734C33.1662 188.177 41.7578 190 49.3197 190C59.6836 190 66.7223 186.59 69.1867 180.396C69.4061 179.839 69.7606 179.062 70.1995 178.134L70.267 177.965C71.9718 174.302 74.2674 169.357 75.3308 164.529C75.6177 164.04 75.854 163.55 76.0397 163.077C78.3353 157.254 76.006 150.401 69.4399 143.734C63.9035 138.113 55.717 132.982 46.3996 129.285V129.268Z" fill="white"/>
<path d="M64.4436 178.505C61.304 186.422 44.239 187.097 26.3132 179.991C8.38733 172.884 -3.597 160.714 -0.457441 152.798C1.19673 148.612 4.2519 133.134 11.7632 133.066C18.4643 133.016 31.799 141.455 40.2555 144.814C49.2184 148.359 64.4605 150.232 69.3048 155.161C74.1492 160.09 66.0302 174.539 64.4605 178.505H64.4436Z" fill="url(#paint1_linear_756_4338)" stroke="#1D074F" stroke-width="2.02" stroke-linecap="round" stroke-linejoin="round"/>
<path d="M71.2971 161.187C68.1576 169.104 51.0925 169.779 33.1667 162.673C15.2408 155.566 3.25652 143.396 6.39607 135.48C9.53563 127.564 26.6006 126.888 44.5265 133.995C62.4523 141.101 74.4367 153.271 71.2971 161.187Z" fill="url(#paint2_linear_756_4338)" stroke="#1D074F" stroke-width="2.02" stroke-linecap="round" stroke-linejoin="round"/>
<path d="M56.1904 153.676C54.8738 157.001 46.0966 156.63 36.5766 152.866C27.0567 149.102 20.4062 143.346 21.7228 140.037C23.0394 136.712 31.8167 137.084 41.3366 140.848C50.8565 144.612 57.507 150.368 56.1904 153.676Z" fill="url(#paint3_linear_756_4338)" stroke="#1D074F" stroke-width="1.99" stroke-linecap="round" stroke-linejoin="round"/>
</g>
<g filter="url(#filter2_d_756_4338)">
<path d="M240.063 203.511C236.586 203.511 233.527 201.516 231.883 198.181L231.802 198.006C231.681 197.729 231.553 197.399 231.451 197.062C231.283 196.53 230.906 196.085 230.4 195.843C230.124 195.708 229.821 195.64 229.524 195.64C229.275 195.64 229.026 195.688 228.796 195.775C227.799 196.166 226.741 196.362 225.663 196.362C225.549 196.362 225.441 196.362 225.326 196.362C222.415 196.247 219.571 194.65 217.921 192.184C216.283 189.738 215.973 186.725 217.072 183.909C217.314 183.289 217.233 182.595 216.863 182.042C216.492 181.49 215.879 181.159 215.212 181.146C201.074 180.944 191.843 180.351 185.286 179.226C178.386 178.04 170.468 175.728 170.468 168.377C170.468 161.025 178.884 157.406 185.946 155.297C186.876 155.021 187.476 154.118 187.382 153.154C187.281 152.191 186.512 151.429 185.542 151.348C168.804 149.9 166.331 141.645 166.041 138.161C165.738 134.462 167.126 130.796 170.064 127.548C173.736 123.498 176.358 119.145 177.867 114.617C180.421 106.948 186.277 101.827 193.157 101.261C193.568 101.227 193.985 101.207 194.403 101.207C200.562 101.207 206.384 104.913 209.969 111.113L210.198 111.504C210.569 112.13 211.243 112.501 211.937 112.501C212.152 112.501 212.368 112.467 212.584 112.393C213.487 112.09 214.059 111.194 213.945 110.244C213.338 105.095 215.124 99.8528 219.113 95.0684C224.787 88.2625 228.749 81.0254 230.906 73.5524C234.174 62.198 242.341 54.3881 252.226 53.1617C253.102 53.0539 253.992 53 254.874 53C263.446 53 271.775 58.0673 277.152 66.5511C282.078 74.3206 287.92 80.4796 294.51 84.8663C300.225 88.6669 303.614 93.6129 304.301 99.1654C305.743 110.83 294.692 120.23 273.978 124.954C272.94 125.19 272.267 126.187 272.428 127.231C272.529 127.865 272.617 128.491 272.705 129.111C273.513 135.095 273.796 141.402 273.547 147.858L273.52 148.532C273.479 149.819 273.419 151.577 273.183 153.39C273.055 154.367 273.648 155.297 274.585 155.587C284.281 158.592 289.2 162.898 289.2 168.377C289.2 175.54 281.768 179.131 264.356 180.398C263.763 180.438 263.217 180.748 262.866 181.227C262.516 181.712 262.401 182.325 262.543 182.905C263.089 185.075 262.846 187.453 261.876 189.421C260.339 192.548 257.246 194.414 253.594 194.414C253.358 194.414 253.116 194.407 252.88 194.394L252.691 194.374C252.388 194.34 252.038 194.286 251.701 194.205C251.552 194.171 251.404 194.158 251.256 194.158C250.852 194.158 250.461 194.279 250.117 194.508C249.652 194.825 249.342 195.317 249.255 195.87C249.073 197.035 248.655 198.147 248.008 199.171C246.458 201.638 243.655 203.295 240.69 203.491C240.481 203.504 240.279 203.511 240.07 203.511H240.063ZM229.827 150.176C235.744 150.176 241.923 150.425 247.705 150.904C247.759 150.904 247.819 150.904 247.873 150.904C248.547 150.904 249.187 150.567 249.558 149.994C251.714 146.726 253.574 143.896 254.039 139.724L254.073 139.381C254.383 136.119 254.322 132.844 253.891 129.637C253.756 128.626 252.893 127.878 251.889 127.878C251.862 127.878 251.829 127.878 251.802 127.878C250.245 127.946 248.702 127.979 247.226 127.979C239.315 127.979 232.664 127.022 227.442 125.136C227.22 125.055 226.984 125.014 226.755 125.014C226.168 125.014 225.602 125.27 225.212 125.729C224.666 126.375 224.578 127.292 224.996 128.026C225.906 129.63 226.438 131.362 226.586 133.154C226.849 136.322 225.953 142.285 217.045 146.645C216.182 147.069 215.737 148.04 215.973 148.97C216.202 149.866 217.011 150.486 217.927 150.486C217.961 150.486 218.001 150.486 218.035 150.486C221.957 150.277 225.919 150.169 229.814 150.169L229.827 150.176Z" fill="white"/>
</g>
<path d="M229.825 177.528C192.11 177.528 174.158 176.16 174.158 168.37C174.158 158.963 202.837 153.882 229.825 153.882C256.813 153.882 285.492 158.963 285.492 168.37C285.492 176.153 267.54 177.528 229.825 177.528Z" fill="url(#paint4_linear_756_4338)"/>
<path d="M229.826 155.041C259.934 155.041 284.334 161.012 284.334 168.377C284.334 175.742 259.927 176.375 229.826 176.375C199.725 176.375 175.318 175.742 175.318 168.377C175.318 161.012 199.725 155.041 229.826 155.041ZM229.826 152.73C215.089 152.73 201.201 154.138 190.736 156.699C178.977 159.576 173.014 163.505 173.014 168.37C173.014 174.65 182.643 176.51 191.039 177.427C200.534 178.464 213.418 178.68 229.833 178.68C246.248 178.68 259.132 178.464 268.626 177.427C277.016 176.51 286.652 174.65 286.652 168.37C286.652 163.505 280.688 159.576 268.929 156.699C258.458 154.138 244.576 152.73 229.839 152.73H229.826Z" fill="#1D074F"/>
<mask id="mask0_756_4338" style="mask-type:luminance" maskUnits="userSpaceOnUse" x="217" y="56" width="84" height="69">
<path d="M292.455 87.9459C284.935 82.9459 278.85 76.1535 274.018 68.5323C268.964 60.5674 260.993 55.8033 252.677 56.8343C243.998 57.9057 237.219 65.0081 234.463 74.57C232.037 83.0066 227.583 90.6885 221.957 97.4337C218.715 101.322 217.105 105.601 217.637 109.886C219.214 122.615 238.52 126.2 261.431 123.363C284.348 120.527 302.192 112.346 300.615 99.617C300.042 95.0146 297.084 91.0254 292.455 87.9526V87.9459Z" fill="white"/>
</mask>
<g mask="url(#mask0_756_4338)">
<path d="M292.455 87.9459C284.935 82.9459 278.85 76.1535 274.018 68.5323C268.964 60.5674 260.993 55.8033 252.677 56.8343C243.998 57.9057 237.219 65.0081 234.463 74.57C232.037 83.0066 227.583 90.6885 221.957 97.4337C218.715 101.322 217.105 105.601 217.637 109.886C219.214 122.615 238.52 126.2 261.431 123.363C284.348 120.527 302.192 112.346 300.615 99.617C300.042 95.0146 297.084 91.0254 292.455 87.9526V87.9459Z" fill="url(#paint5_linear_756_4338)"/>
<path d="M292.455 87.9459C284.935 82.9459 278.85 76.1535 274.018 68.5323C268.964 60.5674 260.993 55.8033 252.677 56.8343C252.509 56.8545 252.347 56.8949 252.186 56.9151C252.361 57.1442 252.529 57.3868 252.677 57.6362C254.079 59.9879 254.254 62.8787 254.099 65.5539C253.924 68.6334 253.25 71.6522 252.853 74.7048C252.624 76.4298 252.496 78.2088 252.832 79.9271C253.183 81.7128 254.113 83.2559 255.562 84.361C257.037 85.4864 258.85 86.012 260.541 86.706C262.118 87.3529 263.567 88.2694 264.787 89.4621C267.347 91.9755 268.661 95.4863 269.227 98.9634C269.908 103.108 269.598 107.494 268.607 111.564C267.677 115.392 265.683 118.889 263.52 122.144C263.291 122.487 263.061 122.824 262.832 123.161C285.063 120.169 302.158 112.07 300.615 99.5968C300.042 94.9944 297.084 91.0052 292.455 87.9324V87.9459Z" fill="url(#paint6_linear_756_4338)"/>
<path d="M230.805 112.265C230.489 107.528 231.843 102.697 234.552 98.8017C235.354 97.6561 236.277 96.5982 237.193 95.5402C238.204 94.3678 239.222 93.2087 240.199 92.016C242.16 89.6171 243.912 87.0497 244.909 84.0915C245.846 81.3153 246.048 78.3975 245.906 75.4932C245.771 72.8517 245.381 70.2372 245.367 67.589C245.354 64.4421 245.812 61.1672 247.254 58.4111C241.216 61.1807 236.607 67.124 234.457 74.5903C232.032 83.0269 227.577 90.7087 221.951 97.454C218.71 101.342 217.099 105.621 217.631 109.907C218.541 117.258 225.367 121.551 235.387 123.33C232.658 120.304 231.081 116.376 230.805 112.285V112.265Z" fill="url(#paint7_linear_756_4338)"/>
<path d="M292.456 87.946C284.936 82.9461 278.851 76.1536 274.02 68.5324C269.788 61.8546 263.501 57.4476 256.682 56.7939C257.504 57.4341 258.265 58.1551 258.939 58.93C261.405 61.7467 261.965 65.399 263.05 68.8491C263.589 70.554 264.303 72.2453 265.361 73.6941C266.244 74.907 267.376 75.9111 268.642 76.7062C271.156 78.2763 274.053 79.1253 276.661 80.5269C279.687 82.1576 282.524 84.1725 284.869 86.6994C287.308 89.3274 289.06 92.481 289.875 95.985C290.725 99.6373 290.442 103.418 289.377 106.989C288.454 110.095 287.16 113.175 285.623 116.039C285.3 116.645 284.95 117.245 284.586 117.838C295.105 113.633 301.587 107.494 300.61 99.6104C300.037 95.008 297.079 91.0188 292.45 87.946H292.456Z" fill="url(#paint8_linear_756_4338)"/>
<path d="M227.814 93.5726C223.279 93.5726 219.438 90.1764 218.878 85.6683C218.582 83.2829 219.236 80.9177 220.711 79.0174C222.194 77.1172 224.323 75.911 226.709 75.6145C227.079 75.5673 227.457 75.5471 227.827 75.5471C232.362 75.5471 236.203 78.9433 236.762 83.4514C237.376 88.384 233.858 92.892 228.926 93.4985C228.555 93.5456 228.178 93.5659 227.807 93.5659L227.814 93.5726Z" fill="white"/>
<path d="M227.827 76.5579C231.809 76.5579 235.252 79.5229 235.758 83.5727C236.304 87.9595 233.184 91.9554 228.804 92.4945C228.467 92.5349 228.137 92.5551 227.813 92.5551C223.831 92.5551 220.387 89.5902 219.882 85.5403C219.336 81.1536 222.456 77.1577 226.836 76.6186C227.166 76.5781 227.503 76.5579 227.827 76.5579ZM227.827 74.5364C227.416 74.5364 226.998 74.5633 226.587 74.6105C221.102 75.2911 217.193 80.3045 217.874 85.7897C218.494 90.8031 222.766 94.5834 227.806 94.5834C228.217 94.5834 228.635 94.5565 229.046 94.5093C231.701 94.1791 234.073 92.8381 235.717 90.7222C237.362 88.6131 238.089 85.9851 237.759 83.3301C237.139 78.3167 232.867 74.5364 227.827 74.5364Z" fill="#1D074F"/>
<path d="M263.548 66.7265C259.013 66.7265 255.172 63.3303 254.612 58.8222C253.999 53.8897 257.517 49.3816 262.449 48.7751C262.82 48.728 263.197 48.7078 263.568 48.7078C268.103 48.7078 271.944 52.104 272.503 56.612C273.116 61.5446 269.599 66.0527 264.666 66.6591C264.296 66.7063 263.918 66.7265 263.548 66.7265Z" fill="white"/>
<path d="M263.568 49.7117C267.55 49.7117 270.994 52.6767 271.499 56.7332C272.045 61.12 268.925 65.1159 264.545 65.655C264.215 65.6954 263.878 65.7157 263.554 65.7157C259.572 65.7157 256.128 62.7507 255.623 58.6942C255.077 54.3074 258.197 50.3115 262.577 49.7724C262.907 49.7319 263.244 49.7117 263.568 49.7117ZM263.568 47.6902C263.157 47.6902 262.739 47.7171 262.328 47.7643C259.673 48.0945 257.301 49.4355 255.657 51.5513C254.013 53.6605 253.285 56.2885 253.615 58.9435C254.235 63.9569 258.507 67.7372 263.548 67.7372C263.959 67.7372 264.376 67.7103 264.787 67.6631C267.442 67.3329 269.814 65.9919 271.458 63.8761C273.103 61.7669 273.83 59.1389 273.5 56.4839C272.88 51.4705 268.608 47.6902 263.568 47.6902Z" fill="#1D074F"/>
<path d="M292.767 93.6197C288.232 93.6197 284.391 90.2235 283.832 85.7155C283.535 83.33 284.189 80.9648 285.664 79.0646C287.147 77.1643 289.276 75.9581 291.662 75.6616C292.032 75.6145 292.41 75.5942 292.78 75.5942C297.315 75.5942 301.156 78.9904 301.716 83.4985C302.329 88.4311 298.811 92.9391 293.879 93.5456C293.508 93.5928 293.131 93.613 292.76 93.613L292.767 93.6197Z" fill="white"/>
<path d="M292.786 76.605C296.769 76.605 300.212 79.57 300.718 83.6198C301.263 88.0066 298.144 92.0025 293.764 92.5416C293.433 92.582 293.096 92.6022 292.773 92.6022C288.791 92.6022 285.347 89.6373 284.842 85.5875C284.296 81.2007 287.416 77.2048 291.796 76.6657C292.133 76.6253 292.463 76.605 292.786 76.605ZM292.786 74.5835C292.375 74.5835 291.958 74.6105 291.547 74.6576C288.892 74.9878 286.52 76.3288 284.875 78.4447C283.231 80.5538 282.504 83.1818 282.834 85.8368C283.454 90.8502 287.726 94.6305 292.766 94.6305C293.177 94.6305 293.595 94.6036 294.006 94.5564C296.661 94.2262 299.033 92.8853 300.677 90.7694C302.321 88.6535 303.049 86.0322 302.719 83.3772C302.099 78.3638 297.827 74.5835 292.786 74.5835Z" fill="#1D074F"/>
</g>
<path d="M292.455 87.9459C284.935 82.9459 278.85 76.1535 274.018 68.5323C268.964 60.5674 260.993 55.8033 252.677 56.8343C243.998 57.9057 237.219 65.0081 234.463 74.57C232.037 83.0066 227.583 90.6885 221.957 97.4337C218.715 101.322 217.105 105.601 217.637 109.886C219.214 122.615 238.52 126.2 261.431 123.363C284.348 120.527 302.192 112.346 300.615 99.617C300.042 95.0146 297.084 91.0254 292.455 87.9526V87.9459Z" stroke="#1D074F" stroke-width="3" stroke-miterlimit="10"/>
<path d="M252.469 124.873C237.765 124.873 227.327 120.358 226.499 113.647C225.474 105.358 239.335 97.0497 258.055 94.7316C261.175 94.3475 264.288 94.1521 267.307 94.1521C282.01 94.1521 292.448 98.6669 293.277 105.378C294.301 113.667 280.44 121.975 261.714 124.293C258.594 124.677 255.481 124.873 252.462 124.873H252.469Z" fill="url(#paint9_linear_756_4338)"/>
<path d="M267.307 95.109C281.02 95.109 291.546 99.1993 292.327 105.5C293.271 113.135 279.517 121.126 261.6 123.343C258.453 123.734 255.387 123.916 252.469 123.916C238.756 123.916 228.231 119.826 227.449 113.525C226.506 105.884 240.259 97.8988 258.177 95.6818C261.324 95.291 264.39 95.109 267.307 95.109ZM267.307 93.1953C264.255 93.1953 261.101 93.3907 257.941 93.7883C249.026 94.8934 240.798 97.4271 234.781 100.924C228.271 104.705 224.996 109.267 225.556 113.768C226.027 117.555 229.08 120.695 234.39 122.858C239.167 124.806 245.421 125.83 252.469 125.83C255.522 125.83 258.675 125.634 261.836 125.237C270.751 124.132 278.978 121.598 284.996 118.101C291.505 114.32 294.78 109.759 294.221 105.257C293.749 101.47 290.697 98.33 285.38 96.167C280.602 94.2196 274.349 93.1953 267.301 93.1953H267.307Z" fill="#1D074F"/>
<path d="M257.609 94.8259L261.302 124.651" stroke="#1D074F" stroke-width="2.84" stroke-linecap="round" stroke-linejoin="round"/>
<path d="M257.609 94.8259L261.39 123.485" stroke="#1D074F" stroke-width="2.84" stroke-linecap="round" stroke-linejoin="round"/>
<path d="M226.916 113.882L292.576 105.635" stroke="#1D074F" stroke-width="2.84" stroke-linecap="round" stroke-linejoin="round"/>
<path d="M241.33 123.889L278.621 95.574" stroke="#1D074F" stroke-width="2.84" stroke-linecap="round" stroke-linejoin="round"/>
<path d="M238.129 100.419L279.375 119.408" stroke="#1D074F" stroke-width="2.84" stroke-linecap="round" stroke-linejoin="round"/>
<path d="M259.732 160.917C256.559 160.917 252.953 160.466 252.01 159.954C251.121 159.468 250.433 158.606 250.184 157.642C249.975 156.847 250.083 156.045 250.494 155.385C251.121 154.374 251.754 153.417 252.367 152.487C254.941 148.586 257.165 145.217 257.731 140.149L257.771 139.779C258.661 130.345 256.707 120.891 252.273 113.175C252.05 112.784 252.05 112.319 252.28 111.901C252.953 110.675 255.992 109.698 258.297 109.597C258.439 109.597 258.58 109.59 258.722 109.59C261.909 109.59 264.085 111.221 264.874 111.928C265.999 112.932 266.525 115.581 267.098 118.936C267.212 119.637 267.32 120.237 267.407 120.628C268.088 123.606 268.634 126.632 269.038 129.617C269.82 135.392 270.089 141.483 269.854 147.723L269.827 148.411C269.726 151.557 269.55 156.827 266.976 159.273C265.817 160.371 263.385 160.931 259.746 160.931L259.732 160.917Z" fill="url(#paint10_linear_756_4338)"/>
<path d="M258.714 110.594C261.767 110.594 263.762 112.292 264.193 112.676C265.446 113.788 266.012 119.085 266.41 120.843C267.077 123.775 267.616 126.739 268.02 129.745C268.815 135.648 269.058 141.679 268.829 147.683C268.721 150.587 268.728 156.207 266.268 158.538C265.177 159.576 262.468 159.92 259.732 159.92C256.457 159.92 253.142 159.435 252.488 159.077C251.369 158.471 250.675 157.002 251.343 155.924C254.611 150.675 257.993 146.827 258.728 140.264C258.741 140.136 258.755 140.008 258.768 139.88C259.678 130.223 257.731 120.661 253.142 112.676C252.778 112.05 255.554 110.729 258.337 110.607C258.465 110.607 258.593 110.601 258.714 110.601M258.714 108.586C258.559 108.586 258.404 108.586 258.243 108.599C255.985 108.7 252.367 109.651 251.39 111.43C250.992 112.151 250.992 113 251.39 113.687C255.723 121.227 257.63 130.459 256.76 139.698C256.747 139.819 256.74 139.933 256.727 140.048C256.188 144.879 254.024 148.154 251.518 151.948C250.905 152.878 250.264 153.848 249.631 154.866C249.072 155.762 248.923 156.84 249.206 157.912C249.53 159.138 250.399 160.237 251.524 160.85C252.886 161.591 257.225 161.935 259.732 161.935C263.694 161.935 266.289 161.301 267.656 160.001C270.527 157.272 270.702 151.962 270.817 148.444C270.824 148.202 270.83 147.972 270.844 147.764C271.086 141.463 270.81 135.318 270.022 129.482C269.617 126.47 269.065 123.417 268.377 120.405C268.297 120.041 268.195 119.455 268.081 118.775C267.461 115.102 266.915 112.407 265.534 111.18C264.658 110.399 262.245 108.586 258.714 108.586Z" fill="#1D074F"/>
<path d="M207.502 169.812C203.944 169.812 201.498 169.414 200.231 168.626C197.273 166.786 196.208 162.764 195.575 160.358L195.433 159.839C194.139 155.082 193.391 150.439 193.203 146.032C193.102 143.754 193.149 141.443 193.331 139.172C193.351 138.889 193.351 138.444 193.358 137.925C193.358 135.271 193.459 133.175 194.537 132.312C195.211 131.773 197.124 130.527 200.258 130.527C200.393 130.527 200.527 130.527 200.669 130.533C202.468 130.594 206.302 131.234 206.996 132.434C207.192 132.771 207.198 133.168 207.023 133.505C203.93 139.253 203.573 146.308 206.013 153.37L206.114 153.646C207.515 157.454 210.305 160.008 213.526 162.966C214.301 163.673 215.089 164.401 215.884 165.162C216.457 165.715 216.713 166.45 216.592 167.177C216.45 167.993 215.857 168.714 215.002 169.104C214.153 169.489 210.649 169.826 207.502 169.826V169.812Z" fill="url(#paint11_linear_756_4338)"/>
<path d="M200.258 131.47C200.379 131.47 200.507 131.47 200.635 131.47C203.438 131.564 206.437 132.562 206.181 133.04C202.926 139.091 202.582 146.342 205.109 153.66C205.143 153.761 205.177 153.855 205.217 153.956C207.05 158.929 211.08 161.847 215.224 165.829C216.073 166.645 215.621 167.757 214.604 168.222C214.011 168.491 210.776 168.862 207.502 168.862C204.766 168.862 202.003 168.606 200.729 167.817C197.879 166.045 196.949 161.786 196.349 159.583C195.116 155.034 194.341 150.459 194.153 145.985C194.058 143.714 194.099 141.456 194.274 139.239C194.382 137.905 194.058 133.889 195.123 133.047C195.487 132.757 197.198 131.47 200.251 131.47M200.251 129.563C196.814 129.563 194.692 130.958 193.937 131.551C192.522 132.676 192.401 134.994 192.394 137.905C192.394 138.384 192.394 138.835 192.374 139.084C192.192 141.402 192.145 143.747 192.246 146.065C192.441 150.54 193.196 155.257 194.51 160.082C194.55 160.243 194.597 160.412 194.644 160.594C195.318 163.134 196.444 167.393 199.719 169.428C200.251 169.758 201.861 170.762 207.495 170.762C209.961 170.762 214.173 170.506 215.386 169.953C216.531 169.435 217.326 168.451 217.522 167.319C217.697 166.274 217.34 165.23 216.538 164.455C215.736 163.68 214.934 162.952 214.166 162.245C211.033 159.374 208.324 156.887 206.996 153.296C206.962 153.208 206.936 153.127 206.902 153.04C204.55 146.234 204.887 139.455 207.852 133.936C208.189 133.309 208.175 132.568 207.812 131.942C206.612 129.859 200.75 129.563 200.696 129.563C200.547 129.563 200.399 129.556 200.251 129.556V129.563Z" fill="#1D074F"/>
<mask id="mask1_756_4338" style="mask-type:luminance" maskUnits="userSpaceOnUse" x="169" y="104" width="54" height="44">
<path d="M218.001 125.823C213.338 122.44 209.638 117.952 206.754 112.966C203.742 107.757 198.783 104.509 193.452 104.947C187.893 105.405 183.385 109.752 181.377 115.776C179.605 121.093 176.566 125.87 172.806 130.028C170.636 132.427 169.497 135.109 169.726 137.851C170.4 146.012 182.61 148.795 197.293 147.588C211.977 146.382 223.567 141.631 222.9 133.478C222.657 130.526 220.871 127.912 218.001 125.823Z" fill="white"/>
</mask>
<g mask="url(#mask1_756_4338)">
<path d="M218.001 125.823C213.338 122.44 209.638 117.952 206.754 112.966C203.742 107.757 198.783 104.509 193.452 104.947C187.893 105.405 183.385 109.752 181.377 115.776C179.605 121.093 176.566 125.87 172.806 130.028C170.636 132.427 169.497 135.109 169.726 137.851C170.4 146.012 182.61 148.795 197.293 147.588C211.977 146.382 223.567 141.631 222.9 133.478C222.657 130.526 220.871 127.912 218.001 125.823Z" fill="url(#paint12_linear_756_4338)"/>
<path d="M218.001 125.823C213.338 122.44 209.639 117.952 206.755 112.966C203.743 107.757 198.783 104.509 193.453 104.947C193.345 104.954 193.244 104.974 193.136 104.988C193.244 105.143 193.345 105.298 193.433 105.459C194.268 106.996 194.302 108.842 194.134 110.54C193.945 112.501 193.433 114.408 193.096 116.342C192.907 117.434 192.779 118.566 192.948 119.671C193.123 120.816 193.675 121.827 194.572 122.568C195.481 123.323 196.62 123.707 197.685 124.192C198.675 124.644 199.571 125.27 200.319 126.066C201.89 127.73 202.631 130.008 202.9 132.238C203.224 134.9 202.914 137.683 202.173 140.257C201.478 142.676 200.117 144.852 198.655 146.867C198.5 147.076 198.345 147.292 198.19 147.501C212.442 146.173 223.554 141.456 222.893 133.471C222.651 130.52 220.865 127.905 217.995 125.816L218.001 125.823Z" fill="url(#paint13_linear_756_4338)"/>
<path d="M178.069 139.711C177.988 136.679 177.779 135.412 180.164 133.545C182.529 131.699 185.151 134.232 187.866 131.22C191.033 127.703 186.451 121.82 186.788 114.745C187.004 110.27 188.971 107.514 189.962 105.789C186.04 107.4 182.947 111.066 181.377 115.769C179.605 121.086 176.566 125.863 172.806 130.021C170.636 132.42 169.497 135.102 169.726 137.844C170.117 142.555 174.356 145.472 180.69 146.867C179.032 144.866 178.129 142.319 178.055 139.704L178.069 139.711Z" fill="url(#paint14_linear_756_4338)"/>
<path d="M218 125.823C213.337 122.44 209.638 117.952 206.754 112.966C204.227 108.599 200.339 105.621 196.006 105.028C196.511 105.459 196.976 105.938 197.394 106.45C198.89 108.309 199.894 110.83 200.494 113.06C200.79 114.165 199.112 117.198 199.631 118.222C201.296 121.49 205.366 121.045 207.199 121.49C209.321 122.009 211.767 123.161 213.196 124.832C214.678 126.571 215.716 128.626 216.14 130.883C216.585 133.235 211.525 131.854 210.75 134.104C210.076 136.065 214.476 140.816 212.906 143.559C212.684 143.943 212.448 144.313 212.198 144.677C219.018 142.271 223.31 138.525 222.892 133.478C222.65 130.526 220.864 127.912 217.994 125.823H218Z" fill="url(#paint15_linear_756_4338)"/>
<path d="M177.234 129.96C174.08 129.96 171.405 127.494 171.142 124.347C171.008 122.717 171.52 121.14 172.571 119.893C173.629 118.647 175.105 117.885 176.735 117.757C176.904 117.744 177.072 117.737 177.241 117.737C180.394 117.737 183.069 120.203 183.332 123.35C183.608 126.712 181.102 129.671 177.739 129.947C177.571 129.96 177.402 129.967 177.234 129.967V129.96Z" fill="white"/>
<path d="M177.247 118.741C179.875 118.741 182.112 120.762 182.327 123.424C182.557 126.234 180.468 128.7 177.658 128.929C177.516 128.943 177.375 128.95 177.233 128.95C174.605 128.95 172.368 126.928 172.152 124.266C171.923 121.456 174.012 118.99 176.822 118.761C176.964 118.748 177.105 118.741 177.247 118.741ZM177.247 116.719C177.051 116.719 176.849 116.726 176.654 116.746C174.76 116.901 173.035 117.791 171.802 119.239C170.569 120.688 169.976 122.535 170.137 124.435C170.441 128.101 173.554 130.978 177.233 130.978C177.429 130.978 177.631 130.971 177.826 130.951C179.72 130.796 181.445 129.906 182.678 128.458C183.911 127.009 184.504 125.163 184.342 123.262C184.039 119.597 180.926 116.719 177.247 116.719Z" fill="#1D074F"/>
<path d="M199.949 114.037C196.795 114.037 194.12 111.571 193.857 108.424C193.723 106.793 194.228 105.217 195.286 103.97C196.344 102.723 197.82 101.962 199.45 101.834C199.619 101.82 199.787 101.814 199.956 101.814C203.109 101.814 205.784 104.28 206.047 107.427C206.324 110.789 203.817 113.748 200.454 114.024C200.286 114.037 200.117 114.044 199.949 114.044V114.037Z" fill="white"/>
<path d="M199.962 102.818C202.59 102.818 204.827 104.839 205.043 107.501C205.272 110.311 203.183 112.777 200.373 113.006C200.231 113.02 200.09 113.027 199.948 113.027C197.32 113.027 195.083 111.005 194.867 108.343C194.638 105.533 196.727 103.067 199.537 102.838C199.679 102.824 199.82 102.818 199.962 102.818ZM199.962 100.796C199.766 100.796 199.564 100.803 199.369 100.823C195.454 101.147 192.529 104.597 192.853 108.512C193.156 112.177 196.269 115.055 199.948 115.055C200.144 115.055 200.346 115.048 200.541 115.028C204.456 114.704 207.381 111.254 207.057 107.339C206.754 103.673 203.641 100.796 199.962 100.796Z" fill="#1D074F"/>
<path d="M216 132.225C212.846 132.225 210.171 129.758 209.908 126.611C209.773 124.981 210.285 123.404 211.336 122.157C212.394 120.911 213.87 120.149 215.501 120.021C215.669 120.008 215.838 120.001 216.006 120.001C219.16 120.001 221.835 122.467 222.098 125.614C222.233 127.245 221.72 128.822 220.669 130.068C219.611 131.315 218.136 132.076 216.505 132.204C216.336 132.218 216.168 132.225 216 132.225Z" fill="white"/>
<path d="M216.012 121.005C218.64 121.005 220.878 123.026 221.093 125.688C221.322 128.498 219.233 130.964 216.423 131.194C216.282 131.207 216.14 131.214 215.999 131.214C213.371 131.214 211.134 129.192 210.918 126.531C210.689 123.721 212.778 121.254 215.588 121.025C215.729 121.012 215.871 121.005 216.012 121.005ZM216.012 118.983C215.817 118.983 215.615 118.99 215.419 119.01C211.504 119.334 208.58 122.784 208.903 126.699C209.207 130.365 212.32 133.242 215.999 133.242C216.194 133.242 216.39 133.235 216.592 133.215C220.507 132.892 223.432 129.442 223.108 125.526C222.805 121.861 219.692 118.983 216.012 118.983Z" fill="#1D074F"/>
<path d="M194.108 153.653C190.59 153.653 187.612 150.903 187.322 147.393C187.174 145.58 187.74 143.815 188.919 142.426C190.098 141.038 191.742 140.189 193.562 140.041C193.751 140.027 193.939 140.021 194.128 140.021C197.645 140.021 200.631 142.77 200.92 146.281C201.23 150.027 198.434 153.329 194.687 153.633C194.499 153.646 194.31 153.653 194.121 153.653H194.108Z" fill="white"/>
<path d="M194.113 141.032C197.105 141.032 199.646 143.329 199.895 146.362C200.158 149.556 197.779 152.359 194.585 152.622C194.423 152.635 194.262 152.642 194.1 152.642C191.108 152.642 188.568 150.344 188.318 147.312C188.056 144.118 190.434 141.315 193.628 141.052C193.79 141.038 193.952 141.032 194.113 141.032ZM194.113 139.01C193.898 139.01 193.682 139.017 193.467 139.037C191.384 139.205 189.491 140.183 188.136 141.773C186.782 143.37 186.135 145.391 186.304 147.48C186.634 151.51 190.057 154.664 194.1 154.664C194.316 154.664 194.531 154.657 194.747 154.637C199.046 154.279 202.26 150.492 201.903 146.193C201.573 142.164 198.15 139.01 194.107 139.01H194.113Z" fill="#1D074F"/>
</g>
<path d="M218.001 125.823C213.338 122.44 209.638 117.952 206.754 112.966C203.742 107.757 198.783 104.509 193.452 104.947C187.893 105.405 183.385 109.752 181.377 115.776C179.605 121.093 176.566 125.87 172.806 130.028C170.636 132.427 169.497 135.109 169.726 137.851C170.4 146.012 182.61 148.795 197.293 147.588C211.977 146.382 223.567 141.631 222.9 133.478C222.657 130.526 220.871 127.912 218.001 125.823Z" stroke="#1D074F" stroke-width="3" stroke-miterlimit="10"/>
<path d="M223.904 176.348C221.444 175.991 220.251 174.637 219.685 173.565C218.87 172.015 218.857 170.048 219.652 168.43C220.635 166.422 222.617 165.364 225.083 165.526C226.323 165.654 227.515 166.24 228.405 167.177L238.668 177.905L223.904 176.348Z" fill="url(#paint16_linear_756_4338)"/>
<path d="M220.554 168.875C221.019 167.925 222.212 166.368 224.974 166.53C225.999 166.645 226.955 167.123 227.677 167.871L236.032 176.604L224.051 175.344C222.427 175.101 221.228 174.32 220.581 173.093C219.914 171.827 219.907 170.209 220.561 168.875M218.748 167.986C217.016 171.523 218.492 176.584 223.802 177.352L238.97 178.949C239.354 179.003 239.671 178.774 239.826 178.464C239.974 178.154 239.961 177.77 239.685 177.494L229.139 166.469C228.121 165.405 226.726 164.677 225.15 164.515C221.956 164.306 219.779 165.87 218.741 167.979L218.748 167.986Z" fill="#1D074F"/>
<path d="M233.02 164.071C232.104 161.766 232.677 160.048 233.324 159.023C234.253 157.541 235.952 156.544 237.757 156.422C239.988 156.274 241.895 157.46 242.987 159.677C243.492 160.816 243.58 162.143 243.222 163.376L239.065 177.628L233.027 164.064L233.02 164.071Z" fill="url(#paint17_linear_756_4338)"/>
<path d="M237.818 157.433C238.869 157.359 240.817 157.615 242.057 160.088C242.468 161.038 242.535 162.103 242.245 163.094L238.856 174.697L233.957 163.693C233.357 162.164 233.431 160.735 234.173 159.563C234.934 158.35 236.336 157.534 237.818 157.433ZM237.683 155.418C233.755 155.681 230.109 159.495 232.097 164.482L238.296 178.417C238.445 178.774 238.795 178.936 239.146 178.916C239.489 178.895 239.819 178.686 239.914 178.309L244.186 163.666C244.597 162.251 244.53 160.681 243.889 159.232C242.474 156.362 240.028 155.257 237.683 155.418Z" fill="#1D074F"/>
<path d="M248.216 165.829C249.752 163.882 251.524 163.518 252.737 163.565C254.489 163.633 256.201 164.603 257.205 166.106C258.451 167.959 258.377 170.203 257.003 172.265C256.268 173.269 255.163 174.01 253.916 174.32L239.496 177.844L248.222 165.836L248.216 165.829Z" fill="url(#paint18_linear_756_4338)"/>
<path d="M256.363 166.672C256.949 167.548 257.704 169.36 256.181 171.672C255.568 172.5 254.678 173.093 253.667 173.343L241.922 176.213L249.004 166.469C250.029 165.182 251.302 164.536 252.69 164.589C254.126 164.643 255.527 165.445 256.356 166.678M258.034 165.553C255.837 162.285 250.716 161.038 247.394 165.25L238.425 177.588C238.189 177.891 238.223 178.282 238.418 178.572C238.607 178.855 238.951 179.037 239.328 178.936L254.146 175.317C255.574 174.967 256.902 174.124 257.832 172.844C259.611 170.182 259.341 167.514 258.034 165.56V165.553Z" fill="#1D074F"/>
</g>
<defs>
<filter id="filter0_d_756_4338" x="164.107" y="60.1831" width="56.5293" height="35.1438" filterUnits="userSpaceOnUse" color-interpolation-filters="sRGB">
<feFlood flood-opacity="0" result="BackgroundImageFix"/>
<feColorMatrix in="SourceAlpha" type="matrix" values="0 0 0 0 0 0 0 0 0 0 0 0 0 0 0 0 0 0 127 0" result="hardAlpha"/>
<feOffset dx="3" dy="1"/>
<feGaussianBlur stdDeviation="2"/>
<feColorMatrix type="matrix" values="0 0 0 0 0.6 0 0 0 0 0.6 0 0 0 0 0.6 0 0 0 0.3 0"/>
<feBlend mode="normal" in2="BackgroundImageFix" result="effect1_dropShadow_756_4338"/>
<feBlend mode="normal" in="SourceGraphic" in2="effect1_dropShadow_756_4338" result="shape"/>
</filter>
<filter id="filter1_d_756_4338" x="-9" y="121" width="90.9004" height="74" filterUnits="userSpaceOnUse" color-interpolation-filters="sRGB">
<feFlood flood-opacity="0" result="BackgroundImageFix"/>
<feColorMatrix in="SourceAlpha" type="matrix" values="0 0 0 0 0 0 0 0 0 0 0 0 0 0 0 0 0 0 127 0" result="hardAlpha"/>
<feOffset dx="1" dy="1"/>
<feGaussianBlur stdDeviation="2"/>
<feColorMatrix type="matrix" values="0 0 0 0 0.6 0 0 0 0 0.6 0 0 0 0 0.6 0 0 0 0.3 0"/>
<feBlend mode="normal" in2="BackgroundImageFix" result="effect1_dropShadow_756_4338"/>
<feBlend mode="normal" in="SourceGraphic" in2="effect1_dropShadow_756_4338" result="shape"/>
</filter>
<filter id="filter2_d_756_4338" x="163" y="50" width="146.426" height="158.511" filterUnits="userSpaceOnUse" color-interpolation-filters="sRGB">
<feFlood flood-opacity="0" result="BackgroundImageFix"/>
<feColorMatrix in="SourceAlpha" type="matrix" values="0 0 0 0 0 0 0 0 0 0 0 0 0 0 0 0 0 0 127 0" result="hardAlpha"/>
<feOffset dx="1" dy="1"/>
<feGaussianBlur stdDeviation="2"/>
<feColorMatrix type="matrix" values="0 0 0 0 0.6 0 0 0 0 0.6 0 0 0 0 0.6 0 0 0 0.3 0"/>
<feBlend mode="normal" in2="BackgroundImageFix" result="effect1_dropShadow_756_4338"/>
<feBlend mode="normal" in="SourceGraphic" in2="effect1_dropShadow_756_4338" result="shape"/>
</filter>
<linearGradient id="paint0_linear_756_4338" x1="198.42" y1="84.1015" x2="180.326" y2="69.3993" gradientUnits="userSpaceOnUse">
<stop offset="0.03" stop-color="#0FD2E2"/>
<stop offset="1" stop-color="#0F8EE2"/>
</linearGradient>
<linearGradient id="paint1_linear_756_4338" x1="34.9216" y1="133.066" x2="34.9216" y2="184.903" gradientUnits="userSpaceOnUse">
<stop offset="0.02" stop-color="#FF0FE0"/>
<stop offset="0.96" stop-color="#FF63BE"/>
</linearGradient>
<linearGradient id="paint2_linear_756_4338" x1="38.8382" y1="129.083" x2="38.8382" y2="167.601" gradientUnits="userSpaceOnUse">
<stop offset="0.02" stop-color="#FF0FE0"/>
<stop offset="0.96" stop-color="#FF63BE"/>
</linearGradient>
<linearGradient id="paint3_linear_756_4338" x1="38.9735" y1="137.776" x2="38.9735" y2="155.955" gradientUnits="userSpaceOnUse">
<stop offset="0.02" stop-color="#FF0FE0"/>
<stop offset="0.96" stop-color="#FF63BE"/>
</linearGradient>
<linearGradient id="paint4_linear_756_4338" x1="229.825" y1="153.882" x2="229.825" y2="177.528" gradientUnits="userSpaceOnUse">
<stop offset="0.01" stop-color="#4AD800"/>
<stop offset="0.4" stop-color="#27C000"/>
<stop offset="0.78" stop-color="#0CAE00"/>
<stop offset="1" stop-color="#03A800"/>
</linearGradient>
<linearGradient id="paint5_linear_756_4338" x1="259.126" y1="56.6995" x2="259.126" y2="124.273" gradientUnits="userSpaceOnUse">
<stop stop-color="#A94EFF"/>
<stop offset="0.23" stop-color="#9643E5"/>
<stop offset="0.53" stop-color="#8337C9"/>
<stop offset="0.8" stop-color="#7730B8"/>
<stop offset="1" stop-color="#732EB3"/>
</linearGradient>
<linearGradient id="paint6_linear_756_4338" x1="276.444" y1="56.6995" x2="276.444" y2="123.175" gradientUnits="userSpaceOnUse">
<stop offset="0.01" stop-color="#4AD800"/>
<stop offset="0.4" stop-color="#27C000"/>
<stop offset="0.78" stop-color="#0CAE00"/>
<stop offset="1" stop-color="#03A800"/>
</linearGradient>
<linearGradient id="paint7_linear_756_4338" x1="232.395" y1="58.3909" x2="232.395" y2="123.31" gradientUnits="userSpaceOnUse">
<stop offset="0.03" stop-color="#0FD2E2"/>
<stop offset="1" stop-color="#0F8EE2"/>
</linearGradient>
<linearGradient id="paint8_linear_756_4338" x1="278.696" y1="56.7939" x2="278.696" y2="117.845" gradientUnits="userSpaceOnUse">
<stop offset="0.1" stop-color="#FF63BE"/>
<stop offset="0.98" stop-color="#FF0FE0"/>
</linearGradient>
<linearGradient id="paint9_linear_756_4338" x1="259.888" y1="124.873" x2="259.888" y2="94.1521" gradientUnits="userSpaceOnUse">
<stop offset="0.05" stop-color="#FDCC0C"/>
<stop offset="0.97" stop-color="#FDFE0C"/>
</linearGradient>
<linearGradient id="paint10_linear_756_4338" x1="259.995" y1="109.59" x2="259.995" y2="160.917" gradientUnits="userSpaceOnUse">
<stop stop-color="#A94EFF"/>
<stop offset="0.23" stop-color="#9643E5"/>
<stop offset="0.53" stop-color="#8337C9"/>
<stop offset="0.8" stop-color="#7730B8"/>
<stop offset="1" stop-color="#732EB3"/>
</linearGradient>
<linearGradient id="paint11_linear_756_4338" x1="204.887" y1="130.513" x2="204.887" y2="169.812" gradientUnits="userSpaceOnUse">
<stop offset="0.1" stop-color="#FF63BE"/>
<stop offset="0.98" stop-color="#FF0FE0"/>
</linearGradient>
<linearGradient id="paint12_linear_756_4338" x1="196.316" y1="104.907" x2="196.316" y2="147.858" gradientUnits="userSpaceOnUse">
<stop stop-color="#A94EFF"/>
<stop offset="0.23" stop-color="#9643E5"/>
<stop offset="0.53" stop-color="#8337C9"/>
<stop offset="0.8" stop-color="#7730B8"/>
<stop offset="1" stop-color="#732EB3"/>
</linearGradient>
<linearGradient id="paint13_linear_756_4338" x1="207.907" y1="147.507" x2="207.907" y2="104.907" gradientUnits="userSpaceOnUse">
<stop offset="0.05" stop-color="#FDCC0C"/>
<stop offset="0.97" stop-color="#FDFE0C"/>
</linearGradient>
<linearGradient id="paint14_linear_756_4338" x1="179.834" y1="105.796" x2="179.834" y2="146.874" gradientUnits="userSpaceOnUse">
<stop offset="0.03" stop-color="#0FD2E2"/>
<stop offset="1" stop-color="#0F8EE2"/>
</linearGradient>
<linearGradient id="paint15_linear_756_4338" x1="209.469" y1="105.028" x2="209.469" y2="144.677" gradientUnits="userSpaceOnUse">
<stop offset="0.1" stop-color="#FF63BE"/>
<stop offset="0.98" stop-color="#FF0FE0"/>
</linearGradient>
<linearGradient id="paint16_linear_756_4338" x1="228.863" y1="177.905" x2="228.863" y2="165.513" gradientUnits="userSpaceOnUse">
<stop offset="0.05" stop-color="#FDCC0C"/>
<stop offset="0.97" stop-color="#FDFE0C"/>
</linearGradient>
<linearGradient id="paint17_linear_756_4338" x1="237.987" y1="177.635" x2="237.987" y2="156.416" gradientUnits="userSpaceOnUse">
<stop offset="0.05" stop-color="#FDCC0C"/>
<stop offset="0.97" stop-color="#FDFE0C"/>
</linearGradient>
<linearGradient id="paint18_linear_756_4338" x1="248.788" y1="177.844" x2="248.788" y2="163.565" gradientUnits="userSpaceOnUse">
<stop offset="0.05" stop-color="#FDCC0C"/>
<stop offset="0.97" stop-color="#FDFE0C"/>
</linearGradient>
<clipPath id="clip0_756_4338">
<rect width="312" height="176" rx="40" fill="white"/>
</clipPath>
</defs>
</svg>
