<svg width="312" height="176" viewBox="0 0 312 176" fill="none" xmlns="http://www.w3.org/2000/svg">
<g clip-path="url(#clip0_756_4337)">
<rect width="312" height="176" rx="40" fill="#4AD800"/>
<rect width="312" height="176" rx="40" fill="#48D700"/>
<path d="M30.58 57.5C31.54 57.5 32.338 57.668 32.974 58.004C33.622 58.34 34.132 58.802 34.504 59.39C34.888 59.966 35.158 60.632 35.314 61.388C35.482 62.144 35.566 62.936 35.566 63.764V64.628C35.566 66.704 35.05 68.306 34.018 69.434C32.986 70.55 31.492 71.108 29.536 71.108C29.068 71.108 28.672 71.096 28.348 71.072C28.024 71.048 27.67 71.012 27.286 70.964V69.488C27.682 69.536 28.048 69.572 28.384 69.596C28.72 69.62 29.128 69.632 29.608 69.632C30.7 69.632 31.564 69.428 32.2 69.02C32.836 68.612 33.292 68.03 33.568 67.274C33.844 66.506 33.982 65.582 33.982 64.502V63.692L34.414 62.09C34.402 63.038 34.216 63.824 33.856 64.448C33.508 65.072 33.022 65.54 32.398 65.852C31.786 66.164 31.078 66.32 30.274 66.32C29.338 66.32 28.546 66.134 27.898 65.762C27.25 65.378 26.758 64.856 26.422 64.196C26.098 63.536 25.936 62.786 25.936 61.946C25.936 61.094 26.11 60.332 26.458 59.66C26.806 58.988 27.322 58.46 28.006 58.076C28.702 57.692 29.56 57.5 30.58 57.5ZM30.58 59.012C29.92 59.012 29.368 59.138 28.924 59.39C28.48 59.642 28.144 59.99 27.916 60.434C27.7 60.866 27.592 61.37 27.592 61.946C27.592 62.522 27.7 63.032 27.916 63.476C28.132 63.92 28.45 64.268 28.87 64.52C29.302 64.76 29.83 64.88 30.454 64.88C31.066 64.88 31.612 64.766 32.092 64.538C32.584 64.31 32.968 63.98 33.244 63.548C33.52 63.104 33.658 62.564 33.658 61.928C33.658 61.4 33.55 60.914 33.334 60.47C33.118 60.026 32.782 59.672 32.326 59.408C31.87 59.144 31.288 59.012 30.58 59.012ZM37.7292 67.886V65.762L43.1832 57.536L44.3892 58.49L39.2952 66.194L39.4572 66.518H47.9532V67.886H37.7292ZM44.5872 71V61.694H46.2072V71H44.5872ZM52.0861 71V58.724L52.8781 59.336H49.1701V57.86H53.8141V71H52.0861ZM57.2867 71V68.804H59.3747V71H57.2867ZM67.3796 71.324C66.3956 71.324 65.5556 71.156 64.8596 70.82C64.1756 70.472 63.6176 70.004 63.1856 69.416C62.7656 68.828 62.4596 68.15 62.2676 67.382C62.0756 66.602 61.9796 65.78 61.9796 64.916V63.944C61.9796 62.732 62.1656 61.64 62.5376 60.668C62.9216 59.696 63.5096 58.928 64.3016 58.364C65.1056 57.788 66.1316 57.5 67.3796 57.5C68.6276 57.5 69.6476 57.788 70.4396 58.364C71.2316 58.928 71.8136 59.696 72.1856 60.668C72.5696 61.64 72.7616 62.732 72.7616 63.944V64.916C72.7616 65.78 72.6656 66.602 72.4736 67.382C72.2816 68.15 71.9696 68.828 71.5376 69.416C71.1176 70.004 70.5656 70.472 69.8816 70.82C69.1976 71.156 68.3636 71.324 67.3796 71.324ZM67.3796 69.74C68.6276 69.74 69.5396 69.32 70.1156 68.48C70.7036 67.628 70.9976 66.284 70.9976 64.448C70.9976 62.528 70.6976 61.154 70.0976 60.326C69.5096 59.498 68.6036 59.084 67.3796 59.084C66.1436 59.084 65.2256 59.498 64.6256 60.326C64.0376 61.154 63.7436 62.516 63.7436 64.412C63.7436 66.26 64.0376 67.61 64.6256 68.462C65.2136 69.314 66.1316 69.74 67.3796 69.74ZM80.7565 71.324C79.7725 71.324 78.9325 71.156 78.2365 70.82C77.5525 70.472 76.9945 70.004 76.5625 69.416C76.1425 68.828 75.8365 68.15 75.6445 67.382C75.4525 66.602 75.3565 65.78 75.3565 64.916V63.944C75.3565 62.732 75.5425 61.64 75.9145 60.668C76.2985 59.696 76.8865 58.928 77.6785 58.364C78.4825 57.788 79.5085 57.5 80.7565 57.5C82.0045 57.5 83.0245 57.788 83.8165 58.364C84.6085 58.928 85.1905 59.696 85.5625 60.668C85.9465 61.64 86.1385 62.732 86.1385 63.944V64.916C86.1385 65.78 86.0425 66.602 85.8505 67.382C85.6585 68.15 85.3465 68.828 84.9145 69.416C84.4945 70.004 83.9425 70.472 83.2585 70.82C82.5745 71.156 81.7405 71.324 80.7565 71.324ZM80.7565 69.74C82.0045 69.74 82.9165 69.32 83.4925 68.48C84.0805 67.628 84.3745 66.284 84.3745 64.448C84.3745 62.528 84.0745 61.154 83.4745 60.326C82.8865 59.498 81.9805 59.084 80.7565 59.084C79.5205 59.084 78.6025 59.498 78.0025 60.326C77.4145 61.154 77.1205 62.516 77.1205 64.412C77.1205 66.26 77.4145 67.61 78.0025 68.462C78.5905 69.314 79.5085 69.74 80.7565 69.74Z" fill="black"/>
<path d="M27.48 45V38.38H28.46V45H27.48ZM25.26 38.58V37.7H30.68V38.58H25.26ZM33.673 45.18C33.2063 45.18 32.7963 45.1 32.443 44.94C32.0896 44.78 31.7896 44.57 31.543 44.31C31.303 44.0433 31.1196 43.7467 30.993 43.42C30.873 43.0933 30.813 42.76 30.813 42.42V42.24C30.813 41.9 30.8763 41.5667 31.003 41.24C31.1296 40.9067 31.3163 40.61 31.563 40.35C31.8096 40.0833 32.1096 39.8733 32.463 39.72C32.8163 39.56 33.2196 39.48 33.673 39.48C34.1263 39.48 34.5296 39.56 34.883 39.72C35.2363 39.8733 35.5363 40.0833 35.783 40.35C36.0296 40.61 36.2163 40.9067 36.343 41.24C36.4696 41.5667 36.533 41.9 36.533 42.24V42.42C36.533 42.76 36.4696 43.0933 36.343 43.42C36.223 43.7467 36.0396 44.0433 35.793 44.31C35.553 44.57 35.2563 44.78 34.903 44.94C34.5496 45.1 34.1396 45.18 33.673 45.18ZM33.673 44.32C34.073 44.32 34.413 44.2333 34.693 44.06C34.9796 43.88 35.1963 43.64 35.343 43.34C35.4963 43.04 35.573 42.7033 35.573 42.33C35.573 41.95 35.4963 41.61 35.343 41.31C35.1896 41.01 34.9696 40.7733 34.683 40.6C34.403 40.4267 34.0663 40.34 33.673 40.34C33.2863 40.34 32.9496 40.4267 32.663 40.6C32.3763 40.7733 32.1563 41.01 32.003 41.31C31.8496 41.61 31.773 41.95 31.773 42.33C31.773 42.7033 31.8463 43.04 31.993 43.34C32.1463 43.64 32.363 43.88 32.643 44.06C32.9296 44.2333 33.273 44.32 33.673 44.32ZM40.0508 45.06C39.6508 45.06 39.3041 45.0033 39.0108 44.89C38.7241 44.7767 38.5008 44.5833 38.3408 44.31C38.1874 44.03 38.1108 43.6533 38.1108 43.18V38.04H39.0308V43.3C39.0308 43.5867 39.1074 43.81 39.2608 43.97C39.4208 44.1233 39.6441 44.2 39.9308 44.2H40.8708V45.06H40.0508ZM37.1908 40.38V39.66H40.8708V40.38H37.1908ZM45.4391 45V43.4H45.2791V41.55C45.2791 41.1833 45.1824 40.9067 44.9891 40.72C44.8024 40.5333 44.5257 40.44 44.1591 40.44C43.9524 40.44 43.7391 40.4433 43.5191 40.45C43.2991 40.4567 43.0891 40.4633 42.8891 40.47C42.6891 40.4767 42.5157 40.4867 42.3691 40.5V39.66C42.5157 39.6467 42.6691 39.6367 42.8291 39.63C42.9957 39.6167 43.1657 39.61 43.3391 39.61C43.5124 39.6033 43.6791 39.6 43.8391 39.6C44.3857 39.6 44.8324 39.6667 45.1791 39.8C45.5257 39.9267 45.7824 40.1367 45.9491 40.43C46.1157 40.7233 46.1991 41.12 46.1991 41.62V45H45.4391ZM43.6891 45.14C43.2891 45.14 42.9424 45.0733 42.6491 44.94C42.3624 44.8 42.1391 44.6 41.9791 44.34C41.8257 44.08 41.7491 43.7667 41.7491 43.4C41.7491 43.02 41.8324 42.7033 41.9991 42.45C42.1724 42.1967 42.4224 42.0067 42.7491 41.88C43.0757 41.7467 43.4691 41.68 43.9291 41.68H45.3791V42.4H43.8891C43.5024 42.4 43.2057 42.4933 42.9991 42.68C42.7924 42.8667 42.6891 43.1067 42.6891 43.4C42.6891 43.6933 42.7924 43.93 42.9991 44.11C43.2057 44.29 43.5024 44.38 43.8891 44.38C44.1157 44.38 44.3324 44.34 44.5391 44.26C44.7457 44.1733 44.9157 44.0333 45.0491 43.84C45.1891 43.64 45.2657 43.3667 45.2791 43.02L45.5391 43.4C45.5057 43.78 45.4124 44.1 45.2591 44.36C45.1124 44.6133 44.9057 44.8067 44.6391 44.94C44.3791 45.0733 44.0624 45.14 43.6891 45.14ZM48.021 45V37.7H48.981V45H48.021ZM47.281 38.46V37.7H48.981V38.46H47.281ZM54.0177 45.04V44.18H56.0577C56.4511 44.18 56.7544 44.07 56.9677 43.85C57.1877 43.6233 57.2977 43.3233 57.2977 42.95C57.2977 42.57 57.1911 42.2733 56.9777 42.06C56.7644 41.84 56.4577 41.73 56.0577 41.73H54.0177V41.09H55.9177C56.3844 41.09 56.7944 41.1467 57.1477 41.26C57.5077 41.3733 57.7877 41.5633 57.9877 41.83C58.1944 42.09 58.2977 42.4467 58.2977 42.9V43.04C58.2977 43.4667 58.2111 43.83 58.0377 44.13C57.8644 44.4233 57.6011 44.65 57.2477 44.81C56.8944 44.9633 56.4511 45.04 55.9177 45.04H54.0177ZM53.2377 45.04V37.66H54.2177V45.04H53.2377ZM54.0177 41.55V40.91H55.7877C56.2011 40.91 56.5044 40.8 56.6977 40.58C56.8977 40.3533 56.9977 40.0667 56.9977 39.72C56.9977 39.3667 56.8977 39.08 56.6977 38.86C56.5044 38.6333 56.2011 38.52 55.7877 38.52H54.0177V37.66H55.6177C56.4177 37.66 57.0144 37.83 57.4077 38.17C57.8011 38.5033 57.9977 38.9867 57.9977 39.62V39.76C57.9977 40.2067 57.8977 40.5633 57.6977 40.83C57.4977 41.09 57.2177 41.2767 56.8577 41.39C56.5044 41.4967 56.0911 41.55 55.6177 41.55H54.0177ZM63.1246 45V43.4H62.9646V41.55C62.9646 41.1833 62.8679 40.9067 62.6746 40.72C62.4879 40.5333 62.2113 40.44 61.8446 40.44C61.6379 40.44 61.4246 40.4433 61.2046 40.45C60.9846 40.4567 60.7746 40.4633 60.5746 40.47C60.3746 40.4767 60.2013 40.4867 60.0546 40.5V39.66C60.2013 39.6467 60.3546 39.6367 60.5146 39.63C60.6813 39.6167 60.8513 39.61 61.0246 39.61C61.1979 39.6033 61.3646 39.6 61.5246 39.6C62.0713 39.6 62.5179 39.6667 62.8646 39.8C63.2113 39.9267 63.4679 40.1367 63.6346 40.43C63.8013 40.7233 63.8846 41.12 63.8846 41.62V45H63.1246ZM61.3746 45.14C60.9746 45.14 60.6279 45.0733 60.3346 44.94C60.0479 44.8 59.8246 44.6 59.6646 44.34C59.5113 44.08 59.4346 43.7667 59.4346 43.4C59.4346 43.02 59.5179 42.7033 59.6846 42.45C59.8579 42.1967 60.1079 42.0067 60.4346 41.88C60.7613 41.7467 61.1546 41.68 61.6146 41.68H63.0646V42.4H61.5746C61.1879 42.4 60.8913 42.4933 60.6846 42.68C60.4779 42.8667 60.3746 43.1067 60.3746 43.4C60.3746 43.6933 60.4779 43.93 60.6846 44.11C60.8913 44.29 61.1879 44.38 61.5746 44.38C61.8013 44.38 62.0179 44.34 62.2246 44.26C62.4313 44.1733 62.6013 44.0333 62.7346 43.84C62.8746 43.64 62.9513 43.3667 62.9646 43.02L63.2246 43.4C63.1913 43.78 63.0979 44.1 62.9446 44.36C62.7979 44.6133 62.5913 44.8067 62.3246 44.94C62.0646 45.0733 61.7479 45.14 61.3746 45.14ZM65.7066 45V37.7H66.6666V45H65.7066ZM64.9666 38.46V37.7H66.6666V38.46H64.9666ZM71.7379 45V43.4H71.5779V41.55C71.5779 41.1833 71.4812 40.9067 71.2879 40.72C71.1012 40.5333 70.8246 40.44 70.4579 40.44C70.2512 40.44 70.0379 40.4433 69.8179 40.45C69.5979 40.4567 69.3879 40.4633 69.1879 40.47C68.9879 40.4767 68.8146 40.4867 68.6679 40.5V39.66C68.8146 39.6467 68.9679 39.6367 69.1279 39.63C69.2946 39.6167 69.4646 39.61 69.6379 39.61C69.8112 39.6033 69.9779 39.6 70.1379 39.6C70.6846 39.6 71.1312 39.6667 71.4779 39.8C71.8246 39.9267 72.0812 40.1367 72.2479 40.43C72.4146 40.7233 72.4979 41.12 72.4979 41.62V45H71.7379ZM69.9879 45.14C69.5879 45.14 69.2412 45.0733 68.9479 44.94C68.6612 44.8 68.4379 44.6 68.2779 44.34C68.1246 44.08 68.0479 43.7667 68.0479 43.4C68.0479 43.02 68.1312 42.7033 68.2979 42.45C68.4712 42.1967 68.7212 42.0067 69.0479 41.88C69.3746 41.7467 69.7679 41.68 70.2279 41.68H71.6779V42.4H70.1879C69.8012 42.4 69.5046 42.4933 69.2979 42.68C69.0912 42.8667 68.9879 43.1067 68.9879 43.4C68.9879 43.6933 69.0912 43.93 69.2979 44.11C69.5046 44.29 69.8012 44.38 70.1879 44.38C70.4146 44.38 70.6312 44.34 70.8379 44.26C71.0446 44.1733 71.2146 44.0333 71.3479 43.84C71.4879 43.64 71.5646 43.3667 71.5779 43.02L71.8379 43.4C71.8046 43.78 71.7112 44.1 71.5579 44.36C71.4112 44.6133 71.2046 44.8067 70.9379 44.94C70.6779 45.0733 70.3612 45.14 69.9879 45.14ZM74.2598 45V39.66H75.0198V41.95H74.8998C74.8998 41.4233 74.9698 40.98 75.1098 40.62C75.2565 40.2533 75.4765 39.9767 75.7698 39.79C76.0632 39.5967 76.4332 39.5 76.8798 39.5H76.9198C77.5932 39.5 78.0898 39.71 78.4098 40.13C78.7365 40.55 78.8998 41.1567 78.8998 41.95V45H77.9398V41.75C77.9398 41.3367 77.8232 41.0067 77.5898 40.76C77.3565 40.5067 77.0365 40.38 76.6298 40.38C76.2098 40.38 75.8698 40.51 75.6098 40.77C75.3498 41.03 75.2198 41.3767 75.2198 41.81V45H74.2598ZM82.9463 45.18C82.4863 45.18 82.0863 45.1 81.7463 44.94C81.413 44.78 81.1363 44.5667 80.9163 44.3C80.6963 44.0267 80.5297 43.7267 80.4163 43.4C80.3097 43.0733 80.2563 42.7467 80.2563 42.42V42.24C80.2563 41.9 80.3097 41.5667 80.4163 41.24C80.5297 40.9133 80.6963 40.62 80.9163 40.36C81.143 40.0933 81.423 39.88 81.7563 39.72C82.0897 39.56 82.4797 39.48 82.9263 39.48C83.373 39.48 83.773 39.5633 84.1263 39.73C84.4863 39.8967 84.773 40.1333 84.9863 40.44C85.2063 40.74 85.3297 41.0967 85.3563 41.51H84.4363C84.3897 41.1767 84.2363 40.9 83.9763 40.68C83.7163 40.4533 83.3663 40.34 82.9263 40.34C82.5463 40.34 82.2297 40.4267 81.9763 40.6C81.723 40.7733 81.533 41.01 81.4063 41.31C81.2797 41.61 81.2163 41.95 81.2163 42.33C81.2163 42.6967 81.2797 43.0333 81.4063 43.34C81.533 43.64 81.723 43.88 81.9763 44.06C82.2363 44.2333 82.5597 44.32 82.9463 44.32C83.2463 44.32 83.5063 44.2667 83.7263 44.16C83.9463 44.0533 84.123 43.91 84.2563 43.73C84.3897 43.55 84.4697 43.3467 84.4963 43.12H85.4163C85.3963 43.54 85.273 43.9033 85.0463 44.21C84.8263 44.5167 84.533 44.7567 84.1663 44.93C83.8063 45.0967 83.3997 45.18 82.9463 45.18ZM88.9908 45.18C88.5241 45.18 88.1208 45.1 87.7808 44.94C87.4408 44.78 87.1641 44.57 86.9508 44.31C86.7374 44.0433 86.5774 43.7467 86.4708 43.42C86.3708 43.0933 86.3208 42.76 86.3208 42.42V42.24C86.3208 41.8933 86.3708 41.5567 86.4708 41.23C86.5774 40.9033 86.7374 40.61 86.9508 40.35C87.1641 40.0833 87.4341 39.8733 87.7608 39.72C88.0941 39.56 88.4841 39.48 88.9308 39.48C89.5108 39.48 89.9874 39.6067 90.3608 39.86C90.7408 40.1067 91.0208 40.4267 91.2008 40.82C91.3874 41.2133 91.4808 41.6333 91.4808 42.08V42.51H86.7408V41.79H90.7808L90.5608 42.18C90.5608 41.8 90.5008 41.4733 90.3808 41.2C90.2608 40.92 90.0808 40.7033 89.8408 40.55C89.6008 40.3967 89.2974 40.32 88.9308 40.32C88.5508 40.32 88.2341 40.4067 87.9808 40.58C87.7341 40.7533 87.5474 40.99 87.4208 41.29C87.3008 41.59 87.2408 41.9367 87.2408 42.33C87.2408 42.71 87.3008 43.0533 87.4208 43.36C87.5474 43.66 87.7408 43.9 88.0008 44.08C88.2608 44.2533 88.5908 44.34 88.9908 44.34C89.4108 44.34 89.7508 44.2467 90.0108 44.06C90.2774 43.8733 90.4374 43.6567 90.4908 43.41H91.3908C91.3174 43.7767 91.1708 44.0933 90.9508 44.36C90.7308 44.6267 90.4541 44.83 90.1208 44.97C89.7874 45.11 89.4108 45.18 88.9908 45.18ZM95.6392 47V37.7H96.4992V47H95.6392ZM104.535 45.18C103.968 45.18 103.455 45.0867 102.995 44.9C102.535 44.7133 102.138 44.45 101.805 44.11C101.478 43.77 101.225 43.37 101.045 42.91C100.865 42.4433 100.775 41.9367 100.775 41.39V41.17C100.775 40.7033 100.855 40.2533 101.015 39.82C101.182 39.38 101.418 38.9867 101.725 38.64C102.038 38.2867 102.418 38.01 102.865 37.81C103.312 37.6033 103.815 37.5 104.375 37.5C104.982 37.5 105.522 37.6167 105.995 37.85C106.468 38.0767 106.848 38.3967 107.135 38.81C107.422 39.2167 107.588 39.69 107.635 40.23H106.635C106.588 39.8233 106.455 39.4867 106.235 39.22C106.015 38.9467 105.742 38.7433 105.415 38.61C105.095 38.47 104.748 38.4 104.375 38.4C103.995 38.4 103.645 38.47 103.325 38.61C103.005 38.7433 102.728 38.9367 102.495 39.19C102.268 39.4433 102.092 39.7467 101.965 40.1C101.838 40.4533 101.775 40.85 101.775 41.29C101.775 41.79 101.842 42.23 101.975 42.61C102.115 42.9833 102.308 43.2967 102.555 43.55C102.802 43.7967 103.092 43.9833 103.425 44.11C103.765 44.2367 104.135 44.3 104.535 44.3C105.102 44.3 105.598 44.1867 106.025 43.96C106.458 43.7267 106.785 43.4267 107.005 43.06L106.645 44.25V42.08H107.565V43.82C107.238 44.2467 106.818 44.58 106.305 44.82C105.792 45.06 105.202 45.18 104.535 45.18ZM104.275 42.28V41.46H108.185V42.28H104.275ZM114.525 45V37.7H115.505V45H114.525ZM109.585 45V37.7H110.565V45H109.585ZM110.365 41.81V40.93H114.725V41.81H110.365ZM119.993 45.18C119.386 45.18 118.869 45.08 118.443 44.88C118.016 44.68 117.689 44.4033 117.463 44.05C117.236 43.6967 117.123 43.2967 117.123 42.85H118.103C118.103 43.07 118.159 43.29 118.273 43.51C118.393 43.73 118.589 43.9133 118.863 44.06C119.143 44.2067 119.519 44.28 119.993 44.28C120.433 44.28 120.793 44.2167 121.073 44.09C121.353 43.9567 121.559 43.7867 121.693 43.58C121.826 43.3667 121.893 43.1367 121.893 42.89C121.893 42.59 121.763 42.3433 121.503 42.15C121.243 41.95 120.863 41.8267 120.363 41.78L119.553 41.71C118.906 41.6567 118.389 41.4567 118.003 41.11C117.616 40.7633 117.423 40.3067 117.423 39.74C117.423 39.2933 117.529 38.9033 117.743 38.57C117.963 38.2367 118.266 37.9767 118.653 37.79C119.039 37.5967 119.489 37.5 120.003 37.5C120.509 37.5 120.956 37.5933 121.343 37.78C121.729 37.9667 122.029 38.23 122.243 38.57C122.463 38.9033 122.573 39.3033 122.573 39.77H121.593C121.593 39.5367 121.536 39.3167 121.423 39.11C121.316 38.9033 121.146 38.7333 120.913 38.6C120.679 38.4667 120.376 38.4 120.003 38.4C119.643 38.4 119.343 38.4633 119.103 38.59C118.869 38.7167 118.693 38.8833 118.573 39.09C118.459 39.29 118.403 39.5067 118.403 39.74C118.403 40.0067 118.506 40.2433 118.713 40.45C118.919 40.6567 119.226 40.7767 119.633 40.81L120.443 40.88C120.943 40.92 121.373 41.0267 121.733 41.2C122.099 41.3667 122.379 41.5933 122.573 41.88C122.773 42.16 122.873 42.4967 122.873 42.89C122.873 43.3367 122.753 43.7333 122.513 44.08C122.273 44.4267 121.936 44.6967 121.503 44.89C121.069 45.0833 120.566 45.18 119.993 45.18Z" fill="black"/>
<path d="M238.49 43.2C237.957 43.2 237.51 43.1067 237.15 42.92C236.797 42.7333 236.513 42.48 236.3 42.16C236.093 41.8333 235.943 41.46 235.85 41.04C235.763 40.62 235.72 40.18 235.72 39.72V39.24C235.72 38.0867 236.007 37.2 236.58 36.58C237.153 35.9533 237.983 35.64 239.07 35.64C239.33 35.64 239.55 35.6467 239.73 35.66C239.91 35.6733 240.107 35.6933 240.32 35.72V36.54C240.1 36.5133 239.897 36.4933 239.71 36.48C239.523 36.4667 239.297 36.46 239.03 36.46C238.423 36.46 237.943 36.5733 237.59 36.8C237.237 37.0267 236.983 37.3533 236.83 37.78C236.677 38.2 236.6 38.71 236.6 39.31V39.76L236.36 40.65C236.367 40.1233 236.467 39.6867 236.66 39.34C236.86 38.9933 237.13 38.7333 237.47 38.56C237.817 38.3867 238.213 38.3 238.66 38.3C239.18 38.3 239.62 38.4067 239.98 38.62C240.34 38.8267 240.61 39.1133 240.79 39.48C240.977 39.8467 241.07 40.2633 241.07 40.73C241.07 41.2033 240.973 41.6267 240.78 42C240.587 42.3733 240.297 42.6667 239.91 42.88C239.53 43.0933 239.057 43.2 238.49 43.2ZM238.49 42.36C238.857 42.36 239.163 42.29 239.41 42.15C239.657 42.01 239.84 41.82 239.96 41.58C240.087 41.3333 240.15 41.05 240.15 40.73C240.15 40.41 240.09 40.1267 239.97 39.88C239.85 39.6333 239.67 39.4433 239.43 39.31C239.197 39.17 238.907 39.1 238.56 39.1C238.22 39.1 237.913 39.1633 237.64 39.29C237.373 39.4167 237.163 39.6033 237.01 39.85C236.857 40.09 236.78 40.3867 236.78 40.74C236.78 41.0333 236.84 41.3033 236.96 41.55C237.08 41.7967 237.267 41.9933 237.52 42.14C237.773 42.2867 238.097 42.36 238.49 42.36ZM247.017 43.18C246.637 43.18 246.287 43.11 245.967 42.97C245.647 42.83 245.367 42.6333 245.127 42.38C244.894 42.1267 244.711 41.8333 244.577 41.5C244.451 41.1667 244.387 40.8067 244.387 40.42V40.24C244.387 39.86 244.451 39.5033 244.577 39.17C244.704 38.8367 244.881 38.5433 245.107 38.29C245.341 38.0367 245.614 37.84 245.927 37.7C246.247 37.5533 246.601 37.48 246.987 37.48C247.394 37.48 247.764 37.5667 248.097 37.74C248.431 37.9067 248.704 38.17 248.917 38.53C249.131 38.89 249.251 39.3567 249.277 39.93L248.877 39.29V35.7H249.837V43H249.077V40.63H249.357C249.331 41.2367 249.204 41.73 248.977 42.11C248.751 42.4833 248.464 42.7567 248.117 42.93C247.777 43.0967 247.411 43.18 247.017 43.18ZM247.147 42.34C247.474 42.34 247.771 42.2667 248.037 42.12C248.304 41.9733 248.517 41.7633 248.677 41.49C248.837 41.21 248.917 40.8833 248.917 40.51V40.05C248.917 39.6833 248.834 39.3733 248.667 39.12C248.507 38.86 248.291 38.6633 248.017 38.53C247.751 38.39 247.457 38.32 247.137 38.32C246.784 38.32 246.471 38.4033 246.197 38.57C245.931 38.7367 245.721 38.97 245.567 39.27C245.421 39.57 245.347 39.9233 245.347 40.33C245.347 40.7367 245.424 41.0933 245.577 41.4C245.731 41.7 245.944 41.9333 246.217 42.1C246.491 42.26 246.801 42.34 247.147 42.34ZM254.912 43V41.4H254.752V39.55C254.752 39.1833 254.655 38.9067 254.462 38.72C254.275 38.5333 253.998 38.44 253.632 38.44C253.425 38.44 253.212 38.4433 252.992 38.45C252.772 38.4567 252.562 38.4633 252.362 38.47C252.162 38.4767 251.988 38.4867 251.842 38.5V37.66C251.988 37.6467 252.142 37.6367 252.302 37.63C252.468 37.6167 252.638 37.61 252.812 37.61C252.985 37.6033 253.152 37.6 253.312 37.6C253.858 37.6 254.305 37.6667 254.652 37.8C254.998 37.9267 255.255 38.1367 255.422 38.43C255.588 38.7233 255.672 39.12 255.672 39.62V43H254.912ZM253.162 43.14C252.762 43.14 252.415 43.0733 252.122 42.94C251.835 42.8 251.612 42.6 251.452 42.34C251.298 42.08 251.222 41.7667 251.222 41.4C251.222 41.02 251.305 40.7033 251.472 40.45C251.645 40.1967 251.895 40.0067 252.222 39.88C252.548 39.7467 252.942 39.68 253.402 39.68H254.852V40.4H253.362C252.975 40.4 252.678 40.4933 252.472 40.68C252.265 40.8667 252.162 41.1067 252.162 41.4C252.162 41.6933 252.265 41.93 252.472 42.11C252.678 42.29 252.975 42.38 253.362 42.38C253.588 42.38 253.805 42.34 254.012 42.26C254.218 42.1733 254.388 42.0333 254.522 41.84C254.662 41.64 254.738 41.3667 254.752 41.02L255.012 41.4C254.978 41.78 254.885 42.1 254.732 42.36C254.585 42.6133 254.378 42.8067 254.112 42.94C253.852 43.0733 253.535 43.14 253.162 43.14ZM257.054 45.08V44.22H257.824C258.051 44.22 258.241 44.19 258.394 44.13C258.554 44.0767 258.684 43.9833 258.784 43.85C258.891 43.7167 258.977 43.54 259.044 43.32L260.724 37.66H261.664L259.884 43.57C259.777 43.9233 259.627 44.21 259.434 44.43C259.241 44.6567 259.004 44.82 258.724 44.92C258.451 45.0267 258.131 45.08 257.764 45.08H257.054ZM258.684 42.88V42.08H259.844V42.88H258.684ZM258.584 42.88L256.674 37.66H257.654L259.484 42.88H258.584ZM264.594 43.16C263.894 43.16 263.35 43.01 262.964 42.71C262.584 42.41 262.387 42 262.374 41.48H263.274C263.287 41.6867 263.39 41.8833 263.584 42.07C263.784 42.25 264.12 42.34 264.594 42.34C265.02 42.34 265.347 42.2567 265.574 42.09C265.8 41.9167 265.914 41.7067 265.914 41.46C265.914 41.24 265.83 41.07 265.664 40.95C265.497 40.8233 265.227 40.74 264.854 40.7L264.274 40.64C263.767 40.5867 263.354 40.4367 263.034 40.19C262.714 39.9367 262.554 39.5833 262.554 39.13C262.554 38.79 262.64 38.5 262.814 38.26C262.987 38.0133 263.227 37.8267 263.534 37.7C263.84 37.5667 264.194 37.5 264.594 37.5C265.194 37.5 265.68 37.6333 266.054 37.9C266.427 38.1667 266.62 38.5633 266.634 39.09H265.734C265.727 38.8767 265.627 38.6967 265.434 38.55C265.247 38.3967 264.967 38.32 264.594 38.32C264.22 38.32 263.937 38.3967 263.744 38.55C263.55 38.7033 263.454 38.8967 263.454 39.13C263.454 39.33 263.52 39.49 263.654 39.61C263.794 39.73 264.02 39.8067 264.334 39.84L264.914 39.9C265.487 39.96 265.947 40.12 266.294 40.38C266.64 40.6333 266.814 40.9933 266.814 41.46C266.814 41.7933 266.717 42.09 266.524 42.35C266.337 42.6033 266.077 42.8033 265.744 42.95C265.41 43.09 265.027 43.16 264.594 43.16ZM270.541 43V35.7H271.501V43H270.541ZM269.801 36.46V35.7H271.501V36.46H269.801ZM275.612 43.18C275.145 43.18 274.742 43.1 274.402 42.94C274.062 42.78 273.785 42.57 273.572 42.31C273.359 42.0433 273.199 41.7467 273.092 41.42C272.992 41.0933 272.942 40.76 272.942 40.42V40.24C272.942 39.8933 272.992 39.5567 273.092 39.23C273.199 38.9033 273.359 38.61 273.572 38.35C273.785 38.0833 274.055 37.8733 274.382 37.72C274.715 37.56 275.105 37.48 275.552 37.48C276.132 37.48 276.609 37.6067 276.982 37.86C277.362 38.1067 277.642 38.4267 277.822 38.82C278.009 39.2133 278.102 39.6333 278.102 40.08V40.51H273.362V39.79H277.402L277.182 40.18C277.182 39.8 277.122 39.4733 277.002 39.2C276.882 38.92 276.702 38.7033 276.462 38.55C276.222 38.3967 275.919 38.32 275.552 38.32C275.172 38.32 274.855 38.4067 274.602 38.58C274.355 38.7533 274.169 38.99 274.042 39.29C273.922 39.59 273.862 39.9367 273.862 40.33C273.862 40.71 273.922 41.0533 274.042 41.36C274.169 41.66 274.362 41.9 274.622 42.08C274.882 42.2533 275.212 42.34 275.612 42.34C276.032 42.34 276.372 42.2467 276.632 42.06C276.899 41.8733 277.059 41.6567 277.112 41.41H278.012C277.939 41.7767 277.792 42.0933 277.572 42.36C277.352 42.6267 277.075 42.83 276.742 42.97C276.409 43.11 276.032 43.18 275.612 43.18ZM279.605 43V37.39C279.605 36.7967 279.762 36.36 280.075 36.08C280.388 35.8 280.848 35.66 281.455 35.66H282.115V36.46H281.295C281.048 36.46 280.858 36.53 280.725 36.67C280.592 36.8033 280.525 36.99 280.525 37.23V43H279.605ZM278.865 38.44V37.72H282.215V38.44H278.865ZM285.412 43.06C285.012 43.06 284.665 43.0033 284.372 42.89C284.085 42.7767 283.862 42.5833 283.702 42.31C283.549 42.03 283.472 41.6533 283.472 41.18V36.04H284.392V41.3C284.392 41.5867 284.469 41.81 284.622 41.97C284.782 42.1233 285.005 42.2 285.292 42.2H286.232V43.06H285.412ZM282.552 38.38V37.66H286.232V38.38H282.552Z" fill="black"/>
<path d="M68.06 144V136.7H69.36L71.52 141.57H71.68L73.83 136.7H75.14V144H74.16V137.77L74.23 137.79L72.16 142.49H70.96L68.88 137.79L68.96 137.77V144H68.06ZM76.7592 146.08V145.22H77.5292C77.7559 145.22 77.9459 145.19 78.0992 145.13C78.2592 145.077 78.3892 144.983 78.4892 144.85C78.5959 144.717 78.6826 144.54 78.7492 144.32L80.4292 138.66H81.3692L79.5892 144.57C79.4826 144.923 79.3326 145.21 79.1392 145.43C78.9459 145.657 78.7092 145.82 78.4292 145.92C78.1559 146.027 77.8359 146.08 77.4692 146.08H76.7592ZM78.3892 143.88V143.08H79.5492V143.88H78.3892ZM78.2892 143.88L76.3792 138.66H77.3592L79.1892 143.88H78.2892ZM87.6834 144.18C87.2434 144.18 86.85 144.083 86.5034 143.89C86.1634 143.697 85.8934 143.417 85.6934 143.05C85.4934 142.677 85.3834 142.23 85.3634 141.71H85.6234V144H84.8634V136.7H85.8234V140.25L85.4834 140.98C85.51 140.4 85.6267 139.927 85.8334 139.56C86.04 139.193 86.31 138.923 86.6434 138.75C86.9834 138.57 87.3567 138.48 87.7634 138.48C88.1434 138.48 88.49 138.553 88.8034 138.7C89.1167 138.84 89.3867 139.037 89.6134 139.29C89.84 139.537 90.0134 139.827 90.1334 140.16C90.2534 140.487 90.3134 140.84 90.3134 141.22V141.4C90.3134 141.78 90.25 142.137 90.1234 142.47C90.0034 142.803 89.8267 143.1 89.5934 143.36C89.36 143.613 89.08 143.813 88.7534 143.96C88.4334 144.107 88.0767 144.18 87.6834 144.18ZM87.5734 143.34C87.9334 143.34 88.2467 143.253 88.5134 143.08C88.78 142.907 88.9867 142.67 89.1334 142.37C89.28 142.063 89.3534 141.71 89.3534 141.31C89.3534 140.91 89.2767 140.56 89.1234 140.26C88.9767 139.96 88.77 139.73 88.5034 139.57C88.2367 139.403 87.9267 139.32 87.5734 139.32C87.2534 139.32 86.9567 139.393 86.6834 139.54C86.41 139.68 86.19 139.887 86.0234 140.16C85.8634 140.427 85.7834 140.75 85.7834 141.13V141.59C85.7834 141.957 85.8667 142.27 86.0334 142.53C86.2 142.79 86.42 142.99 86.6934 143.13C86.9667 143.27 87.26 143.34 87.5734 143.34ZM93.6079 144.16C92.9746 144.16 92.4879 143.953 92.1479 143.54C91.8079 143.127 91.6379 142.53 91.6379 141.75V138.65H92.5979V141.94C92.5979 142.36 92.7112 142.69 92.9379 142.93C93.1646 143.163 93.4712 143.28 93.8579 143.28C94.2579 143.28 94.5846 143.153 94.8379 142.9C95.0912 142.64 95.2179 142.287 95.2179 141.84V138.65H96.1779V144H95.4179V141.71H95.5379C95.5379 142.237 95.4679 142.683 95.3279 143.05C95.1879 143.41 94.9779 143.687 94.6979 143.88C94.4246 144.067 94.0746 144.16 93.6479 144.16H93.6079ZM100.267 144.18C99.8872 144.18 99.5372 144.11 99.2172 143.97C98.8972 143.83 98.6172 143.633 98.3772 143.38C98.1439 143.127 97.9605 142.833 97.8272 142.5C97.7005 142.167 97.6372 141.807 97.6372 141.42V141.24C97.6372 140.86 97.7005 140.503 97.8272 140.17C97.9539 139.837 98.1305 139.543 98.3572 139.29C98.5905 139.037 98.8639 138.84 99.1772 138.7C99.4972 138.553 99.8505 138.48 100.237 138.48C100.644 138.48 101.014 138.567 101.347 138.74C101.681 138.907 101.954 139.17 102.167 139.53C102.381 139.89 102.501 140.357 102.527 140.93L102.127 140.29V136.7H103.087V144H102.327V141.63H102.607C102.581 142.237 102.454 142.73 102.227 143.11C102.001 143.483 101.714 143.757 101.367 143.93C101.027 144.097 100.661 144.18 100.267 144.18ZM100.397 143.34C100.724 143.34 101.021 143.267 101.287 143.12C101.554 142.973 101.767 142.763 101.927 142.49C102.087 142.21 102.167 141.883 102.167 141.51V141.05C102.167 140.683 102.084 140.373 101.917 140.12C101.757 139.86 101.541 139.663 101.267 139.53C101.001 139.39 100.707 139.32 100.387 139.32C100.034 139.32 99.7205 139.403 99.4472 139.57C99.1805 139.737 98.9705 139.97 98.8172 140.27C98.6705 140.57 98.5972 140.923 98.5972 141.33C98.5972 141.737 98.6739 142.093 98.8272 142.4C98.9805 142.7 99.1939 142.933 99.4672 143.1C99.7405 143.26 100.051 143.34 100.397 143.34ZM106.952 146.08C106.705 146.08 106.455 146.07 106.202 146.05C105.955 146.03 105.718 146.003 105.492 145.97V145.16C105.732 145.193 105.982 145.22 106.242 145.24C106.508 145.267 106.758 145.28 106.992 145.28C107.478 145.28 107.865 145.213 108.152 145.08C108.445 144.953 108.655 144.75 108.782 144.47C108.915 144.197 108.982 143.843 108.982 143.41V142.39L109.302 141.63C109.282 142.17 109.168 142.62 108.962 142.98C108.755 143.333 108.485 143.6 108.152 143.78C107.825 143.953 107.462 144.04 107.062 144.04C106.688 144.04 106.345 143.97 106.032 143.83C105.725 143.683 105.458 143.483 105.232 143.23C105.012 142.977 104.838 142.687 104.712 142.36C104.592 142.027 104.532 141.677 104.532 141.31V141.13C104.532 140.757 104.595 140.41 104.722 140.09C104.848 139.763 105.025 139.48 105.252 139.24C105.478 139 105.748 138.813 106.062 138.68C106.382 138.547 106.732 138.48 107.112 138.48C107.558 138.48 107.952 138.577 108.292 138.77C108.632 138.957 108.898 139.233 109.092 139.6C109.292 139.96 109.402 140.403 109.422 140.93L109.142 140.94V138.66H109.902V143.37C109.902 144.01 109.802 144.527 109.602 144.92C109.408 145.32 109.095 145.613 108.662 145.8C108.235 145.987 107.665 146.08 106.952 146.08ZM107.242 143.16C107.562 143.16 107.852 143.09 108.112 142.95C108.378 142.81 108.588 142.61 108.742 142.35C108.902 142.083 108.982 141.767 108.982 141.4V140.94C108.982 140.58 108.898 140.277 108.732 140.03C108.572 139.783 108.362 139.597 108.102 139.47C107.842 139.343 107.558 139.28 107.252 139.28C106.905 139.28 106.598 139.36 106.332 139.52C106.065 139.68 105.858 139.907 105.712 140.2C105.565 140.487 105.492 140.827 105.492 141.22C105.492 141.613 105.565 141.957 105.712 142.25C105.865 142.543 106.072 142.77 106.332 142.93C106.598 143.083 106.902 143.16 107.242 143.16ZM113.95 144.18C113.483 144.18 113.08 144.1 112.74 143.94C112.4 143.78 112.123 143.57 111.91 143.31C111.696 143.043 111.536 142.747 111.43 142.42C111.33 142.093 111.28 141.76 111.28 141.42V141.24C111.28 140.893 111.33 140.557 111.43 140.23C111.536 139.903 111.696 139.61 111.91 139.35C112.123 139.083 112.393 138.873 112.72 138.72C113.053 138.56 113.443 138.48 113.89 138.48C114.47 138.48 114.946 138.607 115.32 138.86C115.7 139.107 115.98 139.427 116.16 139.82C116.346 140.213 116.44 140.633 116.44 141.08V141.51H111.7V140.79H115.74L115.52 141.18C115.52 140.8 115.46 140.473 115.34 140.2C115.22 139.92 115.04 139.703 114.8 139.55C114.56 139.397 114.256 139.32 113.89 139.32C113.51 139.32 113.193 139.407 112.94 139.58C112.693 139.753 112.506 139.99 112.38 140.29C112.26 140.59 112.2 140.937 112.2 141.33C112.2 141.71 112.26 142.053 112.38 142.36C112.506 142.66 112.7 142.9 112.96 143.08C113.22 143.253 113.55 143.34 113.95 143.34C114.37 143.34 114.71 143.247 114.97 143.06C115.236 142.873 115.396 142.657 115.45 142.41H116.35C116.276 142.777 116.13 143.093 115.91 143.36C115.69 143.627 115.413 143.83 115.08 143.97C114.746 144.11 114.37 144.18 113.95 144.18ZM119.883 144.06C119.483 144.06 119.136 144.003 118.843 143.89C118.556 143.777 118.333 143.583 118.173 143.31C118.019 143.03 117.943 142.653 117.943 142.18V137.04H118.863V142.3C118.863 142.587 118.939 142.81 119.093 142.97C119.253 143.123 119.476 143.2 119.763 143.2H120.703V144.06H119.883ZM117.023 139.38V138.66H120.703V139.38H117.023Z" fill="black"/>
<g filter="url(#filter0_d_756_4337)">
<path d="M40.2868 128.422C39.418 127.507 38.2464 127 36.9892 127C35.0277 127 33.2965 128.251 32.6778 130.107L31.9801 132.207L17.9798 127.559C17.5124 127.402 17.0253 127.323 16.5382 127.323C14.7347 127.323 13.1023 128.402 12.3783 130.074C11.6542 131.759 11.9834 133.641 13.2471 134.978L31.7102 154.533C32.5791 155.448 33.7507 155.955 35.0079 155.955C36.9694 155.955 38.7005 154.705 39.3193 152.848L40.017 150.749L54.0173 155.396C54.4847 155.554 54.9718 155.633 55.4588 155.633C57.2624 155.633 58.8947 154.553 59.6188 152.881C60.3494 151.196 60.0137 149.314 58.7499 147.977L40.2868 128.422Z" fill="white"/>
<path d="M35.0091 153.138C34.5351 153.138 34.0941 152.947 33.765 152.598L15.3019 133.042C14.8214 132.536 14.6964 131.825 14.9728 131.193C15.2493 130.561 15.8614 130.146 16.5394 130.146C16.7237 130.146 16.908 130.179 17.0923 130.238L33.7782 135.781L35.3645 131.002C35.5949 130.298 36.2531 129.83 36.9969 129.83C37.4708 129.83 37.9118 130.021 38.2409 130.37L56.704 149.926C57.1845 150.433 57.3096 151.144 57.0331 151.775C56.7567 152.407 56.1445 152.822 55.4666 152.822C55.2823 152.822 55.0914 152.789 54.9137 152.73L38.2278 147.188L36.6414 151.966C36.4045 152.671 35.7528 153.138 35.0091 153.138Z" fill="url(#paint0_linear_756_4337)"/>
<path d="M36.9899 130.673C37.2137 130.673 37.4375 130.758 37.6152 130.943L56.0783 150.498C56.6247 151.078 56.1639 151.96 55.4662 151.96C55.374 151.96 55.2819 151.947 55.1832 151.914L37.6942 146.108L35.8381 151.696C35.713 152.078 35.3641 152.289 35.0153 152.289C34.7915 152.289 34.5677 152.203 34.39 152.019L15.9269 132.463C15.3806 131.884 15.8413 131.002 16.539 131.002C16.6312 131.002 16.7233 131.015 16.8221 131.048L34.311 136.854L36.1672 131.265C36.2922 130.883 36.6411 130.673 36.9899 130.673ZM36.9899 128.975C35.8841 128.975 34.9034 129.679 34.5545 130.732L33.2381 134.708L17.3618 129.435C17.0919 129.343 16.8155 129.304 16.539 129.304C15.5254 129.304 14.6039 129.916 14.1958 130.864C13.7877 131.818 13.972 132.878 14.6894 133.635L33.1525 153.191C33.6396 153.711 34.3044 153.994 35.0153 153.994C36.1211 153.994 37.1018 153.289 37.4507 152.236L38.7737 148.26L54.65 153.533C54.9199 153.625 55.1963 153.664 55.4728 153.664C56.4864 153.664 57.4079 153.052 57.816 152.104C58.2241 151.15 58.0398 150.09 57.3224 149.333L38.8593 129.778C38.3722 129.258 37.7074 128.975 36.9965 128.975H36.9899Z" fill="#1D074F"/>
</g>
<g filter="url(#filter1_d_756_4337)">
<path d="M166.078 -14.7695C158.583 -17.738 150.979 -19.229 144.649 -18.9714C137.153 -18.6732 132.002 -15.9488 130.159 -11.2724C130.064 -11.0284 129.996 -10.7845 129.928 -10.5405C127.692 -7.15181 126.323 -2.67878 125.415 0.316791C125.144 1.22495 124.845 2.16021 124.669 2.63462C121.213 11.3638 131.446 23.0208 148.457 29.771C155.452 32.5361 162.351 34 168.423 34C176.746 34 182.398 31.262 184.377 26.2874C184.553 25.8401 184.838 25.2166 185.19 24.4711L185.245 24.3356C186.614 21.3942 188.457 17.4227 189.311 13.5461C189.542 13.153 189.731 12.7599 189.88 12.3804C191.724 7.70405 189.853 2.20087 184.581 -3.15321C180.135 -7.6669 173.561 -11.7875 166.078 -14.756V-14.7695Z" fill="white"/>
<path d="M180.568 24.7692C178.046 31.1263 164.343 31.6685 149.948 25.962C135.553 20.2556 125.929 10.4827 128.45 4.12556C129.778 0.764015 132.232 -11.6656 138.264 -11.7198C143.645 -11.7605 154.353 -4.98316 161.144 -2.28579C168.341 0.560681 180.581 2.06525 184.471 6.0232C188.361 9.98114 181.842 21.5839 180.581 24.7692H180.568Z" fill="url(#paint1_linear_756_4337)" stroke="#1D074F" stroke-width="2.02" stroke-linecap="round" stroke-linejoin="round"/>
<path d="M186.071 10.8623C183.55 17.2194 169.847 17.7616 155.452 12.0551C141.057 6.34857 131.433 -3.42431 133.954 -9.78143C136.475 -16.1385 150.179 -16.6807 164.574 -10.9742C178.969 -5.26773 188.593 4.50515 186.071 10.8623Z" fill="url(#paint2_linear_756_4337)" stroke="#1D074F" stroke-width="2.02" stroke-linecap="round" stroke-linejoin="round"/>
<path d="M173.939 4.83042C172.882 7.50068 165.833 7.20248 158.188 4.1798C150.544 1.15712 145.203 -3.46499 146.26 -6.12169C147.318 -8.79195 154.366 -8.49376 162.011 -5.47108C169.656 -2.4484 174.996 2.17371 173.939 4.83042Z" fill="url(#paint3_linear_756_4337)" stroke="#1D074F" stroke-width="1.99" stroke-linecap="round" stroke-linejoin="round"/>
</g>
<g filter="url(#filter2_d_756_4337)">
<path d="M289.127 136.728C287.98 136.534 287.17 136.365 286.588 136.23C290.486 117.265 283.079 96.9764 267.75 85.1489L267.683 85.0898C267.581 85.0139 267.472 84.9296 267.362 84.8536C267.986 84.01 268.357 82.9639 268.357 81.8335C268.357 79.3532 266.586 77.2611 264.139 76.8477C262.081 76.5018 260.816 76.1981 260.377 75.945C260.124 75.5063 259.828 74.2409 259.474 72.1825C259.061 69.736 256.96 67.9644 254.48 67.9644C252 67.9644 249.908 69.736 249.486 72.1825C249.385 72.7646 249.3 73.2539 249.216 73.6757C248.617 73.3214 247.993 72.9755 247.368 72.6465C234.258 63.7885 217.428 61.5782 202.327 66.7496C186.223 72.2669 173.99 85.3429 169.612 101.777C165.149 119.341 170.025 138.229 183.338 155.245C182.739 155.38 181.988 155.524 181.085 155.675C178.639 156.089 176.867 158.189 176.867 160.67C176.867 163.15 178.639 165.25 181.085 165.664C183.144 166.01 184.409 166.313 184.848 166.566C185.101 167.005 185.396 168.271 185.75 170.329C186.164 172.776 188.264 174.547 190.745 174.547C193.225 174.547 195.325 172.776 195.739 170.329C195.849 169.663 195.958 169.089 196.059 168.591C196.237 168.743 196.414 168.895 196.582 169.047C201.864 173.569 207.22 177.441 212.561 180.579C212.805 180.714 213.05 180.866 213.345 181.051C213.784 181.321 214.256 181.617 214.771 181.887C215.513 182.351 216.264 182.806 217.057 183.279C217.293 183.414 217.538 183.557 217.842 183.751C218.289 184.029 218.761 184.316 219.276 184.595C220.018 185.059 220.769 185.514 221.562 185.978C221.807 186.113 222.06 186.273 222.347 186.451C222.811 186.737 223.266 187.016 223.772 187.286C224.515 187.75 225.265 188.205 226.05 188.669C226.295 188.804 226.539 188.956 226.835 189.142C227.273 189.412 227.746 189.707 228.26 189.977C229.003 190.441 229.754 190.905 230.547 191.369C230.783 191.504 231.027 191.647 231.331 191.841C232.639 192.651 234.604 193.866 236.958 193.866C238.148 193.866 239.295 193.554 240.324 192.972L241.876 192.12C251.527 186.451 268.956 174.302 279.333 155.591C281.872 155.692 284.074 153.878 284.496 151.373C284.842 149.314 285.145 148.049 285.399 147.61C285.837 147.357 287.103 147.062 289.161 146.708C291.608 146.294 293.379 144.194 293.379 141.713C293.379 139.233 291.608 137.133 289.161 136.719L289.127 136.728Z" fill="white" stroke="white" stroke-miterlimit="10"/>
<path d="M265.329 88.186C239 68.15 200.016 81.0658 191.352 113.528C185.202 137.765 198.725 161.091 217.074 176.884C221.823 180.95 226.936 184.746 232.419 187.969C234.208 188.973 236.291 190.778 238.434 189.555L239.885 188.762C259.01 177.534 276.228 160.248 281.957 138.871C287.263 120.362 280.868 100.14 265.337 88.186H265.329Z" fill="url(#paint4_linear_756_4337)"/>
<path d="M265.329 88.186C239 68.15 200.016 81.0658 191.352 113.528C185.202 137.765 198.725 161.091 217.074 176.884C221.823 180.95 226.936 184.746 232.419 187.969C234.208 188.973 236.291 190.778 238.434 189.555L239.885 188.762C259.01 177.534 276.228 160.248 281.957 138.871C287.263 120.362 280.868 100.14 265.337 88.186H265.329Z" stroke="#1D074F" stroke-width="3.2" stroke-miterlimit="10"/>
<path d="M260.842 85.4863C234.513 65.4503 195.53 78.3661 186.866 110.829C180.716 135.066 194.239 158.392 212.588 174.184C217.337 178.251 222.449 182.047 227.933 185.269C229.721 186.273 231.805 188.079 233.948 186.855L235.399 186.062C254.524 174.834 271.742 157.548 277.47 136.171C282.777 117.662 276.382 97.4403 260.851 85.4863H260.842Z" fill="url(#paint5_linear_756_4337)"/>
<path d="M260.842 85.4863C234.513 65.4503 195.53 78.3661 186.866 110.829C180.716 135.066 194.239 158.392 212.588 174.184C217.337 178.251 222.449 182.047 227.933 185.269C229.721 186.273 231.805 188.079 233.948 186.855L235.399 186.062C254.524 174.834 271.742 157.548 277.47 136.171C282.777 117.662 276.382 97.4403 260.851 85.4863H260.842Z" stroke="#1D074F" stroke-width="3.2" stroke-miterlimit="10"/>
<path d="M256.344 82.7868C230.007 62.7509 191.023 75.6667 182.368 108.129C176.218 132.366 189.741 155.692 208.089 171.485C212.839 175.551 217.951 179.347 223.435 182.57C225.223 183.574 227.307 185.379 229.45 184.156L230.901 183.363C250.026 172.134 267.244 154.849 272.972 133.471C278.279 114.962 271.884 94.7409 256.353 82.7868H256.344Z" fill="#A94EFF"/>
<path d="M256.344 82.7868C230.007 62.7509 191.023 75.6667 182.368 108.129C176.218 132.366 189.741 155.692 208.089 171.485C212.839 175.551 217.951 179.347 223.435 182.57C225.223 183.574 227.307 185.379 229.45 184.156L230.901 183.363C250.026 172.134 267.244 154.849 272.972 133.471C278.279 114.962 271.884 94.7409 256.353 82.7868H256.344Z" stroke="#1D074F" stroke-width="3.2" stroke-miterlimit="10"/>
<path d="M251.848 80.0873C225.519 60.0514 186.535 72.9672 177.871 105.438C171.722 129.675 185.245 153.001 203.593 168.794C208.343 172.86 213.455 176.656 218.939 179.879C220.727 180.883 222.811 182.688 224.954 181.465L226.405 180.672C245.53 169.443 262.748 152.158 268.476 130.78C273.782 112.271 267.388 92.0498 251.857 80.0957L251.848 80.0873Z" fill="url(#paint6_linear_756_4337)"/>
<path d="M251.848 80.0873C225.519 60.0514 186.535 72.9672 177.871 105.438C171.722 129.675 185.245 153.001 203.593 168.794C208.343 172.86 213.455 176.656 218.939 179.879C220.727 180.883 222.811 182.688 224.954 181.465L226.405 180.672C245.53 169.443 262.748 152.158 268.476 130.78C273.782 112.271 267.388 92.0498 251.857 80.0957L251.848 80.0873Z" stroke="#1D074F" stroke-width="3.2" stroke-miterlimit="10"/>
<path d="M247.352 77.396C221.023 57.3601 182.039 70.2675 173.375 102.738C167.225 126.975 180.749 150.302 199.097 166.094C203.847 170.16 208.959 173.957 214.443 177.179C216.231 178.183 218.315 179.988 220.458 178.765L221.909 177.972C241.034 166.744 258.252 149.458 263.98 128.081C269.286 109.572 262.892 89.3501 247.361 77.396H247.352Z" fill="url(#paint7_linear_756_4337)"/>
<path d="M247.352 77.396C221.023 57.3601 182.039 70.2675 173.375 102.738C167.225 126.975 180.749 150.302 199.097 166.094C203.847 170.16 208.959 173.957 214.443 177.179C216.231 178.183 218.315 179.988 220.458 178.765L221.909 177.972C241.034 166.744 258.252 149.458 263.98 128.081C269.286 109.572 262.892 89.3501 247.361 77.396H247.352Z" stroke="#1D074F" stroke-width="3.2" stroke-miterlimit="10"/>
<path d="M209.38 103.439C203.854 96.7572 195.275 93.9058 186.628 94.9941C183.937 103.278 185.118 112.246 190.643 118.928C196.169 125.609 204.749 128.46 213.396 127.372C216.087 119.088 214.906 110.12 209.38 103.439Z" fill="#1D074F"/>
<path d="M246.642 118.928C241.116 125.609 232.536 128.46 223.889 127.372C221.198 119.088 222.379 110.12 227.905 103.439C233.431 96.7572 242.01 93.9058 250.657 94.9941C253.349 103.278 252.167 112.246 246.642 118.928Z" fill="#1D074F"/>
<path d="M239.168 138.128C235.844 145.982 228.066 151.491 219.005 151.491C209.945 151.491 202.268 146.058 198.91 138.28" stroke="#1D074F" stroke-width="3.2" stroke-linecap="round" stroke-linejoin="round"/>
<path d="M202.985 133.708C202.2 136.382 199.737 138.331 196.818 138.331C194.819 138.331 193.038 137.42 191.857 135.986" stroke="#1D074F" stroke-width="3.2" stroke-linecap="round" stroke-linejoin="round"/>
<path d="M245.435 135.935C244.254 137.394 242.449 138.331 240.433 138.331C238.096 138.331 236.046 137.082 234.924 135.209" stroke="#1D074F" stroke-width="3.2" stroke-linecap="round" stroke-linejoin="round"/>
<path d="M254.489 91.9146C253.873 91.9146 253.341 91.4675 253.24 90.8601C252.186 84.6511 251.68 84.1449 245.471 83.0904C244.863 82.9892 244.416 82.4577 244.416 81.8418C244.416 81.226 244.863 80.6945 245.471 80.5933C251.68 79.5388 252.186 79.0326 253.24 72.8236C253.341 72.2162 253.873 71.769 254.489 71.769C255.105 71.769 255.636 72.2162 255.737 72.8236C256.792 79.0326 257.298 79.5388 263.507 80.5933C264.114 80.6945 264.562 81.226 264.562 81.8418C264.562 82.4577 264.114 82.9892 263.507 83.0904C257.298 84.1449 256.792 84.6511 255.737 90.8601C255.636 91.4675 255.105 91.9146 254.489 91.9146Z" fill="white"/>
<path d="M254.489 73.0345C255.627 79.775 256.555 80.703 263.296 81.8419C256.555 82.9808 255.627 83.9088 254.489 90.6493C253.35 83.9088 252.422 82.9808 245.681 81.8419C252.422 80.703 253.35 79.775 254.489 73.0345ZM254.489 70.5037C253.257 70.5037 252.202 71.3979 251.992 72.6127C251.536 75.3123 251.131 77.0164 250.397 77.7503C249.663 78.4843 247.959 78.8892 245.259 79.3448C244.045 79.5472 243.15 80.6018 243.15 81.8419C243.15 83.082 244.045 84.1281 245.259 84.339C247.959 84.7946 249.663 85.1995 250.397 85.9334C251.131 86.6674 251.536 88.3715 251.992 91.0711C252.194 92.2859 253.248 93.1801 254.489 93.1801C255.729 93.1801 256.775 92.2859 256.986 91.0711C257.441 88.3715 257.846 86.6674 258.58 85.9334C259.314 85.1995 261.018 84.7946 263.718 84.339C264.933 84.1365 265.827 83.082 265.827 81.8419C265.827 80.6018 264.933 79.5557 263.718 79.3448C261.018 78.8892 259.314 78.4843 258.58 77.7503C257.846 77.0164 257.441 75.3123 256.986 72.6127C256.783 71.3979 255.729 70.5037 254.489 70.5037Z" fill="#1D074F"/>
<path d="M190.737 170.743C190.121 170.743 189.59 170.295 189.488 169.688C188.434 163.479 187.928 162.973 181.719 161.918C181.111 161.817 180.664 161.286 180.664 160.67C180.664 160.054 181.111 159.522 181.719 159.421C187.928 158.367 188.434 157.86 189.488 151.651C189.59 151.044 190.121 150.597 190.737 150.597C191.353 150.597 191.884 151.044 191.985 151.651C193.04 157.86 193.546 158.367 199.755 159.421C200.363 159.522 200.81 160.054 200.81 160.67C200.81 161.286 200.363 161.817 199.755 161.918C193.546 162.973 193.04 163.479 191.985 169.688C191.884 170.295 191.353 170.743 190.737 170.743Z" fill="white"/>
<path d="M190.737 151.871C191.876 158.611 192.804 159.539 199.544 160.678C192.804 161.817 191.876 162.745 190.737 169.485C189.598 162.745 188.67 161.817 181.929 160.678C188.67 159.539 189.598 158.611 190.737 151.871ZM190.737 149.34C189.505 149.34 188.45 150.234 188.24 151.449C187.784 154.148 187.379 155.853 186.645 156.587C185.911 157.32 184.207 157.725 181.507 158.181C180.293 158.383 179.398 159.438 179.398 160.678C179.398 161.91 180.293 162.964 181.507 163.175C184.207 163.631 185.911 164.036 186.645 164.77C187.379 165.504 187.784 167.208 188.24 169.907C188.442 171.122 189.497 172.016 190.737 172.016C191.968 172.016 193.023 171.122 193.234 169.907C193.689 167.208 194.094 165.504 194.828 164.77C195.562 164.036 197.266 163.631 199.966 163.175C201.181 162.973 202.075 161.918 202.075 160.678C202.075 159.446 201.181 158.392 199.966 158.181C197.266 157.725 195.562 157.32 194.828 156.587C194.094 155.853 193.689 154.148 193.234 151.449C193.031 150.234 191.977 149.34 190.737 149.34Z" fill="#1D074F"/>
<path d="M279.477 151.795C278.861 151.795 278.33 151.348 278.229 150.74C277.174 144.531 276.668 144.025 270.459 142.971C269.851 142.869 269.404 142.338 269.404 141.722C269.404 141.106 269.851 140.575 270.459 140.473C276.668 139.419 277.174 138.913 278.229 132.704C278.33 132.096 278.861 131.649 279.477 131.649C280.093 131.649 280.624 132.096 280.726 132.704C281.78 138.913 282.286 139.419 288.495 140.473C289.103 140.575 289.55 141.106 289.55 141.722C289.55 142.338 289.103 142.869 288.495 142.971C282.286 144.025 281.78 144.531 280.726 150.74C280.624 151.348 280.093 151.795 279.477 151.795Z" fill="white"/>
<path d="M279.477 132.915C280.616 139.655 281.544 140.583 288.284 141.722C281.544 142.861 280.616 143.789 279.477 150.529C278.338 143.789 277.41 142.861 270.67 141.722C277.41 140.583 278.338 139.655 279.477 132.915ZM279.477 130.384C278.245 130.384 277.191 131.278 276.98 132.493C276.524 135.192 276.119 136.897 275.385 137.63C274.651 138.364 272.947 138.769 270.248 139.225C269.033 139.427 268.139 140.482 268.139 141.722C268.139 142.954 269.033 144.008 270.248 144.219C272.947 144.675 274.651 145.08 275.385 145.814C276.119 146.548 276.524 148.252 276.98 150.951C277.182 152.166 278.237 153.06 279.477 153.06C280.717 153.06 281.763 152.166 281.974 150.951C282.43 148.252 282.834 146.548 283.568 145.814C284.302 145.08 286.006 144.675 288.706 144.219C289.921 144.017 290.815 142.962 290.815 141.722C290.815 140.49 289.921 139.436 288.706 139.225C286.006 138.769 284.302 138.364 283.568 137.63C282.834 136.897 282.43 135.192 281.974 132.493C281.772 131.278 280.717 130.384 279.477 130.384Z" fill="#1D074F"/>
</g>
</g>
<defs>
<filter id="filter0_d_756_4337" x="11" y="124" width="56" height="36.9551" filterUnits="userSpaceOnUse" color-interpolation-filters="sRGB">
<feFlood flood-opacity="0" result="BackgroundImageFix"/>
<feColorMatrix in="SourceAlpha" type="matrix" values="0 0 0 0 0 0 0 0 0 0 0 0 0 0 0 0 0 0 127 0" result="hardAlpha"/>
<feOffset dx="3" dy="1"/>
<feGaussianBlur stdDeviation="2"/>
<feColorMatrix type="matrix" values="0 0 0 0 0.6 0 0 0 0 0.6 0 0 0 0 0.6 0 0 0 0.3 0"/>
<feBlend mode="normal" in2="BackgroundImageFix" result="effect1_dropShadow_756_4337"/>
<feBlend mode="normal" in="SourceGraphic" in2="effect1_dropShadow_756_4337" result="shape"/>
</filter>
<filter id="filter1_d_756_4337" x="121" y="-22" width="74.5723" height="61" filterUnits="userSpaceOnUse" color-interpolation-filters="sRGB">
<feFlood flood-opacity="0" result="BackgroundImageFix"/>
<feColorMatrix in="SourceAlpha" type="matrix" values="0 0 0 0 0 0 0 0 0 0 0 0 0 0 0 0 0 0 127 0" result="hardAlpha"/>
<feOffset dx="1" dy="1"/>
<feGaussianBlur stdDeviation="2"/>
<feColorMatrix type="matrix" values="0 0 0 0 0.6 0 0 0 0 0.6 0 0 0 0 0.6 0 0 0 0.3 0"/>
<feBlend mode="normal" in2="BackgroundImageFix" result="effect1_dropShadow_756_4337"/>
<feBlend mode="normal" in="SourceGraphic" in2="effect1_dropShadow_756_4337" result="shape"/>
</filter>
<filter id="filter2_d_756_4337" x="166.5" y="60.5" width="134.379" height="138.866" filterUnits="userSpaceOnUse" color-interpolation-filters="sRGB">
<feFlood flood-opacity="0" result="BackgroundImageFix"/>
<feColorMatrix in="SourceAlpha" type="matrix" values="0 0 0 0 0 0 0 0 0 0 0 0 0 0 0 0 0 0 127 0" result="hardAlpha"/>
<feOffset dx="3" dy="1"/>
<feGaussianBlur stdDeviation="2"/>
<feColorMatrix type="matrix" values="0 0 0 0 0.6 0 0 0 0 0.6 0 0 0 0 0.6 0 0 0 0.3 0"/>
<feBlend mode="normal" in2="BackgroundImageFix" result="effect1_dropShadow_756_4337"/>
<feBlend mode="normal" in="SourceGraphic" in2="effect1_dropShadow_756_4337" result="shape"/>
</filter>
<linearGradient id="paint0_linear_756_4337" x1="35.9964" y1="129.824" x2="35.9964" y2="153.138" gradientUnits="userSpaceOnUse">
<stop offset="0.03" stop-color="#0FD2E2"/>
<stop offset="1" stop-color="#0F8EE2"/>
</linearGradient>
<linearGradient id="paint1_linear_756_4337" x1="156.86" y1="-11.7198" x2="156.86" y2="29.9064" gradientUnits="userSpaceOnUse">
<stop offset="0.02" stop-color="#FF0FE0"/>
<stop offset="0.96" stop-color="#FF63BE"/>
</linearGradient>
<linearGradient id="paint2_linear_756_4337" x1="160.006" y1="-14.9186" x2="160.006" y2="16.013" gradientUnits="userSpaceOnUse">
<stop offset="0.02" stop-color="#FF0FE0"/>
<stop offset="0.96" stop-color="#FF63BE"/>
</linearGradient>
<linearGradient id="paint3_linear_756_4337" x1="160.113" y1="-7.93801" x2="160.113" y2="6.66029" gradientUnits="userSpaceOnUse">
<stop offset="0.02" stop-color="#FF0FE0"/>
<stop offset="0.96" stop-color="#FF63BE"/>
</linearGradient>
<linearGradient id="paint4_linear_756_4337" x1="236.823" y1="78.6278" x2="236.823" y2="189.968" gradientUnits="userSpaceOnUse">
<stop offset="0.03" stop-color="#FDFE0C"/>
<stop offset="0.95" stop-color="#FDCC0C"/>
</linearGradient>
<linearGradient id="paint5_linear_756_4337" x1="232.328" y1="75.9281" x2="232.328" y2="187.269" gradientUnits="userSpaceOnUse">
<stop offset="0.04" stop-color="#FF63BE"/>
<stop offset="0.98" stop-color="#FF0FE0"/>
</linearGradient>
<linearGradient id="paint6_linear_756_4337" x1="223.334" y1="70.5375" x2="223.334" y2="181.878" gradientUnits="userSpaceOnUse">
<stop offset="0.03" stop-color="#0FD2E2"/>
<stop offset="1" stop-color="#0F8EE2"/>
</linearGradient>
<linearGradient id="paint7_linear_756_4337" x1="218.838" y1="67.8378" x2="218.838" y2="179.179" gradientUnits="userSpaceOnUse">
<stop offset="0.01" stop-color="#4AD800"/>
<stop offset="0.27" stop-color="#46D500"/>
<stop offset="0.49" stop-color="#3BCE00"/>
<stop offset="0.71" stop-color="#2AC200"/>
<stop offset="0.91" stop-color="#11B100"/>
<stop offset="1" stop-color="#03A800"/>
</linearGradient>
<clipPath id="clip0_756_4337">
<rect width="312" height="176" rx="40" fill="white"/>
</clipPath>
</defs>
</svg>
