<svg width="312" height="176" viewBox="0 0 312 176" fill="none" xmlns="http://www.w3.org/2000/svg">
<g clip-path="url(#clip0_756_4343)">
<rect width="312" height="176" rx="40" fill="#4AD800"/>
<rect width="312" height="176" rx="40" fill="#4AD800"/>
<path d="M30.58 60.5C31.54 60.5 32.338 60.668 32.974 61.004C33.622 61.34 34.132 61.802 34.504 62.39C34.888 62.966 35.158 63.632 35.314 64.388C35.482 65.144 35.566 65.936 35.566 66.764V67.628C35.566 69.704 35.05 71.306 34.018 72.434C32.986 73.55 31.492 74.108 29.536 74.108C29.068 74.108 28.672 74.096 28.348 74.072C28.024 74.048 27.67 74.012 27.286 73.964V72.488C27.682 72.536 28.048 72.572 28.384 72.596C28.72 72.62 29.128 72.632 29.608 72.632C30.7 72.632 31.564 72.428 32.2 72.02C32.836 71.612 33.292 71.03 33.568 70.274C33.844 69.506 33.982 68.582 33.982 67.502V66.692L34.414 65.09C34.402 66.038 34.216 66.824 33.856 67.448C33.508 68.072 33.022 68.54 32.398 68.852C31.786 69.164 31.078 69.32 30.274 69.32C29.338 69.32 28.546 69.134 27.898 68.762C27.25 68.378 26.758 67.856 26.422 67.196C26.098 66.536 25.936 65.786 25.936 64.946C25.936 64.094 26.11 63.332 26.458 62.66C26.806 61.988 27.322 61.46 28.006 61.076C28.702 60.692 29.56 60.5 30.58 60.5ZM30.58 62.012C29.92 62.012 29.368 62.138 28.924 62.39C28.48 62.642 28.144 62.99 27.916 63.434C27.7 63.866 27.592 64.37 27.592 64.946C27.592 65.522 27.7 66.032 27.916 66.476C28.132 66.92 28.45 67.268 28.87 67.52C29.302 67.76 29.83 67.88 30.454 67.88C31.066 67.88 31.612 67.766 32.092 67.538C32.584 67.31 32.968 66.98 33.244 66.548C33.52 66.104 33.658 65.564 33.658 64.928C33.658 64.4 33.55 63.914 33.334 63.47C33.118 63.026 32.782 62.672 32.326 62.408C31.87 62.144 31.288 62.012 30.58 62.012ZM37.7292 70.886V68.762L43.1832 60.536L44.3892 61.49L39.2952 69.194L39.4572 69.518H47.9532V70.886H37.7292ZM44.5872 74V64.694H46.2072V74H44.5872ZM52.0861 74V61.724L52.8781 62.336H49.1701V60.86H53.8141V74H52.0861ZM57.2867 74V71.804H59.3747V74H57.2867ZM67.3796 74.324C66.3956 74.324 65.5556 74.156 64.8596 73.82C64.1756 73.472 63.6176 73.004 63.1856 72.416C62.7656 71.828 62.4596 71.15 62.2676 70.382C62.0756 69.602 61.9796 68.78 61.9796 67.916V66.944C61.9796 65.732 62.1656 64.64 62.5376 63.668C62.9216 62.696 63.5096 61.928 64.3016 61.364C65.1056 60.788 66.1316 60.5 67.3796 60.5C68.6276 60.5 69.6476 60.788 70.4396 61.364C71.2316 61.928 71.8136 62.696 72.1856 63.668C72.5696 64.64 72.7616 65.732 72.7616 66.944V67.916C72.7616 68.78 72.6656 69.602 72.4736 70.382C72.2816 71.15 71.9696 71.828 71.5376 72.416C71.1176 73.004 70.5656 73.472 69.8816 73.82C69.1976 74.156 68.3636 74.324 67.3796 74.324ZM67.3796 72.74C68.6276 72.74 69.5396 72.32 70.1156 71.48C70.7036 70.628 70.9976 69.284 70.9976 67.448C70.9976 65.528 70.6976 64.154 70.0976 63.326C69.5096 62.498 68.6036 62.084 67.3796 62.084C66.1436 62.084 65.2256 62.498 64.6256 63.326C64.0376 64.154 63.7436 65.516 63.7436 67.412C63.7436 69.26 64.0376 70.61 64.6256 71.462C65.2136 72.314 66.1316 72.74 67.3796 72.74ZM80.7565 74.324C79.7725 74.324 78.9325 74.156 78.2365 73.82C77.5525 73.472 76.9945 73.004 76.5625 72.416C76.1425 71.828 75.8365 71.15 75.6445 70.382C75.4525 69.602 75.3565 68.78 75.3565 67.916V66.944C75.3565 65.732 75.5425 64.64 75.9145 63.668C76.2985 62.696 76.8865 61.928 77.6785 61.364C78.4825 60.788 79.5085 60.5 80.7565 60.5C82.0045 60.5 83.0245 60.788 83.8165 61.364C84.6085 61.928 85.1905 62.696 85.5625 63.668C85.9465 64.64 86.1385 65.732 86.1385 66.944V67.916C86.1385 68.78 86.0425 69.602 85.8505 70.382C85.6585 71.15 85.3465 71.828 84.9145 72.416C84.4945 73.004 83.9425 73.472 83.2585 73.82C82.5745 74.156 81.7405 74.324 80.7565 74.324ZM80.7565 72.74C82.0045 72.74 82.9165 72.32 83.4925 71.48C84.0805 70.628 84.3745 69.284 84.3745 67.448C84.3745 65.528 84.0745 64.154 83.4745 63.326C82.8865 62.498 81.9805 62.084 80.7565 62.084C79.5205 62.084 78.6025 62.498 78.0025 63.326C77.4145 64.154 77.1205 65.516 77.1205 67.412C77.1205 69.26 77.4145 70.61 78.0025 71.462C78.5905 72.314 79.5085 72.74 80.7565 72.74Z" fill="black"/>
<path d="M27.48 45V38.38H28.46V45H27.48ZM25.26 38.58V37.7H30.68V38.58H25.26ZM33.673 45.18C33.2063 45.18 32.7963 45.1 32.443 44.94C32.0896 44.78 31.7896 44.57 31.543 44.31C31.303 44.0433 31.1196 43.7467 30.993 43.42C30.873 43.0933 30.813 42.76 30.813 42.42V42.24C30.813 41.9 30.8763 41.5667 31.003 41.24C31.1296 40.9067 31.3163 40.61 31.563 40.35C31.8096 40.0833 32.1096 39.8733 32.463 39.72C32.8163 39.56 33.2196 39.48 33.673 39.48C34.1263 39.48 34.5296 39.56 34.883 39.72C35.2363 39.8733 35.5363 40.0833 35.783 40.35C36.0296 40.61 36.2163 40.9067 36.343 41.24C36.4696 41.5667 36.533 41.9 36.533 42.24V42.42C36.533 42.76 36.4696 43.0933 36.343 43.42C36.223 43.7467 36.0396 44.0433 35.793 44.31C35.553 44.57 35.2563 44.78 34.903 44.94C34.5496 45.1 34.1396 45.18 33.673 45.18ZM33.673 44.32C34.073 44.32 34.413 44.2333 34.693 44.06C34.9796 43.88 35.1963 43.64 35.343 43.34C35.4963 43.04 35.573 42.7033 35.573 42.33C35.573 41.95 35.4963 41.61 35.343 41.31C35.1896 41.01 34.9696 40.7733 34.683 40.6C34.403 40.4267 34.0663 40.34 33.673 40.34C33.2863 40.34 32.9496 40.4267 32.663 40.6C32.3763 40.7733 32.1563 41.01 32.003 41.31C31.8496 41.61 31.773 41.95 31.773 42.33C31.773 42.7033 31.8463 43.04 31.993 43.34C32.1463 43.64 32.363 43.88 32.643 44.06C32.9296 44.2333 33.273 44.32 33.673 44.32ZM40.0508 45.06C39.6508 45.06 39.3041 45.0033 39.0108 44.89C38.7241 44.7767 38.5008 44.5833 38.3408 44.31C38.1874 44.03 38.1108 43.6533 38.1108 43.18V38.04H39.0308V43.3C39.0308 43.5867 39.1074 43.81 39.2608 43.97C39.4208 44.1233 39.6441 44.2 39.9308 44.2H40.8708V45.06H40.0508ZM37.1908 40.38V39.66H40.8708V40.38H37.1908ZM45.4391 45V43.4H45.2791V41.55C45.2791 41.1833 45.1824 40.9067 44.9891 40.72C44.8024 40.5333 44.5257 40.44 44.1591 40.44C43.9524 40.44 43.7391 40.4433 43.5191 40.45C43.2991 40.4567 43.0891 40.4633 42.8891 40.47C42.6891 40.4767 42.5157 40.4867 42.3691 40.5V39.66C42.5157 39.6467 42.6691 39.6367 42.8291 39.63C42.9957 39.6167 43.1657 39.61 43.3391 39.61C43.5124 39.6033 43.6791 39.6 43.8391 39.6C44.3857 39.6 44.8324 39.6667 45.1791 39.8C45.5257 39.9267 45.7824 40.1367 45.9491 40.43C46.1157 40.7233 46.1991 41.12 46.1991 41.62V45H45.4391ZM43.6891 45.14C43.2891 45.14 42.9424 45.0733 42.6491 44.94C42.3624 44.8 42.1391 44.6 41.9791 44.34C41.8257 44.08 41.7491 43.7667 41.7491 43.4C41.7491 43.02 41.8324 42.7033 41.9991 42.45C42.1724 42.1967 42.4224 42.0067 42.7491 41.88C43.0757 41.7467 43.4691 41.68 43.9291 41.68H45.3791V42.4H43.8891C43.5024 42.4 43.2057 42.4933 42.9991 42.68C42.7924 42.8667 42.6891 43.1067 42.6891 43.4C42.6891 43.6933 42.7924 43.93 42.9991 44.11C43.2057 44.29 43.5024 44.38 43.8891 44.38C44.1157 44.38 44.3324 44.34 44.5391 44.26C44.7457 44.1733 44.9157 44.0333 45.0491 43.84C45.1891 43.64 45.2657 43.3667 45.2791 43.02L45.5391 43.4C45.5057 43.78 45.4124 44.1 45.2591 44.36C45.1124 44.6133 44.9057 44.8067 44.6391 44.94C44.3791 45.0733 44.0624 45.14 43.6891 45.14ZM48.021 45V37.7H48.981V45H48.021ZM47.281 38.46V37.7H48.981V38.46H47.281ZM54.0177 45.04V44.18H56.0577C56.4511 44.18 56.7544 44.07 56.9677 43.85C57.1877 43.6233 57.2977 43.3233 57.2977 42.95C57.2977 42.57 57.1911 42.2733 56.9777 42.06C56.7644 41.84 56.4577 41.73 56.0577 41.73H54.0177V41.09H55.9177C56.3844 41.09 56.7944 41.1467 57.1477 41.26C57.5077 41.3733 57.7877 41.5633 57.9877 41.83C58.1944 42.09 58.2977 42.4467 58.2977 42.9V43.04C58.2977 43.4667 58.2111 43.83 58.0377 44.13C57.8644 44.4233 57.6011 44.65 57.2477 44.81C56.8944 44.9633 56.4511 45.04 55.9177 45.04H54.0177ZM53.2377 45.04V37.66H54.2177V45.04H53.2377ZM54.0177 41.55V40.91H55.7877C56.2011 40.91 56.5044 40.8 56.6977 40.58C56.8977 40.3533 56.9977 40.0667 56.9977 39.72C56.9977 39.3667 56.8977 39.08 56.6977 38.86C56.5044 38.6333 56.2011 38.52 55.7877 38.52H54.0177V37.66H55.6177C56.4177 37.66 57.0144 37.83 57.4077 38.17C57.8011 38.5033 57.9977 38.9867 57.9977 39.62V39.76C57.9977 40.2067 57.8977 40.5633 57.6977 40.83C57.4977 41.09 57.2177 41.2767 56.8577 41.39C56.5044 41.4967 56.0911 41.55 55.6177 41.55H54.0177ZM63.1246 45V43.4H62.9646V41.55C62.9646 41.1833 62.8679 40.9067 62.6746 40.72C62.4879 40.5333 62.2113 40.44 61.8446 40.44C61.6379 40.44 61.4246 40.4433 61.2046 40.45C60.9846 40.4567 60.7746 40.4633 60.5746 40.47C60.3746 40.4767 60.2013 40.4867 60.0546 40.5V39.66C60.2013 39.6467 60.3546 39.6367 60.5146 39.63C60.6813 39.6167 60.8513 39.61 61.0246 39.61C61.1979 39.6033 61.3646 39.6 61.5246 39.6C62.0713 39.6 62.5179 39.6667 62.8646 39.8C63.2113 39.9267 63.4679 40.1367 63.6346 40.43C63.8013 40.7233 63.8846 41.12 63.8846 41.62V45H63.1246ZM61.3746 45.14C60.9746 45.14 60.6279 45.0733 60.3346 44.94C60.0479 44.8 59.8246 44.6 59.6646 44.34C59.5113 44.08 59.4346 43.7667 59.4346 43.4C59.4346 43.02 59.5179 42.7033 59.6846 42.45C59.8579 42.1967 60.1079 42.0067 60.4346 41.88C60.7613 41.7467 61.1546 41.68 61.6146 41.68H63.0646V42.4H61.5746C61.1879 42.4 60.8913 42.4933 60.6846 42.68C60.4779 42.8667 60.3746 43.1067 60.3746 43.4C60.3746 43.6933 60.4779 43.93 60.6846 44.11C60.8913 44.29 61.1879 44.38 61.5746 44.38C61.8013 44.38 62.0179 44.34 62.2246 44.26C62.4313 44.1733 62.6013 44.0333 62.7346 43.84C62.8746 43.64 62.9513 43.3667 62.9646 43.02L63.2246 43.4C63.1913 43.78 63.0979 44.1 62.9446 44.36C62.7979 44.6133 62.5913 44.8067 62.3246 44.94C62.0646 45.0733 61.7479 45.14 61.3746 45.14ZM65.7066 45V37.7H66.6666V45H65.7066ZM64.9666 38.46V37.7H66.6666V38.46H64.9666ZM71.7379 45V43.4H71.5779V41.55C71.5779 41.1833 71.4812 40.9067 71.2879 40.72C71.1012 40.5333 70.8246 40.44 70.4579 40.44C70.2512 40.44 70.0379 40.4433 69.8179 40.45C69.5979 40.4567 69.3879 40.4633 69.1879 40.47C68.9879 40.4767 68.8146 40.4867 68.6679 40.5V39.66C68.8146 39.6467 68.9679 39.6367 69.1279 39.63C69.2946 39.6167 69.4646 39.61 69.6379 39.61C69.8112 39.6033 69.9779 39.6 70.1379 39.6C70.6846 39.6 71.1312 39.6667 71.4779 39.8C71.8246 39.9267 72.0812 40.1367 72.2479 40.43C72.4146 40.7233 72.4979 41.12 72.4979 41.62V45H71.7379ZM69.9879 45.14C69.5879 45.14 69.2412 45.0733 68.9479 44.94C68.6612 44.8 68.4379 44.6 68.2779 44.34C68.1246 44.08 68.0479 43.7667 68.0479 43.4C68.0479 43.02 68.1312 42.7033 68.2979 42.45C68.4712 42.1967 68.7212 42.0067 69.0479 41.88C69.3746 41.7467 69.7679 41.68 70.2279 41.68H71.6779V42.4H70.1879C69.8012 42.4 69.5046 42.4933 69.2979 42.68C69.0912 42.8667 68.9879 43.1067 68.9879 43.4C68.9879 43.6933 69.0912 43.93 69.2979 44.11C69.5046 44.29 69.8012 44.38 70.1879 44.38C70.4146 44.38 70.6312 44.34 70.8379 44.26C71.0446 44.1733 71.2146 44.0333 71.3479 43.84C71.4879 43.64 71.5646 43.3667 71.5779 43.02L71.8379 43.4C71.8046 43.78 71.7112 44.1 71.5579 44.36C71.4112 44.6133 71.2046 44.8067 70.9379 44.94C70.6779 45.0733 70.3612 45.14 69.9879 45.14ZM74.2598 45V39.66H75.0198V41.95H74.8998C74.8998 41.4233 74.9698 40.98 75.1098 40.62C75.2565 40.2533 75.4765 39.9767 75.7698 39.79C76.0632 39.5967 76.4332 39.5 76.8798 39.5H76.9198C77.5932 39.5 78.0898 39.71 78.4098 40.13C78.7365 40.55 78.8998 41.1567 78.8998 41.95V45H77.9398V41.75C77.9398 41.3367 77.8232 41.0067 77.5898 40.76C77.3565 40.5067 77.0365 40.38 76.6298 40.38C76.2098 40.38 75.8698 40.51 75.6098 40.77C75.3498 41.03 75.2198 41.3767 75.2198 41.81V45H74.2598ZM82.9463 45.18C82.4863 45.18 82.0863 45.1 81.7463 44.94C81.413 44.78 81.1363 44.5667 80.9163 44.3C80.6963 44.0267 80.5297 43.7267 80.4163 43.4C80.3097 43.0733 80.2563 42.7467 80.2563 42.42V42.24C80.2563 41.9 80.3097 41.5667 80.4163 41.24C80.5297 40.9133 80.6963 40.62 80.9163 40.36C81.143 40.0933 81.423 39.88 81.7563 39.72C82.0897 39.56 82.4797 39.48 82.9263 39.48C83.373 39.48 83.773 39.5633 84.1263 39.73C84.4863 39.8967 84.773 40.1333 84.9863 40.44C85.2063 40.74 85.3297 41.0967 85.3563 41.51H84.4363C84.3897 41.1767 84.2363 40.9 83.9763 40.68C83.7163 40.4533 83.3663 40.34 82.9263 40.34C82.5463 40.34 82.2297 40.4267 81.9763 40.6C81.723 40.7733 81.533 41.01 81.4063 41.31C81.2797 41.61 81.2163 41.95 81.2163 42.33C81.2163 42.6967 81.2797 43.0333 81.4063 43.34C81.533 43.64 81.723 43.88 81.9763 44.06C82.2363 44.2333 82.5597 44.32 82.9463 44.32C83.2463 44.32 83.5063 44.2667 83.7263 44.16C83.9463 44.0533 84.123 43.91 84.2563 43.73C84.3897 43.55 84.4697 43.3467 84.4963 43.12H85.4163C85.3963 43.54 85.273 43.9033 85.0463 44.21C84.8263 44.5167 84.533 44.7567 84.1663 44.93C83.8063 45.0967 83.3997 45.18 82.9463 45.18ZM88.9908 45.18C88.5241 45.18 88.1208 45.1 87.7808 44.94C87.4408 44.78 87.1641 44.57 86.9508 44.31C86.7374 44.0433 86.5774 43.7467 86.4708 43.42C86.3708 43.0933 86.3208 42.76 86.3208 42.42V42.24C86.3208 41.8933 86.3708 41.5567 86.4708 41.23C86.5774 40.9033 86.7374 40.61 86.9508 40.35C87.1641 40.0833 87.4341 39.8733 87.7608 39.72C88.0941 39.56 88.4841 39.48 88.9308 39.48C89.5108 39.48 89.9874 39.6067 90.3608 39.86C90.7408 40.1067 91.0208 40.4267 91.2008 40.82C91.3874 41.2133 91.4808 41.6333 91.4808 42.08V42.51H86.7408V41.79H90.7808L90.5608 42.18C90.5608 41.8 90.5008 41.4733 90.3808 41.2C90.2608 40.92 90.0808 40.7033 89.8408 40.55C89.6008 40.3967 89.2974 40.32 88.9308 40.32C88.5508 40.32 88.2341 40.4067 87.9808 40.58C87.7341 40.7533 87.5474 40.99 87.4208 41.29C87.3008 41.59 87.2408 41.9367 87.2408 42.33C87.2408 42.71 87.3008 43.0533 87.4208 43.36C87.5474 43.66 87.7408 43.9 88.0008 44.08C88.2608 44.2533 88.5908 44.34 88.9908 44.34C89.4108 44.34 89.7508 44.2467 90.0108 44.06C90.2774 43.8733 90.4374 43.6567 90.4908 43.41H91.3908C91.3174 43.7767 91.1708 44.0933 90.9508 44.36C90.7308 44.6267 90.4541 44.83 90.1208 44.97C89.7874 45.11 89.4108 45.18 88.9908 45.18ZM95.6392 47V37.7H96.4992V47H95.6392ZM104.535 45.18C103.968 45.18 103.455 45.0867 102.995 44.9C102.535 44.7133 102.138 44.45 101.805 44.11C101.478 43.77 101.225 43.37 101.045 42.91C100.865 42.4433 100.775 41.9367 100.775 41.39V41.17C100.775 40.7033 100.855 40.2533 101.015 39.82C101.182 39.38 101.418 38.9867 101.725 38.64C102.038 38.2867 102.418 38.01 102.865 37.81C103.312 37.6033 103.815 37.5 104.375 37.5C104.982 37.5 105.522 37.6167 105.995 37.85C106.468 38.0767 106.848 38.3967 107.135 38.81C107.422 39.2167 107.588 39.69 107.635 40.23H106.635C106.588 39.8233 106.455 39.4867 106.235 39.22C106.015 38.9467 105.742 38.7433 105.415 38.61C105.095 38.47 104.748 38.4 104.375 38.4C103.995 38.4 103.645 38.47 103.325 38.61C103.005 38.7433 102.728 38.9367 102.495 39.19C102.268 39.4433 102.092 39.7467 101.965 40.1C101.838 40.4533 101.775 40.85 101.775 41.29C101.775 41.79 101.842 42.23 101.975 42.61C102.115 42.9833 102.308 43.2967 102.555 43.55C102.802 43.7967 103.092 43.9833 103.425 44.11C103.765 44.2367 104.135 44.3 104.535 44.3C105.102 44.3 105.598 44.1867 106.025 43.96C106.458 43.7267 106.785 43.4267 107.005 43.06L106.645 44.25V42.08H107.565V43.82C107.238 44.2467 106.818 44.58 106.305 44.82C105.792 45.06 105.202 45.18 104.535 45.18ZM104.275 42.28V41.46H108.185V42.28H104.275ZM114.525 45V37.7H115.505V45H114.525ZM109.585 45V37.7H110.565V45H109.585ZM110.365 41.81V40.93H114.725V41.81H110.365ZM119.993 45.18C119.386 45.18 118.869 45.08 118.443 44.88C118.016 44.68 117.689 44.4033 117.463 44.05C117.236 43.6967 117.123 43.2967 117.123 42.85H118.103C118.103 43.07 118.159 43.29 118.273 43.51C118.393 43.73 118.589 43.9133 118.863 44.06C119.143 44.2067 119.519 44.28 119.993 44.28C120.433 44.28 120.793 44.2167 121.073 44.09C121.353 43.9567 121.559 43.7867 121.693 43.58C121.826 43.3667 121.893 43.1367 121.893 42.89C121.893 42.59 121.763 42.3433 121.503 42.15C121.243 41.95 120.863 41.8267 120.363 41.78L119.553 41.71C118.906 41.6567 118.389 41.4567 118.003 41.11C117.616 40.7633 117.423 40.3067 117.423 39.74C117.423 39.2933 117.529 38.9033 117.743 38.57C117.963 38.2367 118.266 37.9767 118.653 37.79C119.039 37.5967 119.489 37.5 120.003 37.5C120.509 37.5 120.956 37.5933 121.343 37.78C121.729 37.9667 122.029 38.23 122.243 38.57C122.463 38.9033 122.573 39.3033 122.573 39.77H121.593C121.593 39.5367 121.536 39.3167 121.423 39.11C121.316 38.9033 121.146 38.7333 120.913 38.6C120.679 38.4667 120.376 38.4 120.003 38.4C119.643 38.4 119.343 38.4633 119.103 38.59C118.869 38.7167 118.693 38.8833 118.573 39.09C118.459 39.29 118.403 39.5067 118.403 39.74C118.403 40.0067 118.506 40.2433 118.713 40.45C118.919 40.6567 119.226 40.7767 119.633 40.81L120.443 40.88C120.943 40.92 121.373 41.0267 121.733 41.2C122.099 41.3667 122.379 41.5933 122.573 41.88C122.773 42.16 122.873 42.4967 122.873 42.89C122.873 43.3367 122.753 43.7333 122.513 44.08C122.273 44.4267 121.936 44.6967 121.503 44.89C121.069 45.0833 120.566 45.18 119.993 45.18Z" fill="black"/>
<path d="M238.49 43.2C237.957 43.2 237.51 43.1067 237.15 42.92C236.797 42.7333 236.513 42.48 236.3 42.16C236.093 41.8333 235.943 41.46 235.85 41.04C235.763 40.62 235.72 40.18 235.72 39.72V39.24C235.72 38.0867 236.007 37.2 236.58 36.58C237.153 35.9533 237.983 35.64 239.07 35.64C239.33 35.64 239.55 35.6467 239.73 35.66C239.91 35.6733 240.107 35.6933 240.32 35.72V36.54C240.1 36.5133 239.897 36.4933 239.71 36.48C239.523 36.4667 239.297 36.46 239.03 36.46C238.423 36.46 237.943 36.5733 237.59 36.8C237.237 37.0267 236.983 37.3533 236.83 37.78C236.677 38.2 236.6 38.71 236.6 39.31V39.76L236.36 40.65C236.367 40.1233 236.467 39.6867 236.66 39.34C236.86 38.9933 237.13 38.7333 237.47 38.56C237.817 38.3867 238.213 38.3 238.66 38.3C239.18 38.3 239.62 38.4067 239.98 38.62C240.34 38.8267 240.61 39.1133 240.79 39.48C240.977 39.8467 241.07 40.2633 241.07 40.73C241.07 41.2033 240.973 41.6267 240.78 42C240.587 42.3733 240.297 42.6667 239.91 42.88C239.53 43.0933 239.057 43.2 238.49 43.2ZM238.49 42.36C238.857 42.36 239.163 42.29 239.41 42.15C239.657 42.01 239.84 41.82 239.96 41.58C240.087 41.3333 240.15 41.05 240.15 40.73C240.15 40.41 240.09 40.1267 239.97 39.88C239.85 39.6333 239.67 39.4433 239.43 39.31C239.197 39.17 238.907 39.1 238.56 39.1C238.22 39.1 237.913 39.1633 237.64 39.29C237.373 39.4167 237.163 39.6033 237.01 39.85C236.857 40.09 236.78 40.3867 236.78 40.74C236.78 41.0333 236.84 41.3033 236.96 41.55C237.08 41.7967 237.267 41.9933 237.52 42.14C237.773 42.2867 238.097 42.36 238.49 42.36ZM247.017 43.18C246.637 43.18 246.287 43.11 245.967 42.97C245.647 42.83 245.367 42.6333 245.127 42.38C244.894 42.1267 244.711 41.8333 244.577 41.5C244.451 41.1667 244.387 40.8067 244.387 40.42V40.24C244.387 39.86 244.451 39.5033 244.577 39.17C244.704 38.8367 244.881 38.5433 245.107 38.29C245.341 38.0367 245.614 37.84 245.927 37.7C246.247 37.5533 246.601 37.48 246.987 37.48C247.394 37.48 247.764 37.5667 248.097 37.74C248.431 37.9067 248.704 38.17 248.917 38.53C249.131 38.89 249.251 39.3567 249.277 39.93L248.877 39.29V35.7H249.837V43H249.077V40.63H249.357C249.331 41.2367 249.204 41.73 248.977 42.11C248.751 42.4833 248.464 42.7567 248.117 42.93C247.777 43.0967 247.411 43.18 247.017 43.18ZM247.147 42.34C247.474 42.34 247.771 42.2667 248.037 42.12C248.304 41.9733 248.517 41.7633 248.677 41.49C248.837 41.21 248.917 40.8833 248.917 40.51V40.05C248.917 39.6833 248.834 39.3733 248.667 39.12C248.507 38.86 248.291 38.6633 248.017 38.53C247.751 38.39 247.457 38.32 247.137 38.32C246.784 38.32 246.471 38.4033 246.197 38.57C245.931 38.7367 245.721 38.97 245.567 39.27C245.421 39.57 245.347 39.9233 245.347 40.33C245.347 40.7367 245.424 41.0933 245.577 41.4C245.731 41.7 245.944 41.9333 246.217 42.1C246.491 42.26 246.801 42.34 247.147 42.34ZM254.912 43V41.4H254.752V39.55C254.752 39.1833 254.655 38.9067 254.462 38.72C254.275 38.5333 253.998 38.44 253.632 38.44C253.425 38.44 253.212 38.4433 252.992 38.45C252.772 38.4567 252.562 38.4633 252.362 38.47C252.162 38.4767 251.988 38.4867 251.842 38.5V37.66C251.988 37.6467 252.142 37.6367 252.302 37.63C252.468 37.6167 252.638 37.61 252.812 37.61C252.985 37.6033 253.152 37.6 253.312 37.6C253.858 37.6 254.305 37.6667 254.652 37.8C254.998 37.9267 255.255 38.1367 255.422 38.43C255.588 38.7233 255.672 39.12 255.672 39.62V43H254.912ZM253.162 43.14C252.762 43.14 252.415 43.0733 252.122 42.94C251.835 42.8 251.612 42.6 251.452 42.34C251.298 42.08 251.222 41.7667 251.222 41.4C251.222 41.02 251.305 40.7033 251.472 40.45C251.645 40.1967 251.895 40.0067 252.222 39.88C252.548 39.7467 252.942 39.68 253.402 39.68H254.852V40.4H253.362C252.975 40.4 252.678 40.4933 252.472 40.68C252.265 40.8667 252.162 41.1067 252.162 41.4C252.162 41.6933 252.265 41.93 252.472 42.11C252.678 42.29 252.975 42.38 253.362 42.38C253.588 42.38 253.805 42.34 254.012 42.26C254.218 42.1733 254.388 42.0333 254.522 41.84C254.662 41.64 254.738 41.3667 254.752 41.02L255.012 41.4C254.978 41.78 254.885 42.1 254.732 42.36C254.585 42.6133 254.378 42.8067 254.112 42.94C253.852 43.0733 253.535 43.14 253.162 43.14ZM257.054 45.08V44.22H257.824C258.051 44.22 258.241 44.19 258.394 44.13C258.554 44.0767 258.684 43.9833 258.784 43.85C258.891 43.7167 258.977 43.54 259.044 43.32L260.724 37.66H261.664L259.884 43.57C259.777 43.9233 259.627 44.21 259.434 44.43C259.241 44.6567 259.004 44.82 258.724 44.92C258.451 45.0267 258.131 45.08 257.764 45.08H257.054ZM258.684 42.88V42.08H259.844V42.88H258.684ZM258.584 42.88L256.674 37.66H257.654L259.484 42.88H258.584ZM264.594 43.16C263.894 43.16 263.35 43.01 262.964 42.71C262.584 42.41 262.387 42 262.374 41.48H263.274C263.287 41.6867 263.39 41.8833 263.584 42.07C263.784 42.25 264.12 42.34 264.594 42.34C265.02 42.34 265.347 42.2567 265.574 42.09C265.8 41.9167 265.914 41.7067 265.914 41.46C265.914 41.24 265.83 41.07 265.664 40.95C265.497 40.8233 265.227 40.74 264.854 40.7L264.274 40.64C263.767 40.5867 263.354 40.4367 263.034 40.19C262.714 39.9367 262.554 39.5833 262.554 39.13C262.554 38.79 262.64 38.5 262.814 38.26C262.987 38.0133 263.227 37.8267 263.534 37.7C263.84 37.5667 264.194 37.5 264.594 37.5C265.194 37.5 265.68 37.6333 266.054 37.9C266.427 38.1667 266.62 38.5633 266.634 39.09H265.734C265.727 38.8767 265.627 38.6967 265.434 38.55C265.247 38.3967 264.967 38.32 264.594 38.32C264.22 38.32 263.937 38.3967 263.744 38.55C263.55 38.7033 263.454 38.8967 263.454 39.13C263.454 39.33 263.52 39.49 263.654 39.61C263.794 39.73 264.02 39.8067 264.334 39.84L264.914 39.9C265.487 39.96 265.947 40.12 266.294 40.38C266.64 40.6333 266.814 40.9933 266.814 41.46C266.814 41.7933 266.717 42.09 266.524 42.35C266.337 42.6033 266.077 42.8033 265.744 42.95C265.41 43.09 265.027 43.16 264.594 43.16ZM270.541 43V35.7H271.501V43H270.541ZM269.801 36.46V35.7H271.501V36.46H269.801ZM275.612 43.18C275.145 43.18 274.742 43.1 274.402 42.94C274.062 42.78 273.785 42.57 273.572 42.31C273.359 42.0433 273.199 41.7467 273.092 41.42C272.992 41.0933 272.942 40.76 272.942 40.42V40.24C272.942 39.8933 272.992 39.5567 273.092 39.23C273.199 38.9033 273.359 38.61 273.572 38.35C273.785 38.0833 274.055 37.8733 274.382 37.72C274.715 37.56 275.105 37.48 275.552 37.48C276.132 37.48 276.609 37.6067 276.982 37.86C277.362 38.1067 277.642 38.4267 277.822 38.82C278.009 39.2133 278.102 39.6333 278.102 40.08V40.51H273.362V39.79H277.402L277.182 40.18C277.182 39.8 277.122 39.4733 277.002 39.2C276.882 38.92 276.702 38.7033 276.462 38.55C276.222 38.3967 275.919 38.32 275.552 38.32C275.172 38.32 274.855 38.4067 274.602 38.58C274.355 38.7533 274.169 38.99 274.042 39.29C273.922 39.59 273.862 39.9367 273.862 40.33C273.862 40.71 273.922 41.0533 274.042 41.36C274.169 41.66 274.362 41.9 274.622 42.08C274.882 42.2533 275.212 42.34 275.612 42.34C276.032 42.34 276.372 42.2467 276.632 42.06C276.899 41.8733 277.059 41.6567 277.112 41.41H278.012C277.939 41.7767 277.792 42.0933 277.572 42.36C277.352 42.6267 277.075 42.83 276.742 42.97C276.409 43.11 276.032 43.18 275.612 43.18ZM279.605 43V37.39C279.605 36.7967 279.762 36.36 280.075 36.08C280.388 35.8 280.848 35.66 281.455 35.66H282.115V36.46H281.295C281.048 36.46 280.858 36.53 280.725 36.67C280.592 36.8033 280.525 36.99 280.525 37.23V43H279.605ZM278.865 38.44V37.72H282.215V38.44H278.865ZM285.412 43.06C285.012 43.06 284.665 43.0033 284.372 42.89C284.085 42.7767 283.862 42.5833 283.702 42.31C283.549 42.03 283.472 41.6533 283.472 41.18V36.04H284.392V41.3C284.392 41.5867 284.469 41.81 284.622 41.97C284.782 42.1233 285.005 42.2 285.292 42.2H286.232V43.06H285.412ZM282.552 38.38V37.66H286.232V38.38H282.552Z" fill="black"/>
<path d="M68.06 144V136.7H69.36L71.52 141.57H71.68L73.83 136.7H75.14V144H74.16V137.77L74.23 137.79L72.16 142.49H70.96L68.88 137.79L68.96 137.77V144H68.06ZM76.7592 146.08V145.22H77.5292C77.7559 145.22 77.9459 145.19 78.0992 145.13C78.2592 145.077 78.3892 144.983 78.4892 144.85C78.5959 144.717 78.6826 144.54 78.7492 144.32L80.4292 138.66H81.3692L79.5892 144.57C79.4826 144.923 79.3326 145.21 79.1392 145.43C78.9459 145.657 78.7092 145.82 78.4292 145.92C78.1559 146.027 77.8359 146.08 77.4692 146.08H76.7592ZM78.3892 143.88V143.08H79.5492V143.88H78.3892ZM78.2892 143.88L76.3792 138.66H77.3592L79.1892 143.88H78.2892ZM87.6834 144.18C87.2434 144.18 86.85 144.083 86.5034 143.89C86.1634 143.697 85.8934 143.417 85.6934 143.05C85.4934 142.677 85.3834 142.23 85.3634 141.71H85.6234V144H84.8634V136.7H85.8234V140.25L85.4834 140.98C85.51 140.4 85.6267 139.927 85.8334 139.56C86.04 139.193 86.31 138.923 86.6434 138.75C86.9834 138.57 87.3567 138.48 87.7634 138.48C88.1434 138.48 88.49 138.553 88.8034 138.7C89.1167 138.84 89.3867 139.037 89.6134 139.29C89.84 139.537 90.0134 139.827 90.1334 140.16C90.2534 140.487 90.3134 140.84 90.3134 141.22V141.4C90.3134 141.78 90.25 142.137 90.1234 142.47C90.0034 142.803 89.8267 143.1 89.5934 143.36C89.36 143.613 89.08 143.813 88.7534 143.96C88.4334 144.107 88.0767 144.18 87.6834 144.18ZM87.5734 143.34C87.9334 143.34 88.2467 143.253 88.5134 143.08C88.78 142.907 88.9867 142.67 89.1334 142.37C89.28 142.063 89.3534 141.71 89.3534 141.31C89.3534 140.91 89.2767 140.56 89.1234 140.26C88.9767 139.96 88.77 139.73 88.5034 139.57C88.2367 139.403 87.9267 139.32 87.5734 139.32C87.2534 139.32 86.9567 139.393 86.6834 139.54C86.41 139.68 86.19 139.887 86.0234 140.16C85.8634 140.427 85.7834 140.75 85.7834 141.13V141.59C85.7834 141.957 85.8667 142.27 86.0334 142.53C86.2 142.79 86.42 142.99 86.6934 143.13C86.9667 143.27 87.26 143.34 87.5734 143.34ZM93.6079 144.16C92.9746 144.16 92.4879 143.953 92.1479 143.54C91.8079 143.127 91.6379 142.53 91.6379 141.75V138.65H92.5979V141.94C92.5979 142.36 92.7112 142.69 92.9379 142.93C93.1646 143.163 93.4712 143.28 93.8579 143.28C94.2579 143.28 94.5846 143.153 94.8379 142.9C95.0912 142.64 95.2179 142.287 95.2179 141.84V138.65H96.1779V144H95.4179V141.71H95.5379C95.5379 142.237 95.4679 142.683 95.3279 143.05C95.1879 143.41 94.9779 143.687 94.6979 143.88C94.4246 144.067 94.0746 144.16 93.6479 144.16H93.6079ZM100.267 144.18C99.8872 144.18 99.5372 144.11 99.2172 143.97C98.8972 143.83 98.6172 143.633 98.3772 143.38C98.1439 143.127 97.9605 142.833 97.8272 142.5C97.7005 142.167 97.6372 141.807 97.6372 141.42V141.24C97.6372 140.86 97.7005 140.503 97.8272 140.17C97.9539 139.837 98.1305 139.543 98.3572 139.29C98.5905 139.037 98.8639 138.84 99.1772 138.7C99.4972 138.553 99.8505 138.48 100.237 138.48C100.644 138.48 101.014 138.567 101.347 138.74C101.681 138.907 101.954 139.17 102.167 139.53C102.381 139.89 102.501 140.357 102.527 140.93L102.127 140.29V136.7H103.087V144H102.327V141.63H102.607C102.581 142.237 102.454 142.73 102.227 143.11C102.001 143.483 101.714 143.757 101.367 143.93C101.027 144.097 100.661 144.18 100.267 144.18ZM100.397 143.34C100.724 143.34 101.021 143.267 101.287 143.12C101.554 142.973 101.767 142.763 101.927 142.49C102.087 142.21 102.167 141.883 102.167 141.51V141.05C102.167 140.683 102.084 140.373 101.917 140.12C101.757 139.86 101.541 139.663 101.267 139.53C101.001 139.39 100.707 139.32 100.387 139.32C100.034 139.32 99.7205 139.403 99.4472 139.57C99.1805 139.737 98.9705 139.97 98.8172 140.27C98.6705 140.57 98.5972 140.923 98.5972 141.33C98.5972 141.737 98.6739 142.093 98.8272 142.4C98.9805 142.7 99.1939 142.933 99.4672 143.1C99.7405 143.26 100.051 143.34 100.397 143.34ZM106.952 146.08C106.705 146.08 106.455 146.07 106.202 146.05C105.955 146.03 105.718 146.003 105.492 145.97V145.16C105.732 145.193 105.982 145.22 106.242 145.24C106.508 145.267 106.758 145.28 106.992 145.28C107.478 145.28 107.865 145.213 108.152 145.08C108.445 144.953 108.655 144.75 108.782 144.47C108.915 144.197 108.982 143.843 108.982 143.41V142.39L109.302 141.63C109.282 142.17 109.168 142.62 108.962 142.98C108.755 143.333 108.485 143.6 108.152 143.78C107.825 143.953 107.462 144.04 107.062 144.04C106.688 144.04 106.345 143.97 106.032 143.83C105.725 143.683 105.458 143.483 105.232 143.23C105.012 142.977 104.838 142.687 104.712 142.36C104.592 142.027 104.532 141.677 104.532 141.31V141.13C104.532 140.757 104.595 140.41 104.722 140.09C104.848 139.763 105.025 139.48 105.252 139.24C105.478 139 105.748 138.813 106.062 138.68C106.382 138.547 106.732 138.48 107.112 138.48C107.558 138.48 107.952 138.577 108.292 138.77C108.632 138.957 108.898 139.233 109.092 139.6C109.292 139.96 109.402 140.403 109.422 140.93L109.142 140.94V138.66H109.902V143.37C109.902 144.01 109.802 144.527 109.602 144.92C109.408 145.32 109.095 145.613 108.662 145.8C108.235 145.987 107.665 146.08 106.952 146.08ZM107.242 143.16C107.562 143.16 107.852 143.09 108.112 142.95C108.378 142.81 108.588 142.61 108.742 142.35C108.902 142.083 108.982 141.767 108.982 141.4V140.94C108.982 140.58 108.898 140.277 108.732 140.03C108.572 139.783 108.362 139.597 108.102 139.47C107.842 139.343 107.558 139.28 107.252 139.28C106.905 139.28 106.598 139.36 106.332 139.52C106.065 139.68 105.858 139.907 105.712 140.2C105.565 140.487 105.492 140.827 105.492 141.22C105.492 141.613 105.565 141.957 105.712 142.25C105.865 142.543 106.072 142.77 106.332 142.93C106.598 143.083 106.902 143.16 107.242 143.16ZM113.95 144.18C113.483 144.18 113.08 144.1 112.74 143.94C112.4 143.78 112.123 143.57 111.91 143.31C111.696 143.043 111.536 142.747 111.43 142.42C111.33 142.093 111.28 141.76 111.28 141.42V141.24C111.28 140.893 111.33 140.557 111.43 140.23C111.536 139.903 111.696 139.61 111.91 139.35C112.123 139.083 112.393 138.873 112.72 138.72C113.053 138.56 113.443 138.48 113.89 138.48C114.47 138.48 114.946 138.607 115.32 138.86C115.7 139.107 115.98 139.427 116.16 139.82C116.346 140.213 116.44 140.633 116.44 141.08V141.51H111.7V140.79H115.74L115.52 141.18C115.52 140.8 115.46 140.473 115.34 140.2C115.22 139.92 115.04 139.703 114.8 139.55C114.56 139.397 114.256 139.32 113.89 139.32C113.51 139.32 113.193 139.407 112.94 139.58C112.693 139.753 112.506 139.99 112.38 140.29C112.26 140.59 112.2 140.937 112.2 141.33C112.2 141.71 112.26 142.053 112.38 142.36C112.506 142.66 112.7 142.9 112.96 143.08C113.22 143.253 113.55 143.34 113.95 143.34C114.37 143.34 114.71 143.247 114.97 143.06C115.236 142.873 115.396 142.657 115.45 142.41H116.35C116.276 142.777 116.13 143.093 115.91 143.36C115.69 143.627 115.413 143.83 115.08 143.97C114.746 144.11 114.37 144.18 113.95 144.18ZM119.883 144.06C119.483 144.06 119.136 144.003 118.843 143.89C118.556 143.777 118.333 143.583 118.173 143.31C118.019 143.03 117.943 142.653 117.943 142.18V137.04H118.863V142.3C118.863 142.587 118.939 142.81 119.093 142.97C119.253 143.123 119.476 143.2 119.763 143.2H120.703V144.06H119.883ZM117.023 139.38V138.66H120.703V139.38H117.023Z" fill="black"/>
<g filter="url(#filter0_d_756_4343)">
<path d="M162.256 60.1005C160.269 59.7366 158.593 58.3419 157.872 56.451L154.688 48.1315L145.791 48.5862C145.328 48.6133 144.867 48.5797 144.415 48.4968C142.418 48.1311 140.787 46.7651 140.05 44.8509C139.141 42.4885 139.862 39.8249 141.831 38.2335L148.764 32.6307L145.58 24.3112C144.671 21.9487 145.392 19.2851 147.361 17.6937C148.686 16.6248 150.393 16.1851 152.055 16.4895C152.822 16.63 153.543 16.9145 154.205 17.3509L161.673 22.2055L168.605 16.6026C169.93 15.5337 171.647 15.0958 173.319 15.402C174.086 15.5425 174.797 15.8252 175.451 16.25C177.568 17.6238 178.55 20.2028 177.899 22.6455L175.581 31.2488L183.049 36.1034C185.174 37.4888 186.157 40.058 185.497 42.4989C184.835 44.9497 182.699 46.6733 180.165 46.7989L171.268 47.2536L168.95 55.8568C168.29 58.2978 166.152 60.0312 163.626 60.1684C163.174 60.1973 162.712 60.1637 162.27 60.0826L162.256 60.1005Z" fill="white"/>
<path d="M173.509 21.4755L170.585 32.3364C170.434 32.8782 170.664 33.459 171.135 33.7691L180.564 39.9079C181.617 40.5988 181.184 42.2377 179.922 42.3014L168.685 42.8766C168.12 42.9054 167.642 43.2957 167.492 43.8375L164.568 54.6984C164.243 55.9198 162.549 56.0062 162.095 54.825L158.072 44.3184C157.873 43.794 157.355 43.4553 156.791 43.4841L145.553 44.0593C144.291 44.123 143.687 42.5382 144.666 41.7416L153.413 34.6715C153.854 34.3152 154.014 33.7241 153.807 33.1881L149.783 22.6815C149.329 21.5003 150.653 20.4314 151.706 21.1223L161.134 27.2611C161.606 27.5711 162.221 27.5415 162.663 27.1852L171.409 20.1151C172.389 19.3185 173.814 20.2505 173.489 21.4719L173.509 21.4755Z" fill="url(#paint0_linear_756_4343)" stroke="#1D074F" stroke-width="3.05" stroke-miterlimit="10"/>
</g>
<g filter="url(#filter1_d_756_4343)">
<path d="M262.926 77.3552C262.157 76.0018 261.321 74.665 260.435 73.3826C243.524 48.9107 209.854 42.7589 185.383 59.6697C160.911 76.5805 154.763 110.257 171.674 134.729C172.533 135.971 173.488 137.226 174.509 138.464C175.324 139.883 176.123 141.167 176.959 142.377C178.133 144.076 179.42 145.726 180.786 147.292C181.777 149.137 182.843 150.891 183.958 152.504C190.673 162.221 200.168 169.305 211.389 172.978C212.435 173.799 215.646 177.753 217.402 179.899C226.918 191.578 233.621 199.086 239.982 197.112C241.752 196.564 243.086 195.427 243.837 193.843C245.536 190.237 243.619 185.584 241.593 180.645C241.205 179.702 240.627 178.285 240.141 176.932C242.991 180.011 246.816 184.811 248.612 187.057C256.63 197.104 263.557 205.786 269.428 206.31C270.917 206.444 272.328 206.084 273.511 205.266C273.703 205.133 273.886 204.988 274.057 204.84C280.193 199.486 273.543 188.562 266.496 176.994C264.266 173.329 262.156 169.864 260.913 167.246C260.529 166.437 260.296 165.846 260.165 165.429C263.513 163.066 266.584 160.202 269.497 156.743C270.407 157.55 271.617 158.794 272.307 159.509C276.432 163.769 282.079 169.595 288.577 166.97C290.38 166.242 291.669 164.941 292.324 163.218C293.927 158.995 291.238 153.548 287.815 146.644C284.756 140.465 281.294 133.462 281.852 128.672C283.416 115.274 280.171 101.958 272.721 91.1759C271.588 89.5365 270.306 87.8929 268.895 86.2894C267.905 84.4336 266.842 82.6682 265.723 81.0487C264.882 79.8323 263.964 78.6307 262.924 77.3664L262.926 77.3552Z" fill="white"/>
</g>
<path d="M269.748 93.2202C277.103 103.863 279.653 116.331 278.263 128.241C276.815 140.62 295.064 160.427 287.217 163.602C279.464 166.743 271.134 148.892 267.78 153.114C264.766 156.907 261.216 160.434 256.956 163.231C252.04 166.462 278.614 196.056 271.676 202.1C264.784 208.113 241.922 167.467 236.781 170.854C231.639 174.24 245.891 191.486 238.911 193.653C231.924 195.825 216.354 170.778 212.739 169.603C202.612 166.326 193.453 159.87 186.934 150.437C171.134 127.572 176.856 96.2206 199.728 80.4152C222.6 64.6099 253.945 70.3369 269.75 93.209L269.748 93.2202Z" fill="url(#paint1_linear_756_4343)" stroke="#1D074F" stroke-width="3" stroke-miterlimit="10"/>
<path d="M262.75 83.093C270.105 93.7358 272.655 106.204 271.265 118.114C269.817 130.493 288.066 150.3 280.219 153.475C272.466 156.616 264.136 138.765 260.782 142.987C257.768 146.779 254.218 150.307 249.958 153.104C245.042 156.335 271.616 185.928 264.678 191.973C257.786 197.985 234.924 157.34 229.783 160.727C224.641 164.113 238.893 181.359 231.912 183.526C224.932 185.693 209.356 160.65 205.741 159.476C195.614 156.199 186.455 149.743 179.936 140.31C164.136 117.444 169.858 86.0934 192.73 70.288C215.602 54.4827 246.947 60.2097 262.752 83.0818L262.75 83.093Z" fill="url(#paint2_linear_756_4343)" stroke="#1D074F" stroke-width="3" stroke-miterlimit="10"/>
<path d="M257.465 75.4448C264.819 86.0877 267.37 98.5558 265.979 110.466C264.532 122.844 282.78 142.651 274.934 145.827C267.181 148.967 258.85 131.117 255.497 135.339C252.482 139.131 248.933 142.659 244.673 145.456C239.757 148.687 266.33 178.28 259.392 184.325C252.501 190.337 229.639 149.692 224.497 153.078C219.356 156.465 233.608 173.711 226.627 175.878C219.64 178.049 204.071 153.002 200.456 151.828C190.329 148.551 181.17 142.095 174.651 132.662C158.85 109.796 164.573 78.4452 187.445 62.6398C210.317 46.8345 241.662 52.5615 257.467 75.4336L257.465 75.4448Z" fill="url(#paint3_linear_756_4343)" stroke="#1D074F" stroke-width="3" stroke-miterlimit="10"/>
<path d="M207.578 114.899C211.054 112.497 210.699 105.96 206.787 100.297C202.874 94.6348 196.884 91.9914 193.408 94.3932C189.933 96.7949 190.287 103.332 194.2 108.995C198.113 114.657 204.103 117.301 207.578 114.899Z" fill="#1D074F"/>
<path d="M227.631 100.34C231.107 97.938 230.752 91.4006 226.839 85.7382C222.926 80.0757 216.937 77.4324 213.461 79.8341C209.986 82.2359 210.34 88.7732 214.253 94.4357C218.166 100.098 224.156 102.741 227.631 100.34Z" fill="#1D074F"/>
<path d="M234.339 130.387C223.591 137.814 209.831 138.454 198.429 132.044L199.686 129.808C210.225 135.73 222.947 135.144 232.882 128.278C242.818 121.412 247.639 110.199 246.156 98.5261L248.698 98.2051C250.302 110.829 244.797 123.16 234.333 130.391L234.339 130.387Z" fill="#1D074F"/>
<path d="M198.291 134.532C196.83 135.541 195.412 135.906 194.848 136.023C194.195 136.152 193.562 135.73 193.426 135.081C193.297 134.428 193.719 133.795 194.367 133.659C195.045 133.523 197.341 132.903 198.757 130.626C200.014 128.614 199.792 126.57 199.641 125.786C199.512 125.132 199.945 124.501 200.598 124.372C201.251 124.243 201.883 124.676 202.012 125.329C202.221 126.396 202.513 129.163 200.811 131.902C200.084 133.069 199.184 133.915 198.298 134.527L198.291 134.532Z" fill="#1D074F"/>
<path d="M251.181 97.9831C250.295 98.5952 249.185 99.1375 247.837 99.4052C244.673 100.029 242.187 98.7772 241.264 98.2042C240.699 97.8526 240.521 97.1155 240.869 96.5436C241.22 95.9783 241.957 95.8011 242.529 96.1481C243.209 96.567 245.044 97.497 247.369 97.0325C250 96.5139 251.394 94.5738 251.759 93.9994C252.115 93.4407 252.857 93.27 253.422 93.6217C253.987 93.9733 254.151 94.7195 253.8 95.2848C253.491 95.7714 252.642 96.9736 251.188 97.9785L251.181 97.9831Z" fill="#1D074F"/>
<g filter="url(#filter2_d_756_4343)">
<path d="M65.0532 142.085L65.0077 141.994L62.2157 143.193L64.9926 141.979C63.551 138.641 61.6087 134.119 59.014 130.523C58.8471 130.037 58.6801 129.612 58.4677 129.202C55.9488 124.165 49.9398 121.646 41.5485 122.04C34.4622 122.389 26.1164 124.802 18.059 128.838C10.0167 132.875 3.0821 138.11 -1.43979 143.587C-6.78109 150.067 -8.34402 156.394 -5.82511 161.432C-5.68855 161.69 -5.55197 161.933 -5.38505 162.176C-4.21664 166.576 -1.51566 171.037 0.320414 174.057C0.897031 174.998 1.42812 175.893 1.68608 176.394C4.00772 181.037 9.44007 183.587 16.9664 183.587C24.3866 183.587 33.309 181.159 42.0796 176.758C50.1219 172.722 57.0565 167.487 61.5784 162.009C66.9197 155.53 68.4826 149.202 65.9637 144.164C65.7209 143.679 65.4023 142.95 65.0229 142.07L65.0532 142.085Z" fill="white"/>
<path d="M61.8972 146.228C65.3265 153.071 55.5544 164.922 40.0616 172.691C24.5688 180.461 9.22775 181.204 5.79839 174.361C3.99267 170.749 -4.56553 159.414 -0.119507 154.361C3.85612 149.824 17.4976 145.955 24.8116 142.298C32.5656 138.413 42.9447 129.324 49.1357 129.02C55.3268 128.717 60.1673 142.829 61.882 146.243L61.8972 146.228Z" fill="url(#paint4_linear_756_4343)" stroke="#1D074F" stroke-width="2.02" stroke-linecap="round" stroke-linejoin="round"/>
<path d="M54.4015 131.266C57.8308 138.11 48.0586 149.961 32.5659 157.73C17.0731 165.499 1.73204 166.242 -1.69731 159.399C-5.12666 152.555 4.64548 140.704 20.1383 132.935C35.6311 125.166 50.9721 124.422 54.4015 131.266Z" fill="url(#paint5_linear_756_4343)" stroke="#1D074F" stroke-width="2.02" stroke-linecap="round" stroke-linejoin="round"/>
<path d="M40.3207 136.896C41.7623 139.764 36.2541 145.439 28.0297 149.551C19.8053 153.678 11.9754 154.695 10.5339 151.827C9.09236 148.959 14.6006 143.284 22.825 139.172C31.0493 135.044 38.8792 134.028 40.3207 136.896Z" fill="url(#paint6_linear_756_4343)" stroke="#1D074F" stroke-width="1.99" stroke-linecap="round" stroke-linejoin="round"/>
</g>
</g>
<defs>
<filter id="filter0_d_756_4343" x="136.66" y="12.3064" width="54.041" height="52.8723" filterUnits="userSpaceOnUse" color-interpolation-filters="sRGB">
<feFlood flood-opacity="0" result="BackgroundImageFix"/>
<feColorMatrix in="SourceAlpha" type="matrix" values="0 0 0 0 0 0 0 0 0 0 0 0 0 0 0 0 0 0 127 0" result="hardAlpha"/>
<feOffset dx="1" dy="1"/>
<feGaussianBlur stdDeviation="2"/>
<feColorMatrix type="matrix" values="0 0 0 0 0.6 0 0 0 0 0.6 0 0 0 0 0.6 0 0 0 0.3 0"/>
<feBlend mode="normal" in2="BackgroundImageFix" result="effect1_dropShadow_756_4343"/>
<feBlend mode="normal" in="SourceGraphic" in2="effect1_dropShadow_756_4343" result="shape"/>
</filter>
<filter id="filter1_d_756_4343" x="159.125" y="47.1216" width="138.674" height="164.216" filterUnits="userSpaceOnUse" color-interpolation-filters="sRGB">
<feFlood flood-opacity="0" result="BackgroundImageFix"/>
<feColorMatrix in="SourceAlpha" type="matrix" values="0 0 0 0 0 0 0 0 0 0 0 0 0 0 0 0 0 0 127 0" result="hardAlpha"/>
<feOffset dx="1" dy="1"/>
<feGaussianBlur stdDeviation="2"/>
<feColorMatrix type="matrix" values="0 0 0 0 0.6 0 0 0 0 0.6 0 0 0 0 0.6 0 0 0 0.3 0"/>
<feBlend mode="normal" in2="BackgroundImageFix" result="effect1_dropShadow_756_4343"/>
<feBlend mode="normal" in="SourceGraphic" in2="effect1_dropShadow_756_4343" result="shape"/>
</filter>
<filter id="filter2_d_756_4343" x="-10" y="119" width="82.1387" height="69.5864" filterUnits="userSpaceOnUse" color-interpolation-filters="sRGB">
<feFlood flood-opacity="0" result="BackgroundImageFix"/>
<feColorMatrix in="SourceAlpha" type="matrix" values="0 0 0 0 0 0 0 0 0 0 0 0 0 0 0 0 0 0 127 0" result="hardAlpha"/>
<feOffset dx="1" dy="1"/>
<feGaussianBlur stdDeviation="2"/>
<feColorMatrix type="matrix" values="0 0 0 0 0.6 0 0 0 0 0.6 0 0 0 0 0.6 0 0 0 0.3 0"/>
<feBlend mode="normal" in2="BackgroundImageFix" result="effect1_dropShadow_756_4343"/>
<feBlend mode="normal" in="SourceGraphic" in2="effect1_dropShadow_756_4343" result="shape"/>
</filter>
<linearGradient id="paint0_linear_756_4343" x1="160.238" y1="55.1357" x2="166.887" y2="18.8294" gradientUnits="userSpaceOnUse">
<stop offset="0.05" stop-color="#FDCC0C"/>
<stop offset="0.97" stop-color="#FDFE0C"/>
</linearGradient>
<linearGradient id="paint1_linear_756_4343" x1="199.726" y1="80.4264" x2="279.899" y2="196.446" gradientUnits="userSpaceOnUse">
<stop offset="0.03" stop-color="#0FD2E2"/>
<stop offset="1" stop-color="#0F8EE2"/>
</linearGradient>
<linearGradient id="paint2_linear_756_4343" x1="192.728" y1="70.2992" x2="272.901" y2="186.319" gradientUnits="userSpaceOnUse">
<stop offset="0.1" stop-color="#FF63BE"/>
<stop offset="0.98" stop-color="#FF0FE0"/>
</linearGradient>
<linearGradient id="paint3_linear_756_4343" x1="267.616" y1="178.671" x2="187.443" y2="62.651" gradientUnits="userSpaceOnUse">
<stop offset="0.05" stop-color="#FDCC0C"/>
<stop offset="0.97" stop-color="#FDFE0C"/>
</linearGradient>
<linearGradient id="paint4_linear_756_4343" x1="30.6081" y1="129.005" x2="30.6081" y2="179.049" gradientUnits="userSpaceOnUse">
<stop offset="0.03" stop-color="#0FD2E2"/>
<stop offset="1" stop-color="#0F8EE2"/>
</linearGradient>
<linearGradient id="paint5_linear_756_4343" x1="26.3445" y1="126.577" x2="26.3445" y2="164.072" gradientUnits="userSpaceOnUse">
<stop offset="0.03" stop-color="#0FD2E2"/>
<stop offset="1" stop-color="#0F8EE2"/>
</linearGradient>
<linearGradient id="paint6_linear_756_4343" x1="25.4349" y1="135.272" x2="25.4349" y2="153.466" gradientUnits="userSpaceOnUse">
<stop offset="0.03" stop-color="#0FD2E2"/>
<stop offset="1" stop-color="#0F8EE2"/>
</linearGradient>
<clipPath id="clip0_756_4343">
<rect width="312" height="176" rx="40" fill="white"/>
</clipPath>
</defs>
</svg>
