<svg width="312" height="176" viewBox="0 0 312 176" fill="none" xmlns="http://www.w3.org/2000/svg">
<g clip-path="url(#clip0_756_4341)">
<rect width="312" height="176" rx="40" fill="white"/>
<path d="M30.58 57.5C31.54 57.5 32.338 57.668 32.974 58.004C33.622 58.34 34.132 58.802 34.504 59.39C34.888 59.966 35.158 60.632 35.314 61.388C35.482 62.144 35.566 62.936 35.566 63.764V64.628C35.566 66.704 35.05 68.306 34.018 69.434C32.986 70.55 31.492 71.108 29.536 71.108C29.068 71.108 28.672 71.096 28.348 71.072C28.024 71.048 27.67 71.012 27.286 70.964V69.488C27.682 69.536 28.048 69.572 28.384 69.596C28.72 69.62 29.128 69.632 29.608 69.632C30.7 69.632 31.564 69.428 32.2 69.02C32.836 68.612 33.292 68.03 33.568 67.274C33.844 66.506 33.982 65.582 33.982 64.502V63.692L34.414 62.09C34.402 63.038 34.216 63.824 33.856 64.448C33.508 65.072 33.022 65.54 32.398 65.852C31.786 66.164 31.078 66.32 30.274 66.32C29.338 66.32 28.546 66.134 27.898 65.762C27.25 65.378 26.758 64.856 26.422 64.196C26.098 63.536 25.936 62.786 25.936 61.946C25.936 61.094 26.11 60.332 26.458 59.66C26.806 58.988 27.322 58.46 28.006 58.076C28.702 57.692 29.56 57.5 30.58 57.5ZM30.58 59.012C29.92 59.012 29.368 59.138 28.924 59.39C28.48 59.642 28.144 59.99 27.916 60.434C27.7 60.866 27.592 61.37 27.592 61.946C27.592 62.522 27.7 63.032 27.916 63.476C28.132 63.92 28.45 64.268 28.87 64.52C29.302 64.76 29.83 64.88 30.454 64.88C31.066 64.88 31.612 64.766 32.092 64.538C32.584 64.31 32.968 63.98 33.244 63.548C33.52 63.104 33.658 62.564 33.658 61.928C33.658 61.4 33.55 60.914 33.334 60.47C33.118 60.026 32.782 59.672 32.326 59.408C31.87 59.144 31.288 59.012 30.58 59.012ZM37.7292 67.886V65.762L43.1832 57.536L44.3892 58.49L39.2952 66.194L39.4572 66.518H47.9532V67.886H37.7292ZM44.5872 71V61.694H46.2072V71H44.5872ZM52.0861 71V58.724L52.8781 59.336H49.1701V57.86H53.8141V71H52.0861ZM57.2867 71V68.804H59.3747V71H57.2867ZM67.3796 71.324C66.3956 71.324 65.5556 71.156 64.8596 70.82C64.1756 70.472 63.6176 70.004 63.1856 69.416C62.7656 68.828 62.4596 68.15 62.2676 67.382C62.0756 66.602 61.9796 65.78 61.9796 64.916V63.944C61.9796 62.732 62.1656 61.64 62.5376 60.668C62.9216 59.696 63.5096 58.928 64.3016 58.364C65.1056 57.788 66.1316 57.5 67.3796 57.5C68.6276 57.5 69.6476 57.788 70.4396 58.364C71.2316 58.928 71.8136 59.696 72.1856 60.668C72.5696 61.64 72.7616 62.732 72.7616 63.944V64.916C72.7616 65.78 72.6656 66.602 72.4736 67.382C72.2816 68.15 71.9696 68.828 71.5376 69.416C71.1176 70.004 70.5656 70.472 69.8816 70.82C69.1976 71.156 68.3636 71.324 67.3796 71.324ZM67.3796 69.74C68.6276 69.74 69.5396 69.32 70.1156 68.48C70.7036 67.628 70.9976 66.284 70.9976 64.448C70.9976 62.528 70.6976 61.154 70.0976 60.326C69.5096 59.498 68.6036 59.084 67.3796 59.084C66.1436 59.084 65.2256 59.498 64.6256 60.326C64.0376 61.154 63.7436 62.516 63.7436 64.412C63.7436 66.26 64.0376 67.61 64.6256 68.462C65.2136 69.314 66.1316 69.74 67.3796 69.74ZM80.7565 71.324C79.7725 71.324 78.9325 71.156 78.2365 70.82C77.5525 70.472 76.9945 70.004 76.5625 69.416C76.1425 68.828 75.8365 68.15 75.6445 67.382C75.4525 66.602 75.3565 65.78 75.3565 64.916V63.944C75.3565 62.732 75.5425 61.64 75.9145 60.668C76.2985 59.696 76.8865 58.928 77.6785 58.364C78.4825 57.788 79.5085 57.5 80.7565 57.5C82.0045 57.5 83.0245 57.788 83.8165 58.364C84.6085 58.928 85.1905 59.696 85.5625 60.668C85.9465 61.64 86.1385 62.732 86.1385 63.944V64.916C86.1385 65.78 86.0425 66.602 85.8505 67.382C85.6585 68.15 85.3465 68.828 84.9145 69.416C84.4945 70.004 83.9425 70.472 83.2585 70.82C82.5745 71.156 81.7405 71.324 80.7565 71.324ZM80.7565 69.74C82.0045 69.74 82.9165 69.32 83.4925 68.48C84.0805 67.628 84.3745 66.284 84.3745 64.448C84.3745 62.528 84.0745 61.154 83.4745 60.326C82.8865 59.498 81.9805 59.084 80.7565 59.084C79.5205 59.084 78.6025 59.498 78.0025 60.326C77.4145 61.154 77.1205 62.516 77.1205 64.412C77.1205 66.26 77.4145 67.61 78.0025 68.462C78.5905 69.314 79.5085 69.74 80.7565 69.74Z" fill="black"/>
<path d="M27.48 45V38.38H28.46V45H27.48ZM25.26 38.58V37.7H30.68V38.58H25.26ZM33.673 45.18C33.2063 45.18 32.7963 45.1 32.443 44.94C32.0896 44.78 31.7896 44.57 31.543 44.31C31.303 44.0433 31.1196 43.7467 30.993 43.42C30.873 43.0933 30.813 42.76 30.813 42.42V42.24C30.813 41.9 30.8763 41.5667 31.003 41.24C31.1296 40.9067 31.3163 40.61 31.563 40.35C31.8096 40.0833 32.1096 39.8733 32.463 39.72C32.8163 39.56 33.2196 39.48 33.673 39.48C34.1263 39.48 34.5296 39.56 34.883 39.72C35.2363 39.8733 35.5363 40.0833 35.783 40.35C36.0296 40.61 36.2163 40.9067 36.343 41.24C36.4696 41.5667 36.533 41.9 36.533 42.24V42.42C36.533 42.76 36.4696 43.0933 36.343 43.42C36.223 43.7467 36.0396 44.0433 35.793 44.31C35.553 44.57 35.2563 44.78 34.903 44.94C34.5496 45.1 34.1396 45.18 33.673 45.18ZM33.673 44.32C34.073 44.32 34.413 44.2333 34.693 44.06C34.9796 43.88 35.1963 43.64 35.343 43.34C35.4963 43.04 35.573 42.7033 35.573 42.33C35.573 41.95 35.4963 41.61 35.343 41.31C35.1896 41.01 34.9696 40.7733 34.683 40.6C34.403 40.4267 34.0663 40.34 33.673 40.34C33.2863 40.34 32.9496 40.4267 32.663 40.6C32.3763 40.7733 32.1563 41.01 32.003 41.31C31.8496 41.61 31.773 41.95 31.773 42.33C31.773 42.7033 31.8463 43.04 31.993 43.34C32.1463 43.64 32.363 43.88 32.643 44.06C32.9296 44.2333 33.273 44.32 33.673 44.32ZM40.0508 45.06C39.6508 45.06 39.3041 45.0033 39.0108 44.89C38.7241 44.7767 38.5008 44.5833 38.3408 44.31C38.1874 44.03 38.1108 43.6533 38.1108 43.18V38.04H39.0308V43.3C39.0308 43.5867 39.1074 43.81 39.2608 43.97C39.4208 44.1233 39.6441 44.2 39.9308 44.2H40.8708V45.06H40.0508ZM37.1908 40.38V39.66H40.8708V40.38H37.1908ZM45.4391 45V43.4H45.2791V41.55C45.2791 41.1833 45.1824 40.9067 44.9891 40.72C44.8024 40.5333 44.5257 40.44 44.1591 40.44C43.9524 40.44 43.7391 40.4433 43.5191 40.45C43.2991 40.4567 43.0891 40.4633 42.8891 40.47C42.6891 40.4767 42.5157 40.4867 42.3691 40.5V39.66C42.5157 39.6467 42.6691 39.6367 42.8291 39.63C42.9957 39.6167 43.1657 39.61 43.3391 39.61C43.5124 39.6033 43.6791 39.6 43.8391 39.6C44.3857 39.6 44.8324 39.6667 45.1791 39.8C45.5257 39.9267 45.7824 40.1367 45.9491 40.43C46.1157 40.7233 46.1991 41.12 46.1991 41.62V45H45.4391ZM43.6891 45.14C43.2891 45.14 42.9424 45.0733 42.6491 44.94C42.3624 44.8 42.1391 44.6 41.9791 44.34C41.8257 44.08 41.7491 43.7667 41.7491 43.4C41.7491 43.02 41.8324 42.7033 41.9991 42.45C42.1724 42.1967 42.4224 42.0067 42.7491 41.88C43.0757 41.7467 43.4691 41.68 43.9291 41.68H45.3791V42.4H43.8891C43.5024 42.4 43.2057 42.4933 42.9991 42.68C42.7924 42.8667 42.6891 43.1067 42.6891 43.4C42.6891 43.6933 42.7924 43.93 42.9991 44.11C43.2057 44.29 43.5024 44.38 43.8891 44.38C44.1157 44.38 44.3324 44.34 44.5391 44.26C44.7457 44.1733 44.9157 44.0333 45.0491 43.84C45.1891 43.64 45.2657 43.3667 45.2791 43.02L45.5391 43.4C45.5057 43.78 45.4124 44.1 45.2591 44.36C45.1124 44.6133 44.9057 44.8067 44.6391 44.94C44.3791 45.0733 44.0624 45.14 43.6891 45.14ZM48.021 45V37.7H48.981V45H48.021ZM47.281 38.46V37.7H48.981V38.46H47.281ZM54.0177 45.04V44.18H56.0577C56.4511 44.18 56.7544 44.07 56.9677 43.85C57.1877 43.6233 57.2977 43.3233 57.2977 42.95C57.2977 42.57 57.1911 42.2733 56.9777 42.06C56.7644 41.84 56.4577 41.73 56.0577 41.73H54.0177V41.09H55.9177C56.3844 41.09 56.7944 41.1467 57.1477 41.26C57.5077 41.3733 57.7877 41.5633 57.9877 41.83C58.1944 42.09 58.2977 42.4467 58.2977 42.9V43.04C58.2977 43.4667 58.2111 43.83 58.0377 44.13C57.8644 44.4233 57.6011 44.65 57.2477 44.81C56.8944 44.9633 56.4511 45.04 55.9177 45.04H54.0177ZM53.2377 45.04V37.66H54.2177V45.04H53.2377ZM54.0177 41.55V40.91H55.7877C56.2011 40.91 56.5044 40.8 56.6977 40.58C56.8977 40.3533 56.9977 40.0667 56.9977 39.72C56.9977 39.3667 56.8977 39.08 56.6977 38.86C56.5044 38.6333 56.2011 38.52 55.7877 38.52H54.0177V37.66H55.6177C56.4177 37.66 57.0144 37.83 57.4077 38.17C57.8011 38.5033 57.9977 38.9867 57.9977 39.62V39.76C57.9977 40.2067 57.8977 40.5633 57.6977 40.83C57.4977 41.09 57.2177 41.2767 56.8577 41.39C56.5044 41.4967 56.0911 41.55 55.6177 41.55H54.0177ZM63.1246 45V43.4H62.9646V41.55C62.9646 41.1833 62.8679 40.9067 62.6746 40.72C62.4879 40.5333 62.2113 40.44 61.8446 40.44C61.6379 40.44 61.4246 40.4433 61.2046 40.45C60.9846 40.4567 60.7746 40.4633 60.5746 40.47C60.3746 40.4767 60.2013 40.4867 60.0546 40.5V39.66C60.2013 39.6467 60.3546 39.6367 60.5146 39.63C60.6813 39.6167 60.8513 39.61 61.0246 39.61C61.1979 39.6033 61.3646 39.6 61.5246 39.6C62.0713 39.6 62.5179 39.6667 62.8646 39.8C63.2113 39.9267 63.4679 40.1367 63.6346 40.43C63.8013 40.7233 63.8846 41.12 63.8846 41.62V45H63.1246ZM61.3746 45.14C60.9746 45.14 60.6279 45.0733 60.3346 44.94C60.0479 44.8 59.8246 44.6 59.6646 44.34C59.5113 44.08 59.4346 43.7667 59.4346 43.4C59.4346 43.02 59.5179 42.7033 59.6846 42.45C59.8579 42.1967 60.1079 42.0067 60.4346 41.88C60.7613 41.7467 61.1546 41.68 61.6146 41.68H63.0646V42.4H61.5746C61.1879 42.4 60.8913 42.4933 60.6846 42.68C60.4779 42.8667 60.3746 43.1067 60.3746 43.4C60.3746 43.6933 60.4779 43.93 60.6846 44.11C60.8913 44.29 61.1879 44.38 61.5746 44.38C61.8013 44.38 62.0179 44.34 62.2246 44.26C62.4313 44.1733 62.6013 44.0333 62.7346 43.84C62.8746 43.64 62.9513 43.3667 62.9646 43.02L63.2246 43.4C63.1913 43.78 63.0979 44.1 62.9446 44.36C62.7979 44.6133 62.5913 44.8067 62.3246 44.94C62.0646 45.0733 61.7479 45.14 61.3746 45.14ZM65.7066 45V37.7H66.6666V45H65.7066ZM64.9666 38.46V37.7H66.6666V38.46H64.9666ZM71.7379 45V43.4H71.5779V41.55C71.5779 41.1833 71.4812 40.9067 71.2879 40.72C71.1012 40.5333 70.8246 40.44 70.4579 40.44C70.2512 40.44 70.0379 40.4433 69.8179 40.45C69.5979 40.4567 69.3879 40.4633 69.1879 40.47C68.9879 40.4767 68.8146 40.4867 68.6679 40.5V39.66C68.8146 39.6467 68.9679 39.6367 69.1279 39.63C69.2946 39.6167 69.4646 39.61 69.6379 39.61C69.8112 39.6033 69.9779 39.6 70.1379 39.6C70.6846 39.6 71.1312 39.6667 71.4779 39.8C71.8246 39.9267 72.0812 40.1367 72.2479 40.43C72.4146 40.7233 72.4979 41.12 72.4979 41.62V45H71.7379ZM69.9879 45.14C69.5879 45.14 69.2412 45.0733 68.9479 44.94C68.6612 44.8 68.4379 44.6 68.2779 44.34C68.1246 44.08 68.0479 43.7667 68.0479 43.4C68.0479 43.02 68.1312 42.7033 68.2979 42.45C68.4712 42.1967 68.7212 42.0067 69.0479 41.88C69.3746 41.7467 69.7679 41.68 70.2279 41.68H71.6779V42.4H70.1879C69.8012 42.4 69.5046 42.4933 69.2979 42.68C69.0912 42.8667 68.9879 43.1067 68.9879 43.4C68.9879 43.6933 69.0912 43.93 69.2979 44.11C69.5046 44.29 69.8012 44.38 70.1879 44.38C70.4146 44.38 70.6312 44.34 70.8379 44.26C71.0446 44.1733 71.2146 44.0333 71.3479 43.84C71.4879 43.64 71.5646 43.3667 71.5779 43.02L71.8379 43.4C71.8046 43.78 71.7112 44.1 71.5579 44.36C71.4112 44.6133 71.2046 44.8067 70.9379 44.94C70.6779 45.0733 70.3612 45.14 69.9879 45.14ZM74.2598 45V39.66H75.0198V41.95H74.8998C74.8998 41.4233 74.9698 40.98 75.1098 40.62C75.2565 40.2533 75.4765 39.9767 75.7698 39.79C76.0632 39.5967 76.4332 39.5 76.8798 39.5H76.9198C77.5932 39.5 78.0898 39.71 78.4098 40.13C78.7365 40.55 78.8998 41.1567 78.8998 41.95V45H77.9398V41.75C77.9398 41.3367 77.8232 41.0067 77.5898 40.76C77.3565 40.5067 77.0365 40.38 76.6298 40.38C76.2098 40.38 75.8698 40.51 75.6098 40.77C75.3498 41.03 75.2198 41.3767 75.2198 41.81V45H74.2598ZM82.9463 45.18C82.4863 45.18 82.0863 45.1 81.7463 44.94C81.413 44.78 81.1363 44.5667 80.9163 44.3C80.6963 44.0267 80.5297 43.7267 80.4163 43.4C80.3097 43.0733 80.2563 42.7467 80.2563 42.42V42.24C80.2563 41.9 80.3097 41.5667 80.4163 41.24C80.5297 40.9133 80.6963 40.62 80.9163 40.36C81.143 40.0933 81.423 39.88 81.7563 39.72C82.0897 39.56 82.4797 39.48 82.9263 39.48C83.373 39.48 83.773 39.5633 84.1263 39.73C84.4863 39.8967 84.773 40.1333 84.9863 40.44C85.2063 40.74 85.3297 41.0967 85.3563 41.51H84.4363C84.3897 41.1767 84.2363 40.9 83.9763 40.68C83.7163 40.4533 83.3663 40.34 82.9263 40.34C82.5463 40.34 82.2297 40.4267 81.9763 40.6C81.723 40.7733 81.533 41.01 81.4063 41.31C81.2797 41.61 81.2163 41.95 81.2163 42.33C81.2163 42.6967 81.2797 43.0333 81.4063 43.34C81.533 43.64 81.723 43.88 81.9763 44.06C82.2363 44.2333 82.5597 44.32 82.9463 44.32C83.2463 44.32 83.5063 44.2667 83.7263 44.16C83.9463 44.0533 84.123 43.91 84.2563 43.73C84.3897 43.55 84.4697 43.3467 84.4963 43.12H85.4163C85.3963 43.54 85.273 43.9033 85.0463 44.21C84.8263 44.5167 84.533 44.7567 84.1663 44.93C83.8063 45.0967 83.3997 45.18 82.9463 45.18ZM88.9908 45.18C88.5241 45.18 88.1208 45.1 87.7808 44.94C87.4408 44.78 87.1641 44.57 86.9508 44.31C86.7374 44.0433 86.5774 43.7467 86.4708 43.42C86.3708 43.0933 86.3208 42.76 86.3208 42.42V42.24C86.3208 41.8933 86.3708 41.5567 86.4708 41.23C86.5774 40.9033 86.7374 40.61 86.9508 40.35C87.1641 40.0833 87.4341 39.8733 87.7608 39.72C88.0941 39.56 88.4841 39.48 88.9308 39.48C89.5108 39.48 89.9874 39.6067 90.3608 39.86C90.7408 40.1067 91.0208 40.4267 91.2008 40.82C91.3874 41.2133 91.4808 41.6333 91.4808 42.08V42.51H86.7408V41.79H90.7808L90.5608 42.18C90.5608 41.8 90.5008 41.4733 90.3808 41.2C90.2608 40.92 90.0808 40.7033 89.8408 40.55C89.6008 40.3967 89.2974 40.32 88.9308 40.32C88.5508 40.32 88.2341 40.4067 87.9808 40.58C87.7341 40.7533 87.5474 40.99 87.4208 41.29C87.3008 41.59 87.2408 41.9367 87.2408 42.33C87.2408 42.71 87.3008 43.0533 87.4208 43.36C87.5474 43.66 87.7408 43.9 88.0008 44.08C88.2608 44.2533 88.5908 44.34 88.9908 44.34C89.4108 44.34 89.7508 44.2467 90.0108 44.06C90.2774 43.8733 90.4374 43.6567 90.4908 43.41H91.3908C91.3174 43.7767 91.1708 44.0933 90.9508 44.36C90.7308 44.6267 90.4541 44.83 90.1208 44.97C89.7874 45.11 89.4108 45.18 88.9908 45.18ZM95.6392 47V37.7H96.4992V47H95.6392ZM104.535 45.18C103.968 45.18 103.455 45.0867 102.995 44.9C102.535 44.7133 102.138 44.45 101.805 44.11C101.478 43.77 101.225 43.37 101.045 42.91C100.865 42.4433 100.775 41.9367 100.775 41.39V41.17C100.775 40.7033 100.855 40.2533 101.015 39.82C101.182 39.38 101.418 38.9867 101.725 38.64C102.038 38.2867 102.418 38.01 102.865 37.81C103.312 37.6033 103.815 37.5 104.375 37.5C104.982 37.5 105.522 37.6167 105.995 37.85C106.468 38.0767 106.848 38.3967 107.135 38.81C107.422 39.2167 107.588 39.69 107.635 40.23H106.635C106.588 39.8233 106.455 39.4867 106.235 39.22C106.015 38.9467 105.742 38.7433 105.415 38.61C105.095 38.47 104.748 38.4 104.375 38.4C103.995 38.4 103.645 38.47 103.325 38.61C103.005 38.7433 102.728 38.9367 102.495 39.19C102.268 39.4433 102.092 39.7467 101.965 40.1C101.838 40.4533 101.775 40.85 101.775 41.29C101.775 41.79 101.842 42.23 101.975 42.61C102.115 42.9833 102.308 43.2967 102.555 43.55C102.802 43.7967 103.092 43.9833 103.425 44.11C103.765 44.2367 104.135 44.3 104.535 44.3C105.102 44.3 105.598 44.1867 106.025 43.96C106.458 43.7267 106.785 43.4267 107.005 43.06L106.645 44.25V42.08H107.565V43.82C107.238 44.2467 106.818 44.58 106.305 44.82C105.792 45.06 105.202 45.18 104.535 45.18ZM104.275 42.28V41.46H108.185V42.28H104.275ZM114.525 45V37.7H115.505V45H114.525ZM109.585 45V37.7H110.565V45H109.585ZM110.365 41.81V40.93H114.725V41.81H110.365ZM119.993 45.18C119.386 45.18 118.869 45.08 118.443 44.88C118.016 44.68 117.689 44.4033 117.463 44.05C117.236 43.6967 117.123 43.2967 117.123 42.85H118.103C118.103 43.07 118.159 43.29 118.273 43.51C118.393 43.73 118.589 43.9133 118.863 44.06C119.143 44.2067 119.519 44.28 119.993 44.28C120.433 44.28 120.793 44.2167 121.073 44.09C121.353 43.9567 121.559 43.7867 121.693 43.58C121.826 43.3667 121.893 43.1367 121.893 42.89C121.893 42.59 121.763 42.3433 121.503 42.15C121.243 41.95 120.863 41.8267 120.363 41.78L119.553 41.71C118.906 41.6567 118.389 41.4567 118.003 41.11C117.616 40.7633 117.423 40.3067 117.423 39.74C117.423 39.2933 117.529 38.9033 117.743 38.57C117.963 38.2367 118.266 37.9767 118.653 37.79C119.039 37.5967 119.489 37.5 120.003 37.5C120.509 37.5 120.956 37.5933 121.343 37.78C121.729 37.9667 122.029 38.23 122.243 38.57C122.463 38.9033 122.573 39.3033 122.573 39.77H121.593C121.593 39.5367 121.536 39.3167 121.423 39.11C121.316 38.9033 121.146 38.7333 120.913 38.6C120.679 38.4667 120.376 38.4 120.003 38.4C119.643 38.4 119.343 38.4633 119.103 38.59C118.869 38.7167 118.693 38.8833 118.573 39.09C118.459 39.29 118.403 39.5067 118.403 39.74C118.403 40.0067 118.506 40.2433 118.713 40.45C118.919 40.6567 119.226 40.7767 119.633 40.81L120.443 40.88C120.943 40.92 121.373 41.0267 121.733 41.2C122.099 41.3667 122.379 41.5933 122.573 41.88C122.773 42.16 122.873 42.4967 122.873 42.89C122.873 43.3367 122.753 43.7333 122.513 44.08C122.273 44.4267 121.936 44.6967 121.503 44.89C121.069 45.0833 120.566 45.18 119.993 45.18Z" fill="black"/>
<path d="M238.49 43.2C237.957 43.2 237.51 43.1067 237.15 42.92C236.797 42.7333 236.513 42.48 236.3 42.16C236.093 41.8333 235.943 41.46 235.85 41.04C235.763 40.62 235.72 40.18 235.72 39.72V39.24C235.72 38.0867 236.007 37.2 236.58 36.58C237.153 35.9533 237.983 35.64 239.07 35.64C239.33 35.64 239.55 35.6467 239.73 35.66C239.91 35.6733 240.107 35.6933 240.32 35.72V36.54C240.1 36.5133 239.897 36.4933 239.71 36.48C239.523 36.4667 239.297 36.46 239.03 36.46C238.423 36.46 237.943 36.5733 237.59 36.8C237.237 37.0267 236.983 37.3533 236.83 37.78C236.677 38.2 236.6 38.71 236.6 39.31V39.76L236.36 40.65C236.367 40.1233 236.467 39.6867 236.66 39.34C236.86 38.9933 237.13 38.7333 237.47 38.56C237.817 38.3867 238.213 38.3 238.66 38.3C239.18 38.3 239.62 38.4067 239.98 38.62C240.34 38.8267 240.61 39.1133 240.79 39.48C240.977 39.8467 241.07 40.2633 241.07 40.73C241.07 41.2033 240.973 41.6267 240.78 42C240.587 42.3733 240.297 42.6667 239.91 42.88C239.53 43.0933 239.057 43.2 238.49 43.2ZM238.49 42.36C238.857 42.36 239.163 42.29 239.41 42.15C239.657 42.01 239.84 41.82 239.96 41.58C240.087 41.3333 240.15 41.05 240.15 40.73C240.15 40.41 240.09 40.1267 239.97 39.88C239.85 39.6333 239.67 39.4433 239.43 39.31C239.197 39.17 238.907 39.1 238.56 39.1C238.22 39.1 237.913 39.1633 237.64 39.29C237.373 39.4167 237.163 39.6033 237.01 39.85C236.857 40.09 236.78 40.3867 236.78 40.74C236.78 41.0333 236.84 41.3033 236.96 41.55C237.08 41.7967 237.267 41.9933 237.52 42.14C237.773 42.2867 238.097 42.36 238.49 42.36ZM247.017 43.18C246.637 43.18 246.287 43.11 245.967 42.97C245.647 42.83 245.367 42.6333 245.127 42.38C244.894 42.1267 244.711 41.8333 244.577 41.5C244.451 41.1667 244.387 40.8067 244.387 40.42V40.24C244.387 39.86 244.451 39.5033 244.577 39.17C244.704 38.8367 244.881 38.5433 245.107 38.29C245.341 38.0367 245.614 37.84 245.927 37.7C246.247 37.5533 246.601 37.48 246.987 37.48C247.394 37.48 247.764 37.5667 248.097 37.74C248.431 37.9067 248.704 38.17 248.917 38.53C249.131 38.89 249.251 39.3567 249.277 39.93L248.877 39.29V35.7H249.837V43H249.077V40.63H249.357C249.331 41.2367 249.204 41.73 248.977 42.11C248.751 42.4833 248.464 42.7567 248.117 42.93C247.777 43.0967 247.411 43.18 247.017 43.18ZM247.147 42.34C247.474 42.34 247.771 42.2667 248.037 42.12C248.304 41.9733 248.517 41.7633 248.677 41.49C248.837 41.21 248.917 40.8833 248.917 40.51V40.05C248.917 39.6833 248.834 39.3733 248.667 39.12C248.507 38.86 248.291 38.6633 248.017 38.53C247.751 38.39 247.457 38.32 247.137 38.32C246.784 38.32 246.471 38.4033 246.197 38.57C245.931 38.7367 245.721 38.97 245.567 39.27C245.421 39.57 245.347 39.9233 245.347 40.33C245.347 40.7367 245.424 41.0933 245.577 41.4C245.731 41.7 245.944 41.9333 246.217 42.1C246.491 42.26 246.801 42.34 247.147 42.34ZM254.912 43V41.4H254.752V39.55C254.752 39.1833 254.655 38.9067 254.462 38.72C254.275 38.5333 253.998 38.44 253.632 38.44C253.425 38.44 253.212 38.4433 252.992 38.45C252.772 38.4567 252.562 38.4633 252.362 38.47C252.162 38.4767 251.988 38.4867 251.842 38.5V37.66C251.988 37.6467 252.142 37.6367 252.302 37.63C252.468 37.6167 252.638 37.61 252.812 37.61C252.985 37.6033 253.152 37.6 253.312 37.6C253.858 37.6 254.305 37.6667 254.652 37.8C254.998 37.9267 255.255 38.1367 255.422 38.43C255.588 38.7233 255.672 39.12 255.672 39.62V43H254.912ZM253.162 43.14C252.762 43.14 252.415 43.0733 252.122 42.94C251.835 42.8 251.612 42.6 251.452 42.34C251.298 42.08 251.222 41.7667 251.222 41.4C251.222 41.02 251.305 40.7033 251.472 40.45C251.645 40.1967 251.895 40.0067 252.222 39.88C252.548 39.7467 252.942 39.68 253.402 39.68H254.852V40.4H253.362C252.975 40.4 252.678 40.4933 252.472 40.68C252.265 40.8667 252.162 41.1067 252.162 41.4C252.162 41.6933 252.265 41.93 252.472 42.11C252.678 42.29 252.975 42.38 253.362 42.38C253.588 42.38 253.805 42.34 254.012 42.26C254.218 42.1733 254.388 42.0333 254.522 41.84C254.662 41.64 254.738 41.3667 254.752 41.02L255.012 41.4C254.978 41.78 254.885 42.1 254.732 42.36C254.585 42.6133 254.378 42.8067 254.112 42.94C253.852 43.0733 253.535 43.14 253.162 43.14ZM257.054 45.08V44.22H257.824C258.051 44.22 258.241 44.19 258.394 44.13C258.554 44.0767 258.684 43.9833 258.784 43.85C258.891 43.7167 258.977 43.54 259.044 43.32L260.724 37.66H261.664L259.884 43.57C259.777 43.9233 259.627 44.21 259.434 44.43C259.241 44.6567 259.004 44.82 258.724 44.92C258.451 45.0267 258.131 45.08 257.764 45.08H257.054ZM258.684 42.88V42.08H259.844V42.88H258.684ZM258.584 42.88L256.674 37.66H257.654L259.484 42.88H258.584ZM264.594 43.16C263.894 43.16 263.35 43.01 262.964 42.71C262.584 42.41 262.387 42 262.374 41.48H263.274C263.287 41.6867 263.39 41.8833 263.584 42.07C263.784 42.25 264.12 42.34 264.594 42.34C265.02 42.34 265.347 42.2567 265.574 42.09C265.8 41.9167 265.914 41.7067 265.914 41.46C265.914 41.24 265.83 41.07 265.664 40.95C265.497 40.8233 265.227 40.74 264.854 40.7L264.274 40.64C263.767 40.5867 263.354 40.4367 263.034 40.19C262.714 39.9367 262.554 39.5833 262.554 39.13C262.554 38.79 262.64 38.5 262.814 38.26C262.987 38.0133 263.227 37.8267 263.534 37.7C263.84 37.5667 264.194 37.5 264.594 37.5C265.194 37.5 265.68 37.6333 266.054 37.9C266.427 38.1667 266.62 38.5633 266.634 39.09H265.734C265.727 38.8767 265.627 38.6967 265.434 38.55C265.247 38.3967 264.967 38.32 264.594 38.32C264.22 38.32 263.937 38.3967 263.744 38.55C263.55 38.7033 263.454 38.8967 263.454 39.13C263.454 39.33 263.52 39.49 263.654 39.61C263.794 39.73 264.02 39.8067 264.334 39.84L264.914 39.9C265.487 39.96 265.947 40.12 266.294 40.38C266.64 40.6333 266.814 40.9933 266.814 41.46C266.814 41.7933 266.717 42.09 266.524 42.35C266.337 42.6033 266.077 42.8033 265.744 42.95C265.41 43.09 265.027 43.16 264.594 43.16ZM270.541 43V35.7H271.501V43H270.541ZM269.801 36.46V35.7H271.501V36.46H269.801ZM275.612 43.18C275.145 43.18 274.742 43.1 274.402 42.94C274.062 42.78 273.785 42.57 273.572 42.31C273.359 42.0433 273.199 41.7467 273.092 41.42C272.992 41.0933 272.942 40.76 272.942 40.42V40.24C272.942 39.8933 272.992 39.5567 273.092 39.23C273.199 38.9033 273.359 38.61 273.572 38.35C273.785 38.0833 274.055 37.8733 274.382 37.72C274.715 37.56 275.105 37.48 275.552 37.48C276.132 37.48 276.609 37.6067 276.982 37.86C277.362 38.1067 277.642 38.4267 277.822 38.82C278.009 39.2133 278.102 39.6333 278.102 40.08V40.51H273.362V39.79H277.402L277.182 40.18C277.182 39.8 277.122 39.4733 277.002 39.2C276.882 38.92 276.702 38.7033 276.462 38.55C276.222 38.3967 275.919 38.32 275.552 38.32C275.172 38.32 274.855 38.4067 274.602 38.58C274.355 38.7533 274.169 38.99 274.042 39.29C273.922 39.59 273.862 39.9367 273.862 40.33C273.862 40.71 273.922 41.0533 274.042 41.36C274.169 41.66 274.362 41.9 274.622 42.08C274.882 42.2533 275.212 42.34 275.612 42.34C276.032 42.34 276.372 42.2467 276.632 42.06C276.899 41.8733 277.059 41.6567 277.112 41.41H278.012C277.939 41.7767 277.792 42.0933 277.572 42.36C277.352 42.6267 277.075 42.83 276.742 42.97C276.409 43.11 276.032 43.18 275.612 43.18ZM279.605 43V37.39C279.605 36.7967 279.762 36.36 280.075 36.08C280.388 35.8 280.848 35.66 281.455 35.66H282.115V36.46H281.295C281.048 36.46 280.858 36.53 280.725 36.67C280.592 36.8033 280.525 36.99 280.525 37.23V43H279.605ZM278.865 38.44V37.72H282.215V38.44H278.865ZM285.412 43.06C285.012 43.06 284.665 43.0033 284.372 42.89C284.085 42.7767 283.862 42.5833 283.702 42.31C283.549 42.03 283.472 41.6533 283.472 41.18V36.04H284.392V41.3C284.392 41.5867 284.469 41.81 284.622 41.97C284.782 42.1233 285.005 42.2 285.292 42.2H286.232V43.06H285.412ZM282.552 38.38V37.66H286.232V38.38H282.552Z" fill="black"/>
<path d="M68.06 144V136.7H69.36L71.52 141.57H71.68L73.83 136.7H75.14V144H74.16V137.77L74.23 137.79L72.16 142.49H70.96L68.88 137.79L68.96 137.77V144H68.06ZM76.7592 146.08V145.22H77.5292C77.7559 145.22 77.9459 145.19 78.0992 145.13C78.2592 145.077 78.3892 144.983 78.4892 144.85C78.5959 144.717 78.6826 144.54 78.7492 144.32L80.4292 138.66H81.3692L79.5892 144.57C79.4826 144.923 79.3326 145.21 79.1392 145.43C78.9459 145.657 78.7092 145.82 78.4292 145.92C78.1559 146.027 77.8359 146.08 77.4692 146.08H76.7592ZM78.3892 143.88V143.08H79.5492V143.88H78.3892ZM78.2892 143.88L76.3792 138.66H77.3592L79.1892 143.88H78.2892ZM87.6834 144.18C87.2434 144.18 86.85 144.083 86.5034 143.89C86.1634 143.697 85.8934 143.417 85.6934 143.05C85.4934 142.677 85.3834 142.23 85.3634 141.71H85.6234V144H84.8634V136.7H85.8234V140.25L85.4834 140.98C85.51 140.4 85.6267 139.927 85.8334 139.56C86.04 139.193 86.31 138.923 86.6434 138.75C86.9834 138.57 87.3567 138.48 87.7634 138.48C88.1434 138.48 88.49 138.553 88.8034 138.7C89.1167 138.84 89.3867 139.037 89.6134 139.29C89.84 139.537 90.0134 139.827 90.1334 140.16C90.2534 140.487 90.3134 140.84 90.3134 141.22V141.4C90.3134 141.78 90.25 142.137 90.1234 142.47C90.0034 142.803 89.8267 143.1 89.5934 143.36C89.36 143.613 89.08 143.813 88.7534 143.96C88.4334 144.107 88.0767 144.18 87.6834 144.18ZM87.5734 143.34C87.9334 143.34 88.2467 143.253 88.5134 143.08C88.78 142.907 88.9867 142.67 89.1334 142.37C89.28 142.063 89.3534 141.71 89.3534 141.31C89.3534 140.91 89.2767 140.56 89.1234 140.26C88.9767 139.96 88.77 139.73 88.5034 139.57C88.2367 139.403 87.9267 139.32 87.5734 139.32C87.2534 139.32 86.9567 139.393 86.6834 139.54C86.41 139.68 86.19 139.887 86.0234 140.16C85.8634 140.427 85.7834 140.75 85.7834 141.13V141.59C85.7834 141.957 85.8667 142.27 86.0334 142.53C86.2 142.79 86.42 142.99 86.6934 143.13C86.9667 143.27 87.26 143.34 87.5734 143.34ZM93.6079 144.16C92.9746 144.16 92.4879 143.953 92.1479 143.54C91.8079 143.127 91.6379 142.53 91.6379 141.75V138.65H92.5979V141.94C92.5979 142.36 92.7112 142.69 92.9379 142.93C93.1646 143.163 93.4712 143.28 93.8579 143.28C94.2579 143.28 94.5846 143.153 94.8379 142.9C95.0912 142.64 95.2179 142.287 95.2179 141.84V138.65H96.1779V144H95.4179V141.71H95.5379C95.5379 142.237 95.4679 142.683 95.3279 143.05C95.1879 143.41 94.9779 143.687 94.6979 143.88C94.4246 144.067 94.0746 144.16 93.6479 144.16H93.6079ZM100.267 144.18C99.8872 144.18 99.5372 144.11 99.2172 143.97C98.8972 143.83 98.6172 143.633 98.3772 143.38C98.1439 143.127 97.9605 142.833 97.8272 142.5C97.7005 142.167 97.6372 141.807 97.6372 141.42V141.24C97.6372 140.86 97.7005 140.503 97.8272 140.17C97.9539 139.837 98.1305 139.543 98.3572 139.29C98.5905 139.037 98.8639 138.84 99.1772 138.7C99.4972 138.553 99.8505 138.48 100.237 138.48C100.644 138.48 101.014 138.567 101.347 138.74C101.681 138.907 101.954 139.17 102.167 139.53C102.381 139.89 102.501 140.357 102.527 140.93L102.127 140.29V136.7H103.087V144H102.327V141.63H102.607C102.581 142.237 102.454 142.73 102.227 143.11C102.001 143.483 101.714 143.757 101.367 143.93C101.027 144.097 100.661 144.18 100.267 144.18ZM100.397 143.34C100.724 143.34 101.021 143.267 101.287 143.12C101.554 142.973 101.767 142.763 101.927 142.49C102.087 142.21 102.167 141.883 102.167 141.51V141.05C102.167 140.683 102.084 140.373 101.917 140.12C101.757 139.86 101.541 139.663 101.267 139.53C101.001 139.39 100.707 139.32 100.387 139.32C100.034 139.32 99.7205 139.403 99.4472 139.57C99.1805 139.737 98.9705 139.97 98.8172 140.27C98.6705 140.57 98.5972 140.923 98.5972 141.33C98.5972 141.737 98.6739 142.093 98.8272 142.4C98.9805 142.7 99.1939 142.933 99.4672 143.1C99.7405 143.26 100.051 143.34 100.397 143.34ZM106.952 146.08C106.705 146.08 106.455 146.07 106.202 146.05C105.955 146.03 105.718 146.003 105.492 145.97V145.16C105.732 145.193 105.982 145.22 106.242 145.24C106.508 145.267 106.758 145.28 106.992 145.28C107.478 145.28 107.865 145.213 108.152 145.08C108.445 144.953 108.655 144.75 108.782 144.47C108.915 144.197 108.982 143.843 108.982 143.41V142.39L109.302 141.63C109.282 142.17 109.168 142.62 108.962 142.98C108.755 143.333 108.485 143.6 108.152 143.78C107.825 143.953 107.462 144.04 107.062 144.04C106.688 144.04 106.345 143.97 106.032 143.83C105.725 143.683 105.458 143.483 105.232 143.23C105.012 142.977 104.838 142.687 104.712 142.36C104.592 142.027 104.532 141.677 104.532 141.31V141.13C104.532 140.757 104.595 140.41 104.722 140.09C104.848 139.763 105.025 139.48 105.252 139.24C105.478 139 105.748 138.813 106.062 138.68C106.382 138.547 106.732 138.48 107.112 138.48C107.558 138.48 107.952 138.577 108.292 138.77C108.632 138.957 108.898 139.233 109.092 139.6C109.292 139.96 109.402 140.403 109.422 140.93L109.142 140.94V138.66H109.902V143.37C109.902 144.01 109.802 144.527 109.602 144.92C109.408 145.32 109.095 145.613 108.662 145.8C108.235 145.987 107.665 146.08 106.952 146.08ZM107.242 143.16C107.562 143.16 107.852 143.09 108.112 142.95C108.378 142.81 108.588 142.61 108.742 142.35C108.902 142.083 108.982 141.767 108.982 141.4V140.94C108.982 140.58 108.898 140.277 108.732 140.03C108.572 139.783 108.362 139.597 108.102 139.47C107.842 139.343 107.558 139.28 107.252 139.28C106.905 139.28 106.598 139.36 106.332 139.52C106.065 139.68 105.858 139.907 105.712 140.2C105.565 140.487 105.492 140.827 105.492 141.22C105.492 141.613 105.565 141.957 105.712 142.25C105.865 142.543 106.072 142.77 106.332 142.93C106.598 143.083 106.902 143.16 107.242 143.16ZM113.95 144.18C113.483 144.18 113.08 144.1 112.74 143.94C112.4 143.78 112.123 143.57 111.91 143.31C111.696 143.043 111.536 142.747 111.43 142.42C111.33 142.093 111.28 141.76 111.28 141.42V141.24C111.28 140.893 111.33 140.557 111.43 140.23C111.536 139.903 111.696 139.61 111.91 139.35C112.123 139.083 112.393 138.873 112.72 138.72C113.053 138.56 113.443 138.48 113.89 138.48C114.47 138.48 114.946 138.607 115.32 138.86C115.7 139.107 115.98 139.427 116.16 139.82C116.346 140.213 116.44 140.633 116.44 141.08V141.51H111.7V140.79H115.74L115.52 141.18C115.52 140.8 115.46 140.473 115.34 140.2C115.22 139.92 115.04 139.703 114.8 139.55C114.56 139.397 114.256 139.32 113.89 139.32C113.51 139.32 113.193 139.407 112.94 139.58C112.693 139.753 112.506 139.99 112.38 140.29C112.26 140.59 112.2 140.937 112.2 141.33C112.2 141.71 112.26 142.053 112.38 142.36C112.506 142.66 112.7 142.9 112.96 143.08C113.22 143.253 113.55 143.34 113.95 143.34C114.37 143.34 114.71 143.247 114.97 143.06C115.236 142.873 115.396 142.657 115.45 142.41H116.35C116.276 142.777 116.13 143.093 115.91 143.36C115.69 143.627 115.413 143.83 115.08 143.97C114.746 144.11 114.37 144.18 113.95 144.18ZM119.883 144.06C119.483 144.06 119.136 144.003 118.843 143.89C118.556 143.777 118.333 143.583 118.173 143.31C118.019 143.03 117.943 142.653 117.943 142.18V137.04H118.863V142.3C118.863 142.587 118.939 142.81 119.093 142.97C119.253 143.123 119.476 143.2 119.763 143.2H120.703V144.06H119.883ZM117.023 139.38V138.66H120.703V139.38H117.023Z" fill="black"/>
<g filter="url(#filter0_d_756_4341)">
<path d="M285.043 109.693C284.734 109.44 284.379 109.234 284.014 109.075L272.344 100.922C271.4 100.258 270.203 100.015 269.062 100.248L212.331 112.208C224.637 104.653 225.254 94.1235 225.104 90.7759C224.927 86.8392 223.477 82.248 219.943 81.154C218.662 80.7612 217.324 80.9108 216.202 81.5186C216.782 80.6584 217.446 79.7233 218.157 78.7228C221.289 74.3092 224.833 69.3159 225.983 64.3786C229.088 51.007 220.289 34.6711 206.842 28.7334L206.739 28.6866C204.617 27.7609 202.129 28.7334 201.194 30.8466C200.521 32.3802 200.83 34.1662 201.933 35.3818C202.279 36.0176 203.205 37.9533 204.43 40.8801C204.495 41.039 204.561 41.2073 204.626 41.3663C202.765 38.2618 200.138 35.8867 197.734 33.708C195.911 32.0529 194.181 30.4913 192.956 28.7895C191.787 27.1718 190.403 24.6471 190.422 21.8605C190.441 19.5322 191.039 18.0735 191.329 17.8303C193.143 16.755 193.882 14.4827 193.05 12.5471C192.217 10.6115 190.067 9.59228 188.038 10.1533C181.389 12.0328 175.554 14.3986 171.534 24.4507C168.953 30.9121 170.851 36.747 172.796 41.1045C174.367 44.6391 176.48 47.6407 178.509 50.5394C180.548 53.4382 182.465 56.178 183.699 59.2076C185.251 63.0415 185.616 65.9776 184.812 68.1844C184.419 69.2598 183.456 70.2416 182.362 70.6811C181.745 70.9242 181.24 70.9523 180.838 70.7559C180.37 70.5221 179.463 69.7647 178.687 67.268C178.481 66.6228 178.313 65.9683 178.135 65.2857C177.64 63.4061 177.079 61.2835 175.928 59.2544C173.301 54.5977 168.139 51.4278 161.753 50.5581C159.985 50.3431 158.246 51.2501 157.451 52.8397C156.638 54.4481 156.946 56.393 158.199 57.6835C161.397 60.9562 162.557 66.4171 161.734 74.3746C161.594 75.7399 161.416 77.1144 161.238 78.5357C160.472 84.5576 159.677 90.7946 161.397 97.0784C163.567 105.017 168.644 111.151 176.069 114.807C176.527 115.032 177.004 115.247 177.49 115.462L177.443 119.567L161.07 123.027L160.771 123.102L160.668 123.148C160.472 123.214 160.247 123.298 159.976 123.438L159.677 123.625C159.677 123.625 159.593 123.681 159.555 123.719C159.368 123.84 159.2 123.981 159.022 124.149C158.891 124.27 158.779 124.411 158.714 124.504C158.564 124.682 158.433 124.86 158.311 125.075C158.227 125.224 158.153 125.374 158.106 125.495C158.05 125.617 158.003 125.748 157.956 125.898C157.9 126.038 157.863 126.178 157.844 126.309L157.778 126.664V126.777C157.76 126.898 157.76 127.029 157.76 127.151V197.141C157.76 198.516 158.433 199.806 159.555 200.592L172.029 209.307C172.282 209.484 172.515 209.587 172.637 209.643C172.787 209.718 172.945 209.793 173.095 209.84C173.535 209.989 173.983 210.064 174.432 210.064C174.731 210.064 175.031 210.036 175.311 209.971L229.845 198.348C231.781 197.936 233.183 196.206 233.183 194.224V160.374L270.699 152.379C279.928 150.415 286.633 142.131 286.633 132.696V112.975C286.633 111.694 286.062 110.506 285.071 109.702L285.043 109.693Z" fill="white"/>
</g>
<path d="M269.802 148.255L227.863 157.195V124.598L282.397 112.975V132.696C282.397 140.204 277.142 146.694 269.802 148.265V148.255Z" fill="url(#paint0_linear_756_4341)" stroke="#1D074F" stroke-width="3.01" stroke-linecap="round" stroke-linejoin="round"/>
<path d="M269.932 104.381L215.398 115.892L227.863 124.598L282.397 113.096L269.932 104.381Z" fill="#1D074F" stroke="#1D074F" stroke-width="3.01" stroke-linecap="round" stroke-linejoin="round"/>
<path d="M174.414 205.856L161.949 197.141V127.151L174.414 135.866V205.856Z" fill="url(#paint1_linear_756_4341)" stroke="#1D074F" stroke-width="3.01" stroke-linecap="round" stroke-linejoin="round"/>
<path d="M228.948 194.233L174.414 205.856V135.865L228.948 124.242V194.233Z" fill="url(#paint2_linear_756_4341)" stroke="#1D074F" stroke-width="3.01" stroke-linecap="round" stroke-linejoin="round"/>
<path d="M216.483 115.649L161.949 127.15L174.414 135.865L228.948 124.355L216.483 115.649Z" fill="url(#paint3_linear_756_4341)" stroke="#1D074F" stroke-width="3.01" stroke-linecap="round" stroke-linejoin="round"/>
<path d="M189.524 128.441L181.604 122.905L181.706 113.76L189.627 119.305L189.524 128.441Z" fill="url(#paint4_linear_756_4341)" stroke="#1D074F" stroke-width="3.01" stroke-linecap="round" stroke-linejoin="round"/>
<path d="M207.768 124.486L189.328 128.441V119.305L207.768 115.35V124.486Z" fill="url(#paint5_linear_756_4341)" stroke="#1D074F" stroke-width="3.01" stroke-linecap="round" stroke-linejoin="round"/>
<path d="M199.848 109.889L181.707 113.76L189.627 119.305L207.768 115.425L199.848 109.889Z" fill="url(#paint6_linear_756_4341)" stroke="#1D074F" stroke-width="3.01" stroke-linecap="round" stroke-linejoin="round"/>
<path d="M165.437 95.9843C163.567 89.1301 165.175 81.8833 165.904 74.8141C166.634 67.7449 166.166 59.8247 161.191 54.7472C165.596 55.3457 170.056 57.4683 172.244 61.3396C173.497 63.5557 173.899 66.1178 174.657 68.549C175.414 70.9709 176.695 73.4488 178.977 74.5616C182.67 76.3756 187.346 73.5143 188.758 69.6524C190.17 65.7905 189.141 61.4611 187.589 57.646C184.877 50.9602 179.566 45.9949 176.63 39.4026C174.9 35.522 173.45 31.0056 175.433 26.0309C178.771 17.6713 183.156 15.9227 189.169 14.2302C186.813 15.6328 186.224 19.3638 186.205 21.8511C186.177 25.2455 187.57 28.5463 189.524 31.2674C193.517 36.8218 200.801 40.1319 202.513 47.1918C203.513 51.3062 201.147 54.953 200.137 58.7775C199.67 60.5261 199.633 62.5084 200.633 64.0139C201.269 64.9677 202.279 65.6409 203.364 66.015C208.17 67.6794 212.237 63.911 212.714 59.273C213.182 54.7379 211.723 49.6791 210.461 45.3684C209.853 43.2925 209.133 41.254 208.301 39.2623C207.88 38.2618 205.57 32.7916 205.028 32.5578C216.37 37.5511 224.571 51.7363 221.859 63.4341C220.606 68.8483 215.239 75.2629 212.237 79.8541C210.479 82.5472 209.825 86.4184 211.078 87.6247C213.07 89.5322 215.613 88.5504 217.923 85.474C220.232 82.3976 227.591 101.969 204.71 111.338C189.057 117.744 169.972 112.61 165.427 95.9749L165.437 95.9843Z" fill="url(#paint7_linear_756_4341)" stroke="#1D074F" stroke-width="3.01" stroke-linecap="round" stroke-linejoin="round"/>
<path d="M179.912 106.083C178.041 102.334 177.34 98.1257 176.742 93.9833C176.134 89.8409 175.592 85.633 174.002 81.7618C178.425 83.4356 179.126 87.6154 182.623 90.1401C184.914 91.7952 188.112 91.4305 190.3 89.7661C192.526 88.0642 193.713 85.2683 194.022 82.4818C194.331 79.6953 193.564 77.1705 193.367 74.4495C195.481 75.6183 197.145 77.7877 198.015 80.0132C199.689 84.3052 198.66 89.2144 199.876 93.656C200.381 95.5168 201.437 97.415 203.233 98.1257C204.364 98.5652 205.645 98.481 206.805 98.1163C207.197 97.9948 210.582 96.667 210.405 96.162C211.489 99.3226 210.077 102.773 208.656 105.588C207.319 108.253 205.449 110.244 202.587 111.6C194.396 115.471 184.045 114.359 179.93 106.093L179.912 106.083Z" fill="url(#paint8_linear_756_4341)" stroke="#1D074F" stroke-width="3.01" stroke-linecap="round" stroke-linejoin="round"/>
<path fill-rule="evenodd" clip-rule="evenodd" d="M217.933 162.786C215.595 162.786 213.688 160.879 213.688 158.541V139.718C213.688 137.38 215.595 135.473 217.933 135.473C218.008 135.473 218.082 135.473 218.157 135.473C220.411 135.594 222.178 137.53 222.178 139.886V158.541C222.178 160.879 220.27 162.786 217.933 162.786Z" fill="white"/>
<path d="M217.933 136.613C217.989 136.613 218.045 136.613 218.101 136.613C219.775 136.698 221.037 138.212 221.037 139.886V158.541C221.037 160.252 219.644 161.645 217.933 161.645C216.222 161.645 214.828 160.252 214.828 158.541V139.718C214.828 138.007 216.222 136.613 217.933 136.613ZM217.933 134.332C214.969 134.332 212.547 136.744 212.547 139.718V158.541C212.547 161.505 214.959 163.927 217.933 163.927C220.906 163.927 223.319 161.515 223.319 158.541V139.886C223.319 136.922 221.084 134.481 218.223 134.332C218.129 134.332 218.036 134.332 217.933 134.332Z" fill="#1D074F"/>
<path fill-rule="evenodd" clip-rule="evenodd" d="M218.335 177.112C215.866 177.112 213.855 175.101 213.855 172.633C213.855 170.164 215.866 168.154 218.335 168.154C220.803 168.154 222.814 170.164 222.814 172.633C222.814 175.101 220.803 177.112 218.335 177.112Z" fill="white"/>
<path d="M218.335 169.285C220.177 169.285 221.673 170.781 221.673 172.624C221.673 174.466 220.177 175.962 218.335 175.962C216.493 175.962 214.996 174.466 214.996 172.624C214.996 170.781 216.493 169.285 218.335 169.285ZM218.335 167.004C215.23 167.004 212.715 169.528 212.715 172.624C212.715 175.719 215.24 178.243 218.335 178.243C221.43 178.243 223.955 175.719 223.955 172.624C223.955 169.528 221.43 167.004 218.335 167.004Z" fill="#1D074F"/>
<g filter="url(#filter1_d_756_4341)">
<path d="M44.8638 119.181C39.1919 116.476 32.7205 115.682 26.6305 116.948C23.5409 117.015 20.5266 117.601 17.6644 118.691C15.5097 119.179 13.4307 119.904 11.4897 120.858C4.71091 124.16 -0.410267 129.901 -2.93478 137.014C-5.45953 144.135 -5.09188 151.832 -1.89353 158.681C1.94854 166.908 9.5677 172.88 18.4896 174.647C18.6261 174.676 19.1629 174.79 19.8075 174.937C21.4492 175.309 22.5498 175.859 22.9156 176.238C24.3789 177.752 28.2675 181.778 32.0313 180.02C32.1576 179.961 32.2805 179.895 32.3981 179.827C33.8773 180.415 35.2597 180.42 36.5083 179.837C37.3636 179.438 38.0592 178.81 38.5806 177.968C39.2311 178.495 39.8753 178.858 40.5822 179.007C41.6577 179.23 42.6545 179.134 43.5458 178.718C43.7191 178.637 43.8836 178.547 44.0414 178.442C44.3822 178.626 44.7173 178.751 45.0612 178.819C46.1367 179.042 47.1335 178.946 48.0248 178.529C48.3785 178.364 48.6994 178.157 48.9876 177.909C49.1341 177.959 49.2809 178 49.4279 178.033C50.4803 178.253 51.4557 178.158 52.3326 177.749C55.9989 176.037 54.8976 170.92 54.4823 168.996C54.4666 168.915 54.4474 168.836 54.43 168.752C54.5539 168.65 54.6708 168.543 54.7791 168.426C55.6087 168.782 56.7813 169.043 58.001 168.473C58.1742 168.392 58.3406 168.297 58.4968 168.189C61.0253 166.45 60.278 163.551 59.6231 160.991C59.1422 159.123 58.5435 156.796 59.1869 155.322L59.2079 155.273C59.2268 155.229 59.2422 155.186 59.2576 155.144L59.273 155.102C59.4158 154.692 59.5646 154.258 59.7026 153.828C62.0253 146.735 61.5056 139.127 58.2291 132.403C55.4307 126.655 50.6834 121.958 44.8654 119.184L44.8638 119.181Z" fill="white"/>
</g>
<path d="M51.3182 175.585C50.9212 175.771 50.4499 175.806 49.9184 175.694C49.153 175.533 48.0057 174.262 45.7485 171.593C45.2269 170.975 44.7311 170.393 44.3023 169.908C43.9978 169.567 43.7502 169.3 43.5418 169.098C43.2814 168.842 43.1139 168.709 43.0176 168.644L42.9931 168.629L42.9721 168.613C42.5048 168.233 42.0938 168.078 41.8448 168.194C41.5958 168.31 41.4104 168.713 41.3629 169.223C41.5043 171.795 41.0704 173.228 39.9986 173.729C38.4542 174.45 35.9843 172.935 31.9986 168.805C31.9883 168.792 31.976 168.785 31.969 168.78C31.779 168.89 31.5024 169.239 31.2775 169.52C30.8811 170.017 30.4332 170.574 29.8595 170.842C29.5167 171.002 29.1664 171.042 28.8139 170.965C28.1603 170.817 27.5935 170.695 27.427 170.659C19.2512 169.039 12.2654 163.568 8.74351 156.026C5.81309 149.75 5.47279 142.696 7.7874 136.17C10.1001 129.648 14.7931 124.393 21.0088 121.363C21.1387 121.302 21.2722 121.24 21.4057 121.177C34.2992 115.156 49.8542 120.662 56.0794 133.447C59.0805 139.61 59.5582 146.591 57.4259 153.094C57.2975 153.497 57.1583 153.905 57.0172 154.318L57.0018 154.36C56.0263 156.592 56.7379 159.358 57.3109 161.583C57.8646 163.729 58.3002 165.424 57.1477 166.213C57.097 166.245 57.0462 166.278 56.9957 166.301C56.0394 166.748 54.7553 165.73 52.9757 164.319C52.5307 163.969 52.0701 163.604 51.5968 163.249C51.4204 163.116 51.2002 163.087 51.0234 163.169C50.7311 163.306 50.4914 163.809 50.7847 164.767C51.5828 166.965 54.014 174.318 51.322 175.575L51.3182 175.585Z" fill="url(#paint9_linear_756_4341)"/>
<path d="M21.6593 121.719C34.2352 115.846 49.449 121.185 55.5423 133.706C58.5838 139.956 58.8582 146.813 56.8598 152.906C56.7315 153.309 56.5942 153.711 56.4514 154.121C54.5209 158.543 58.5895 164.498 56.8053 165.722C56.7817 165.738 56.7618 165.751 56.7365 165.763C55.9318 166.139 54.0205 164.324 51.9471 162.774C51.589 162.506 51.1359 162.458 50.7643 162.631C50.2013 162.894 49.8154 163.668 50.2105 164.947C50.2105 164.947 53.4967 173.905 51.0645 175.04C50.7975 175.165 50.4599 175.195 50.0365 175.107C49.1647 174.925 46.4487 171.425 44.743 169.513C44.4576 169.194 44.1926 168.909 43.9565 168.676C43.7205 168.444 43.5149 168.267 43.347 168.152C42.6164 167.557 42.0223 167.452 41.5893 167.654C41.1057 167.88 40.8169 168.485 40.7634 169.218C40.8898 171.418 40.5875 172.795 39.7431 173.189C38.5342 173.753 36.2068 172.308 32.4257 168.391C32.1882 168.146 31.9608 168.12 31.7334 168.226C31.0839 168.529 30.4447 169.909 29.6039 170.302C29.3982 170.398 29.1781 170.435 28.9425 170.382C28.2837 170.233 27.7063 170.107 27.5414 170.074C19.8053 168.539 12.8783 163.466 9.28561 155.773C3.35906 143.082 8.72643 128.013 21.2696 121.901C21.3995 121.84 21.5294 121.779 21.6557 121.72M21.1502 120.638C21.0166 120.7 20.8795 120.764 20.746 120.826C14.3913 123.926 9.58811 129.303 7.22516 135.971C4.85669 142.646 5.20522 149.859 8.20304 156.278C11.8058 163.994 18.9487 169.585 27.3105 171.245C27.4522 171.276 28.0085 171.394 28.6779 171.547C29.1543 171.655 29.6476 171.6 30.1095 171.384C30.8095 171.057 31.3072 170.438 31.7423 169.892C31.8067 169.814 31.8806 169.718 31.9597 169.624C35.9768 173.708 38.4696 175.102 40.2522 174.27C42.0349 173.437 42.0617 171.038 41.9638 169.238C41.9916 168.996 42.0527 168.844 42.0922 168.769C42.1752 168.796 42.3424 168.872 42.5917 169.076L42.6336 169.109L42.6791 169.141C42.7385 169.184 42.8783 169.285 43.1178 169.525C43.3139 169.719 43.5529 169.977 43.8523 170.307C44.2778 170.786 44.7683 171.365 45.2881 171.98C47.7442 174.877 48.8364 176.076 49.7913 176.277C50.454 176.415 51.054 176.364 51.5701 176.123C53.6955 175.13 53.2503 171.795 52.729 169.371C52.2347 167.07 51.4761 164.928 51.3448 164.571C51.2158 164.135 51.2369 163.879 51.2703 163.762C51.728 164.102 52.1693 164.454 52.5951 164.792C54.5421 166.335 55.9502 167.449 57.2421 166.846C57.3251 166.807 57.4047 166.761 57.4809 166.708C58.9784 165.679 58.4698 163.714 57.8841 161.434C57.3354 159.299 56.6529 156.642 57.545 154.599L57.564 154.555L57.5794 154.513C57.7164 154.119 57.8631 153.699 57.9958 153.268C60.1728 146.625 59.6833 139.487 56.6164 133.183C50.2495 120.104 34.3415 114.473 21.1521 120.632L21.1502 120.638Z" fill="#1D074F"/>
<path d="M47.0151 176.364C46.6037 176.556 46.1127 176.597 45.5528 176.48C44.6863 176.3 43.3138 174.792 41.156 172.336C40.8621 171.998 40.575 171.675 40.3052 171.37C40.0007 171.029 39.7531 170.762 39.5447 170.561C39.2843 170.304 39.1168 170.172 39.0205 170.107L38.9996 170.09L38.9787 170.073C38.5113 169.694 38.1003 169.539 37.8513 169.655C37.6024 169.771 37.417 170.174 37.3694 170.684C37.5935 174.694 36.9853 176.978 35.5022 177.67C34.0191 178.363 31.9203 177.295 29.1151 174.394C28.0454 173.289 25.9662 172.686 24.8204 172.426C24.1669 172.278 23.5983 172.153 23.4335 172.12C15.2577 170.5 8.27193 165.029 4.75004 157.487C-1.42928 144.254 3.96351 127.903 16.5247 121.782C16.6438 121.727 16.7665 121.67 16.8856 121.614C29.5697 115.691 45.6881 121.781 52.0823 134.909C55.0834 141.072 55.5611 148.053 53.4288 154.557C53.3005 154.959 53.1613 155.367 53.0165 155.782L53.0011 155.824C52.0275 158.051 52.6203 160.6 53.0964 162.646C53.544 164.564 53.9255 166.219 52.7783 167.01C52.722 167.049 52.6587 167.083 52.5974 167.112C51.4895 167.629 49.9751 166.494 47.6782 164.776L47.5908 164.711C47.4144 164.578 47.1943 164.549 47.0174 164.632C46.7252 164.768 46.4854 165.271 46.7787 166.229C47.5008 168.274 49.6766 175.117 47.0062 176.364L47.0151 176.364Z" fill="url(#paint10_linear_756_4341)"/>
<path d="M17.1394 122.15C29.7298 116.271 45.4436 122.633 51.5455 135.164C54.5871 141.414 54.8614 148.27 52.8631 154.363C52.7347 154.766 52.5974 155.169 52.4546 155.578C50.5242 160.001 54.2223 165.284 52.4398 166.512C52.4107 166.535 52.3782 166.55 52.3421 166.567C51.5482 166.937 49.9975 165.763 47.9503 164.231C47.5922 163.963 47.1392 163.915 46.7675 164.089C46.2045 164.352 45.8186 165.125 46.2137 166.404C46.2137 166.404 49.1576 174.704 46.7615 175.823C46.4765 175.956 46.1211 175.986 45.6745 175.896C44.8028 175.714 42.4536 172.886 40.7499 170.969C40.4644 170.65 40.1995 170.365 39.9634 170.132C39.7273 169.899 39.5218 169.723 39.3538 169.608C38.6232 169.013 38.0291 168.908 37.5961 169.11C37.1125 169.336 36.8237 169.941 36.7703 170.674C36.9426 173.688 36.6687 176.462 35.2506 177.124C34.1499 177.638 32.3546 176.881 29.5461 173.972C28.4643 172.851 26.4724 172.181 24.953 171.836C24.2942 171.687 23.7167 171.561 23.5519 171.528C15.8157 169.993 8.88871 164.92 5.29605 157.227C-0.630502 144.536 4.24987 128.424 16.793 122.312C16.9085 122.258 17.0276 122.202 17.143 122.148M16.6375 121.066C16.5148 121.123 16.3921 121.18 16.2694 121.238C9.96358 124.31 5.24416 129.885 2.9814 136.937C0.786684 143.777 1.23587 151.356 4.21347 157.733C7.81625 165.448 14.9592 171.039 23.3209 172.699C23.4627 172.73 24.019 172.848 24.6884 173.001C26.5283 173.421 27.9861 174.077 28.69 174.803C30.6057 176.787 33.4213 179.297 35.7561 178.206C37.5027 177.391 38.2063 175.001 37.9706 170.693C37.9985 170.452 38.0595 170.3 38.099 170.225C38.182 170.252 38.3492 170.328 38.5985 170.532L38.6404 170.565L38.6859 170.597C38.7453 170.639 38.8852 170.741 39.1246 170.981C39.3208 171.175 39.5597 171.433 39.8591 171.763C40.1272 172.064 40.416 172.391 40.7082 172.725C43.2136 175.577 44.4159 176.853 45.433 177.063C46.1204 177.208 46.7366 177.153 47.2707 176.904C49.609 175.812 48.8287 171.816 48.5717 170.503C48.1503 168.34 47.441 166.284 47.3517 166.027C47.219 165.592 47.2456 165.329 47.2754 165.214L47.3226 165.249C49.789 167.095 51.4186 168.317 52.8512 167.648C52.9451 167.604 53.0319 167.554 53.119 167.496C54.6037 166.478 54.1548 164.547 53.6803 162.505C53.225 160.541 52.6561 158.099 53.5518 156.055L53.5708 156.011L53.5862 155.968C53.7233 155.575 53.8699 155.155 54.0026 154.724C56.1796 148.081 55.6901 140.942 52.6233 134.639C49.5581 128.338 43.9397 123.235 37.2085 120.633C30.2728 117.951 22.9689 118.105 16.6358 121.062L16.6375 121.066Z" fill="#1D074F"/>
<path d="M42.5343 176.549C42.1229 176.741 41.6318 176.782 41.0719 176.665C40.2055 176.485 38.833 174.977 36.6734 172.517C36.3812 172.183 36.0924 171.857 35.8243 171.555C35.5182 171.21 35.267 170.945 35.0638 170.746C34.8034 170.489 34.636 170.357 34.5397 170.292L34.5188 170.275L34.4978 170.258C34.0305 169.879 33.6195 169.723 33.3705 169.84C33.1215 169.956 32.9361 170.359 32.8886 170.869C33.1126 174.879 32.5045 177.163 31.0214 177.855C29.5382 178.548 27.4395 177.48 24.6343 174.579C23.5645 173.474 21.4854 172.871 20.3395 172.611C19.686 172.463 19.1175 172.337 18.9526 172.305C10.7769 170.685 3.79469 165.212 0.272803 157.67C-2.65761 151.395 -2.99792 144.34 -0.683302 137.814C1.62939 131.292 6.32242 126.037 12.5381 123.007C12.668 122.946 12.8015 122.884 12.935 122.821C25.8285 116.801 41.3835 122.306 47.6087 135.091C50.6098 141.254 51.0875 148.235 48.9552 154.738C48.8268 155.141 48.6876 155.549 48.5465 155.962L48.5311 156.004C47.5575 158.23 48.1502 160.78 48.6264 162.826C49.0739 164.744 49.4555 166.399 48.3082 167.189C48.252 167.229 48.1887 167.263 48.1273 167.291C47.0195 167.809 45.5051 166.674 43.2082 164.956L43.1261 164.893C42.9497 164.76 42.7295 164.731 42.5527 164.813C42.2604 164.95 42.0207 165.453 42.314 166.411C43.036 168.456 45.2118 175.299 42.5415 176.546L42.5343 176.549Z" fill="url(#paint11_linear_756_4341)"/>
<path d="M13.1816 123.361C25.7576 117.488 40.9714 122.827 47.0646 135.348C50.1062 141.598 50.3805 148.455 48.3822 154.548C48.2538 154.951 48.1165 155.353 47.9737 155.763C46.0433 160.185 49.7414 165.469 47.9589 166.697C47.9298 166.719 47.8973 166.735 47.8612 166.751C47.0673 167.122 45.5166 165.948 43.4694 164.416C43.1114 164.148 42.6583 164.1 42.2866 164.273C41.7237 164.536 41.3377 165.31 41.7328 166.589C41.7328 166.589 44.6768 174.889 42.2807 176.008C41.9956 176.141 41.6402 176.171 41.1936 176.08C40.3219 175.898 37.9727 173.07 36.269 171.154C35.9836 170.834 35.7186 170.549 35.4825 170.317C35.2464 170.084 35.0409 169.908 34.8729 169.793C34.1423 169.198 33.5482 169.093 33.1152 169.295C32.6317 169.521 32.3429 170.126 32.2894 170.858C32.4617 173.872 32.1879 176.646 30.7697 177.309C29.6691 177.822 27.8738 177.065 25.0652 174.157C23.9834 173.036 21.9916 172.366 20.4721 172.021C19.8133 171.871 19.2358 171.745 19.071 171.712C11.3348 170.178 4.40784 165.105 0.815176 157.412C-5.11137 144.72 0.255996 129.652 12.7991 123.539C12.929 123.479 13.059 123.418 13.1853 123.359M12.6797 122.276C12.5462 122.339 12.4091 122.403 12.2756 122.465C5.92087 125.564 1.11767 130.941 -1.24527 137.61C-3.61374 144.285 -3.26522 151.498 -0.267399 157.917C3.33538 165.632 10.4783 171.224 18.8401 172.884C18.9818 172.915 19.5381 173.033 20.2075 173.186C22.0475 173.606 23.5052 174.261 24.2091 174.988C26.1248 176.972 28.9405 179.481 31.2752 178.391C33.0218 177.576 33.7254 175.185 33.4897 170.878C33.5176 170.636 33.5787 170.485 33.6181 170.409C33.7011 170.436 33.8684 170.512 34.1177 170.717L34.1595 170.75L34.205 170.781C34.2645 170.824 34.4043 170.926 34.6437 171.166C34.8399 171.36 35.0789 171.617 35.3782 171.948C35.6464 172.249 35.9352 172.576 36.2273 172.909C38.7327 175.761 39.9334 177.034 40.9521 177.248C41.6396 177.393 42.2557 177.338 42.7898 177.089C45.1282 175.997 44.3495 172.004 44.0925 170.692C43.6728 168.532 42.9635 166.476 42.8725 166.215C42.7417 165.775 42.7648 165.514 42.7962 165.403L42.8434 165.438C45.3098 167.284 46.9394 168.505 48.3721 167.836C48.4659 167.792 48.5563 167.741 48.6398 167.685C50.1245 166.666 49.6756 164.735 49.2011 162.693C48.7458 160.73 48.1769 158.288 49.0727 156.243L49.0916 156.199L49.107 156.157C49.2441 155.763 49.3907 155.343 49.5234 154.912C51.7004 148.269 51.2109 141.131 48.1441 134.827C41.7771 121.748 25.8691 116.117 12.6797 122.276Z" fill="#1D074F"/>
<path d="M18.0714 149.863C19.5741 149.161 19.727 146.311 18.4129 143.497C17.0988 140.683 14.8154 138.971 13.3127 139.673C11.81 140.374 11.6571 143.224 12.9712 146.038C14.2853 148.853 16.5687 150.565 18.0714 149.863Z" fill="#1D074F"/>
<path d="M29.921 144.329C31.4237 143.628 31.5766 140.777 30.2625 137.963C28.9484 135.149 26.665 133.437 25.1623 134.139C23.6596 134.84 23.5067 137.69 24.8208 140.505C26.1349 143.319 28.4183 145.031 29.921 144.329Z" fill="#1D074F"/>
<path d="M39.296 139.301C41.4388 143.381 41.5088 147.155 36.0867 152.092C32.2041 155.628 38.4631 161.623 34.6953 162.469C33.4991 162.759 32.0708 161.272 31.4801 160.506C30.4349 159.153 28.9868 158.471 27.2727 158.405C25.9662 158.356 24.731 158.572 23.6112 159.271C22.6545 159.867 21.6778 160.543 20.6335 161.018C18.9904 161.763 12.2587 161.241 8.72353 153.463" stroke="#1D074F" stroke-width="3" stroke-linecap="round" stroke-linejoin="round"/>
</g>
<defs>
<filter id="filter0_d_756_4341" x="156" y="7" width="137.633" height="208.064" filterUnits="userSpaceOnUse" color-interpolation-filters="sRGB">
<feFlood flood-opacity="0" result="BackgroundImageFix"/>
<feColorMatrix in="SourceAlpha" type="matrix" values="0 0 0 0 0 0 0 0 0 0 0 0 0 0 0 0 0 0 127 0" result="hardAlpha"/>
<feOffset dx="3" dy="1"/>
<feGaussianBlur stdDeviation="2"/>
<feColorMatrix type="matrix" values="0 0 0 0 0.6 0 0 0 0 0.6 0 0 0 0 0.6 0 0 0 0.3 0"/>
<feBlend mode="normal" in2="BackgroundImageFix" result="effect1_dropShadow_756_4341"/>
<feBlend mode="normal" in="SourceGraphic" in2="effect1_dropShadow_756_4341" result="shape"/>
</filter>
<filter id="filter1_d_756_4341" x="-5.59375" y="113.36" width="73.7266" height="72.0957" filterUnits="userSpaceOnUse" color-interpolation-filters="sRGB">
<feFlood flood-opacity="0" result="BackgroundImageFix"/>
<feColorMatrix in="SourceAlpha" type="matrix" values="0 0 0 0 0 0 0 0 0 0 0 0 0 0 0 0 0 0 127 0" result="hardAlpha"/>
<feOffset dx="3" dy="1"/>
<feGaussianBlur stdDeviation="2"/>
<feColorMatrix type="matrix" values="0 0 0 0 0.6 0 0 0 0 0.6 0 0 0 0 0.6 0 0 0 0.3 0"/>
<feBlend mode="normal" in2="BackgroundImageFix" result="effect1_dropShadow_756_4341"/>
<feBlend mode="normal" in="SourceGraphic" in2="effect1_dropShadow_756_4341" result="shape"/>
</filter>
<linearGradient id="paint0_linear_756_4341" x1="255.13" y1="112.975" x2="255.13" y2="157.195" gradientUnits="userSpaceOnUse">
<stop offset="0.03" stop-color="#0FD2E2"/>
<stop offset="1" stop-color="#0F8EE2"/>
</linearGradient>
<linearGradient id="paint1_linear_756_4341" x1="168.186" y1="127.151" x2="168.186" y2="205.856" gradientUnits="userSpaceOnUse">
<stop offset="0.01" stop-color="#4AD800"/>
<stop offset="0.27" stop-color="#46D500"/>
<stop offset="0.49" stop-color="#3BCE00"/>
<stop offset="0.71" stop-color="#2AC200"/>
<stop offset="0.91" stop-color="#11B100"/>
<stop offset="1" stop-color="#03A800"/>
</linearGradient>
<linearGradient id="paint2_linear_756_4341" x1="201.681" y1="124.242" x2="201.681" y2="205.856" gradientUnits="userSpaceOnUse">
<stop offset="0.04" stop-color="#FF63BE"/>
<stop offset="0.96" stop-color="#A90EEB"/>
</linearGradient>
<linearGradient id="paint3_linear_756_4341" x1="195.444" y1="115.649" x2="195.444" y2="135.865" gradientUnits="userSpaceOnUse">
<stop stop-color="#A94EFF"/>
<stop offset="0.23" stop-color="#9643E5"/>
<stop offset="0.53" stop-color="#8337C9"/>
<stop offset="0.8" stop-color="#7730B8"/>
<stop offset="1" stop-color="#732EB3"/>
</linearGradient>
<linearGradient id="paint4_linear_756_4341" x1="185.615" y1="113.76" x2="185.615" y2="128.441" gradientUnits="userSpaceOnUse">
<stop offset="0.03" stop-color="#0FD2E2"/>
<stop offset="1" stop-color="#0F8EE2"/>
</linearGradient>
<linearGradient id="paint5_linear_756_4341" x1="198.548" y1="115.35" x2="198.548" y2="128.441" gradientUnits="userSpaceOnUse">
<stop offset="0.03" stop-color="#0FD2E2"/>
<stop offset="1" stop-color="#0F8EE2"/>
</linearGradient>
<linearGradient id="paint6_linear_756_4341" x1="194.742" y1="109.889" x2="194.742" y2="119.305" gradientUnits="userSpaceOnUse">
<stop offset="0.03" stop-color="#0FD2E2"/>
<stop offset="1" stop-color="#0F8EE2"/>
</linearGradient>
<linearGradient id="paint7_linear_756_4341" x1="191.797" y1="14.2302" x2="191.797" y2="114.013" gradientUnits="userSpaceOnUse">
<stop offset="0.03" stop-color="#FDFE0C"/>
<stop offset="0.37" stop-color="#FDE40C"/>
<stop offset="0.71" stop-color="#FDD20C"/>
<stop offset="0.95" stop-color="#FDCC0C"/>
</linearGradient>
<linearGradient id="paint8_linear_756_4341" x1="192.386" y1="74.4588" x2="192.386" y2="113.732" gradientUnits="userSpaceOnUse">
<stop offset="0.04" stop-color="#FF63BE"/>
<stop offset="0.98" stop-color="#FF0FE0"/>
</linearGradient>
<linearGradient id="paint9_linear_756_4341" x1="21.4129" y1="121.174" x2="47.6266" y2="177.309" gradientUnits="userSpaceOnUse">
<stop offset="0.03" stop-color="#0FD2E2"/>
<stop offset="1" stop-color="#0F8EE2"/>
</linearGradient>
<linearGradient id="paint10_linear_756_4341" x1="16.9308" y1="121.588" x2="43.3163" y2="178.092" gradientUnits="userSpaceOnUse">
<stop offset="0.04" stop-color="#FF63BE"/>
<stop offset="0.96" stop-color="#A90EEB"/>
</linearGradient>
<linearGradient id="paint11_linear_756_4341" x1="12.9369" y1="122.816" x2="38.8355" y2="178.276" gradientUnits="userSpaceOnUse">
<stop offset="0.03" stop-color="#FDFE0C"/>
<stop offset="0.37" stop-color="#FDE40C"/>
<stop offset="0.71" stop-color="#FDD20C"/>
<stop offset="0.95" stop-color="#FDCC0C"/>
</linearGradient>
<clipPath id="clip0_756_4341">
<rect width="312" height="176" rx="40" fill="white"/>
</clipPath>
</defs>
</svg>
