<svg width="312" height="176" viewBox="0 0 312 176" fill="none" xmlns="http://www.w3.org/2000/svg">
<g clip-path="url(#clip0_756_4335)">
<rect width="312" height="176" rx="40" fill="white"/>
<path d="M30.58 62.5C31.54 62.5 32.338 62.668 32.974 63.004C33.622 63.34 34.132 63.802 34.504 64.39C34.888 64.966 35.158 65.632 35.314 66.388C35.482 67.144 35.566 67.936 35.566 68.764V69.628C35.566 71.704 35.05 73.306 34.018 74.434C32.986 75.55 31.492 76.108 29.536 76.108C29.068 76.108 28.672 76.096 28.348 76.072C28.024 76.048 27.67 76.012 27.286 75.964V74.488C27.682 74.536 28.048 74.572 28.384 74.596C28.72 74.62 29.128 74.632 29.608 74.632C30.7 74.632 31.564 74.428 32.2 74.02C32.836 73.612 33.292 73.03 33.568 72.274C33.844 71.506 33.982 70.582 33.982 69.502V68.692L34.414 67.09C34.402 68.038 34.216 68.824 33.856 69.448C33.508 70.072 33.022 70.54 32.398 70.852C31.786 71.164 31.078 71.32 30.274 71.32C29.338 71.32 28.546 71.134 27.898 70.762C27.25 70.378 26.758 69.856 26.422 69.196C26.098 68.536 25.936 67.786 25.936 66.946C25.936 66.094 26.11 65.332 26.458 64.66C26.806 63.988 27.322 63.46 28.006 63.076C28.702 62.692 29.56 62.5 30.58 62.5ZM30.58 64.012C29.92 64.012 29.368 64.138 28.924 64.39C28.48 64.642 28.144 64.99 27.916 65.434C27.7 65.866 27.592 66.37 27.592 66.946C27.592 67.522 27.7 68.032 27.916 68.476C28.132 68.92 28.45 69.268 28.87 69.52C29.302 69.76 29.83 69.88 30.454 69.88C31.066 69.88 31.612 69.766 32.092 69.538C32.584 69.31 32.968 68.98 33.244 68.548C33.52 68.104 33.658 67.564 33.658 66.928C33.658 66.4 33.55 65.914 33.334 65.47C33.118 65.026 32.782 64.672 32.326 64.408C31.87 64.144 31.288 64.012 30.58 64.012ZM37.7292 72.886V70.762L43.1832 62.536L44.3892 63.49L39.2952 71.194L39.4572 71.518H47.9532V72.886H37.7292ZM44.5872 76V66.694H46.2072V76H44.5872ZM52.0861 76V63.724L52.8781 64.336H49.1701V62.86H53.8141V76H52.0861ZM57.2867 76V73.804H59.3747V76H57.2867ZM67.3796 76.324C66.3956 76.324 65.5556 76.156 64.8596 75.82C64.1756 75.472 63.6176 75.004 63.1856 74.416C62.7656 73.828 62.4596 73.15 62.2676 72.382C62.0756 71.602 61.9796 70.78 61.9796 69.916V68.944C61.9796 67.732 62.1656 66.64 62.5376 65.668C62.9216 64.696 63.5096 63.928 64.3016 63.364C65.1056 62.788 66.1316 62.5 67.3796 62.5C68.6276 62.5 69.6476 62.788 70.4396 63.364C71.2316 63.928 71.8136 64.696 72.1856 65.668C72.5696 66.64 72.7616 67.732 72.7616 68.944V69.916C72.7616 70.78 72.6656 71.602 72.4736 72.382C72.2816 73.15 71.9696 73.828 71.5376 74.416C71.1176 75.004 70.5656 75.472 69.8816 75.82C69.1976 76.156 68.3636 76.324 67.3796 76.324ZM67.3796 74.74C68.6276 74.74 69.5396 74.32 70.1156 73.48C70.7036 72.628 70.9976 71.284 70.9976 69.448C70.9976 67.528 70.6976 66.154 70.0976 65.326C69.5096 64.498 68.6036 64.084 67.3796 64.084C66.1436 64.084 65.2256 64.498 64.6256 65.326C64.0376 66.154 63.7436 67.516 63.7436 69.412C63.7436 71.26 64.0376 72.61 64.6256 73.462C65.2136 74.314 66.1316 74.74 67.3796 74.74ZM80.7565 76.324C79.7725 76.324 78.9325 76.156 78.2365 75.82C77.5525 75.472 76.9945 75.004 76.5625 74.416C76.1425 73.828 75.8365 73.15 75.6445 72.382C75.4525 71.602 75.3565 70.78 75.3565 69.916V68.944C75.3565 67.732 75.5425 66.64 75.9145 65.668C76.2985 64.696 76.8865 63.928 77.6785 63.364C78.4825 62.788 79.5085 62.5 80.7565 62.5C82.0045 62.5 83.0245 62.788 83.8165 63.364C84.6085 63.928 85.1905 64.696 85.5625 65.668C85.9465 66.64 86.1385 67.732 86.1385 68.944V69.916C86.1385 70.78 86.0425 71.602 85.8505 72.382C85.6585 73.15 85.3465 73.828 84.9145 74.416C84.4945 75.004 83.9425 75.472 83.2585 75.82C82.5745 76.156 81.7405 76.324 80.7565 76.324ZM80.7565 74.74C82.0045 74.74 82.9165 74.32 83.4925 73.48C84.0805 72.628 84.3745 71.284 84.3745 69.448C84.3745 67.528 84.0745 66.154 83.4745 65.326C82.8865 64.498 81.9805 64.084 80.7565 64.084C79.5205 64.084 78.6025 64.498 78.0025 65.326C77.4145 66.154 77.1205 67.516 77.1205 69.412C77.1205 71.26 77.4145 72.61 78.0025 73.462C78.5905 74.314 79.5085 74.74 80.7565 74.74Z" fill="black"/>
<path d="M27.48 45V38.38H28.46V45H27.48ZM25.26 38.58V37.7H30.68V38.58H25.26ZM33.673 45.18C33.2063 45.18 32.7963 45.1 32.443 44.94C32.0896 44.78 31.7896 44.57 31.543 44.31C31.303 44.0433 31.1196 43.7467 30.993 43.42C30.873 43.0933 30.813 42.76 30.813 42.42V42.24C30.813 41.9 30.8763 41.5667 31.003 41.24C31.1296 40.9067 31.3163 40.61 31.563 40.35C31.8096 40.0833 32.1096 39.8733 32.463 39.72C32.8163 39.56 33.2196 39.48 33.673 39.48C34.1263 39.48 34.5296 39.56 34.883 39.72C35.2363 39.8733 35.5363 40.0833 35.783 40.35C36.0296 40.61 36.2163 40.9067 36.343 41.24C36.4696 41.5667 36.533 41.9 36.533 42.24V42.42C36.533 42.76 36.4696 43.0933 36.343 43.42C36.223 43.7467 36.0396 44.0433 35.793 44.31C35.553 44.57 35.2563 44.78 34.903 44.94C34.5496 45.1 34.1396 45.18 33.673 45.18ZM33.673 44.32C34.073 44.32 34.413 44.2333 34.693 44.06C34.9796 43.88 35.1963 43.64 35.343 43.34C35.4963 43.04 35.573 42.7033 35.573 42.33C35.573 41.95 35.4963 41.61 35.343 41.31C35.1896 41.01 34.9696 40.7733 34.683 40.6C34.403 40.4267 34.0663 40.34 33.673 40.34C33.2863 40.34 32.9496 40.4267 32.663 40.6C32.3763 40.7733 32.1563 41.01 32.003 41.31C31.8496 41.61 31.773 41.95 31.773 42.33C31.773 42.7033 31.8463 43.04 31.993 43.34C32.1463 43.64 32.363 43.88 32.643 44.06C32.9296 44.2333 33.273 44.32 33.673 44.32ZM40.0508 45.06C39.6508 45.06 39.3041 45.0033 39.0108 44.89C38.7241 44.7767 38.5008 44.5833 38.3408 44.31C38.1874 44.03 38.1108 43.6533 38.1108 43.18V38.04H39.0308V43.3C39.0308 43.5867 39.1074 43.81 39.2608 43.97C39.4208 44.1233 39.6441 44.2 39.9308 44.2H40.8708V45.06H40.0508ZM37.1908 40.38V39.66H40.8708V40.38H37.1908ZM45.4391 45V43.4H45.2791V41.55C45.2791 41.1833 45.1824 40.9067 44.9891 40.72C44.8024 40.5333 44.5257 40.44 44.1591 40.44C43.9524 40.44 43.7391 40.4433 43.5191 40.45C43.2991 40.4567 43.0891 40.4633 42.8891 40.47C42.6891 40.4767 42.5157 40.4867 42.3691 40.5V39.66C42.5157 39.6467 42.6691 39.6367 42.8291 39.63C42.9957 39.6167 43.1657 39.61 43.3391 39.61C43.5124 39.6033 43.6791 39.6 43.8391 39.6C44.3857 39.6 44.8324 39.6667 45.1791 39.8C45.5257 39.9267 45.7824 40.1367 45.9491 40.43C46.1157 40.7233 46.1991 41.12 46.1991 41.62V45H45.4391ZM43.6891 45.14C43.2891 45.14 42.9424 45.0733 42.6491 44.94C42.3624 44.8 42.1391 44.6 41.9791 44.34C41.8257 44.08 41.7491 43.7667 41.7491 43.4C41.7491 43.02 41.8324 42.7033 41.9991 42.45C42.1724 42.1967 42.4224 42.0067 42.7491 41.88C43.0757 41.7467 43.4691 41.68 43.9291 41.68H45.3791V42.4H43.8891C43.5024 42.4 43.2057 42.4933 42.9991 42.68C42.7924 42.8667 42.6891 43.1067 42.6891 43.4C42.6891 43.6933 42.7924 43.93 42.9991 44.11C43.2057 44.29 43.5024 44.38 43.8891 44.38C44.1157 44.38 44.3324 44.34 44.5391 44.26C44.7457 44.1733 44.9157 44.0333 45.0491 43.84C45.1891 43.64 45.2657 43.3667 45.2791 43.02L45.5391 43.4C45.5057 43.78 45.4124 44.1 45.2591 44.36C45.1124 44.6133 44.9057 44.8067 44.6391 44.94C44.3791 45.0733 44.0624 45.14 43.6891 45.14ZM48.021 45V37.7H48.981V45H48.021ZM47.281 38.46V37.7H48.981V38.46H47.281ZM54.0177 45.04V44.18H56.0577C56.4511 44.18 56.7544 44.07 56.9677 43.85C57.1877 43.6233 57.2977 43.3233 57.2977 42.95C57.2977 42.57 57.1911 42.2733 56.9777 42.06C56.7644 41.84 56.4577 41.73 56.0577 41.73H54.0177V41.09H55.9177C56.3844 41.09 56.7944 41.1467 57.1477 41.26C57.5077 41.3733 57.7877 41.5633 57.9877 41.83C58.1944 42.09 58.2977 42.4467 58.2977 42.9V43.04C58.2977 43.4667 58.2111 43.83 58.0377 44.13C57.8644 44.4233 57.6011 44.65 57.2477 44.81C56.8944 44.9633 56.4511 45.04 55.9177 45.04H54.0177ZM53.2377 45.04V37.66H54.2177V45.04H53.2377ZM54.0177 41.55V40.91H55.7877C56.2011 40.91 56.5044 40.8 56.6977 40.58C56.8977 40.3533 56.9977 40.0667 56.9977 39.72C56.9977 39.3667 56.8977 39.08 56.6977 38.86C56.5044 38.6333 56.2011 38.52 55.7877 38.52H54.0177V37.66H55.6177C56.4177 37.66 57.0144 37.83 57.4077 38.17C57.8011 38.5033 57.9977 38.9867 57.9977 39.62V39.76C57.9977 40.2067 57.8977 40.5633 57.6977 40.83C57.4977 41.09 57.2177 41.2767 56.8577 41.39C56.5044 41.4967 56.0911 41.55 55.6177 41.55H54.0177ZM63.1246 45V43.4H62.9646V41.55C62.9646 41.1833 62.8679 40.9067 62.6746 40.72C62.4879 40.5333 62.2113 40.44 61.8446 40.44C61.6379 40.44 61.4246 40.4433 61.2046 40.45C60.9846 40.4567 60.7746 40.4633 60.5746 40.47C60.3746 40.4767 60.2013 40.4867 60.0546 40.5V39.66C60.2013 39.6467 60.3546 39.6367 60.5146 39.63C60.6813 39.6167 60.8513 39.61 61.0246 39.61C61.1979 39.6033 61.3646 39.6 61.5246 39.6C62.0713 39.6 62.5179 39.6667 62.8646 39.8C63.2113 39.9267 63.4679 40.1367 63.6346 40.43C63.8013 40.7233 63.8846 41.12 63.8846 41.62V45H63.1246ZM61.3746 45.14C60.9746 45.14 60.6279 45.0733 60.3346 44.94C60.0479 44.8 59.8246 44.6 59.6646 44.34C59.5113 44.08 59.4346 43.7667 59.4346 43.4C59.4346 43.02 59.5179 42.7033 59.6846 42.45C59.8579 42.1967 60.1079 42.0067 60.4346 41.88C60.7613 41.7467 61.1546 41.68 61.6146 41.68H63.0646V42.4H61.5746C61.1879 42.4 60.8913 42.4933 60.6846 42.68C60.4779 42.8667 60.3746 43.1067 60.3746 43.4C60.3746 43.6933 60.4779 43.93 60.6846 44.11C60.8913 44.29 61.1879 44.38 61.5746 44.38C61.8013 44.38 62.0179 44.34 62.2246 44.26C62.4313 44.1733 62.6013 44.0333 62.7346 43.84C62.8746 43.64 62.9513 43.3667 62.9646 43.02L63.2246 43.4C63.1913 43.78 63.0979 44.1 62.9446 44.36C62.7979 44.6133 62.5913 44.8067 62.3246 44.94C62.0646 45.0733 61.7479 45.14 61.3746 45.14ZM65.7066 45V37.7H66.6666V45H65.7066ZM64.9666 38.46V37.7H66.6666V38.46H64.9666ZM71.7379 45V43.4H71.5779V41.55C71.5779 41.1833 71.4812 40.9067 71.2879 40.72C71.1012 40.5333 70.8246 40.44 70.4579 40.44C70.2512 40.44 70.0379 40.4433 69.8179 40.45C69.5979 40.4567 69.3879 40.4633 69.1879 40.47C68.9879 40.4767 68.8146 40.4867 68.6679 40.5V39.66C68.8146 39.6467 68.9679 39.6367 69.1279 39.63C69.2946 39.6167 69.4646 39.61 69.6379 39.61C69.8112 39.6033 69.9779 39.6 70.1379 39.6C70.6846 39.6 71.1312 39.6667 71.4779 39.8C71.8246 39.9267 72.0812 40.1367 72.2479 40.43C72.4146 40.7233 72.4979 41.12 72.4979 41.62V45H71.7379ZM69.9879 45.14C69.5879 45.14 69.2412 45.0733 68.9479 44.94C68.6612 44.8 68.4379 44.6 68.2779 44.34C68.1246 44.08 68.0479 43.7667 68.0479 43.4C68.0479 43.02 68.1312 42.7033 68.2979 42.45C68.4712 42.1967 68.7212 42.0067 69.0479 41.88C69.3746 41.7467 69.7679 41.68 70.2279 41.68H71.6779V42.4H70.1879C69.8012 42.4 69.5046 42.4933 69.2979 42.68C69.0912 42.8667 68.9879 43.1067 68.9879 43.4C68.9879 43.6933 69.0912 43.93 69.2979 44.11C69.5046 44.29 69.8012 44.38 70.1879 44.38C70.4146 44.38 70.6312 44.34 70.8379 44.26C71.0446 44.1733 71.2146 44.0333 71.3479 43.84C71.4879 43.64 71.5646 43.3667 71.5779 43.02L71.8379 43.4C71.8046 43.78 71.7112 44.1 71.5579 44.36C71.4112 44.6133 71.2046 44.8067 70.9379 44.94C70.6779 45.0733 70.3612 45.14 69.9879 45.14ZM74.2598 45V39.66H75.0198V41.95H74.8998C74.8998 41.4233 74.9698 40.98 75.1098 40.62C75.2565 40.2533 75.4765 39.9767 75.7698 39.79C76.0632 39.5967 76.4332 39.5 76.8798 39.5H76.9198C77.5932 39.5 78.0898 39.71 78.4098 40.13C78.7365 40.55 78.8998 41.1567 78.8998 41.95V45H77.9398V41.75C77.9398 41.3367 77.8232 41.0067 77.5898 40.76C77.3565 40.5067 77.0365 40.38 76.6298 40.38C76.2098 40.38 75.8698 40.51 75.6098 40.77C75.3498 41.03 75.2198 41.3767 75.2198 41.81V45H74.2598ZM82.9463 45.18C82.4863 45.18 82.0863 45.1 81.7463 44.94C81.413 44.78 81.1363 44.5667 80.9163 44.3C80.6963 44.0267 80.5297 43.7267 80.4163 43.4C80.3097 43.0733 80.2563 42.7467 80.2563 42.42V42.24C80.2563 41.9 80.3097 41.5667 80.4163 41.24C80.5297 40.9133 80.6963 40.62 80.9163 40.36C81.143 40.0933 81.423 39.88 81.7563 39.72C82.0897 39.56 82.4797 39.48 82.9263 39.48C83.373 39.48 83.773 39.5633 84.1263 39.73C84.4863 39.8967 84.773 40.1333 84.9863 40.44C85.2063 40.74 85.3297 41.0967 85.3563 41.51H84.4363C84.3897 41.1767 84.2363 40.9 83.9763 40.68C83.7163 40.4533 83.3663 40.34 82.9263 40.34C82.5463 40.34 82.2297 40.4267 81.9763 40.6C81.723 40.7733 81.533 41.01 81.4063 41.31C81.2797 41.61 81.2163 41.95 81.2163 42.33C81.2163 42.6967 81.2797 43.0333 81.4063 43.34C81.533 43.64 81.723 43.88 81.9763 44.06C82.2363 44.2333 82.5597 44.32 82.9463 44.32C83.2463 44.32 83.5063 44.2667 83.7263 44.16C83.9463 44.0533 84.123 43.91 84.2563 43.73C84.3897 43.55 84.4697 43.3467 84.4963 43.12H85.4163C85.3963 43.54 85.273 43.9033 85.0463 44.21C84.8263 44.5167 84.533 44.7567 84.1663 44.93C83.8063 45.0967 83.3997 45.18 82.9463 45.18ZM88.9908 45.18C88.5241 45.18 88.1208 45.1 87.7808 44.94C87.4408 44.78 87.1641 44.57 86.9508 44.31C86.7374 44.0433 86.5774 43.7467 86.4708 43.42C86.3708 43.0933 86.3208 42.76 86.3208 42.42V42.24C86.3208 41.8933 86.3708 41.5567 86.4708 41.23C86.5774 40.9033 86.7374 40.61 86.9508 40.35C87.1641 40.0833 87.4341 39.8733 87.7608 39.72C88.0941 39.56 88.4841 39.48 88.9308 39.48C89.5108 39.48 89.9874 39.6067 90.3608 39.86C90.7408 40.1067 91.0208 40.4267 91.2008 40.82C91.3874 41.2133 91.4808 41.6333 91.4808 42.08V42.51H86.7408V41.79H90.7808L90.5608 42.18C90.5608 41.8 90.5008 41.4733 90.3808 41.2C90.2608 40.92 90.0808 40.7033 89.8408 40.55C89.6008 40.3967 89.2974 40.32 88.9308 40.32C88.5508 40.32 88.2341 40.4067 87.9808 40.58C87.7341 40.7533 87.5474 40.99 87.4208 41.29C87.3008 41.59 87.2408 41.9367 87.2408 42.33C87.2408 42.71 87.3008 43.0533 87.4208 43.36C87.5474 43.66 87.7408 43.9 88.0008 44.08C88.2608 44.2533 88.5908 44.34 88.9908 44.34C89.4108 44.34 89.7508 44.2467 90.0108 44.06C90.2774 43.8733 90.4374 43.6567 90.4908 43.41H91.3908C91.3174 43.7767 91.1708 44.0933 90.9508 44.36C90.7308 44.6267 90.4541 44.83 90.1208 44.97C89.7874 45.11 89.4108 45.18 88.9908 45.18ZM95.6392 47V37.7H96.4992V47H95.6392ZM104.535 45.18C103.968 45.18 103.455 45.0867 102.995 44.9C102.535 44.7133 102.138 44.45 101.805 44.11C101.478 43.77 101.225 43.37 101.045 42.91C100.865 42.4433 100.775 41.9367 100.775 41.39V41.17C100.775 40.7033 100.855 40.2533 101.015 39.82C101.182 39.38 101.418 38.9867 101.725 38.64C102.038 38.2867 102.418 38.01 102.865 37.81C103.312 37.6033 103.815 37.5 104.375 37.5C104.982 37.5 105.522 37.6167 105.995 37.85C106.468 38.0767 106.848 38.3967 107.135 38.81C107.422 39.2167 107.588 39.69 107.635 40.23H106.635C106.588 39.8233 106.455 39.4867 106.235 39.22C106.015 38.9467 105.742 38.7433 105.415 38.61C105.095 38.47 104.748 38.4 104.375 38.4C103.995 38.4 103.645 38.47 103.325 38.61C103.005 38.7433 102.728 38.9367 102.495 39.19C102.268 39.4433 102.092 39.7467 101.965 40.1C101.838 40.4533 101.775 40.85 101.775 41.29C101.775 41.79 101.842 42.23 101.975 42.61C102.115 42.9833 102.308 43.2967 102.555 43.55C102.802 43.7967 103.092 43.9833 103.425 44.11C103.765 44.2367 104.135 44.3 104.535 44.3C105.102 44.3 105.598 44.1867 106.025 43.96C106.458 43.7267 106.785 43.4267 107.005 43.06L106.645 44.25V42.08H107.565V43.82C107.238 44.2467 106.818 44.58 106.305 44.82C105.792 45.06 105.202 45.18 104.535 45.18ZM104.275 42.28V41.46H108.185V42.28H104.275ZM114.525 45V37.7H115.505V45H114.525ZM109.585 45V37.7H110.565V45H109.585ZM110.365 41.81V40.93H114.725V41.81H110.365ZM119.993 45.18C119.386 45.18 118.869 45.08 118.443 44.88C118.016 44.68 117.689 44.4033 117.463 44.05C117.236 43.6967 117.123 43.2967 117.123 42.85H118.103C118.103 43.07 118.159 43.29 118.273 43.51C118.393 43.73 118.589 43.9133 118.863 44.06C119.143 44.2067 119.519 44.28 119.993 44.28C120.433 44.28 120.793 44.2167 121.073 44.09C121.353 43.9567 121.559 43.7867 121.693 43.58C121.826 43.3667 121.893 43.1367 121.893 42.89C121.893 42.59 121.763 42.3433 121.503 42.15C121.243 41.95 120.863 41.8267 120.363 41.78L119.553 41.71C118.906 41.6567 118.389 41.4567 118.003 41.11C117.616 40.7633 117.423 40.3067 117.423 39.74C117.423 39.2933 117.529 38.9033 117.743 38.57C117.963 38.2367 118.266 37.9767 118.653 37.79C119.039 37.5967 119.489 37.5 120.003 37.5C120.509 37.5 120.956 37.5933 121.343 37.78C121.729 37.9667 122.029 38.23 122.243 38.57C122.463 38.9033 122.573 39.3033 122.573 39.77H121.593C121.593 39.5367 121.536 39.3167 121.423 39.11C121.316 38.9033 121.146 38.7333 120.913 38.6C120.679 38.4667 120.376 38.4 120.003 38.4C119.643 38.4 119.343 38.4633 119.103 38.59C118.869 38.7167 118.693 38.8833 118.573 39.09C118.459 39.29 118.403 39.5067 118.403 39.74C118.403 40.0067 118.506 40.2433 118.713 40.45C118.919 40.6567 119.226 40.7767 119.633 40.81L120.443 40.88C120.943 40.92 121.373 41.0267 121.733 41.2C122.099 41.3667 122.379 41.5933 122.573 41.88C122.773 42.16 122.873 42.4967 122.873 42.89C122.873 43.3367 122.753 43.7333 122.513 44.08C122.273 44.4267 121.936 44.6967 121.503 44.89C121.069 45.0833 120.566 45.18 119.993 45.18Z" fill="black"/>
<path d="M238.49 43.2C237.957 43.2 237.51 43.1067 237.15 42.92C236.797 42.7333 236.513 42.48 236.3 42.16C236.093 41.8333 235.943 41.46 235.85 41.04C235.763 40.62 235.72 40.18 235.72 39.72V39.24C235.72 38.0867 236.007 37.2 236.58 36.58C237.153 35.9533 237.983 35.64 239.07 35.64C239.33 35.64 239.55 35.6467 239.73 35.66C239.91 35.6733 240.107 35.6933 240.32 35.72V36.54C240.1 36.5133 239.897 36.4933 239.71 36.48C239.523 36.4667 239.297 36.46 239.03 36.46C238.423 36.46 237.943 36.5733 237.59 36.8C237.237 37.0267 236.983 37.3533 236.83 37.78C236.677 38.2 236.6 38.71 236.6 39.31V39.76L236.36 40.65C236.367 40.1233 236.467 39.6867 236.66 39.34C236.86 38.9933 237.13 38.7333 237.47 38.56C237.817 38.3867 238.213 38.3 238.66 38.3C239.18 38.3 239.62 38.4067 239.98 38.62C240.34 38.8267 240.61 39.1133 240.79 39.48C240.977 39.8467 241.07 40.2633 241.07 40.73C241.07 41.2033 240.973 41.6267 240.78 42C240.587 42.3733 240.297 42.6667 239.91 42.88C239.53 43.0933 239.057 43.2 238.49 43.2ZM238.49 42.36C238.857 42.36 239.163 42.29 239.41 42.15C239.657 42.01 239.84 41.82 239.96 41.58C240.087 41.3333 240.15 41.05 240.15 40.73C240.15 40.41 240.09 40.1267 239.97 39.88C239.85 39.6333 239.67 39.4433 239.43 39.31C239.197 39.17 238.907 39.1 238.56 39.1C238.22 39.1 237.913 39.1633 237.64 39.29C237.373 39.4167 237.163 39.6033 237.01 39.85C236.857 40.09 236.78 40.3867 236.78 40.74C236.78 41.0333 236.84 41.3033 236.96 41.55C237.08 41.7967 237.267 41.9933 237.52 42.14C237.773 42.2867 238.097 42.36 238.49 42.36ZM247.017 43.18C246.637 43.18 246.287 43.11 245.967 42.97C245.647 42.83 245.367 42.6333 245.127 42.38C244.894 42.1267 244.711 41.8333 244.577 41.5C244.451 41.1667 244.387 40.8067 244.387 40.42V40.24C244.387 39.86 244.451 39.5033 244.577 39.17C244.704 38.8367 244.881 38.5433 245.107 38.29C245.341 38.0367 245.614 37.84 245.927 37.7C246.247 37.5533 246.601 37.48 246.987 37.48C247.394 37.48 247.764 37.5667 248.097 37.74C248.431 37.9067 248.704 38.17 248.917 38.53C249.131 38.89 249.251 39.3567 249.277 39.93L248.877 39.29V35.7H249.837V43H249.077V40.63H249.357C249.331 41.2367 249.204 41.73 248.977 42.11C248.751 42.4833 248.464 42.7567 248.117 42.93C247.777 43.0967 247.411 43.18 247.017 43.18ZM247.147 42.34C247.474 42.34 247.771 42.2667 248.037 42.12C248.304 41.9733 248.517 41.7633 248.677 41.49C248.837 41.21 248.917 40.8833 248.917 40.51V40.05C248.917 39.6833 248.834 39.3733 248.667 39.12C248.507 38.86 248.291 38.6633 248.017 38.53C247.751 38.39 247.457 38.32 247.137 38.32C246.784 38.32 246.471 38.4033 246.197 38.57C245.931 38.7367 245.721 38.97 245.567 39.27C245.421 39.57 245.347 39.9233 245.347 40.33C245.347 40.7367 245.424 41.0933 245.577 41.4C245.731 41.7 245.944 41.9333 246.217 42.1C246.491 42.26 246.801 42.34 247.147 42.34ZM254.912 43V41.4H254.752V39.55C254.752 39.1833 254.655 38.9067 254.462 38.72C254.275 38.5333 253.998 38.44 253.632 38.44C253.425 38.44 253.212 38.4433 252.992 38.45C252.772 38.4567 252.562 38.4633 252.362 38.47C252.162 38.4767 251.988 38.4867 251.842 38.5V37.66C251.988 37.6467 252.142 37.6367 252.302 37.63C252.468 37.6167 252.638 37.61 252.812 37.61C252.985 37.6033 253.152 37.6 253.312 37.6C253.858 37.6 254.305 37.6667 254.652 37.8C254.998 37.9267 255.255 38.1367 255.422 38.43C255.588 38.7233 255.672 39.12 255.672 39.62V43H254.912ZM253.162 43.14C252.762 43.14 252.415 43.0733 252.122 42.94C251.835 42.8 251.612 42.6 251.452 42.34C251.298 42.08 251.222 41.7667 251.222 41.4C251.222 41.02 251.305 40.7033 251.472 40.45C251.645 40.1967 251.895 40.0067 252.222 39.88C252.548 39.7467 252.942 39.68 253.402 39.68H254.852V40.4H253.362C252.975 40.4 252.678 40.4933 252.472 40.68C252.265 40.8667 252.162 41.1067 252.162 41.4C252.162 41.6933 252.265 41.93 252.472 42.11C252.678 42.29 252.975 42.38 253.362 42.38C253.588 42.38 253.805 42.34 254.012 42.26C254.218 42.1733 254.388 42.0333 254.522 41.84C254.662 41.64 254.738 41.3667 254.752 41.02L255.012 41.4C254.978 41.78 254.885 42.1 254.732 42.36C254.585 42.6133 254.378 42.8067 254.112 42.94C253.852 43.0733 253.535 43.14 253.162 43.14ZM257.054 45.08V44.22H257.824C258.051 44.22 258.241 44.19 258.394 44.13C258.554 44.0767 258.684 43.9833 258.784 43.85C258.891 43.7167 258.977 43.54 259.044 43.32L260.724 37.66H261.664L259.884 43.57C259.777 43.9233 259.627 44.21 259.434 44.43C259.241 44.6567 259.004 44.82 258.724 44.92C258.451 45.0267 258.131 45.08 257.764 45.08H257.054ZM258.684 42.88V42.08H259.844V42.88H258.684ZM258.584 42.88L256.674 37.66H257.654L259.484 42.88H258.584ZM264.594 43.16C263.894 43.16 263.35 43.01 262.964 42.71C262.584 42.41 262.387 42 262.374 41.48H263.274C263.287 41.6867 263.39 41.8833 263.584 42.07C263.784 42.25 264.12 42.34 264.594 42.34C265.02 42.34 265.347 42.2567 265.574 42.09C265.8 41.9167 265.914 41.7067 265.914 41.46C265.914 41.24 265.83 41.07 265.664 40.95C265.497 40.8233 265.227 40.74 264.854 40.7L264.274 40.64C263.767 40.5867 263.354 40.4367 263.034 40.19C262.714 39.9367 262.554 39.5833 262.554 39.13C262.554 38.79 262.64 38.5 262.814 38.26C262.987 38.0133 263.227 37.8267 263.534 37.7C263.84 37.5667 264.194 37.5 264.594 37.5C265.194 37.5 265.68 37.6333 266.054 37.9C266.427 38.1667 266.62 38.5633 266.634 39.09H265.734C265.727 38.8767 265.627 38.6967 265.434 38.55C265.247 38.3967 264.967 38.32 264.594 38.32C264.22 38.32 263.937 38.3967 263.744 38.55C263.55 38.7033 263.454 38.8967 263.454 39.13C263.454 39.33 263.52 39.49 263.654 39.61C263.794 39.73 264.02 39.8067 264.334 39.84L264.914 39.9C265.487 39.96 265.947 40.12 266.294 40.38C266.64 40.6333 266.814 40.9933 266.814 41.46C266.814 41.7933 266.717 42.09 266.524 42.35C266.337 42.6033 266.077 42.8033 265.744 42.95C265.41 43.09 265.027 43.16 264.594 43.16ZM270.541 43V35.7H271.501V43H270.541ZM269.801 36.46V35.7H271.501V36.46H269.801ZM275.612 43.18C275.145 43.18 274.742 43.1 274.402 42.94C274.062 42.78 273.785 42.57 273.572 42.31C273.359 42.0433 273.199 41.7467 273.092 41.42C272.992 41.0933 272.942 40.76 272.942 40.42V40.24C272.942 39.8933 272.992 39.5567 273.092 39.23C273.199 38.9033 273.359 38.61 273.572 38.35C273.785 38.0833 274.055 37.8733 274.382 37.72C274.715 37.56 275.105 37.48 275.552 37.48C276.132 37.48 276.609 37.6067 276.982 37.86C277.362 38.1067 277.642 38.4267 277.822 38.82C278.009 39.2133 278.102 39.6333 278.102 40.08V40.51H273.362V39.79H277.402L277.182 40.18C277.182 39.8 277.122 39.4733 277.002 39.2C276.882 38.92 276.702 38.7033 276.462 38.55C276.222 38.3967 275.919 38.32 275.552 38.32C275.172 38.32 274.855 38.4067 274.602 38.58C274.355 38.7533 274.169 38.99 274.042 39.29C273.922 39.59 273.862 39.9367 273.862 40.33C273.862 40.71 273.922 41.0533 274.042 41.36C274.169 41.66 274.362 41.9 274.622 42.08C274.882 42.2533 275.212 42.34 275.612 42.34C276.032 42.34 276.372 42.2467 276.632 42.06C276.899 41.8733 277.059 41.6567 277.112 41.41H278.012C277.939 41.7767 277.792 42.0933 277.572 42.36C277.352 42.6267 277.075 42.83 276.742 42.97C276.409 43.11 276.032 43.18 275.612 43.18ZM279.605 43V37.39C279.605 36.7967 279.762 36.36 280.075 36.08C280.388 35.8 280.848 35.66 281.455 35.66H282.115V36.46H281.295C281.048 36.46 280.858 36.53 280.725 36.67C280.592 36.8033 280.525 36.99 280.525 37.23V43H279.605ZM278.865 38.44V37.72H282.215V38.44H278.865ZM285.412 43.06C285.012 43.06 284.665 43.0033 284.372 42.89C284.085 42.7767 283.862 42.5833 283.702 42.31C283.549 42.03 283.472 41.6533 283.472 41.18V36.04H284.392V41.3C284.392 41.5867 284.469 41.81 284.622 41.97C284.782 42.1233 285.005 42.2 285.292 42.2H286.232V43.06H285.412ZM282.552 38.38V37.66H286.232V38.38H282.552Z" fill="black"/>
<path d="M68.06 144V136.7H69.36L71.52 141.57H71.68L73.83 136.7H75.14V144H74.16V137.77L74.23 137.79L72.16 142.49H70.96L68.88 137.79L68.96 137.77V144H68.06ZM76.7592 146.08V145.22H77.5292C77.7559 145.22 77.9459 145.19 78.0992 145.13C78.2592 145.077 78.3892 144.983 78.4892 144.85C78.5959 144.717 78.6826 144.54 78.7492 144.32L80.4292 138.66H81.3692L79.5892 144.57C79.4826 144.923 79.3326 145.21 79.1392 145.43C78.9459 145.657 78.7092 145.82 78.4292 145.92C78.1559 146.027 77.8359 146.08 77.4692 146.08H76.7592ZM78.3892 143.88V143.08H79.5492V143.88H78.3892ZM78.2892 143.88L76.3792 138.66H77.3592L79.1892 143.88H78.2892ZM87.6834 144.18C87.2434 144.18 86.85 144.083 86.5034 143.89C86.1634 143.697 85.8934 143.417 85.6934 143.05C85.4934 142.677 85.3834 142.23 85.3634 141.71H85.6234V144H84.8634V136.7H85.8234V140.25L85.4834 140.98C85.51 140.4 85.6267 139.927 85.8334 139.56C86.04 139.193 86.31 138.923 86.6434 138.75C86.9834 138.57 87.3567 138.48 87.7634 138.48C88.1434 138.48 88.49 138.553 88.8034 138.7C89.1167 138.84 89.3867 139.037 89.6134 139.29C89.84 139.537 90.0134 139.827 90.1334 140.16C90.2534 140.487 90.3134 140.84 90.3134 141.22V141.4C90.3134 141.78 90.25 142.137 90.1234 142.47C90.0034 142.803 89.8267 143.1 89.5934 143.36C89.36 143.613 89.08 143.813 88.7534 143.96C88.4334 144.107 88.0767 144.18 87.6834 144.18ZM87.5734 143.34C87.9334 143.34 88.2467 143.253 88.5134 143.08C88.78 142.907 88.9867 142.67 89.1334 142.37C89.28 142.063 89.3534 141.71 89.3534 141.31C89.3534 140.91 89.2767 140.56 89.1234 140.26C88.9767 139.96 88.77 139.73 88.5034 139.57C88.2367 139.403 87.9267 139.32 87.5734 139.32C87.2534 139.32 86.9567 139.393 86.6834 139.54C86.41 139.68 86.19 139.887 86.0234 140.16C85.8634 140.427 85.7834 140.75 85.7834 141.13V141.59C85.7834 141.957 85.8667 142.27 86.0334 142.53C86.2 142.79 86.42 142.99 86.6934 143.13C86.9667 143.27 87.26 143.34 87.5734 143.34ZM93.6079 144.16C92.9746 144.16 92.4879 143.953 92.1479 143.54C91.8079 143.127 91.6379 142.53 91.6379 141.75V138.65H92.5979V141.94C92.5979 142.36 92.7112 142.69 92.9379 142.93C93.1646 143.163 93.4712 143.28 93.8579 143.28C94.2579 143.28 94.5846 143.153 94.8379 142.9C95.0912 142.64 95.2179 142.287 95.2179 141.84V138.65H96.1779V144H95.4179V141.71H95.5379C95.5379 142.237 95.4679 142.683 95.3279 143.05C95.1879 143.41 94.9779 143.687 94.6979 143.88C94.4246 144.067 94.0746 144.16 93.6479 144.16H93.6079ZM100.267 144.18C99.8872 144.18 99.5372 144.11 99.2172 143.97C98.8972 143.83 98.6172 143.633 98.3772 143.38C98.1439 143.127 97.9605 142.833 97.8272 142.5C97.7005 142.167 97.6372 141.807 97.6372 141.42V141.24C97.6372 140.86 97.7005 140.503 97.8272 140.17C97.9539 139.837 98.1305 139.543 98.3572 139.29C98.5905 139.037 98.8639 138.84 99.1772 138.7C99.4972 138.553 99.8505 138.48 100.237 138.48C100.644 138.48 101.014 138.567 101.347 138.74C101.681 138.907 101.954 139.17 102.167 139.53C102.381 139.89 102.501 140.357 102.527 140.93L102.127 140.29V136.7H103.087V144H102.327V141.63H102.607C102.581 142.237 102.454 142.73 102.227 143.11C102.001 143.483 101.714 143.757 101.367 143.93C101.027 144.097 100.661 144.18 100.267 144.18ZM100.397 143.34C100.724 143.34 101.021 143.267 101.287 143.12C101.554 142.973 101.767 142.763 101.927 142.49C102.087 142.21 102.167 141.883 102.167 141.51V141.05C102.167 140.683 102.084 140.373 101.917 140.12C101.757 139.86 101.541 139.663 101.267 139.53C101.001 139.39 100.707 139.32 100.387 139.32C100.034 139.32 99.7205 139.403 99.4472 139.57C99.1805 139.737 98.9705 139.97 98.8172 140.27C98.6705 140.57 98.5972 140.923 98.5972 141.33C98.5972 141.737 98.6739 142.093 98.8272 142.4C98.9805 142.7 99.1939 142.933 99.4672 143.1C99.7405 143.26 100.051 143.34 100.397 143.34ZM106.952 146.08C106.705 146.08 106.455 146.07 106.202 146.05C105.955 146.03 105.718 146.003 105.492 145.97V145.16C105.732 145.193 105.982 145.22 106.242 145.24C106.508 145.267 106.758 145.28 106.992 145.28C107.478 145.28 107.865 145.213 108.152 145.08C108.445 144.953 108.655 144.75 108.782 144.47C108.915 144.197 108.982 143.843 108.982 143.41V142.39L109.302 141.63C109.282 142.17 109.168 142.62 108.962 142.98C108.755 143.333 108.485 143.6 108.152 143.78C107.825 143.953 107.462 144.04 107.062 144.04C106.688 144.04 106.345 143.97 106.032 143.83C105.725 143.683 105.458 143.483 105.232 143.23C105.012 142.977 104.838 142.687 104.712 142.36C104.592 142.027 104.532 141.677 104.532 141.31V141.13C104.532 140.757 104.595 140.41 104.722 140.09C104.848 139.763 105.025 139.48 105.252 139.24C105.478 139 105.748 138.813 106.062 138.68C106.382 138.547 106.732 138.48 107.112 138.48C107.558 138.48 107.952 138.577 108.292 138.77C108.632 138.957 108.898 139.233 109.092 139.6C109.292 139.96 109.402 140.403 109.422 140.93L109.142 140.94V138.66H109.902V143.37C109.902 144.01 109.802 144.527 109.602 144.92C109.408 145.32 109.095 145.613 108.662 145.8C108.235 145.987 107.665 146.08 106.952 146.08ZM107.242 143.16C107.562 143.16 107.852 143.09 108.112 142.95C108.378 142.81 108.588 142.61 108.742 142.35C108.902 142.083 108.982 141.767 108.982 141.4V140.94C108.982 140.58 108.898 140.277 108.732 140.03C108.572 139.783 108.362 139.597 108.102 139.47C107.842 139.343 107.558 139.28 107.252 139.28C106.905 139.28 106.598 139.36 106.332 139.52C106.065 139.68 105.858 139.907 105.712 140.2C105.565 140.487 105.492 140.827 105.492 141.22C105.492 141.613 105.565 141.957 105.712 142.25C105.865 142.543 106.072 142.77 106.332 142.93C106.598 143.083 106.902 143.16 107.242 143.16ZM113.95 144.18C113.483 144.18 113.08 144.1 112.74 143.94C112.4 143.78 112.123 143.57 111.91 143.31C111.696 143.043 111.536 142.747 111.43 142.42C111.33 142.093 111.28 141.76 111.28 141.42V141.24C111.28 140.893 111.33 140.557 111.43 140.23C111.536 139.903 111.696 139.61 111.91 139.35C112.123 139.083 112.393 138.873 112.72 138.72C113.053 138.56 113.443 138.48 113.89 138.48C114.47 138.48 114.946 138.607 115.32 138.86C115.7 139.107 115.98 139.427 116.16 139.82C116.346 140.213 116.44 140.633 116.44 141.08V141.51H111.7V140.79H115.74L115.52 141.18C115.52 140.8 115.46 140.473 115.34 140.2C115.22 139.92 115.04 139.703 114.8 139.55C114.56 139.397 114.256 139.32 113.89 139.32C113.51 139.32 113.193 139.407 112.94 139.58C112.693 139.753 112.506 139.99 112.38 140.29C112.26 140.59 112.2 140.937 112.2 141.33C112.2 141.71 112.26 142.053 112.38 142.36C112.506 142.66 112.7 142.9 112.96 143.08C113.22 143.253 113.55 143.34 113.95 143.34C114.37 143.34 114.71 143.247 114.97 143.06C115.236 142.873 115.396 142.657 115.45 142.41H116.35C116.276 142.777 116.13 143.093 115.91 143.36C115.69 143.627 115.413 143.83 115.08 143.97C114.746 144.11 114.37 144.18 113.95 144.18ZM119.883 144.06C119.483 144.06 119.136 144.003 118.843 143.89C118.556 143.777 118.333 143.583 118.173 143.31C118.019 143.03 117.943 142.653 117.943 142.18V137.04H118.863V142.3C118.863 142.587 118.939 142.81 119.093 142.97C119.253 143.123 119.476 143.2 119.763 143.2H120.703V144.06H119.883ZM117.023 139.38V138.66H120.703V139.38H117.023Z" fill="black"/>
<g filter="url(#filter0_d_756_4335)">
<path d="M261.301 95.5923C260.784 94.5971 260.142 93.5393 259.399 92.4399C257.334 89.388 254.869 86.616 252.055 84.1998C251.357 82.1203 250.335 80.0114 249.073 78.0374C245.444 72.3872 239.34 67.2047 232.336 63.8375C223.744 59.7025 213.917 58.6145 204.657 60.7622C199.665 61.92 194.961 63.9793 190.683 66.8736C171.556 79.8147 166.526 105.897 179.467 125.023C180.206 126.116 180.949 127.106 181.685 127.962C183.217 130.131 184.851 132.056 186.547 133.69C187.088 134.899 187.661 136.031 188.259 137.064C188.757 137.924 189.318 138.779 189.916 139.609C190.223 140.036 190.542 140.466 190.854 140.9L191.003 141.121C192.716 143.489 194.646 146.164 196.93 148.533C198.003 151.086 199.322 153.537 200.865 155.818C201.604 156.912 202.343 157.895 203.079 158.751C206.581 163.723 210.405 167.196 214.773 169.363C218.599 171.26 222.737 171.454 225.853 169.879C226.84 169.377 228.034 168.542 229.041 167.17L274.04 204.666C277.462 207.518 281.787 207.935 285.054 205.724C288.321 203.514 289.543 199.344 288.168 195.106L267.021 129.885C267.171 129.82 267.32 129.756 267.483 129.683C269.371 128.866 271.711 127.845 273.207 125.1C274.398 122.913 274.722 120.151 274.12 117.316C273.539 114.578 272.242 111.559 270.486 108.813C268.978 106.462 267.048 104.195 264.75 102.065C263.876 99.9293 262.715 97.7494 261.31 95.5774L261.301 95.5923Z" fill="white"/>
</g>
<path d="M276.337 201.933L215.736 151.44L260.453 121.184L284.785 196.217C286.7 202.124 281.108 205.908 276.337 201.933Z" fill="url(#paint0_linear_756_4335)" stroke="#1D074F" stroke-width="3.35" stroke-linecap="round" stroke-linejoin="round"/>
<path d="M267.592 110.689C263.939 104.99 257.89 100.434 252.253 97.7259C244.401 93.9477 235.329 92.9286 226.838 94.906C222.26 95.9678 217.895 97.8894 214.009 100.519C196.425 112.417 191.815 136.316 203.713 153.901C204.435 154.969 205.129 155.872 205.799 156.644C208.598 160.645 211.968 164.141 216.305 166.291C220.913 168.58 226.479 167.918 227.495 162.109C227.88 159.914 227.664 157.647 228.116 155.471C229.137 150.553 235.703 144.166 240.915 146.627C244.354 148.252 247.281 152.674 249.259 155.72C251.817 159.663 252.986 164.509 255.803 168.305C258.21 171.549 262.451 174.17 266.869 171.088C272.164 167.395 269.465 161.024 265.473 156.337C262.961 153.385 249.537 144.082 249.394 138.072C249.173 128.964 259.451 129.765 264.85 127.126C266.889 126.124 269.023 125.629 270.191 123.475C271.077 121.844 271.15 119.869 270.759 118.052C270.221 115.515 268.991 112.865 267.592 110.689Z" fill="url(#paint1_linear_756_4335)" stroke="#1D074F" stroke-width="3" stroke-miterlimit="10"/>
<path d="M192.692 137.584C192.171 136.868 191.677 136.125 191.234 135.347C188.309 130.289 186.753 124.341 186.364 118.524C185.777 109.83 188.206 101.03 193.199 93.8837C195.887 90.0291 199.294 86.6921 203.18 84.0629C220.765 72.1649 244.665 76.7748 256.563 94.3595C257.285 95.4273 257.865 96.4073 258.333 97.3161C261.006 101.403 262.998 105.831 263.38 110.657C263.648 114.021 262.686 118.016 259.563 119.309C256.763 120.467 253.673 118.91 250.752 118.104C248.259 117.415 245.56 117.279 243.092 118.055C240.624 118.832 238.405 120.591 237.376 122.963C235.45 127.399 236.458 131.23 234.577 135.681C233.218 138.885 230.05 140.466 226.61 139.929C223.395 139.424 218.904 133.223 214.858 137.739C214.075 138.61 214.425 143.347 214.614 144.499C215.102 147.467 215.035 150.552 211.779 151.364C209.327 151.973 205.292 150.788 203.228 149.412C198.881 146.513 195.806 141.833 192.698 137.58L192.692 137.584Z" fill="url(#paint2_linear_756_4335)" stroke="#1D074F" stroke-width="3" stroke-miterlimit="10"/>
<path d="M246.188 79.8981C242.535 74.1994 236.486 69.6428 230.849 66.9349C222.996 63.1567 213.924 62.1376 205.434 64.115C200.856 65.1768 196.491 67.0984 192.605 69.7276C175.02 81.6256 170.411 105.525 182.308 123.11C183.031 124.178 183.725 125.081 184.395 125.853C187.194 129.854 190.563 133.35 194.901 135.5C197.924 137 201.991 137.592 204.353 135.174C206.469 133.006 206.172 129.559 206.511 126.548C206.798 123.977 207.676 121.421 209.315 119.419C210.954 117.416 214.423 115.493 217.01 115.612C223.614 115.897 227.264 121.837 230.62 125.259C232.919 127.609 234.886 130.202 238.065 131.293C241.904 132.611 246.161 130.053 245.854 125.692C245.72 123.793 244.779 122.035 243.635 120.506C242.49 118.978 234.591 108.801 236.403 103.569C237.455 100.536 240.656 97.6974 243.446 96.3347C245.485 95.3325 247.619 94.8376 248.787 92.684C249.673 91.0529 249.746 89.0782 249.355 87.2611C248.817 84.7235 247.586 82.0743 246.188 79.8981Z" fill="url(#paint3_linear_756_4335)" stroke="#1D074F" stroke-width="3" stroke-miterlimit="10"/>
<path d="M202.094 95.7587C204.143 94.3727 203.973 90.5446 201.716 87.2085C199.459 83.8724 195.968 82.2915 193.92 83.6775C191.872 85.0634 192.041 88.8915 194.298 92.2276C196.555 95.5637 200.046 97.1446 202.094 95.7587Z" fill="#1D074F"/>
<path d="M213.909 87.3514C215.957 85.9654 215.788 82.1374 213.531 78.8013C211.273 75.4651 207.783 73.8842 205.734 75.2702C203.686 76.6562 203.855 80.4843 206.113 83.8204C208.37 87.1565 211.86 88.7374 213.909 87.3514Z" fill="#1D074F"/>
<path d="M226.465 81.8951C228.021 90.2933 224.471 99.3275 216.75 104.552C212.358 107.523 207.318 108.787 202.466 108.477C198.846 108.246 195.333 107.151 192.258 105.234" stroke="#1D074F" stroke-width="3" stroke-linecap="round" stroke-linejoin="round"/>
<path d="M190.316 98.7999C190.862 99.158 191.354 99.6265 191.747 100.208C193.308 102.514 192.707 105.656 190.394 107.221C189.314 107.952 188.057 108.204 186.864 108.034" stroke="#1D074F" stroke-width="3" stroke-linecap="round" stroke-linejoin="round"/>
<path d="M222.041 77.3338C222.171 77.9741 222.423 78.605 222.816 79.1864C224.376 81.4927 227.516 82.1038 229.829 80.5391C230.91 79.808 231.611 78.7347 231.897 77.5647" stroke="#1D074F" stroke-width="3" stroke-linecap="round" stroke-linejoin="round"/>
<g filter="url(#filter1_d_756_4335)">
<path d="M183.273 18.1302L183.252 18.0819C182.78 16.9818 182.071 15.3397 181.143 14.0518C181.084 13.8801 181.019 13.7191 180.944 13.5635C180.053 11.7818 177.923 10.8857 174.961 11.0306C172.455 11.154 169.503 12.0072 166.659 13.4347C163.815 14.8621 161.362 16.7135 159.763 18.6508C157.874 20.9422 157.322 23.18 158.212 24.9562C158.255 25.0475 158.309 25.1333 158.368 25.2246C158.781 26.7808 159.736 28.3585 160.38 29.4157C160.584 29.7538 160.777 30.0704 160.869 30.2475C161.69 31.8896 163.6 32.7965 166.24 32.7965C166.439 32.7965 166.643 32.7965 166.852 32.7804C169.358 32.657 172.31 31.8037 175.154 30.3763C181.631 27.1296 185.264 22.1711 183.595 18.8493C183.509 18.683 183.402 18.4308 183.273 18.1249V18.1302Z" fill="white"/>
<path d="M182.153 19.5791C183.366 21.9993 179.91 26.1904 174.431 28.938C168.952 31.6856 163.527 31.9485 162.314 29.5283C161.675 28.2511 158.649 24.2425 160.221 22.4555C161.627 20.8509 166.451 19.4825 169.038 18.1892C171.78 16.8154 175.451 13.601 177.64 13.4936C179.835 13.3863 181.541 18.377 182.148 19.5845L182.153 19.5791Z" fill="url(#paint4_linear_756_4335)" stroke="#1D074F" stroke-width="2.02" stroke-linecap="round" stroke-linejoin="round"/>
<path d="M171.776 23.633C177.255 20.8858 180.712 16.6957 179.498 14.2742C178.284 11.8526 172.858 12.1167 167.379 14.8639C161.9 17.6111 158.443 21.8012 159.657 24.2227C160.872 26.6442 166.297 26.3802 171.776 23.633Z" fill="url(#paint5_linear_756_4335)" stroke="#1D074F" stroke-width="2.02" stroke-linecap="round" stroke-linejoin="round"/>
<path d="M174.521 16.2788C175.031 17.2931 173.083 19.3001 170.175 20.7544C167.266 22.214 164.497 22.5736 163.987 21.5593C163.478 20.5451 165.426 18.5381 168.334 17.0838C171.243 15.6241 174.012 15.2646 174.521 16.2788Z" fill="url(#paint6_linear_756_4335)" stroke="#1D074F" stroke-width="1.99" stroke-linecap="round" stroke-linejoin="round"/>
</g>
<g filter="url(#filter2_d_756_4335)">
<path d="M49.7416 125.994C45.0875 121.242 38.0713 116.965 29.993 113.96C22.2222 111.067 14.3535 109.684 7.81255 110.061C0.0836226 110.522 -5.15748 113.443 -6.96043 118.293C-7.05826 118.545 -7.12815 118.796 -7.18405 119.048C-9.42027 122.598 -10.7341 127.224 -11.6286 130.341C-11.8941 131.277 -12.1736 132.241 -12.3553 132.745C-14.1722 137.594 -12.1177 143.241 -6.58308 148.65C-1.901 153.22 4.9614 157.329 12.7322 160.236C19.6645 162.822 26.5548 164.191 32.6346 164.191C41.5095 164.191 47.729 161.172 49.6997 155.903C49.8674 155.442 50.1609 154.799 50.4963 154.031L50.5662 153.877C51.9079 150.816 53.7389 146.679 54.5355 142.668C54.7591 142.262 54.9408 141.857 55.0946 141.452C56.8416 136.77 54.9408 131.291 49.7556 126.008L49.7416 125.994Z" fill="white"/>
<path d="M45.745 154.422C43.2852 161.033 29.1551 161.871 14.2004 156.281C-0.754337 150.704 -10.8872 140.823 -8.41337 134.212C-7.11357 130.718 -4.83542 117.86 1.37008 117.678C6.91869 117.524 18.0858 124.303 25.1439 126.93C32.6212 129.726 45.2698 131.026 49.3649 135.009C53.4599 139.006 46.9749 151.11 45.745 154.422Z" fill="url(#paint7_linear_756_4335)" stroke="#1D074F" stroke-width="2.02" stroke-linecap="round" stroke-linejoin="round"/>
<path d="M51.1259 139.97C48.666 146.581 34.5359 147.42 19.5812 141.829C4.62652 136.253 -5.50632 126.371 -3.03251 119.76C-0.558695 113.15 13.5574 112.311 28.5121 117.902C43.4668 123.478 53.5997 133.359 51.1259 139.97Z" fill="url(#paint8_linear_756_4335)" stroke="#1D074F" stroke-width="2.02" stroke-linecap="round" stroke-linejoin="round"/>
<path d="M38.5051 134.002C37.4709 136.77 30.2032 136.616 22.2646 133.653C14.326 130.69 8.72152 126.05 9.75577 123.269C10.79 120.501 18.0577 120.655 25.9963 123.618C33.9349 126.581 39.5394 131.221 38.5051 134.002Z" fill="url(#paint9_linear_756_4335)" stroke="#1D074F" stroke-width="1.99" stroke-linecap="round" stroke-linejoin="round"/>
</g>
</g>
<defs>
<filter id="filter0_d_756_4335" x="169.285" y="56.686" width="124.439" height="155.448" filterUnits="userSpaceOnUse" color-interpolation-filters="sRGB">
<feFlood flood-opacity="0" result="BackgroundImageFix"/>
<feColorMatrix in="SourceAlpha" type="matrix" values="0 0 0 0 0 0 0 0 0 0 0 0 0 0 0 0 0 0 127 0" result="hardAlpha"/>
<feOffset dx="1" dy="1"/>
<feGaussianBlur stdDeviation="2"/>
<feColorMatrix type="matrix" values="0 0 0 0 0.6 0 0 0 0 0.6 0 0 0 0 0.6 0 0 0 0.3 0"/>
<feBlend mode="normal" in2="BackgroundImageFix" result="effect1_dropShadow_756_4335"/>
<feBlend mode="normal" in="SourceGraphic" in2="effect1_dropShadow_756_4335" result="shape"/>
</filter>
<filter id="filter1_d_756_4335" x="154.797" y="8.01538" width="34.2031" height="29.781" filterUnits="userSpaceOnUse" color-interpolation-filters="sRGB">
<feFlood flood-opacity="0" result="BackgroundImageFix"/>
<feColorMatrix in="SourceAlpha" type="matrix" values="0 0 0 0 0 0 0 0 0 0 0 0 0 0 0 0 0 0 127 0" result="hardAlpha"/>
<feOffset dx="1" dy="1"/>
<feGaussianBlur stdDeviation="2"/>
<feColorMatrix type="matrix" values="0 0 0 0 0.6 0 0 0 0 0.6 0 0 0 0 0.6 0 0 0 0.3 0"/>
<feBlend mode="normal" in2="BackgroundImageFix" result="effect1_dropShadow_756_4335"/>
<feBlend mode="normal" in="SourceGraphic" in2="effect1_dropShadow_756_4335" result="shape"/>
</filter>
<filter id="filter2_d_756_4335" x="-16" y="107" width="76.7266" height="62.1914" filterUnits="userSpaceOnUse" color-interpolation-filters="sRGB">
<feFlood flood-opacity="0" result="BackgroundImageFix"/>
<feColorMatrix in="SourceAlpha" type="matrix" values="0 0 0 0 0 0 0 0 0 0 0 0 0 0 0 0 0 0 127 0" result="hardAlpha"/>
<feOffset dx="1" dy="1"/>
<feGaussianBlur stdDeviation="2"/>
<feColorMatrix type="matrix" values="0 0 0 0 0.6 0 0 0 0 0.6 0 0 0 0 0.6 0 0 0 0.3 0"/>
<feBlend mode="normal" in2="BackgroundImageFix" result="effect1_dropShadow_756_4335"/>
<feBlend mode="normal" in="SourceGraphic" in2="effect1_dropShadow_756_4335" result="shape"/>
</filter>
<linearGradient id="paint0_linear_756_4335" x1="238.092" y1="136.314" x2="283.063" y2="202.78" gradientUnits="userSpaceOnUse">
<stop offset="0.06" stop-color="#FF63BE"/>
<stop offset="0.11" stop-color="#FF5BC1"/>
<stop offset="0.35" stop-color="#FF3ACE"/>
<stop offset="0.58" stop-color="#FF22D8"/>
<stop offset="0.8" stop-color="#FF13DD"/>
<stop offset="0.98" stop-color="#FF0FE0"/>
</linearGradient>
<linearGradient id="paint1_linear_756_4335" x1="254.879" y1="160.705" x2="237.299" y2="134.722" gradientUnits="userSpaceOnUse">
<stop offset="0.03" stop-color="#0FD2E2"/>
<stop offset="1" stop-color="#0F8EE2"/>
</linearGradient>
<linearGradient id="paint2_linear_756_4335" x1="233.376" y1="128.922" x2="221.042" y2="110.693" gradientUnits="userSpaceOnUse">
<stop offset="0.01" stop-color="#4AD800"/>
<stop offset="0.4" stop-color="#27C000"/>
<stop offset="0.78" stop-color="#0CAE00"/>
<stop offset="1" stop-color="#03A800"/>
</linearGradient>
<linearGradient id="paint3_linear_756_4335" x1="192.706" y1="69.6592" x2="236.955" y2="135.057" gradientUnits="userSpaceOnUse">
<stop offset="0.03" stop-color="#FDFE0C"/>
<stop offset="0.95" stop-color="#FDCC0C"/>
</linearGradient>
<linearGradient id="paint4_linear_756_4335" x1="171.082" y1="13.4883" x2="171.082" y2="31.1865" gradientUnits="userSpaceOnUse">
<stop offset="0.01" stop-color="#4AD800"/>
<stop offset="0.4" stop-color="#27C000"/>
<stop offset="0.78" stop-color="#0CAE00"/>
<stop offset="1" stop-color="#03A800"/>
</linearGradient>
<linearGradient id="paint5_linear_756_4335" x1="169.576" y1="18.3821" x2="169.576" y2="31.6424" gradientUnits="userSpaceOnUse">
<stop offset="0.01" stop-color="#4AD800"/>
<stop offset="0.4" stop-color="#27C000"/>
<stop offset="0.78" stop-color="#0CAE00"/>
<stop offset="1" stop-color="#03A800"/>
</linearGradient>
<linearGradient id="paint6_linear_756_4335" x1="169.252" y1="15.7046" x2="169.252" y2="22.1389" gradientUnits="userSpaceOnUse">
<stop offset="0.01" stop-color="#4AD800"/>
<stop offset="0.4" stop-color="#27C000"/>
<stop offset="0.78" stop-color="#0CAE00"/>
<stop offset="1" stop-color="#03A800"/>
</linearGradient>
<linearGradient id="paint7_linear_756_4335" x1="20.9509" y1="108.398" x2="20.9509" y2="150.704" gradientUnits="userSpaceOnUse">
<stop offset="0.03" stop-color="#FDFE0C"/>
<stop offset="0.95" stop-color="#FDCC0C"/>
</linearGradient>
<linearGradient id="paint8_linear_756_4335" x1="24.0397" y1="114.212" x2="24.0397" y2="145.533" gradientUnits="userSpaceOnUse">
<stop offset="0.03" stop-color="#FDFE0C"/>
<stop offset="0.95" stop-color="#FDCC0C"/>
</linearGradient>
<linearGradient id="paint9_linear_756_4335" x1="24.1235" y1="121.298" x2="24.1235" y2="135.987" gradientUnits="userSpaceOnUse">
<stop offset="0.03" stop-color="#FDFE0C"/>
<stop offset="0.95" stop-color="#FDCC0C"/>
</linearGradient>
<clipPath id="clip0_756_4335">
<rect width="312" height="176" rx="40" fill="white"/>
</clipPath>
</defs>
</svg>
