<svg width="76" height="76" viewBox="0 0 76 76" fill="none" xmlns="http://www.w3.org/2000/svg">
<path d="M37.7673 38.276H35.8953V36.586L41.2253 31.464H32.7753V29.202H44.4493V31.256L39.3013 36.17C42.4993 36.56 44.9173 38.718 44.9173 42.098C44.9173 45.894 42.0573 48.312 38.2353 48.312C34.5433 48.312 31.8913 46.05 31.8913 42.15H34.4133C34.4133 44.594 35.9213 46.024 38.2873 46.024C40.7313 46.024 42.3173 44.464 42.3173 42.046C42.3173 39.784 40.7573 38.276 37.7673 38.276Z" fill="#FDFE0C"/>
<rect x="75.5" y="75.5" width="75" height="75" rx="37.5" transform="rotate(-180 75.5 75.5)" stroke="url(#paint0_linear_585_951)"/>
<rect opacity="0.2" x="0.5" y="0.5" width="75" height="75" rx="37.5" stroke="url(#paint1_linear_585_951)"/>
<defs>
<linearGradient id="paint0_linear_585_951" x1="114" y1="104.543" x2="114" y2="152" gradientUnits="userSpaceOnUse">
<stop offset="0.298065" stop-color="white" stop-opacity="0"/>
<stop offset="1" stop-color="white"/>
</linearGradient>
<linearGradient id="paint1_linear_585_951" x1="38" y1="28.5428" x2="38" y2="76" gradientUnits="userSpaceOnUse">
<stop offset="0.298065" stop-color="white" stop-opacity="0"/>
<stop offset="1" stop-color="white"/>
</linearGradient>
</defs>
</svg>
