<svg width="104" height="104" viewBox="0 0 104 104" fill="none" xmlns="http://www.w3.org/2000/svg">
<path d="M51.7673 52.276H49.8953V50.586L55.2253 45.464H46.7753V43.202H58.4493V45.256L53.3013 50.17C56.4993 50.56 58.9173 52.718 58.9173 56.098C58.9173 59.894 56.0573 62.312 52.2353 62.312C48.5433 62.312 45.8913 60.05 45.8913 56.15H48.4133C48.4133 58.594 49.9213 60.024 52.2873 60.024C54.7313 60.024 56.3173 58.464 56.3173 56.046C56.3173 53.784 54.7573 52.276 51.7673 52.276Z" fill="#FDFE0C"/>
<rect x="1.0755" y="66.8002" width="75" height="75" rx="37.5" transform="rotate(-61.2054 1.0755 66.8002)" stroke="url(#paint0_linear_571_954)"/>
<rect opacity="0.2" x="102.926" y="37.1993" width="75" height="75" rx="37.5" transform="rotate(118.795 102.926 37.1993)" stroke="url(#paint1_linear_571_954)"/>
<defs>
<linearGradient id="paint0_linear_571_954" x1="38.3965" y1="95.5403" x2="38.3965" y2="142.998" gradientUnits="userSpaceOnUse">
<stop offset="0.298065" stop-color="white" stop-opacity="0"/>
<stop offset="1" stop-color="white"/>
</linearGradient>
<linearGradient id="paint1_linear_571_954" x1="141.605" y1="65.5447" x2="141.605" y2="113.002" gradientUnits="userSpaceOnUse">
<stop offset="0.298065" stop-color="white" stop-opacity="0"/>
<stop offset="1" stop-color="white"/>
</linearGradient>
</defs>
</svg>
