<svg width="354" height="76" viewBox="0 0 354 76" fill="none" xmlns="http://www.w3.org/2000/svg">
<path d="M60.1022 45H55.3222V30.54H60.0222C64.3422 30.54 67.2622 33.46 67.2622 37.78C67.2622 42.08 64.3822 45 60.1022 45ZM59.8822 32.34H57.2822V43.18H59.9622C63.1822 43.18 65.2222 41.1 65.2222 37.78C65.2222 34.42 63.1822 32.34 59.8822 32.34ZM68.4738 40.1C68.4738 37.08 70.6338 34.96 73.5738 34.96C76.4938 34.96 78.6538 37.08 78.6538 40.1C78.6538 43.12 76.4938 45.24 73.5738 45.24C70.6338 45.24 68.4738 43.12 68.4738 40.1ZM70.3738 40.1C70.3738 42.14 71.6738 43.56 73.5738 43.56C75.4538 43.56 76.7738 42.14 76.7738 40.1C76.7738 38.06 75.4538 36.64 73.5738 36.64C71.6738 36.64 70.3738 38.06 70.3738 40.1ZM82.0637 45L78.8637 35.22H80.8037L82.4237 40.3C82.6437 41.02 82.8437 41.76 83.0237 42.62C83.1837 41.76 83.4437 40.94 83.6637 40.3L85.3037 35.22H87.2237L88.8437 40.3C89.0037 40.78 89.3237 41.92 89.4837 42.62C89.6437 41.84 89.8237 41.16 90.1037 40.3L91.7437 35.22H93.7037L90.3637 45H88.5837L86.8837 39.76C86.5637 38.78 86.3637 38.02 86.2637 37.48C86.1637 37.96 85.9837 38.6 85.6237 39.78L83.9237 45H82.0637ZM96.8732 45H94.9932V35.22H96.6932L96.8932 36.72C97.5132 35.6 98.7532 34.94 100.133 34.94C102.713 34.94 103.893 36.52 103.893 39.02V45H102.013V39.44C102.013 37.46 101.093 36.66 99.6532 36.66C97.8932 36.66 96.8732 37.92 96.8732 39.82V45ZM108.095 45H106.215V30.28H108.095V45ZM109.901 40.1C109.901 37.08 112.061 34.96 115.001 34.96C117.921 34.96 120.081 37.08 120.081 40.1C120.081 43.12 117.921 45.24 115.001 45.24C112.061 45.24 109.901 43.12 109.901 40.1ZM111.801 40.1C111.801 42.14 113.101 43.56 115.001 43.56C116.881 43.56 118.201 42.14 118.201 40.1C118.201 38.06 116.881 36.64 115.001 36.64C113.101 36.64 111.801 38.06 111.801 40.1ZM124.7 45.24C122.6 45.24 121.36 44.06 121.36 42.28C121.36 40.48 122.7 39.36 125 39.18L128.08 38.94V38.66C128.08 37.02 127.1 36.44 125.78 36.44C124.2 36.44 123.3 37.14 123.3 38.32H121.66C121.66 36.28 123.34 34.94 125.86 34.94C128.28 34.94 129.92 36.22 129.92 38.86V45H128.32L128.12 43.42C127.62 44.54 126.28 45.24 124.7 45.24ZM125.24 43.78C127.02 43.78 128.1 42.62 128.1 40.78V40.26L125.6 40.46C123.94 40.62 123.26 41.26 123.26 42.22C123.26 43.26 124.02 43.78 125.24 43.78ZM136.121 45.24C133.281 45.24 131.561 43.12 131.561 40.14C131.561 37.14 133.301 34.94 136.201 34.94C137.701 34.94 138.961 35.6 139.621 36.8V30.28H141.481V45H139.801L139.641 43.22C139.001 44.56 137.681 45.24 136.121 45.24ZM136.501 43.54C138.421 43.54 139.601 42.12 139.601 40.08C139.601 38.08 138.421 36.64 136.501 36.64C134.581 36.64 133.461 38.08 133.461 40.08C133.461 42.1 134.581 43.54 136.501 43.54ZM147.978 35.22H149.418V33.66C149.418 31.26 150.738 30.28 152.518 30.28C152.878 30.28 153.298 30.3 153.678 30.36V31.98H152.838C151.618 31.98 151.298 32.6 151.298 33.66V35.22H153.618V36.8H151.298V45H149.418V36.8H147.978V35.22ZM154.111 40.1C154.111 37.08 156.271 34.96 159.211 34.96C162.131 34.96 164.291 37.08 164.291 40.1C164.291 43.12 162.131 45.24 159.211 45.24C156.271 45.24 154.111 43.12 154.111 40.1ZM156.011 40.1C156.011 42.14 157.311 43.56 159.211 43.56C161.091 43.56 162.411 42.14 162.411 40.1C162.411 38.06 161.091 36.64 159.211 36.64C157.311 36.64 156.011 38.06 156.011 40.1ZM171.65 35.14V36.86H170.81C169.03 36.86 167.93 37.94 167.93 39.82V45H166.05V35.24H167.81L167.93 36.72C168.33 35.7 169.31 35.02 170.65 35.02C170.99 35.02 171.27 35.06 171.65 35.14ZM179.158 45H177.118L182.398 30.54H184.578L189.878 45H187.818L186.518 41.4H180.438L179.158 45ZM183.238 33.66L181.038 39.7H185.938L183.718 33.66C183.618 33.38 183.518 33.04 183.478 32.82C183.438 33.02 183.338 33.36 183.238 33.66ZM193.038 45H191.158V35.22H192.858L193.058 36.72C193.678 35.6 194.918 34.94 196.298 34.94C198.878 34.94 200.058 36.52 200.058 39.02V45H198.178V39.44C198.178 37.46 197.258 36.66 195.818 36.66C194.058 36.66 193.038 37.92 193.038 39.82V45ZM206.26 45.24C203.42 45.24 201.7 43.12 201.7 40.14C201.7 37.14 203.44 34.94 206.34 34.94C207.84 34.94 209.1 35.6 209.76 36.8V30.28H211.62V45H209.94L209.78 43.22C209.14 44.56 207.82 45.24 206.26 45.24ZM206.64 43.54C208.56 43.54 209.74 42.12 209.74 40.08C209.74 38.08 208.56 36.64 206.64 36.64C204.72 36.64 203.6 38.08 203.6 40.08C203.6 42.1 204.72 43.54 206.64 43.54ZM219.61 35.14V36.86H218.77C216.99 36.86 215.89 37.94 215.89 39.82V45H214.01V35.24H215.77L215.89 36.72C216.29 35.7 217.27 35.02 218.61 35.02C218.95 35.02 219.23 35.06 219.61 35.14ZM220.06 40.1C220.06 37.08 222.22 34.96 225.16 34.96C228.08 34.96 230.24 37.08 230.24 40.1C230.24 43.12 228.08 45.24 225.16 45.24C222.22 45.24 220.06 43.12 220.06 40.1ZM221.96 40.1C221.96 42.14 223.26 43.56 225.16 43.56C227.04 43.56 228.36 42.14 228.36 40.1C228.36 38.06 227.04 36.64 225.16 36.64C223.26 36.64 221.96 38.06 221.96 40.1ZM232.919 32.9C232.239 32.9 231.679 32.34 231.679 31.66C231.679 30.96 232.239 30.42 232.919 30.42C233.599 30.42 234.159 30.96 234.159 31.66C234.159 32.34 233.599 32.9 232.919 32.9ZM231.999 45V35.22H233.879V45H231.999ZM240.207 45.24C237.367 45.24 235.647 43.12 235.647 40.14C235.647 37.14 237.387 34.94 240.287 34.94C241.787 34.94 243.047 35.6 243.707 36.8V30.28H245.567V45H243.887L243.727 43.22C243.087 44.56 241.767 45.24 240.207 45.24ZM240.587 43.54C242.507 43.54 243.687 42.12 243.687 40.08C243.687 38.08 242.507 36.64 240.587 36.64C238.667 36.64 237.547 38.08 237.547 40.08C237.547 42.1 238.667 43.54 240.587 43.54ZM262.818 45L261.678 43.7C260.558 44.7 259.018 45.26 257.198 45.26C254.098 45.26 252.058 43.66 252.058 41.24C252.058 39.46 253.198 38.04 255.598 36.8C254.358 35.38 253.898 34.5 253.898 33.42C253.898 31.6 255.318 30.3 257.358 30.3C259.338 30.3 260.698 31.52 260.698 33.3C260.698 34.74 259.958 35.86 258.098 37.12L261.558 41.06C261.878 40.28 262.058 39.32 262.058 38.24H263.878C263.878 39.88 263.478 41.32 262.778 42.44L265.018 45H262.818ZM255.678 33.4C255.678 34.16 256.018 34.76 257.138 36.04C258.358 35.3 258.938 34.42 258.938 33.34C258.938 32.4 258.338 31.82 257.338 31.82C256.318 31.82 255.678 32.44 255.678 33.4ZM254.018 41.1C254.018 42.68 255.278 43.64 257.378 43.64C258.718 43.64 259.798 43.24 260.598 42.46L256.538 37.86C254.738 38.86 254.018 39.8 254.018 41.1ZM271.583 32.9C270.903 32.9 270.343 32.34 270.343 31.66C270.343 30.96 270.903 30.42 271.583 30.42C272.263 30.42 272.823 30.96 272.823 31.66C272.823 32.34 272.263 32.9 271.583 32.9ZM270.663 45V35.22H272.543V45H270.663ZM288.31 37.76C288.31 42.16 285.43 45.24 281.33 45.24C277.25 45.24 274.41 42.16 274.41 37.76C274.41 33.38 277.27 30.28 281.35 30.28C285.45 30.28 288.31 33.36 288.31 37.76ZM286.25 37.76C286.25 34.4 284.29 32.18 281.35 32.18C278.41 32.18 276.47 34.4 276.47 37.76C276.47 41.12 278.41 43.36 281.35 43.36C284.29 43.36 286.25 41.1 286.25 37.76ZM289.655 34.44C289.655 31.96 291.655 30.28 294.635 30.28C297.395 30.28 299.175 31.82 299.335 34.32H297.355C297.255 32.88 296.235 32.04 294.615 32.04C292.795 32.04 291.615 32.96 291.615 34.38C291.615 35.54 292.275 36.24 293.635 36.56L296.015 37.12C298.375 37.66 299.575 38.94 299.575 40.98C299.575 43.58 297.555 45.24 294.475 45.24C291.535 45.24 289.575 43.7 289.455 41.22H291.455C291.495 42.6 292.655 43.48 294.475 43.48C296.395 43.48 297.615 42.58 297.615 41.14C297.615 40 296.995 39.28 295.615 38.96L293.235 38.42C290.875 37.88 289.655 36.52 289.655 34.44Z" fill="white"/>
<rect x="353.5" y="75.5" width="353" height="75" rx="37.5" transform="rotate(-180 353.5 75.5)" stroke="url(#paint0_linear_496_1805)"/>
<rect opacity="0.2" x="0.5" y="0.5" width="353" height="75" rx="37.5" stroke="url(#paint1_linear_496_1805)"/>
<defs>
<linearGradient id="paint0_linear_496_1805" x1="531" y1="104.543" x2="531" y2="152" gradientUnits="userSpaceOnUse">
<stop offset="0.298065" stop-color="white" stop-opacity="0"/>
<stop offset="1" stop-color="white"/>
</linearGradient>
<linearGradient id="paint1_linear_496_1805" x1="177" y1="28.5428" x2="177" y2="76" gradientUnits="userSpaceOnUse">
<stop offset="0.298065" stop-color="white" stop-opacity="0"/>
<stop offset="1" stop-color="white"/>
</linearGradient>
</defs>
</svg>
